  0
SECTION
  2
HEADER
  9
$ACADVER
  1
AC1015
  9
$ACADMAINTVER
 70
     6
  9
$DWGCODEPAGE
  3
ANSI_1252
  9
$INSBASE
 10
0.0
 20
0.0
 30
0.0
  9
$EXTMIN
 10
0.0
 20
0.0
 30
0.0
  9
$EXTMAX
 10
609.6
 20
304.8
 30
0.0
  9
$LIMMIN
 10
0.0
 20
0.0
  9
$LIMMAX
 10
609.6
 20
304.8
  9
$ORTHOMODE
 70
     0
  9
$REGENMODE
 70
     1
  9
$FILLMODE
 70
     1
  9
$QTEXTMODE
 70
     0
  9
$MIRRTEXT
 70
     1
  9
$LTSCALE
 40
1.0
  9
$ATTMODE
 70
     1
  9
$TEXTSIZE
 40
3.5
  9
$TRACEWID
 40
1.0
  9
$TEXTSTYLE
  7
Standard
  9
$CLAYER
  8
0
  9
$CELTYPE
  6
ByLayer
  9
$CECOLOR
 62
   256
  9
$CELTSCALE
 40
1.0
  9
$DISPSILH
 70
     0
  9
$DIMSCALE
 40
1.0
  9
$DIMASZ
 40
3.302
  9
$DIMEXO
 40
1.0
  9
$DIMDLI
 40
3.75
  9
$DIMRND
 40
0.0
  9
$DIMDLE
 40
0.0
  9
$DIMEXE
 40
1.0
  9
$DIMTP
 40
0.0
  9
$DIMTM
 40
0.0
  9
$DIMTXT
 40
3.5
  9
$DIMCEN
 40
2.5
  9
$DIMTSZ
 40
0.0
  9
$DIMTOL
 70
     0
  9
$DIMLIM
 70
     0
  9
$DIMTIH
 70
     1
  9
$DIMTOH
 70
     1
  9
$DIMSE1
 70
     0
  9
$DIMSE2
 70
     0
  9
$DIMTAD
 70
     1
  9
$DIMZIN
 70
     0
  9
$DIMBLK
  1

  9
$DIMASO
 70
     1
  9
$DIMSHO
 70
     1
  9
$DIMPOST
  1

  9
$DIMAPOST
  1

  9
$DIMALT
 70
     0
  9
$DIMALTD
 70
     3
  9
$DIMALTF
 40
0.0393700787
  9
$DIMLFAC
 40
1.0
  9
$DIMTOFL
 70
     1
  9
$DIMTVP
 40
0.0
  9
$DIMTIX
 70
     0
  9
$DIMSOXD
 70
     0
  9
$DIMSAH
 70
     0
  9
$DIMBLK1
  1

  9
$DIMBLK2
  1

  9
$DIMSTYLE
  2
ISO-25
  9
$DIMCLRD
 70
     0
  9
$DIMCLRE
 70
     0
  9
$DIMCLRT
 70
     0
  9
$DIMTFAC
 40
1.0
  9
$DIMGAP
 40
1.524
  9
$DIMJUST
 70
     0
  9
$DIMSD1
 70
     0
  9
$DIMSD2
 70
     0
  9
$DIMTOLJ
 70
     0
  9
$DIMTZIN
 70
     0
  9
$DIMALTZ
 70
     0
  9
$DIMALTTZ
 70
     0
  9
$DIMUPT
 70
     0
  9
$DIMDEC
 70
     2
  9
$DIMTDEC
 70
     2
  9
$DIMALTU
 70
     2
  9
$DIMALTTD
 70
     3
  9
$DIMTXSTY
  7
Standard
  9
$DIMAUNIT
 70
     0
  9
$DIMADEC
 70
     2
  9
$DIMALTRND
 40
0.0
  9
$DIMAZIN
 70
     0
  9
$DIMDSEP
 70
    44
  9
$DIMATFIT
 70
     3
  9
$DIMFRAC
 70
     0
  9
$DIMLDRBLK
  1

  9
$DIMLUNIT
 70
     2
  9
$DIMLWD
 70
    -2
  9
$DIMLWE
 70
    -2
  9
$DIMTMOVE
 70
     0
  9
$LUNITS
 70
     2
  9
$LUPREC
 70
     2
  9
$SKETCHINC
 40
1.0
  9
$FILLETRAD
 40
10.0
  9
$AUNITS
 70
     0
  9
$AUPREC
 70
     2
  9
$MENU
  1
.
  9
$ELEVATION
 40
0.0
  9
$PELEVATION
 40
0.0
  9
$THICKNESS
 40
0.0
  9
$LIMCHECK
 70
     0
  9
$CHAMFERA
 40
0.0
  9
$CHAMFERB
 40
0.0
  9
$CHAMFERC
 40
0.0
  9
$CHAMFERD
 40
0.0
  9
$SKPOLY
 70
     0
  9
$TDCREATE
 40
2458696.847855717
  9
$TDUCREATE
 40
2458697.056189051
  9
$TDUPDATE
 40
2458696.847856262
  9
$TDUUPDATE
 40
2458697.056189595
  9
$TDINDWG
 40
0.0000000116
  9
$TDUSRTIMER
 40
0.0000000116
  9
$USRTIMER
 70
     1
  9
$ANGBASE
 50
0.0
  9
$ANGDIR
 70
     0
  9
$PDMODE
 70
     0
  9
$PDSIZE
 40
-1.0
  9
$PLINEWID
 40
0.0
  9
$SPLFRAME
 70
     0
  9
$SPLINETYPE
 70
     6
  9
$SPLINESEGS
 70
     8
  9
$HANDSEED
  5
2BD
  9
$SURFTAB1
 70
     6
  9
$SURFTAB2
 70
     6
  9
$SURFTYPE
 70
     6
  9
$SURFU
 70
     6
  9
$SURFV
 70
     6
  9
$UCSBASE
  2

  9
$UCSNAME
  2

  9
$UCSORG
 10
0.0
 20
0.0
 30
0.0
  9
$UCSXDIR
 10
1.0
 20
0.0
 30
0.0
  9
$UCSYDIR
 10
0.0
 20
1.0
 30
0.0
  9
$UCSORTHOREF
  2

  9
$UCSORTHOVIEW
 70
     0
  9
$UCSORGTOP
 10
0.0
 20
0.0
 30
0.0
  9
$UCSORGBOTTOM
 10
0.0
 20
0.0
 30
0.0
  9
$UCSORGLEFT
 10
0.0
 20
0.0
 30
0.0
  9
$UCSORGRIGHT
 10
0.0
 20
0.0
 30
0.0
  9
$UCSORGFRONT
 10
0.0
 20
0.0
 30
0.0
  9
$UCSORGBACK
 10
0.0
 20
0.0
 30
0.0
  9
$PUCSBASE
  2

  9
$PUCSNAME
  2

  9
$PUCSORG
 10
0.0
 20
0.0
 30
0.0
  9
$PUCSXDIR
 10
1.0
 20
0.0
 30
0.0
  9
$PUCSYDIR
 10
0.0
 20
1.0
 30
0.0
  9
$PUCSORTHOREF
  2

  9
$PUCSORTHOVIEW
 70
     0
  9
$PUCSORGTOP
 10
0.0
 20
0.0
 30
0.0
  9
$PUCSORGBOTTOM
 10
0.0
 20
0.0
 30
0.0
  9
$PUCSORGLEFT
 10
0.0
 20
0.0
 30
0.0
  9
$PUCSORGRIGHT
 10
0.0
 20
0.0
 30
0.0
  9
$PUCSORGFRONT
 10
0.0
 20
0.0
 30
0.0
  9
$PUCSORGBACK
 10
0.0
 20
0.0
 30
0.0
  9
$USERI1
 70
     0
  9
$USERI2
 70
     0
  9
$USERI3
 70
     0
  9
$USERI4
 70
     0
  9
$USERI5
 70
     0
  9
$USERR1
 40
0.0
  9
$USERR2
 40
0.0
  9
$USERR3
 40
0.0
  9
$USERR4
 40
0.0
  9
$USERR5
 40
0.0
  9
$WORLDVIEW
 70
     1
  9
$SHADEDGE
 70
     3
  9
$SHADEDIF
 70
    70
  9
$TILEMODE
 70
     1
  9
$MAXACTVP
 70
    64
  9
$PINSBASE
 10
0.0
 20
0.0
 30
0.0
  9
$PLIMCHECK
 70
     0
  9
$PEXTMIN
 10
1.0000000000E+20
 20
1.0000000000E+20
 30
1.0000000000E+20
  9
$PEXTMAX
 10
-1.0000000000E+20
 20
-1.0000000000E+20
 30
-1.0000000000E+20
  9
$PLIMMIN
 10
0.0
 20
0.0
  9
$PLIMMAX
 10
420.0
 20
297.0
  9
$UNITMODE
 70
     0
  9
$VISRETAIN
 70
     1
  9
$PLINEGEN
 70
     0
  9
$PSLTSCALE
 70
     1
  9
$TREEDEPTH
 70
  3020
  9
$CMLSTYLE
  2
Standard
  9
$CMLJUST
 70
     0
  9
$CMLSCALE
 40
20.0
  9
$PROXYGRAPHICS
 70
     1
  9
$MEASUREMENT
 70
     1
  9
$CELWEIGHT
370
    -1
  9
$ENDCAPS
280
     0
  9
$JOINSTYLE
280
     0
  9
$LWDISPLAY
290
     1
  9
$INSUNITS
 70
     4
  9
$HYPERLINKBASE
  1

  9
$STYLESHEET
  1

  9
$XEDIT
290
     1
  9
$CEPSNTYPE
380
     0
  9
$PSTYLEMODE
290
     1
  9
$FINGERPRINTGUID
  2
{894B5DE7-49E1-4535-99B4-3348FEA78EE8}
  9
$VERSIONGUID
  2
{FAEB1C32-E019-11D5-929B-00C0DF256EC4}
  9
$EXTNAMES
290
     1
  9
$PSVPSCALE
 40
0.0
  9
$OLESTARTUP
290
     0
  0
ENDSEC
  0
SECTION
  2
CLASSES
  0
CLASS
  1
ACDBDICTIONARYWDFLT
  2
AcDbDictionaryWithDefault
  3
ObjectDBX Classes
 90
        0
280
     0
281
     0
  0
CLASS
  1
VISUALSTYLE
  2
AcDbVisualStyle
  3
ObjectDBX Classes
 90
     4095
280
     0
281
     0
  0
CLASS
  1
MATERIAL
  2
AcDbMaterial
  3
ObjectDBX Classes
 90
     1153
280
     0
281
     0
  0
CLASS
  1
SCALE
  2
AcDbScale
  3
ObjectDBX Classes
 90
     1153
280
     0
281
     0
  0
CLASS
  1
TABLESTYLE
  2
AcDbTableStyle
  3
ObjectDBX Classes
 90
     4095
280
     0
281
     0
  0
CLASS
  1
MLEADERSTYLE
  2
AcDbMLeaderStyle
  3
ACDB_MLEADERSTYLE_CLASS
 90
     4095
280
     0
281
     0
  0
CLASS
  1
SUN
  2
AcDbSun
  3
SCENEOE
 90
     1153
280
     0
281
     0
  0
CLASS
  1
ACDBPLACEHOLDER
  2
AcDbPlaceHolder
  3
ObjectDBX Classes
 90
        0
280
     0
281
     0
  0
CLASS
  1
LAYOUT
  2
AcDbLayout
  3
ObjectDBX Classes
 90
        0
280
     0
281
     0
  0
ENDSEC
  0
SECTION
  2
TABLES
  0
TABLE
  2
VPORT
  5
8
330
0
100
AcDbSymbolTable
 70
     1
  0
VPORT
  5
29
330
8
100
AcDbSymbolTableRecord
100
AcDbViewportTableRecord
  2
*Active
 70
     0
 10
0.0
 20
0.0
 11
1.0
 21
1.0
 12
304.8
 22
152.4
 13
0.0
 23
0.0
 14
10.0
 24
10.0
 15
10.0
 25
10.0
 16
0.0
 26
0.0
 36
1.0
 17
0.0
 27
0.0
 37
0.0
 40
304.8
 41
2.0
 42
50.0
 43
0.0
 44
0.0
 50
0.0
 51
0.0
 71
     0
 72
  2000
 73
     1
 74
     3
 75
     0
 76
     0
 77
     0
 78
     0
281
     0
 65
     1
110
0.0
120
0.0
130
0.0
111
1.0
121
0.0
131
0.0
112
0.0
122
1.0
132
0.0
 79
     0
146
0.0
  0
ENDTAB
  0
TABLE
  2
LTYPE
  5
5
330
0
100
AcDbSymbolTable
 70
     6
  0
LTYPE
  5
14
330
5
100
AcDbSymbolTableRecord
100
AcDbLinetypeTableRecord
  2
ByBlock
 70
     0
  3

 72
    65
 73
     0
 40
0.0
  0
LTYPE
  5
15
330
5
100
AcDbSymbolTableRecord
100
AcDbLinetypeTableRecord
  2
ByLayer
 70
     0
  3

 72
    65
 73
     0
 40
0.0
  0
LTYPE
  5
16
330
5
100
AcDbSymbolTableRecord
100
AcDbLinetypeTableRecord
  2
Continuous
 70
     0
  3
Solid line
 72
    65
 73
     0
 40
0.0
  0
LTYPE
  5
6E
330
5
100
AcDbSymbolTableRecord
100
AcDbLinetypeTableRecord
  2
HIDDEN
 70
     0
  3
Hidden __ __ __ __ __ __ __ __ __ __ __ __ __ __
 72
    65
 73
     2
 40
1.905
 49
1.27
 74
     0
 49
-0.635
 74
     0
  0
LTYPE
  5
6F
330
5
100
AcDbSymbolTableRecord
100
AcDbLinetypeTableRecord
  2
PHANTOM
 70
     0
  3
Phantom ______  __  __  ______  __  __  ______
 72
    65
 73
     6
 40
12.7
 49
6.35
 74
     0
 49
-1.27
 74
     0
 49
1.27
 74
     0
 49
-1.27
 74
     0
 49
1.27
 74
     0
 49
-1.27
 74
     0
  0
LTYPE
  5
70
330
5
100
AcDbSymbolTableRecord
100
AcDbLinetypeTableRecord
  2
CENTER
 70
     0
  3
Center ____ _ ____ _ ____ _ ____ _ ____ _ ____
 72
    65
 73
     4
 40
10.16
 49
6.35
 74
     0
 49
-1.27
 74
     0
 49
1.27
 74
     0
 49
-1.27
 74
     0
  0
LTYPE
  5
71
330
5
100
AcDbSymbolTableRecord
100
AcDbLinetypeTableRecord
  2
CENTERX2
 70
     0
  3
Center (2x) ________  __  ________  __  _____
 72
    65
 73
     4
 40
20.32
 49
12.7
 74
     0
 49
-2.54
 74
     0
 49
2.54
 74
     0
 49
-2.54
 74
     0
  0
LTYPE
  5
72
330
5
100
AcDbSymbolTableRecord
100
AcDbLinetypeTableRecord
  2
DOT2
 70
     0
  3
Dot (.5x) ........................................
 72
    65
 73
     2
 40
0.635
 49
0.0
 74
     0
 49
-0.635
 74
     0
  0
ENDTAB
  0
TABLE
  2
LAYER
  5
2
330
0
100
AcDbSymbolTable
 70
     1
  0
LAYER
  5
10
330
2
100
AcDbSymbolTableRecord
100
AcDbLayerTableRecord
  2
0
 70
     0
 62
     7
  6
Continuous
370
    -3
390
F
  0
ENDTAB
  0
TABLE
  2
STYLE
  5
3
330
0
100
AcDbSymbolTable
 70
     1
  0
STYLE
  5
11
330
3
100
AcDbSymbolTableRecord
100
AcDbTextStyleTableRecord
  2
Standard
 70
     0
 40
0.0
 41
1.0
 50
0.0
 71
     0
 42
3.5
  3
txt
  4

  0
ENDTAB
  0
TABLE
  2
VIEW
  5
6
330
0
100
AcDbSymbolTable
 70
     0
  0
ENDTAB
  0
TABLE
  2
UCS
  5
7
330
0
100
AcDbSymbolTable
 70
     0
  0
ENDTAB
  0
TABLE
  2
APPID
  5
9
330
0
100
AcDbSymbolTable
 70
     1
  0
APPID
  5
12
330
9
100
AcDbSymbolTableRecord
100
AcDbRegAppTableRecord
  2
ACAD
 70
     0
  0
ENDTAB
  0
TABLE
  2
DIMSTYLE
  5
A
330
0
100
AcDbSymbolTable
 70
     1
100
AcDbDimStyleTable
  0
DIMSTYLE
105
27
330
A
100
AcDbSymbolTableRecord
100
AcDbDimStyleTableRecord
  2
ISO-25
 70
     0
 41
2.5
 42
0.625
 43
3.75
 44
1.25
 73
     0
 74
     0
 77
     1
 78
     8
140
2.5
141
2.5
143
0.0393700787
147
0.625
171
     3
172
     1
178
     0
271
     2
272
     2
274
     3
278
    44
283
     0
284
     8
340
11
  0
ENDTAB
  0
TABLE
  2
BLOCK_RECORD
  5
1
330
0
100
AcDbSymbolTable
 70
     1
  0
BLOCK_RECORD
  5
1F
330
1
100
AcDbSymbolTableRecord
100
AcDbBlockTableRecord
  2
*Model_Space
340
22
  0
BLOCK_RECORD
  5
1B
330
1
100
AcDbSymbolTableRecord
100
AcDbBlockTableRecord
  2
*Paper_Space
340
1E
  0
BLOCK_RECORD
  5
23
330
1
100
AcDbSymbolTableRecord
100
AcDbBlockTableRecord
  2
*Paper_Space0
340
26
  0
ENDTAB
  0
ENDSEC
  0
SECTION
  2
BLOCKS
  0
BLOCK
  5
20
330
1F
100
AcDbEntity
  8
0
100
AcDbBlockBegin
  2
*Model_Space
 70
     0
 10
0.0
 20
0.0
 30
0.0
  3
*Model_Space
  1

  0
ENDBLK
  5
21
330
1F
100
AcDbEntity
  8
0
100
AcDbBlockEnd
  0
BLOCK
  5
1C
330
1B
100
AcDbEntity
 67
     1
  8
0
100
AcDbBlockBegin
  2
*Paper_Space
 70
     0
 10
0.0
 20
0.0
 30
0.0
  3
*Paper_Space
  1

  0
ENDBLK
  5
1D
330
1B
100
AcDbEntity
 67
     1
  8
0
100
AcDbBlockEnd
  0
BLOCK
  5
24
330
23
100
AcDbEntity
  8
0
100
AcDbBlockBegin
  2
*Paper_Space0
 70
     0
 10
0.0
 20
0.0
 30
0.0
  3
*Paper_Space0
  1

  0
ENDBLK
  5
25
330
23
100
AcDbEntity
  8
0
100
AcDbBlockEnd
  0
ENDSEC
  0
SECTION
  2
ENTITIES
  0
LINE
  5
73
330
1F
100
AcDbEntity
  8
0
  6
Continuous
 62
     7
370
    25
100
AcDbLine
 10
351.4329507031
 20
233.0946248161
 30
0.0
 11
351.4329507031
 21
236.2696264076
 31
0.0
  0
LINE
  5
74
330
1F
100
AcDbEntity
  8
0
  6
Continuous
 62
     7
370
    25
100
AcDbLine
 10
316.4329393782
 20
233.0946248161
 30
0.0
 11
351.4329507031
 21
233.0946248161
 31
0.0
  0
LINE
  5
75
330
1F
100
AcDbEntity
  8
0
  6
Continuous
 62
     7
370
    25
100
AcDbLine
 10
316.4329393782
 20
236.2696264076
 30
0.0
 11
316.4329393782
 21
233.0946248161
 31
0.0
  0
LINE
  5
76
330
1F
100
AcDbEntity
  8
0
  6
Continuous
 62
     7
370
    25
100
AcDbLine
 10
258.932949511
 20
233.0946248161
 30
0.0
 11
258.932949511
 21
236.2696264076
 31
0.0
  0
LINE
  5
77
330
1F
100
AcDbEntity
  8
0
  6
Continuous
 62
     7
370
    25
100
AcDbLine
 10
223.9329456367
 20
233.0946248161
 30
0.0
 11
258.932949511
 21
233.0946248161
 31
0.0
  0
LINE
  5
78
330
1F
100
AcDbEntity
  8
0
  6
Continuous
 62
     7
370
    25
100
AcDbLine
 10
223.9329456367
 20
236.2696264076
 30
0.0
 11
223.9329456367
 21
233.0946248161
 31
0.0
  0
LINE
  5
79
330
1F
100
AcDbEntity
  8
0
  6
Continuous
 62
     7
370
    25
100
AcDbLine
 10
166.4329464563
 20
233.0946248161
 30
0.0
 11
166.4329464563
 21
236.2696264076
 31
0.0
  0
LINE
  5
7A
330
1F
100
AcDbEntity
  8
0
  6
Continuous
 62
     7
370
    25
100
AcDbLine
 10
131.4329481699
 20
233.0946248161
 30
0.0
 11
166.4329464563
 21
233.0946248161
 31
0.0
  0
LINE
  5
7B
330
1F
100
AcDbEntity
  8
0
  6
Continuous
 62
     7
370
    25
100
AcDbLine
 10
131.4329481699
 20
236.2696264076
 30
0.0
 11
131.4329481699
 21
233.0946248161
 31
0.0
  0
LINE
  5
7C
330
1F
100
AcDbEntity
  8
0
  6
Continuous
 62
     7
370
    25
100
AcDbLine
 10
73.9329471268
 20
233.0946248161
 30
0.0
 11
73.9329471268
 21
236.2696264076
 31
0.0
  0
LINE
  5
7D
330
1F
100
AcDbEntity
  8
0
  6
Continuous
 62
     7
370
    25
100
AcDbLine
 10
38.9329507031
 20
233.0946248161
 30
0.0
 11
73.9329471268
 21
233.0946248161
 31
0.0
  0
LINE
  5
7E
330
1F
100
AcDbEntity
  8
0
  6
Continuous
 62
     7
370
    25
100
AcDbLine
 10
38.9329507031
 20
236.2696264076
 30
0.0
 11
38.9329507031
 21
233.0946248161
 31
0.0
  0
LINE
  5
7F
330
1F
100
AcDbEntity
  8
0
  6
Continuous
 62
     7
370
    25
100
AcDbLine
 10
6.6079511322
 20
255.0196262213
 30
0.0
 11
9.7829415478
 21
255.0196262213
 31
0.0
  0
LINE
  5
80
330
1F
100
AcDbEntity
  8
0
  6
Continuous
 62
     7
370
    25
100
AcDbLine
 10
6.6079511322
 20
280.0196265938
 30
0.0
 11
6.6079511322
 21
255.0196262213
 31
0.0
  0
LINE
  5
81
330
1F
100
AcDbEntity
  8
0
  6
Continuous
 62
     7
370
    25
100
AcDbLine
 10
9.7829415478
 20
280.0196265938
 30
0.0
 11
6.6079511322
 21
280.0196265938
 31
0.0
  0
LINE
  5
82
330
1F
100
AcDbEntity
  8
0
  6
Continuous
 62
     7
370
    25
100
AcDbLine
 10
38.9329507031
 20
301.944627999
 30
0.0
 11
38.9329507031
 21
298.7696264076
 31
0.0
  0
LINE
  5
83
330
1F
100
AcDbEntity
  8
0
  6
Continuous
 62
     7
370
    25
100
AcDbLine
 10
73.9329471268
 20
301.944627999
 30
0.0
 11
38.9329507031
 21
301.944627999
 31
0.0
  0
LINE
  5
84
330
1F
100
AcDbEntity
  8
0
  6
Continuous
 62
     7
370
    25
100
AcDbLine
 10
73.9329471268
 20
298.7696264076
 30
0.0
 11
73.9329471268
 21
301.944627999
 31
0.0
  0
LINE
  5
85
330
1F
100
AcDbEntity
  8
0
  6
Continuous
 62
     7
370
    25
100
AcDbLine
 10
131.4329481699
 20
301.944627999
 30
0.0
 11
131.4329481699
 21
298.7696264076
 31
0.0
  0
LINE
  5
86
330
1F
100
AcDbEntity
  8
0
  6
Continuous
 62
     7
370
    25
100
AcDbLine
 10
166.4329464563
 20
301.944627999
 30
0.0
 11
131.4329481699
 21
301.944627999
 31
0.0
  0
LINE
  5
87
330
1F
100
AcDbEntity
  8
0
  6
Continuous
 62
     7
370
    25
100
AcDbLine
 10
166.4329464563
 20
298.7696264076
 30
0.0
 11
166.4329464563
 21
301.944627999
 31
0.0
  0
LINE
  5
88
330
1F
100
AcDbEntity
  8
0
  6
Continuous
 62
     7
370
    25
100
AcDbLine
 10
223.9329456367
 20
301.944627999
 30
0.0
 11
223.9329456367
 21
298.7696264076
 31
0.0
  0
LINE
  5
89
330
1F
100
AcDbEntity
  8
0
  6
Continuous
 62
     7
370
    25
100
AcDbLine
 10
258.932949511
 20
301.944627999
 30
0.0
 11
223.9329456367
 21
301.944627999
 31
0.0
  0
LINE
  5
8A
330
1F
100
AcDbEntity
  8
0
  6
Continuous
 62
     7
370
    25
100
AcDbLine
 10
258.932949511
 20
298.7696264076
 30
0.0
 11
258.932949511
 21
301.944627999
 31
0.0
  0
LINE
  5
8B
330
1F
100
AcDbEntity
  8
0
  6
Continuous
 62
     7
370
    25
100
AcDbLine
 10
316.4329393782
 20
301.944627999
 30
0.0
 11
316.4329393782
 21
298.7696264076
 31
0.0
  0
LINE
  5
8C
330
1F
100
AcDbEntity
  8
0
  6
Continuous
 62
     7
370
    25
100
AcDbLine
 10
351.4329507031
 20
301.944627999
 30
0.0
 11
316.4329393782
 21
301.944627999
 31
0.0
  0
LINE
  5
8D
330
1F
100
AcDbEntity
  8
0
  6
Continuous
 62
     7
370
    25
100
AcDbLine
 10
351.4329507031
 20
298.7696264076
 30
0.0
 11
351.4329507031
 21
301.944627999
 31
0.0
  0
LINE
  5
8E
330
1F
100
AcDbEntity
  8
0
  6
Continuous
 62
     7
370
    25
100
AcDbLine
 10
383.7579502739
 20
280.0196265938
 30
0.0
 11
380.5829449572
 21
280.0196265938
 31
0.0
  0
LINE
  5
8F
330
1F
100
AcDbEntity
  8
0
  6
Continuous
 62
     7
370
    25
100
AcDbLine
 10
383.7579502739
 20
255.0196262213
 30
0.0
 11
383.7579502739
 21
280.0196265938
 31
0.0
  0
LINE
  5
90
330
1F
100
AcDbEntity
  8
0
  6
Continuous
 62
     7
370
    25
100
AcDbLine
 10
380.5829449572
 20
255.0196262213
 30
0.0
 11
383.7579502739
 21
255.0196262213
 31
0.0
  0
CIRCLE
  5
91
330
1F
100
AcDbEntity
  8
0
  6
Continuous
 62
     7
370
    25
100
AcDbCircle
 10
225.5829467453
 20
267.5196264076
 30
0.0
 40
6.0
  0
CIRCLE
  5
92
330
1F
100
AcDbEntity
  8
0
  6
Continuous
 62
     7
370
    25
100
AcDbCircle
 10
225.5829467453
 20
285.7696264076
 30
0.0
 40
2.499999999999943
  0
CIRCLE
  5
93
330
1F
100
AcDbEntity
  8
0
  6
Continuous
 62
     7
370
    25
100
AcDbCircle
 10
225.5829467453
 20
249.2696264076
 30
0.0
 40
2.5
  0
LINE
  5
94
330
1F
100
AcDbEntity
  8
0
  6
Continuous
 62
     7
370
    25
100
AcDbLine
 10
177.0829467584
 20
253.5196259754
 30
0.0
 11
167.0829462834
 21
253.5196259754
 31
0.0
  0
ARC
  5
95
330
1F
100
AcDbEntity
  8
0
  6
Continuous
 62
     7
370
    25
100
AcDbCircle
 10
167.0829467453
 20
252.0196264076
 30
0.0
 40
1.5
100
AcDbArc
 50
90.0
 51
270.0
  0
LINE
  5
96
330
1F
100
AcDbEntity
  8
0
  6
Continuous
 62
     7
370
    25
100
AcDbLine
 10
167.0829462834
 20
250.5196254837
 30
0.0
 11
177.0829467584
 21
250.5196254837
 31
0.0
  0
ARC
  5
97
330
1F
100
AcDbEntity
  8
0
  6
Continuous
 62
     7
370
    25
100
AcDbCircle
 10
177.0829467453
 20
252.0196264076
 30
0.0
 40
1.5
100
AcDbArc
 50
270.0
 51
90.0
  0
LINE
  5
98
330
1F
100
AcDbEntity
  8
0
  6
Continuous
 62
     7
370
    25
100
AcDbLine
 10
198.0829476394
 20
281.5196268397
 30
0.0
 11
208.0829455533
 21
281.5196268397
 31
0.0
  0
ARC
  5
99
330
1F
100
AcDbEntity
  8
0
  6
Continuous
 62
     7
370
    25
100
AcDbCircle
 10
208.0829467453
 20
283.0196264076
 30
0.0
 40
1.5
100
AcDbArc
 50
270.0
 51
90.0
  0
LINE
  5
9A
330
1F
100
AcDbEntity
  8
0
  6
Continuous
 62
     7
370
    25
100
AcDbLine
 10
208.0829455533
 20
284.5196273314
 30
0.0
 11
198.0829476394
 21
284.5196273314
 31
0.0
  0
ARC
  5
9B
330
1F
100
AcDbEntity
  8
0
  6
Continuous
 62
     7
370
    25
100
AcDbCircle
 10
198.0829467453
 20
283.0196264076
 30
0.0
 40
1.5
100
AcDbArc
 50
90.0
 51
270.0
  0
LINE
  5
9C
330
1F
100
AcDbEntity
  8
0
  6
Continuous
 62
     7
370
    25
100
AcDbLine
 10
177.0829467584
 20
284.5196273314
 30
0.0
 11
167.0829462834
 21
284.5196273314
 31
0.0
  0
ARC
  5
9D
330
1F
100
AcDbEntity
  8
0
  6
Continuous
 62
     7
370
    25
100
AcDbCircle
 10
167.0829467453
 20
283.0196264076
 30
0.0
 40
1.5
100
AcDbArc
 50
90.0
 51
270.0
  0
LINE
  5
9E
330
1F
100
AcDbEntity
  8
0
  6
Continuous
 62
     7
370
    25
100
AcDbLine
 10
167.0829462834
 20
281.5196268397
 30
0.0
 11
177.0829467584
 21
281.5196268397
 31
0.0
  0
ARC
  5
9F
330
1F
100
AcDbEntity
  8
0
  6
Continuous
 62
     7
370
    25
100
AcDbCircle
 10
177.0829467453
 20
283.0196264076
 30
0.0
 40
1.5
100
AcDbArc
 50
270.0
 51
90.0
  0
LINE
  5
A0
330
1F
100
AcDbEntity
  8
0
  6
Continuous
 62
     7
370
    25
100
AcDbLine
 10
198.0829476394
 20
250.5196254837
 30
0.0
 11
208.0829455533
 21
250.5196254837
 31
0.0
  0
ARC
  5
A1
330
1F
100
AcDbEntity
  8
0
  6
Continuous
 62
     7
370
    25
100
AcDbCircle
 10
208.0829467453
 20
252.0196264076
 30
0.0
 40
1.5
100
AcDbArc
 50
270.0
 51
90.0
  0
LINE
  5
A2
330
1F
100
AcDbEntity
  8
0
  6
Continuous
 62
     7
370
    25
100
AcDbLine
 10
208.0829455533
 20
253.5196259754
 30
0.0
 11
198.0829476394
 21
253.5196259754
 31
0.0
  0
ARC
  5
A3
330
1F
100
AcDbEntity
  8
0
  6
Continuous
 62
     7
370
    25
100
AcDbCircle
 10
198.0829467453
 20
252.0196264076
 30
0.0
 40
1.5
100
AcDbArc
 50
90.0
 51
270.0
  0
LINE
  5
A4
330
1F
100
AcDbEntity
  8
0
  6
Continuous
 62
     7
370
    25
100
AcDbLine
 10
192.5829476692
 20
278.519626348
 30
0.0
 11
182.5829469614
 21
278.519626348
 31
0.0
  0
ARC
  5
A5
330
1F
100
AcDbEntity
  8
0
  6
Continuous
 62
     7
370
    25
100
AcDbCircle
 10
182.5829467453
 20
267.5196264076
 30
0.0
 40
11.0
100
AcDbArc
 50
90.0
 51
270.0
  0
LINE
  5
A6
330
1F
100
AcDbEntity
  8
0
  6
Continuous
 62
     7
370
    25
100
AcDbLine
 10
182.5829469614
 20
256.5196264672
 30
0.0
 11
192.5829476692
 21
256.5196264672
 31
0.0
  0
ARC
  5
A7
330
1F
100
AcDbEntity
  8
0
  6
Continuous
 62
     7
370
    25
100
AcDbCircle
 10
192.5829467453
 20
267.5196264076
 30
0.0
 40
11.0
100
AcDbArc
 50
270.0
 51
90.0
  0
LINE
  5
A8
330
1F
100
AcDbEntity
  8
0
  6
Continuous
 62
     7
370
    25
100
AcDbLine
 10
12.7829476275
 20
266.0196263945
 30
0.0
 11
14.2829432168
 21
266.0196263945
 31
0.0
  0
LINE
  5
A9
330
1F
100
AcDbEntity
  8
0
  6
Continuous
 62
     7
370
    25
100
AcDbLine
 10
14.2829432168
 20
266.0196263945
 30
0.0
 11
14.2829432168
 21
269.0196264206
 31
0.0
  0
LINE
  5
AA
330
1F
100
AcDbEntity
  8
0
  6
Continuous
 62
     7
370
    25
100
AcDbLine
 10
14.2829432168
 20
269.0196264206
 30
0.0
 11
12.7829476275
 21
269.0196264206
 31
0.0
  0
LINE
  5
AB
330
1F
100
AcDbEntity
  8
0
  6
Continuous
 62
     7
370
    25
100
AcDbLine
 10
12.7829476275
 20
269.0196264206
 30
0.0
 11
12.7829476275
 21
266.0196263945
 31
0.0
  0
LINE
  5
AC
330
1F
100
AcDbEntity
  8
0
  6
Continuous
 62
     7
370
    25
100
AcDbLine
 10
376.0829432883
 20
266.0196263945
 30
0.0
 11
377.5829537787
 21
266.0196263945
 31
0.0
  0
LINE
  5
AD
330
1F
100
AcDbEntity
  8
0
  6
Continuous
 62
     7
370
    25
100
AcDbLine
 10
377.5829537787
 20
266.0196263945
 30
0.0
 11
377.5829537787
 21
269.0196264206
 31
0.0
  0
LINE
  5
AE
330
1F
100
AcDbEntity
  8
0
  6
Continuous
 62
     7
370
    25
100
AcDbLine
 10
377.5829537787
 20
269.0196264206
 30
0.0
 11
376.0829432883
 21
269.0196264206
 31
0.0
  0
LINE
  5
AF
330
1F
100
AcDbEntity
  8
0
  6
Continuous
 62
     7
370
    25
100
AcDbLine
 10
376.0829432883
 20
269.0196264206
 30
0.0
 11
376.0829432883
 21
266.0196263945
 31
0.0
  0
CIRCLE
  5
B0
330
1F
100
AcDbEntity
  8
0
  6
Continuous
 62
     7
370
    25
100
AcDbCircle
 10
318.0829467453
 20
287.5196264076
 30
0.0
 40
3.0
  0
CIRCLE
  5
B1
330
1F
100
AcDbEntity
  8
0
  6
Continuous
 62
     7
370
    25
100
AcDbCircle
 10
302.0829467453
 20
287.5196264076
 30
0.0
 40
2.5
  0
CIRCLE
  5
B2
330
1F
100
AcDbEntity
  8
0
  6
Continuous
 62
     7
370
    25
100
AcDbCircle
 10
318.0829467453
 20
247.5196264076
 30
0.0
 40
3.0
  0
CIRCLE
  5
B3
330
1F
100
AcDbEntity
  8
0
  6
Continuous
 62
     7
370
    25
100
AcDbCircle
 10
334.0829467453
 20
287.5196264076
 30
0.0
 40
2.5
  0
CIRCLE
  5
B4
330
1F
100
AcDbEntity
  8
0
  6
Continuous
 62
     7
370
    25
100
AcDbCircle
 10
302.0829467453
 20
247.5196264076
 30
0.0
 40
2.5
  0
CIRCLE
  5
B5
330
1F
100
AcDbEntity
  8
0
  6
Continuous
 62
     7
370
    25
100
AcDbCircle
 10
334.0829467453
 20
247.5196264076
 30
0.0
 40
2.5
  0
CIRCLE
  5
B6
330
1F
100
AcDbEntity
  8
0
  6
Continuous
 62
     7
370
    25
100
AcDbCircle
 10
318.0829467453
 20
267.5196264076
 30
0.0
 40
5.0
  0
CIRCLE
  5
B7
330
1F
100
AcDbEntity
  8
0
  6
Continuous
 62
     7
370
    25
100
AcDbCircle
 10
75.1829467453
 20
267.5196264076
 30
0.0
 40
6.0
  0
CIRCLE
  5
B8
330
1F
100
AcDbEntity
  8
0
  6
Continuous
 62
     7
370
    25
100
AcDbCircle
 10
75.1829467453
 20
285.7696264076
 30
0.0
 40
2.5
  0
CIRCLE
  5
B9
330
1F
100
AcDbEntity
  8
0
  6
Continuous
 62
     7
370
    25
100
AcDbCircle
 10
75.1829467453
 20
249.2696264076
 30
0.0
 40
2.5
  0
LINE
  5
BA
330
1F
100
AcDbEntity
  8
0
  6
Continuous
 62
     7
370
    25
100
AcDbLine
 10
54.9329458751
 20
239.2696268993
 30
0.0
 11
57.9329445042
 21
239.2696268993
 31
0.0
  0
LINE
  5
BB
330
1F
100
AcDbEntity
  8
0
  6
Continuous
 62
     7
370
    25
100
AcDbLine
 10
57.9329445042
 20
239.2696268993
 30
0.0
 11
57.9329445042
 21
240.7696262139
 31
0.0
  0
LINE
  5
BC
330
1F
100
AcDbEntity
  8
0
  6
Continuous
 62
     7
370
    25
100
AcDbLine
 10
57.9329445042
 20
240.7696262139
 30
0.0
 11
54.9329458751
 21
240.7696262139
 31
0.0
  0
LINE
  5
BD
330
1F
100
AcDbEntity
  8
0
  6
Continuous
 62
     7
370
    25
100
AcDbLine
 10
54.9329458751
 20
240.7696262139
 30
0.0
 11
54.9329458751
 21
239.2696268993
 31
0.0
  0
LINE
  5
BE
330
1F
100
AcDbEntity
  8
0
  6
Continuous
 62
     7
370
    25
100
AcDbLine
 10
57.9329445042
 20
295.7696259158
 30
0.0
 11
54.9329458751
 21
295.7696259158
 31
0.0
  0
LINE
  5
BF
330
1F
100
AcDbEntity
  8
0
  6
Continuous
 62
     7
370
    25
100
AcDbLine
 10
54.9329458751
 20
295.7696259158
 30
0.0
 11
54.9329458751
 21
294.2696266013
 31
0.0
  0
LINE
  5
C0
330
1F
100
AcDbEntity
  8
0
  6
Continuous
 62
     7
370
    25
100
AcDbLine
 10
54.9329458751
 20
294.2696266013
 30
0.0
 11
57.9329445042
 21
294.2696266013
 31
0.0
  0
LINE
  5
C1
330
1F
100
AcDbEntity
  8
0
  6
Continuous
 62
     7
370
    25
100
AcDbLine
 10
57.9329445042
 20
294.2696266013
 30
0.0
 11
57.9329445042
 21
295.7696259158
 31
0.0
  0
LINE
  5
C2
330
1F
100
AcDbEntity
  8
0
  6
Continuous
 62
     7
370
    25
100
AcDbLine
 10
150.432947559
 20
295.7696259158
 30
0.0
 11
147.4329470672
 21
295.7696259158
 31
0.0
  0
LINE
  5
C3
330
1F
100
AcDbEntity
  8
0
  6
Continuous
 62
     7
370
    25
100
AcDbLine
 10
147.4329470672
 20
295.7696259158
 30
0.0
 11
147.4329470672
 21
294.2696266013
 31
0.0
  0
LINE
  5
C4
330
1F
100
AcDbEntity
  8
0
  6
Continuous
 62
     7
370
    25
100
AcDbLine
 10
147.4329470672
 20
294.2696266013
 30
0.0
 11
150.432947559
 21
294.2696266013
 31
0.0
  0
LINE
  5
C5
330
1F
100
AcDbEntity
  8
0
  6
Continuous
 62
     7
370
    25
100
AcDbLine
 10
150.432947559
 20
294.2696266013
 30
0.0
 11
150.432947559
 21
295.7696259158
 31
0.0
  0
LINE
  5
C6
330
1F
100
AcDbEntity
  8
0
  6
Continuous
 62
     7
370
    25
100
AcDbLine
 10
239.9329482593
 20
294.2696266013
 30
0.0
 11
242.9329468884
 21
294.2696266013
 31
0.0
  0
LINE
  5
C7
330
1F
100
AcDbEntity
  8
0
  6
Continuous
 62
     7
370
    25
100
AcDbLine
 10
242.9329468884
 20
294.2696266013
 30
0.0
 11
242.9329468884
 21
295.7696259158
 31
0.0
  0
LINE
  5
C8
330
1F
100
AcDbEntity
  8
0
  6
Continuous
 62
     7
370
    25
100
AcDbLine
 10
242.9329468884
 20
295.7696259158
 30
0.0
 11
239.9329482593
 21
295.7696259158
 31
0.0
  0
LINE
  5
C9
330
1F
100
AcDbEntity
  8
0
  6
Continuous
 62
     7
370
    25
100
AcDbLine
 10
239.9329482593
 20
295.7696259158
 30
0.0
 11
239.9329482593
 21
294.2696266013
 31
0.0
  0
LINE
  5
CA
330
1F
100
AcDbEntity
  8
0
  6
Continuous
 62
     7
370
    25
100
AcDbLine
 10
332.4329420008
 20
294.2696266013
 30
0.0
 11
335.4329480805
 21
294.2696266013
 31
0.0
  0
LINE
  5
CB
330
1F
100
AcDbEntity
  8
0
  6
Continuous
 62
     7
370
    25
100
AcDbLine
 10
335.4329480805
 20
294.2696266013
 30
0.0
 11
335.4329480805
 21
295.7696259158
 31
0.0
  0
LINE
  5
CC
330
1F
100
AcDbEntity
  8
0
  6
Continuous
 62
     7
370
    25
100
AcDbLine
 10
335.4329480805
 20
295.7696259158
 30
0.0
 11
332.4329420008
 21
295.7696259158
 31
0.0
  0
LINE
  5
CD
330
1F
100
AcDbEntity
  8
0
  6
Continuous
 62
     7
370
    25
100
AcDbLine
 10
332.4329420008
 20
295.7696259158
 30
0.0
 11
332.4329420008
 21
294.2696266013
 31
0.0
  0
LINE
  5
CE
330
1F
100
AcDbEntity
  8
0
  6
Continuous
 62
     7
370
    25
100
AcDbLine
 10
332.4329420008
 20
239.2696268993
 30
0.0
 11
335.4329480805
 21
239.2696268993
 31
0.0
  0
LINE
  5
CF
330
1F
100
AcDbEntity
  8
0
  6
Continuous
 62
     7
370
    25
100
AcDbLine
 10
335.4329480805
 20
239.2696268993
 30
0.0
 11
335.4329480805
 21
240.7696262139
 31
0.0
  0
LINE
  5
D0
330
1F
100
AcDbEntity
  8
0
  6
Continuous
 62
     7
370
    25
100
AcDbLine
 10
335.4329480805
 20
240.7696262139
 30
0.0
 11
332.4329420008
 21
240.7696262139
 31
0.0
  0
LINE
  5
D1
330
1F
100
AcDbEntity
  8
0
  6
Continuous
 62
     7
370
    25
100
AcDbLine
 10
332.4329420008
 20
240.7696262139
 30
0.0
 11
332.4329420008
 21
239.2696268993
 31
0.0
  0
LINE
  5
D2
330
1F
100
AcDbEntity
  8
0
  6
Continuous
 62
     7
370
    25
100
AcDbLine
 10
239.9329482593
 20
239.2696268993
 30
0.0
 11
242.9329468884
 21
239.2696268993
 31
0.0
  0
LINE
  5
D3
330
1F
100
AcDbEntity
  8
0
  6
Continuous
 62
     7
370
    25
100
AcDbLine
 10
242.9329468884
 20
239.2696268993
 30
0.0
 11
242.9329468884
 21
240.7696262139
 31
0.0
  0
LINE
  5
D4
330
1F
100
AcDbEntity
  8
0
  6
Continuous
 62
     7
370
    25
100
AcDbLine
 10
242.9329468884
 20
240.7696262139
 30
0.0
 11
239.9329482593
 21
240.7696262139
 31
0.0
  0
LINE
  5
D5
330
1F
100
AcDbEntity
  8
0
  6
Continuous
 62
     7
370
    25
100
AcDbLine
 10
239.9329482593
 20
240.7696262139
 30
0.0
 11
239.9329482593
 21
239.2696268993
 31
0.0
  0
LINE
  5
D6
330
1F
100
AcDbEntity
  8
0
  6
Continuous
 62
     7
370
    25
100
AcDbLine
 10
147.4329470672
 20
239.2696268993
 30
0.0
 11
150.432947559
 21
239.2696268993
 31
0.0
  0
LINE
  5
D7
330
1F
100
AcDbEntity
  8
0
  6
Continuous
 62
     7
370
    25
100
AcDbLine
 10
150.432947559
 20
239.2696268993
 30
0.0
 11
150.432947559
 21
240.7696262139
 31
0.0
  0
LINE
  5
D8
330
1F
100
AcDbEntity
  8
0
  6
Continuous
 62
     7
370
    25
100
AcDbLine
 10
150.432947559
 20
240.7696262139
 30
0.0
 11
147.4329470672
 21
240.7696262139
 31
0.0
  0
LINE
  5
D9
330
1F
100
AcDbEntity
  8
0
  6
Continuous
 62
     7
370
    25
100
AcDbLine
 10
147.4329470672
 20
240.7696262139
 30
0.0
 11
147.4329470672
 21
239.2696268993
 31
0.0
  0
LINE
  5
DA
330
1F
100
AcDbEntity
  8
0
  6
Continuous
 62
     7
370
    25
100
AcDbLine
 10
113.6829457261
 20
264.5196263815
 30
0.0
 11
116.6829480805
 21
264.5196263815
 31
0.0
  0
LINE
  5
DB
330
1F
100
AcDbEntity
  8
0
  6
Continuous
 62
     7
370
    25
100
AcDbLine
 10
116.6829480805
 20
264.5196263815
 30
0.0
 11
116.6829480805
 21
270.5196264337
 31
0.0
  0
LINE
  5
DC
330
1F
100
AcDbEntity
  8
0
  6
Continuous
 62
     7
370
    25
100
AcDbLine
 10
116.6829480805
 20
270.5196264337
 30
0.0
 11
113.6829457261
 21
270.5196264337
 31
0.0
  0
LINE
  5
DD
330
1F
100
AcDbEntity
  8
0
  6
Continuous
 62
     7
370
    25
100
AcDbLine
 10
113.6829457261
 20
270.5196264337
 30
0.0
 11
113.6829457261
 21
264.5196263815
 31
0.0
  0
LINE
  5
DE
330
1F
100
AcDbEntity
  8
0
  6
Continuous
 62
     7
370
    25
100
AcDbLine
 10
284.907945899
 20
255.0196262213
 30
0.0
 11
288.0829437651
 21
255.0196262213
 31
0.0
  0
LINE
  5
DF
330
1F
100
AcDbEntity
  8
0
  6
Continuous
 62
     7
370
    25
100
AcDbLine
 10
288.0829437651
 20
255.0196262213
 30
0.0
 11
288.0829437651
 21
280.0196265938
 31
0.0
  0
LINE
  5
E0
330
1F
100
AcDbEntity
  8
0
  6
Continuous
 62
     7
370
    25
100
AcDbLine
 10
288.0829437651
 20
280.0196265938
 30
0.0
 11
284.907945899
 21
280.0196265938
 31
0.0
  0
LINE
  5
E1
330
1F
100
AcDbEntity
  8
0
  6
Continuous
 62
     7
370
    25
100
AcDbLine
 10
284.907945899
 20
280.0196265938
 30
0.0
 11
284.907945899
 21
255.0196262213
 31
0.0
  0
LINE
  5
E2
330
1F
100
AcDbEntity
  8
0
  6
Continuous
 62
     7
370
    25
100
AcDbLine
 10
280.40794423
 20
266.0196263945
 30
0.0
 11
281.9079472699
 21
266.0196263945
 31
0.0
  0
LINE
  5
E3
330
1F
100
AcDbEntity
  8
0
  6
Continuous
 62
     7
370
    25
100
AcDbLine
 10
281.9079472699
 20
266.0196263945
 30
0.0
 11
281.9079472699
 21
269.0196264206
 31
0.0
  0
LINE
  5
E4
330
1F
100
AcDbEntity
  8
0
  6
Continuous
 62
     7
370
    25
100
AcDbLine
 10
281.9079472699
 20
269.0196264206
 30
0.0
 11
280.40794423
 21
269.0196264206
 31
0.0
  0
LINE
  5
E5
330
1F
100
AcDbEntity
  8
0
  6
Continuous
 62
     7
370
    25
100
AcDbLine
 10
280.40794423
 20
269.0196264206
 30
0.0
 11
280.40794423
 21
266.0196263945
 31
0.0
  0
LINE
  5
E6
330
1F
100
AcDbEntity
  8
0
  6
Continuous
 62
     7
370
    25
100
AcDbLine
 10
291.0829498448
 20
266.0196263945
 30
0.0
 11
292.582945434
 21
266.0196263945
 31
0.0
  0
LINE
  5
E7
330
1F
100
AcDbEntity
  8
0
  6
Continuous
 62
     7
370
    25
100
AcDbLine
 10
292.582945434
 20
266.0196263945
 30
0.0
 11
292.582945434
 21
269.0196264206
 31
0.0
  0
LINE
  5
E8
330
1F
100
AcDbEntity
  8
0
  6
Continuous
 62
     7
370
    25
100
AcDbLine
 10
292.582945434
 20
269.0196264206
 30
0.0
 11
291.0829498448
 21
269.0196264206
 31
0.0
  0
LINE
  5
E9
330
1F
100
AcDbEntity
  8
0
  6
Continuous
 62
     7
370
    25
100
AcDbLine
 10
291.0829498448
 20
269.0196264206
 30
0.0
 11
291.0829498448
 21
266.0196263945
 31
0.0
  0
LINE
  5
EA
330
1F
100
AcDbEntity
  8
0
  6
Continuous
 62
     7
370
    25
100
AcDbLine
 10
42.1829535641
 20
278.519626348
 30
0.0
 11
32.1829481997
 21
278.519626348
 31
0.0
  0
ARC
  5
EB
330
1F
100
AcDbEntity
  8
0
  6
Continuous
 62
     7
370
    25
100
AcDbCircle
 10
32.1829467453
 20
267.5196264076
 30
0.0
 40
11.0
100
AcDbArc
 50
90.0
 51
270.0
  0
LINE
  5
EC
330
1F
100
AcDbEntity
  8
0
  6
Continuous
 62
     7
370
    25
100
AcDbLine
 10
32.1829481997
 20
256.5196264672
 30
0.0
 11
42.1829535641
 21
256.5196264672
 31
0.0
  0
ARC
  5
ED
330
1F
100
AcDbEntity
  8
0
  6
Continuous
 62
     7
370
    25
100
AcDbCircle
 10
42.1829467453
 20
267.5196264076
 30
0.0
 40
11.0
100
AcDbArc
 50
270.0
 51
90.0
  0
LINE
  5
EE
330
1F
100
AcDbEntity
  8
0
  6
Continuous
 62
     7
370
    25
100
AcDbLine
 10
26.6829445042
 20
253.5196259754
 30
0.0
 11
16.682954041
 21
253.5196259754
 31
0.0
  0
ARC
  5
EF
330
1F
100
AcDbEntity
  8
0
  6
Continuous
 62
     7
370
    25
100
AcDbCircle
 10
16.6829467453
 20
252.0196264076
 30
0.0
 40
1.500000000000057
100
AcDbArc
 50
90.0
 51
270.0
  0
LINE
  5
F0
330
1F
100
AcDbEntity
  8
0
  6
Continuous
 62
     7
370
    25
100
AcDbLine
 10
16.682954041
 20
250.5196254837
 30
0.0
 11
26.6829445042
 21
250.5196254837
 31
0.0
  0
ARC
  5
F1
330
1F
100
AcDbEntity
  8
0
  6
Continuous
 62
     7
370
    25
100
AcDbCircle
 10
26.6829467453
 20
252.0196264076
 30
0.0
 40
1.500000000000057
100
AcDbArc
 50
270.0
 51
90.0
  0
LINE
  5
F2
330
1F
100
AcDbEntity
  8
0
  6
Continuous
 62
     7
370
    25
100
AcDbLine
 10
47.6829423584
 20
250.5196254837
 30
0.0
 11
57.6829477229
 21
250.5196254837
 31
0.0
  0
ARC
  5
F3
330
1F
100
AcDbEntity
  8
0
  6
Continuous
 62
     7
370
    25
100
AcDbCircle
 10
57.6829467453
 20
252.0196264076
 30
0.0
 40
1.500000000000057
100
AcDbArc
 50
270.0
 51
90.0
  0
LINE
  5
F4
330
1F
100
AcDbEntity
  8
0
  6
Continuous
 62
     7
370
    25
100
AcDbLine
 10
57.6829477229
 20
253.5196259754
 30
0.0
 11
47.6829423584
 21
253.5196259754
 31
0.0
  0
ARC
  5
F5
330
1F
100
AcDbEntity
  8
0
  6
Continuous
 62
     7
370
    25
100
AcDbCircle
 10
47.6829467453
 20
252.0196264076
 30
0.0
 40
1.500000000000057
100
AcDbArc
 50
90.0
 51
270.0
  0
LINE
  5
F6
330
1F
100
AcDbEntity
  8
0
  6
Continuous
 62
     7
370
    25
100
AcDbLine
 10
47.6829423584
 20
281.5196268397
 30
0.0
 11
57.6829477229
 21
281.5196268397
 31
0.0
  0
ARC
  5
F7
330
1F
100
AcDbEntity
  8
0
  6
Continuous
 62
     7
370
    25
100
AcDbCircle
 10
57.6829467453
 20
283.0196264076
 30
0.0
 40
1.500000000000057
100
AcDbArc
 50
270.0
 51
90.0
  0
LINE
  5
F8
330
1F
100
AcDbEntity
  8
0
  6
Continuous
 62
     7
370
    25
100
AcDbLine
 10
57.6829477229
 20
284.5196273314
 30
0.0
 11
47.6829423584
 21
284.5196273314
 31
0.0
  0
ARC
  5
F9
330
1F
100
AcDbEntity
  8
0
  6
Continuous
 62
     7
370
    25
100
AcDbCircle
 10
47.6829467453
 20
283.0196264076
 30
0.0
 40
1.500000000000114
100
AcDbArc
 50
90.0
 51
270.0
  0
LINE
  5
FA
330
1F
100
AcDbEntity
  8
0
  6
Continuous
 62
     7
370
    25
100
AcDbLine
 10
26.6829445042
 20
284.5196273314
 30
0.0
 11
16.682954041
 21
284.5196273314
 31
0.0
  0
ARC
  5
FB
330
1F
100
AcDbEntity
  8
0
  6
Continuous
 62
     7
370
    25
100
AcDbCircle
 10
16.6829467453
 20
283.0196264076
 30
0.0
 40
1.500000000000057
100
AcDbArc
 50
90.0
 51
270.0
  0
LINE
  5
FC
330
1F
100
AcDbEntity
  8
0
  6
Continuous
 62
     7
370
    25
100
AcDbLine
 10
16.682954041
 20
281.5196268397
 30
0.0
 11
26.6829445042
 21
281.5196268397
 31
0.0
  0
ARC
  5
FD
330
1F
100
AcDbEntity
  8
0
  6
Continuous
 62
     7
370
    25
100
AcDbCircle
 10
26.6829467453
 20
283.0196264076
 30
0.0
 40
1.500000000000114
100
AcDbArc
 50
270.0
 51
90.0
  0
LINE
  5
FE
330
1F
100
AcDbEntity
  8
0
  6
Continuous
 62
     7
370
    25
100
AcDbLine
 10
9.7829415478
 20
255.0196262213
 30
0.0
 11
9.7829415478
 21
236.2696264076
 31
0.0
  0
LINE
  5
FF
330
1F
100
AcDbEntity
  8
0
  6
Continuous
 62
     7
370
    25
100
AcDbLine
 10
380.5829449572
 20
280.0196265938
 30
0.0
 11
380.5829449572
 21
298.7696264076
 31
0.0
  0
LINE
  5
100
330
1F
100
AcDbEntity
  8
0
  6
Continuous
 62
     7
370
    25
100
AcDbLine
 10
9.7829415478
 20
298.7696264076
 30
0.0
 11
9.7829415478
 21
280.0196265938
 31
0.0
  0
LINE
  5
101
330
1F
100
AcDbEntity
  8
0
  6
Continuous
 62
     7
370
    25
100
AcDbLine
 10
380.5829449572
 20
236.2696264076
 30
0.0
 11
380.5829449572
 21
255.0196262213
 31
0.0
  0
LINE
  5
102
330
1F
100
AcDbEntity
  8
0
  6
Continuous
 62
     7
370
    25
100
AcDbLine
 10
351.4329507031
 20
236.2696264076
 30
0.0
 11
380.5829449572
 21
236.2696264076
 31
0.0
  0
LINE
  5
103
330
1F
100
AcDbEntity
  8
0
  6
Continuous
 62
     7
370
    25
100
AcDbLine
 10
73.9329471268
 20
236.2696264076
 30
0.0
 11
131.4329481699
 21
236.2696264076
 31
0.0
  0
LINE
  5
104
330
1F
100
AcDbEntity
  8
0
  6
Continuous
 62
     7
370
    25
100
AcDbLine
 10
9.7829415478
 20
236.2696264076
 30
0.0
 11
38.9329507031
 21
236.2696264076
 31
0.0
  0
LINE
  5
105
330
1F
100
AcDbEntity
  8
0
  6
Continuous
 62
     7
370
    25
100
AcDbLine
 10
258.932949511
 20
236.2696264076
 30
0.0
 11
316.4329393782
 21
236.2696264076
 31
0.0
  0
LINE
  5
106
330
1F
100
AcDbEntity
  8
0
  6
Continuous
 62
     7
370
    25
100
AcDbLine
 10
166.4329464563
 20
236.2696264076
 30
0.0
 11
223.9329456367
 21
236.2696264076
 31
0.0
  0
LINE
  5
107
330
1F
100
AcDbEntity
  8
0
  6
Continuous
 62
     7
370
    25
100
AcDbLine
 10
380.5829449572
 20
298.7696264076
 30
0.0
 11
351.4329507031
 21
298.7696264076
 31
0.0
  0
LINE
  5
108
330
1F
100
AcDbEntity
  8
0
  6
Continuous
 62
     7
370
    25
100
AcDbLine
 10
316.4329393782
 20
298.7696264076
 30
0.0
 11
258.932949511
 21
298.7696264076
 31
0.0
  0
LINE
  5
109
330
1F
100
AcDbEntity
  8
0
  6
Continuous
 62
     7
370
    25
100
AcDbLine
 10
38.9329507031
 20
298.7696264076
 30
0.0
 11
9.7829415478
 21
298.7696264076
 31
0.0
  0
LINE
  5
10A
330
1F
100
AcDbEntity
  8
0
  6
Continuous
 62
     7
370
    25
100
AcDbLine
 10
131.4329481699
 20
298.7696264076
 30
0.0
 11
73.9329471268
 21
298.7696264076
 31
0.0
  0
LINE
  5
10B
330
1F
100
AcDbEntity
  8
0
  6
Continuous
 62
     7
370
    25
100
AcDbLine
 10
223.9329456367
 20
298.7696264076
 30
0.0
 11
166.4329464563
 21
298.7696264076
 31
0.0
  0
LINE
  5
10C
330
1F
100
AcDbEntity
  8
0
  6
Continuous
 62
     7
370
    25
100
AcDbLine
 10
20.0772976923
 20
173.8522320981
 30
0.0
 11
20.0772976923
 21
153.8522325451
 31
0.0
  0
LINE
  5
10D
330
1F
100
AcDbEntity
  8
0
  6
Continuous
 62
     7
370
    25
100
AcDbLine
 10
20.0772976923
 20
153.8522325451
 30
0.0
 11
23.2522955584
 21
153.8522325451
 31
0.0
  0
LINE
  5
10E
330
1F
100
AcDbEntity
  8
0
  6
Continuous
 62
     7
370
    25
100
AcDbLine
 10
23.2522955584
 20
153.8522325451
 30
0.0
 11
23.2522955584
 21
173.8522320981
 31
0.0
  0
LINE
  5
10F
330
1F
100
AcDbEntity
  8
0
  6
Continuous
 62
     7
370
    25
100
AcDbLine
 10
23.2522955584
 20
173.8522320981
 30
0.0
 11
20.0772976923
 21
173.8522320981
 31
0.0
  0
LINE
  5
110
330
1F
100
AcDbEntity
  8
0
  6
Continuous
 62
     7
370
    25
100
AcDbLine
 10
301.3772985386
 20
203.8522314275
 30
0.0
 11
301.3772985386
 21
228.8522299374
 31
0.0
  0
LINE
  5
111
330
1F
100
AcDbEntity
  8
0
  6
Continuous
 62
     7
370
    25
100
AcDbLine
 10
304.5523038554
 20
203.8522314275
 30
0.0
 11
301.3772985386
 21
203.8522314275
 31
0.0
  0
LINE
  5
112
330
1F
100
AcDbEntity
  8
0
  6
Continuous
 62
     7
370
    25
100
AcDbLine
 10
304.5523038554
 20
178.8522319863
 30
0.0
 11
304.5523038554
 21
203.8522314275
 31
0.0
  0
LINE
  5
113
330
1F
100
AcDbEntity
  8
0
  6
Continuous
 62
     7
370
    25
100
AcDbLine
 10
301.3772985386
 20
178.8522319863
 30
0.0
 11
304.5523038554
 21
178.8522319863
 31
0.0
  0
LINE
  5
114
330
1F
100
AcDbEntity
  8
0
  6
Continuous
 62
     7
370
    25
100
AcDbLine
 10
304.5523038554
 20
148.8522326569
 30
0.0
 11
301.3772985386
 21
148.8522326569
 31
0.0
  0
LINE
  5
115
330
1F
100
AcDbEntity
  8
0
  6
Continuous
 62
     7
370
    25
100
AcDbLine
 10
304.5523038554
 20
123.8522332157
 30
0.0
 11
304.5523038554
 21
148.8522326569
 31
0.0
  0
LINE
  5
116
330
1F
100
AcDbEntity
  8
0
  6
Continuous
 62
     7
370
    25
100
AcDbLine
 10
301.3772985386
 20
123.8522332157
 30
0.0
 11
304.5523038554
 21
123.8522332157
 31
0.0
  0
LINE
  5
117
330
1F
100
AcDbEntity
  8
0
  6
Continuous
 62
     7
370
    25
100
AcDbLine
 10
225.5772969174
 20
98.8522347058
 30
0.0
 11
301.3772985386
 21
98.8522347058
 31
0.0
  0
ARC
  5
118
330
1F
100
AcDbEntity
  8
0
  6
Continuous
 62
     7
370
    25
100
AcDbCircle
 10
225.5772975134
 20
108.8522323216
 30
0.0
 40
10.00000000000001
100
AcDbArc
 50
180.0
 51
270.0
  0
LINE
  5
119
330
1F
100
AcDbEntity
  8
0
  6
Continuous
 62
     7
370
    25
100
AcDbLine
 10
215.5772990036
 20
111.9554627682
 30
0.0
 11
215.5772990036
 21
108.8522326196
 31
0.0
  0
ARC
  5
11A
330
1F
100
AcDbEntity
  8
0
  6
Continuous
 62
     7
370
    25
100
AcDbCircle
 10
195.5772975134
 20
111.9554610742
 30
0.0
 40
20.00000000000001
100
AcDbArc
 50
0.0
 51
45.0
  0
LINE
  5
11B
330
1F
100
AcDbEntity
  8
0
  6
Continuous
 62
     7
370
    25
100
AcDbLine
 10
195.5772957253
 20
140.2397330846
 30
0.0
 11
209.7194364714
 21
126.0975960637
 31
0.0
  0
LINE
  5
11C
330
1F
100
AcDbEntity
  8
0
  6
Continuous
 62
     7
370
    25
100
AcDbLine
 10
183.0773001957
 20
137.0647314931
 30
0.0
 11
183.0773001957
 21
140.2397330846
 31
0.0
  0
LINE
  5
11D
330
1F
100
AcDbEntity
  8
0
  6
Continuous
 62
     7
370
    25
100
AcDbLine
 10
158.0772979605
 20
137.0647314931
 30
0.0
 11
183.0773001957
 21
137.0647314931
 31
0.0
  0
LINE
  5
11E
330
1F
100
AcDbEntity
  8
0
  6
Continuous
 62
     7
370
    25
100
AcDbLine
 10
158.0772979605
 20
140.2397330846
 30
0.0
 11
158.0772979605
 21
137.0647314931
 31
0.0
  0
LINE
  5
11F
330
1F
100
AcDbEntity
  8
0
  6
Continuous
 62
     7
370
    25
100
AcDbLine
 10
93.0772966194
 20
137.0647314931
 30
0.0
 11
93.0772966194
 21
140.2397330846
 31
0.0
  0
LINE
  5
120
330
1F
100
AcDbEntity
  8
0
  6
Continuous
 62
     7
370
    25
100
AcDbLine
 10
68.0772981095
 20
137.0647314931
 30
0.0
 11
93.0772966194
 21
137.0647314931
 31
0.0
  0
LINE
  5
121
330
1F
100
AcDbEntity
  8
0
  6
Continuous
 62
     7
370
    25
100
AcDbLine
 10
68.0772981095
 20
140.2397330846
 30
0.0
 11
68.0772981095
 21
137.0647314931
 31
0.0
  0
LINE
  5
122
330
1F
100
AcDbEntity
  8
0
  6
Continuous
 62
     7
370
    25
100
AcDbLine
 10
15.5772960233
 20
162.3522323086
 30
0.0
 11
17.0772990632
 21
162.3522323086
 31
0.0
  0
LINE
  5
123
330
1F
100
AcDbEntity
  8
0
  6
Continuous
 62
     7
370
    25
100
AcDbLine
 10
17.0772990632
 20
162.3522323086
 30
0.0
 11
17.0772990632
 21
165.3522323347
 31
0.0
  0
LINE
  5
124
330
1F
100
AcDbEntity
  8
0
  6
Continuous
 62
     7
370
    25
100
AcDbLine
 10
17.0772990632
 20
165.3522323347
 30
0.0
 11
15.5772960233
 21
165.3522323347
 31
0.0
  0
LINE
  5
125
330
1F
100
AcDbEntity
  8
0
  6
Continuous
 62
     7
370
    25
100
AcDbLine
 10
68.0772981095
 20
190.6397331501
 30
0.0
 11
68.0772981095
 21
187.4647315587
 31
0.0
  0
LINE
  5
126
330
1F
100
AcDbEntity
  8
0
  6
Continuous
 62
     7
370
    25
100
AcDbLine
 10
93.0772966194
 20
190.6397331501
 30
0.0
 11
68.0772981095
 21
190.6397331501
 31
0.0
  0
LINE
  5
127
330
1F
100
AcDbEntity
  8
0
  6
Continuous
 62
     7
370
    25
100
AcDbLine
 10
93.0772966194
 20
187.4647315587
 30
0.0
 11
93.0772966194
 21
190.6397331501
 31
0.0
  0
LINE
  5
128
330
1F
100
AcDbEntity
  8
0
  6
Continuous
 62
     7
370
    25
100
AcDbLine
 10
158.0772979605
 20
190.6397331501
 30
0.0
 11
158.0772979605
 21
187.4647315587
 31
0.0
  0
LINE
  5
129
330
1F
100
AcDbEntity
  8
0
  6
Continuous
 62
     7
370
    25
100
AcDbLine
 10
183.0773001957
 20
190.6397331501
 30
0.0
 11
158.0772979605
 21
190.6397331501
 31
0.0
  0
LINE
  5
12A
330
1F
100
AcDbEntity
  8
0
  6
Continuous
 62
     7
370
    25
100
AcDbLine
 10
183.0773001957
 20
187.4647315587
 30
0.0
 11
183.0773001957
 21
190.6397331501
 31
0.0
  0
LINE
  5
12B
330
1F
100
AcDbEntity
  8
0
  6
Continuous
 62
     7
370
    25
100
AcDbLine
 10
209.7194364714
 20
201.6068685795
 30
0.0
 11
195.5772957253
 21
187.4647315587
 31
0.0
  0
ARC
  5
12C
330
1F
100
AcDbEntity
  8
0
  6
Continuous
 62
     7
370
    25
100
AcDbCircle
 10
195.5772975134
 20
215.7490035691
 30
0.0
 40
20.0
100
AcDbArc
 50
315.0
 51
0.0
  0
LINE
  5
12D
330
1F
100
AcDbEntity
  8
0
  6
Continuous
 62
     7
370
    25
100
AcDbLine
 10
215.5772990036
 20
218.8522320236
 30
0.0
 11
215.5772990036
 21
215.749001875
 31
0.0
  0
ARC
  5
12E
330
1F
100
AcDbEntity
  8
0
  6
Continuous
 62
     7
370
    25
100
AcDbCircle
 10
225.5772975134
 20
218.8522323216
 30
0.0
 40
10.0
100
AcDbArc
 50
90.0
 51
180.0
  0
LINE
  5
12F
330
1F
100
AcDbEntity
  8
0
  6
Continuous
 62
     7
370
    25
100
AcDbLine
 10
301.3772985386
 20
228.8522299374
 30
0.0
 11
225.5772969174
 21
228.8522299374
 31
0.0
  0
LINE
  5
130
330
1F
100
AcDbEntity
  8
0
  6
Continuous
 62
     7
370
    25
100
AcDbLine
 10
27.7522972273
 20
162.3522323086
 30
0.0
 11
27.7522972273
 21
165.3522323347
 31
0.0
  0
LINE
  5
131
330
1F
100
AcDbEntity
  8
0
  6
Continuous
 62
     7
370
    25
100
AcDbLine
 10
27.7522972273
 20
165.3522323347
 30
0.0
 11
26.2522941875
 21
165.3522323347
 31
0.0
  0
LINE
  5
132
330
1F
100
AcDbEntity
  8
0
  6
Continuous
 62
     7
370
    25
100
AcDbLine
 10
26.2522941875
 20
165.3522323347
 30
0.0
 11
26.2522941875
 21
162.3522323086
 31
0.0
  0
LINE
  5
133
330
1F
100
AcDbEntity
  8
0
  6
Continuous
 62
     7
370
    25
100
AcDbLine
 10
26.2522941875
 20
162.3522323086
 30
0.0
 11
27.7522972273
 21
162.3522323086
 31
0.0
  0
CIRCLE
  5
134
330
1F
100
AcDbEntity
  8
0
  6
Continuous
 62
     7
370
    25
100
AcDbCircle
 10
225.5772975134
 20
218.8522323216
 30
0.0
 40
2.0
  0
CIRCLE
  5
135
330
1F
100
AcDbEntity
  8
0
  6
Continuous
 62
     7
370
    25
100
AcDbCircle
 10
291.3772975134
 20
218.8522323216
 30
0.0
 40
2.0
  0
CIRCLE
  5
136
330
1F
100
AcDbEntity
  8
0
  6
Continuous
 62
     7
370
    25
100
AcDbCircle
 10
291.3772975134
 20
163.8522323216
 30
0.0
 40
2.0
  0
CIRCLE
  5
137
330
1F
100
AcDbEntity
  8
0
  6
Continuous
 62
     7
370
    25
100
AcDbCircle
 10
291.3772975134
 20
108.8522323216
 30
0.0
 40
2.0
  0
CIRCLE
  5
138
330
1F
100
AcDbEntity
  8
0
  6
Continuous
 62
     7
370
    25
100
AcDbCircle
 10
225.5772975134
 20
108.8522323216
 30
0.0
 40
2.0
  0
CIRCLE
  5
139
330
1F
100
AcDbEntity
  8
0
  6
Continuous
 62
     7
370
    25
100
AcDbCircle
 10
225.5772975134
 20
163.8522323216
 30
0.0
 40
2.0
  0
LINE
  5
13A
330
1F
100
AcDbEntity
  8
0
  6
Continuous
 62
     7
370
    25
100
AcDbLine
 10
296.8772968697
 20
192.8522314872
 30
0.0
 11
296.8772968697
 21
189.8522328581
 31
0.0
  0
LINE
  5
13B
330
1F
100
AcDbEntity
  8
0
  6
Continuous
 62
     7
370
    25
100
AcDbLine
 10
296.8772968697
 20
189.8522328581
 30
0.0
 11
298.377292459
 21
189.8522328581
 31
0.0
  0
LINE
  5
13C
330
1F
100
AcDbEntity
  8
0
  6
Continuous
 62
     7
370
    25
100
AcDbLine
 10
298.377292459
 20
189.8522328581
 30
0.0
 11
298.377292459
 21
192.8522314872
 31
0.0
  0
LINE
  5
13D
330
1F
100
AcDbEntity
  8
0
  6
Continuous
 62
     7
370
    25
100
AcDbLine
 10
298.377292459
 20
192.8522314872
 30
0.0
 11
296.8772968697
 21
192.8522314872
 31
0.0
  0
LINE
  5
13E
330
1F
100
AcDbEntity
  8
0
  6
Continuous
 62
     7
370
    25
100
AcDbLine
 10
296.8772968697
 20
137.8522317852
 30
0.0
 11
296.8772968697
 21
134.8522331561
 31
0.0
  0
LINE
  5
13F
330
1F
100
AcDbEntity
  8
0
  6
Continuous
 62
     7
370
    25
100
AcDbLine
 10
296.8772968697
 20
134.8522331561
 30
0.0
 11
298.377292459
 21
134.8522331561
 31
0.0
  0
LINE
  5
140
330
1F
100
AcDbEntity
  8
0
  6
Continuous
 62
     7
370
    25
100
AcDbLine
 10
298.377292459
 20
134.8522331561
 30
0.0
 11
298.377292459
 21
137.8522317852
 31
0.0
  0
LINE
  5
141
330
1F
100
AcDbEntity
  8
0
  6
Continuous
 62
     7
370
    25
100
AcDbLine
 10
298.377292459
 20
137.8522317852
 30
0.0
 11
296.8772968697
 21
137.8522317852
 31
0.0
  0
LINE
  5
142
330
1F
100
AcDbEntity
  8
0
  6
Continuous
 62
     7
370
    25
100
AcDbLine
 10
256.8897923874
 20
208.8522341098
 30
0.0
 11
256.8897923874
 21
188.8522326941
 31
0.0
  0
LINE
  5
143
330
1F
100
AcDbEntity
  8
0
  6
Continuous
 62
     7
370
    25
100
AcDbLine
 10
256.8897923874
 20
188.8522326941
 30
0.0
 11
260.0647977042
 21
188.8522326941
 31
0.0
  0
LINE
  5
144
330
1F
100
AcDbEntity
  8
0
  6
Continuous
 62
     7
370
    25
100
AcDbLine
 10
260.0647977042
 20
188.8522326941
 30
0.0
 11
260.0647977042
 21
208.8522341098
 31
0.0
  0
LINE
  5
145
330
1F
100
AcDbEntity
  8
0
  6
Continuous
 62
     7
370
    25
100
AcDbLine
 10
260.0647977042
 20
208.8522341098
 30
0.0
 11
256.8897923874
 21
208.8522341098
 31
0.0
  0
LINE
  5
146
330
1F
100
AcDbEntity
  8
0
  6
Continuous
 62
     7
370
    25
100
AcDbLine
 10
256.8897923874
 20
138.8522319491
 30
0.0
 11
256.8897923874
 21
118.8522305335
 31
0.0
  0
LINE
  5
147
330
1F
100
AcDbEntity
  8
0
  6
Continuous
 62
     7
370
    25
100
AcDbLine
 10
256.8897923874
 20
118.8522305335
 30
0.0
 11
260.0647977042
 21
118.8522305335
 31
0.0
  0
LINE
  5
148
330
1F
100
AcDbEntity
  8
0
  6
Continuous
 62
     7
370
    25
100
AcDbLine
 10
260.0647977042
 20
118.8522305335
 30
0.0
 11
260.0647977042
 21
138.8522319491
 31
0.0
  0
LINE
  5
149
330
1F
100
AcDbEntity
  8
0
  6
Continuous
 62
     7
370
    25
100
AcDbLine
 10
260.0647977042
 20
138.8522319491
 30
0.0
 11
256.8897923874
 21
138.8522319491
 31
0.0
  0
LINE
  5
14A
330
1F
100
AcDbEntity
  8
0
  6
Continuous
 62
     7
370
    25
100
AcDbLine
 10
252.3897907185
 20
200.3522317852
 30
0.0
 11
252.3897907185
 21
197.3522331561
 31
0.0
  0
LINE
  5
14B
330
1F
100
AcDbEntity
  8
0
  6
Continuous
 62
     7
370
    25
100
AcDbLine
 10
252.3897907185
 20
197.3522331561
 30
0.0
 11
253.8898012089
 21
197.3522331561
 31
0.0
  0
LINE
  5
14C
330
1F
100
AcDbEntity
  8
0
  6
Continuous
 62
     7
370
    25
100
AcDbLine
 10
253.8898012089
 20
197.3522331561
 30
0.0
 11
253.8898012089
 21
200.3522317852
 31
0.0
  0
LINE
  5
14D
330
1F
100
AcDbEntity
  8
0
  6
Continuous
 62
     7
370
    25
100
AcDbLine
 10
253.8898012089
 20
200.3522317852
 30
0.0
 11
252.3897907185
 21
200.3522317852
 31
0.0
  0
LINE
  5
14E
330
1F
100
AcDbEntity
  8
0
  6
Continuous
 62
     7
370
    25
100
AcDbLine
 10
252.3897907185
 20
130.3522314872
 30
0.0
 11
252.3897907185
 21
127.3522328581
 31
0.0
  0
LINE
  5
14F
330
1F
100
AcDbEntity
  8
0
  6
Continuous
 62
     7
370
    25
100
AcDbLine
 10
252.3897907185
 20
127.3522328581
 30
0.0
 11
253.8898012089
 21
127.3522328581
 31
0.0
  0
LINE
  5
150
330
1F
100
AcDbEntity
  8
0
  6
Continuous
 62
     7
370
    25
100
AcDbLine
 10
253.8898012089
 20
127.3522328581
 30
0.0
 11
253.8898012089
 21
130.3522314872
 31
0.0
  0
LINE
  5
151
330
1F
100
AcDbEntity
  8
0
  6
Continuous
 62
     7
370
    25
100
AcDbLine
 10
253.8898012089
 20
130.3522314872
 30
0.0
 11
252.3897907185
 21
130.3522314872
 31
0.0
  0
LINE
  5
152
330
1F
100
AcDbEntity
  8
0
  6
Continuous
 62
     7
370
    25
100
AcDbLine
 10
263.0648037839
 20
130.3522314872
 30
0.0
 11
263.0648037839
 21
127.3522328581
 31
0.0
  0
LINE
  5
153
330
1F
100
AcDbEntity
  8
0
  6
Continuous
 62
     7
370
    25
100
AcDbLine
 10
263.0648037839
 20
127.3522328581
 30
0.0
 11
264.5647993731
 21
127.3522328581
 31
0.0
  0
LINE
  5
154
330
1F
100
AcDbEntity
  8
0
  6
Continuous
 62
     7
370
    25
100
AcDbLine
 10
264.5647993731
 20
127.3522328581
 30
0.0
 11
264.5647993731
 21
130.3522314872
 31
0.0
  0
LINE
  5
155
330
1F
100
AcDbEntity
  8
0
  6
Continuous
 62
     7
370
    25
100
AcDbLine
 10
264.5647993731
 20
130.3522314872
 30
0.0
 11
263.0648037839
 21
130.3522314872
 31
0.0
  0
LINE
  5
156
330
1F
100
AcDbEntity
  8
0
  6
Continuous
 62
     7
370
    25
100
AcDbLine
 10
264.5647993731
 20
197.3522331561
 30
0.0
 11
264.5647993731
 21
200.3522317852
 31
0.0
  0
LINE
  5
157
330
1F
100
AcDbEntity
  8
0
  6
Continuous
 62
     7
370
    25
100
AcDbLine
 10
264.5647993731
 20
200.3522317852
 30
0.0
 11
263.0648037839
 21
200.3522317852
 31
0.0
  0
LINE
  5
158
330
1F
100
AcDbEntity
  8
0
  6
Continuous
 62
     7
370
    25
100
AcDbLine
 10
263.0648037839
 20
200.3522317852
 30
0.0
 11
263.0648037839
 21
197.3522331561
 31
0.0
  0
LINE
  5
159
330
1F
100
AcDbEntity
  8
0
  6
Continuous
 62
     7
370
    25
100
AcDbLine
 10
263.0648037839
 20
197.3522331561
 30
0.0
 11
264.5647993731
 21
197.3522331561
 31
0.0
  0
LINE
  5
15A
330
1F
100
AcDbEntity
  8
0
  6
Continuous
 62
     7
370
    25
100
AcDbLine
 10
79.0772980499
 20
184.4647329296
 30
0.0
 11
79.0772980499
 21
182.9647317524
 31
0.0
  0
LINE
  5
15B
330
1F
100
AcDbEntity
  8
0
  6
Continuous
 62
     7
370
    25
100
AcDbLine
 10
79.0772980499
 20
182.9647317524
 30
0.0
 11
82.077296679
 21
182.9647317524
 31
0.0
  0
LINE
  5
15C
330
1F
100
AcDbEntity
  8
0
  6
Continuous
 62
     7
370
    25
100
AcDbLine
 10
82.077296679
 20
182.9647317524
 30
0.0
 11
82.077296679
 21
184.4647329296
 31
0.0
  0
LINE
  5
15D
330
1F
100
AcDbEntity
  8
0
  6
Continuous
 62
     7
370
    25
100
AcDbLine
 10
82.077296679
 20
184.4647329296
 30
0.0
 11
79.0772980499
 21
184.4647329296
 31
0.0
  0
LINE
  5
15E
330
1F
100
AcDbEntity
  8
0
  6
Continuous
 62
     7
370
    25
100
AcDbLine
 10
79.0772980499
 20
144.7397328908
 30
0.0
 11
79.0772980499
 21
143.2397317137
 31
0.0
  0
LINE
  5
15F
330
1F
100
AcDbEntity
  8
0
  6
Continuous
 62
     7
370
    25
100
AcDbLine
 10
79.0772980499
 20
143.2397317137
 30
0.0
 11
82.077296679
 21
143.2397317137
 31
0.0
  0
LINE
  5
160
330
1F
100
AcDbEntity
  8
0
  6
Continuous
 62
     7
370
    25
100
AcDbLine
 10
82.077296679
 20
143.2397317137
 30
0.0
 11
82.077296679
 21
144.7397328908
 31
0.0
  0
LINE
  5
161
330
1F
100
AcDbEntity
  8
0
  6
Continuous
 62
     7
370
    25
100
AcDbLine
 10
82.077296679
 20
144.7397328908
 30
0.0
 11
79.0772980499
 21
144.7397328908
 31
0.0
  0
LINE
  5
162
330
1F
100
AcDbEntity
  8
0
  6
Continuous
 62
     7
370
    25
100
AcDbLine
 10
169.0772979009
 20
144.7397328908
 30
0.0
 11
169.0772979009
 21
143.2397317137
 31
0.0
  0
LINE
  5
163
330
1F
100
AcDbEntity
  8
0
  6
Continuous
 62
     7
370
    25
100
AcDbLine
 10
169.0772979009
 20
143.2397317137
 30
0.0
 11
172.07729653
 21
143.2397317137
 31
0.0
  0
LINE
  5
164
330
1F
100
AcDbEntity
  8
0
  6
Continuous
 62
     7
370
    25
100
AcDbLine
 10
172.07729653
 20
143.2397317137
 30
0.0
 11
172.07729653
 21
144.7397328908
 31
0.0
  0
LINE
  5
165
330
1F
100
AcDbEntity
  8
0
  6
Continuous
 62
     7
370
    25
100
AcDbLine
 10
172.07729653
 20
144.7397328908
 30
0.0
 11
169.0772979009
 21
144.7397328908
 31
0.0
  0
LINE
  5
166
330
1F
100
AcDbEntity
  8
0
  6
Continuous
 62
     7
370
    25
100
AcDbLine
 10
169.0772979009
 20
184.4647329296
 30
0.0
 11
169.0772979009
 21
182.9647317524
 31
0.0
  0
LINE
  5
167
330
1F
100
AcDbEntity
  8
0
  6
Continuous
 62
     7
370
    25
100
AcDbLine
 10
169.0772979009
 20
182.9647317524
 30
0.0
 11
172.07729653
 21
182.9647317524
 31
0.0
  0
LINE
  5
168
330
1F
100
AcDbEntity
  8
0
  6
Continuous
 62
     7
370
    25
100
AcDbLine
 10
172.07729653
 20
182.9647317524
 30
0.0
 11
172.07729653
 21
184.4647329296
 31
0.0
  0
LINE
  5
169
330
1F
100
AcDbEntity
  8
0
  6
Continuous
 62
     7
370
    25
100
AcDbLine
 10
172.07729653
 20
184.4647329296
 30
0.0
 11
169.0772979009
 21
184.4647329296
 31
0.0
  0
CIRCLE
  5
16A
330
1F
100
AcDbEntity
  8
0
  6
Continuous
 62
     7
370
    25
100
AcDbCircle
 10
45.5772975134
 20
163.8522323216
 30
0.0
 40
12.5
  0
LINE
  5
16B
330
1F
100
AcDbEntity
  8
0
  6
Continuous
 62
     7
370
    25
100
AcDbLine
 10
15.5772960233
 20
162.3522323086
 30
0.0
 11
15.5772960233
 21
140.2397330846
 31
0.0
  0
LINE
  5
16C
330
1F
100
AcDbEntity
  8
0
  6
Continuous
 62
     7
370
    25
100
AcDbLine
 10
15.5772960233
 20
187.4647315587
 30
0.0
 11
15.5772960233
 21
165.3522323347
 31
0.0
  0
LINE
  5
16D
330
1F
100
AcDbEntity
  8
0
  6
Continuous
 62
     7
370
    25
100
AcDbLine
 10
301.3772985386
 20
98.8522347058
 30
0.0
 11
301.3772985386
 21
123.8522332157
 31
0.0
  0
LINE
  5
16E
330
1F
100
AcDbEntity
  8
0
  6
Continuous
 62
     7
370
    25
100
AcDbLine
 10
301.3772985386
 20
148.8522326569
 30
0.0
 11
301.3772985386
 21
178.8522319863
 31
0.0
  0
LINE
  5
16F
330
1F
100
AcDbEntity
  8
0
  6
Continuous
 62
     7
370
    25
100
AcDbLine
 10
68.0772981095
 20
187.4647315587
 30
0.0
 11
15.5772960233
 21
187.4647315587
 31
0.0
  0
LINE
  5
170
330
1F
100
AcDbEntity
  8
0
  6
Continuous
 62
     7
370
    25
100
AcDbLine
 10
158.0772979605
 20
187.4647315587
 30
0.0
 11
93.0772966194
 21
187.4647315587
 31
0.0
  0
LINE
  5
171
330
1F
100
AcDbEntity
  8
0
  6
Continuous
 62
     7
370
    25
100
AcDbLine
 10
195.5772957253
 20
187.4647315587
 30
0.0
 11
183.0773001957
 21
187.4647315587
 31
0.0
  0
LINE
  5
172
330
1F
100
AcDbEntity
  8
0
  6
Continuous
 62
     7
370
    25
100
AcDbLine
 10
183.0773001957
 20
140.2397330846
 30
0.0
 11
195.5772957253
 21
140.2397330846
 31
0.0
  0
LINE
  5
173
330
1F
100
AcDbEntity
  8
0
  6
Continuous
 62
     7
370
    25
100
AcDbLine
 10
93.0772966194
 20
140.2397330846
 30
0.0
 11
158.0772979605
 21
140.2397330846
 31
0.0
  0
LINE
  5
174
330
1F
100
AcDbEntity
  8
0
  6
Continuous
 62
     7
370
    25
100
AcDbLine
 10
15.5772960233
 20
140.2397330846
 30
0.0
 11
68.0772981095
 21
140.2397330846
 31
0.0
  0
LINE
  5
175
330
1F
100
AcDbEntity
  8
0
  6
Continuous
 62
     7
370
    25
100
AcDbLine
 10
302.2609706514
 20
59.396947859
 30
0.0
 11
302.2609706514
 21
79.396947412
 31
0.0
  0
LINE
  5
176
330
1F
100
AcDbEntity
  8
0
  6
Continuous
 62
     7
370
    25
100
AcDbLine
 10
302.2609706514
 20
79.396947412
 30
0.0
 11
299.0859727853
 21
79.396947412
 31
0.0
  0
LINE
  5
177
330
1F
100
AcDbEntity
  8
0
  6
Continuous
 62
     7
370
    25
100
AcDbLine
 10
299.0859727853
 20
79.396947412
 30
0.0
 11
299.0859727853
 21
59.396947859
 31
0.0
  0
LINE
  5
178
330
1F
100
AcDbEntity
  8
0
  6
Continuous
 62
     7
370
    25
100
AcDbLine
 10
299.0859727853
 20
59.396947859
 30
0.0
 11
302.2609706514
 21
59.396947859
 31
0.0
  0
LINE
  5
179
330
1F
100
AcDbEntity
  8
0
  6
Continuous
 62
     7
370
    25
100
AcDbLine
 10
20.960969805
 20
29.3969485296
 30
0.0
 11
20.960969805
 21
4.3969500197
 31
0.0
  0
LINE
  5
17A
330
1F
100
AcDbEntity
  8
0
  6
Continuous
 62
     7
370
    25
100
AcDbLine
 10
17.7859644883
 20
29.3969485296
 30
0.0
 11
20.960969805
 21
29.3969485296
 31
0.0
  0
LINE
  5
17B
330
1F
100
AcDbEntity
  8
0
  6
Continuous
 62
     7
370
    25
100
AcDbLine
 10
17.7859644883
 20
54.3969479708
 30
0.0
 11
17.7859644883
 21
29.3969485296
 31
0.0
  0
LINE
  5
17C
330
1F
100
AcDbEntity
  8
0
  6
Continuous
 62
     7
370
    25
100
AcDbLine
 10
20.960969805
 20
54.3969479708
 30
0.0
 11
17.7859644883
 21
54.3969479708
 31
0.0
  0
LINE
  5
17D
330
1F
100
AcDbEntity
  8
0
  6
Continuous
 62
     7
370
    25
100
AcDbLine
 10
17.7859644883
 20
84.3969473002
 30
0.0
 11
20.960969805
 21
84.3969473002
 31
0.0
  0
LINE
  5
17E
330
1F
100
AcDbEntity
  8
0
  6
Continuous
 62
     7
370
    25
100
AcDbLine
 10
17.7859644883
 20
109.3969467414
 30
0.0
 11
17.7859644883
 21
84.3969473002
 31
0.0
  0
LINE
  5
17F
330
1F
100
AcDbEntity
  8
0
  6
Continuous
 62
     7
370
    25
100
AcDbLine
 10
20.960969805
 20
109.3969467414
 30
0.0
 11
17.7859644883
 21
109.3969467414
 31
0.0
  0
LINE
  5
180
330
1F
100
AcDbEntity
  8
0
  6
Continuous
 62
     7
370
    25
100
AcDbLine
 10
96.7609714263
 20
134.3969452513
 30
0.0
 11
20.960969805
 21
134.3969452513
 31
0.0
  0
ARC
  5
181
330
1F
100
AcDbEntity
  8
0
  6
Continuous
 62
     7
370
    25
100
AcDbCircle
 10
96.7609708302
 20
124.3969476355
 30
0.0
 40
9.999999999999986
100
AcDbArc
 50
0.0
 51
90.0
  0
LINE
  5
182
330
1F
100
AcDbEntity
  8
0
  6
Continuous
 62
     7
370
    25
100
AcDbLine
 10
106.7609693401
 20
121.2937171889
 30
0.0
 11
106.7609693401
 21
124.3969473375
 31
0.0
  0
ARC
  5
183
330
1F
100
AcDbEntity
  8
0
  6
Continuous
 62
     7
370
    25
100
AcDbCircle
 10
126.7609708302
 20
121.293718883
 30
0.0
 40
20.0
100
AcDbArc
 50
180.0
 51
225.0
  0
LINE
  5
184
330
1F
100
AcDbEntity
  8
0
  6
Continuous
 62
     7
370
    25
100
AcDbLine
 10
126.7609726184
 20
93.0094468726
 30
0.0
 11
112.6188318723
 21
107.1515838934
 31
0.0
  0
LINE
  5
185
330
1F
100
AcDbEntity
  8
0
  6
Continuous
 62
     7
370
    25
100
AcDbLine
 10
139.260968148
 20
96.184448464
 30
0.0
 11
139.260968148
 21
93.0094468726
 31
0.0
  0
LINE
  5
186
330
1F
100
AcDbEntity
  8
0
  6
Continuous
 62
     7
370
    25
100
AcDbLine
 10
164.2609703832
 20
96.184448464
 30
0.0
 11
139.260968148
 21
96.184448464
 31
0.0
  0
LINE
  5
187
330
1F
100
AcDbEntity
  8
0
  6
Continuous
 62
     7
370
    25
100
AcDbLine
 10
164.2609703832
 20
93.0094468726
 30
0.0
 11
164.2609703832
 21
96.184448464
 31
0.0
  0
LINE
  5
188
330
1F
100
AcDbEntity
  8
0
  6
Continuous
 62
     7
370
    25
100
AcDbLine
 10
229.2609717243
 20
96.184448464
 30
0.0
 11
229.2609717243
 21
93.0094468726
 31
0.0
  0
LINE
  5
189
330
1F
100
AcDbEntity
  8
0
  6
Continuous
 62
     7
370
    25
100
AcDbLine
 10
254.2609702342
 20
96.184448464
 30
0.0
 11
229.2609717243
 21
96.184448464
 31
0.0
  0
LINE
  5
18A
330
1F
100
AcDbEntity
  8
0
  6
Continuous
 62
     7
370
    25
100
AcDbLine
 10
254.2609702342
 20
93.0094468726
 30
0.0
 11
254.2609702342
 21
96.184448464
 31
0.0
  0
LINE
  5
18B
330
1F
100
AcDbEntity
  8
0
  6
Continuous
 62
     7
370
    25
100
AcDbLine
 10
306.7609723204
 20
70.8969476486
 30
0.0
 11
305.2609692805
 21
70.8969476486
 31
0.0
  0
LINE
  5
18C
330
1F
100
AcDbEntity
  8
0
  6
Continuous
 62
     7
370
    25
100
AcDbLine
 10
305.2609692805
 20
70.8969476486
 30
0.0
 11
305.2609692805
 21
67.8969476225
 31
0.0
  0
LINE
  5
18D
330
1F
100
AcDbEntity
  8
0
  6
Continuous
 62
     7
370
    25
100
AcDbLine
 10
305.2609692805
 20
67.8969476225
 30
0.0
 11
306.7609723204
 21
67.8969476225
 31
0.0
  0
LINE
  5
18E
330
1F
100
AcDbEntity
  8
0
  6
Continuous
 62
     7
370
    25
100
AcDbLine
 10
254.2609702342
 20
42.609446807
 30
0.0
 11
254.2609702342
 21
45.7844483985
 31
0.0
  0
LINE
  5
18F
330
1F
100
AcDbEntity
  8
0
  6
Continuous
 62
     7
370
    25
100
AcDbLine
 10
229.2609717243
 20
42.609446807
 30
0.0
 11
254.2609702342
 21
42.609446807
 31
0.0
  0
LINE
  5
190
330
1F
100
AcDbEntity
  8
0
  6
Continuous
 62
     7
370
    25
100
AcDbLine
 10
229.2609717243
 20
45.7844483985
 30
0.0
 11
229.2609717243
 21
42.609446807
 31
0.0
  0
LINE
  5
191
330
1F
100
AcDbEntity
  8
0
  6
Continuous
 62
     7
370
    25
100
AcDbLine
 10
164.2609703832
 20
42.609446807
 30
0.0
 11
164.2609703832
 21
45.7844483985
 31
0.0
  0
LINE
  5
192
330
1F
100
AcDbEntity
  8
0
  6
Continuous
 62
     7
370
    25
100
AcDbLine
 10
139.260968148
 20
42.609446807
 30
0.0
 11
164.2609703832
 21
42.609446807
 31
0.0
  0
LINE
  5
193
330
1F
100
AcDbEntity
  8
0
  6
Continuous
 62
     7
370
    25
100
AcDbLine
 10
139.260968148
 20
45.7844483985
 30
0.0
 11
139.260968148
 21
42.609446807
 31
0.0
  0
LINE
  5
194
330
1F
100
AcDbEntity
  8
0
  6
Continuous
 62
     7
370
    25
100
AcDbLine
 10
112.6188318723
 20
31.6423113776
 30
0.0
 11
126.7609726184
 21
45.7844483985
 31
0.0
  0
ARC
  5
195
330
1F
100
AcDbEntity
  8
0
  6
Continuous
 62
     7
370
    25
100
AcDbCircle
 10
126.7609708302
 20
17.5001763881
 30
0.0
 40
20.0
100
AcDbArc
 50
135.0
 51
180.0
  0
LINE
  5
196
330
1F
100
AcDbEntity
  8
0
  6
Continuous
 62
     7
370
    25
100
AcDbLine
 10
106.7609693401
 20
14.3969479335
 30
0.0
 11
106.7609693401
 21
17.5001780821
 31
0.0
  0
ARC
  5
197
330
1F
100
AcDbEntity
  8
0
  6
Continuous
 62
     7
370
    25
100
AcDbCircle
 10
96.7609708302
 20
14.3969476355
 30
0.0
 40
10.00000000000002
100
AcDbArc
 50
270.0
 51
0.0
  0
LINE
  5
198
330
1F
100
AcDbEntity
  8
0
  6
Continuous
 62
     7
370
    25
100
AcDbLine
 10
20.960969805
 20
4.3969500197
 30
0.0
 11
96.7609714263
 21
4.3969500197
 31
0.0
  0
LINE
  5
199
330
1F
100
AcDbEntity
  8
0
  6
Continuous
 62
     7
370
    25
100
AcDbLine
 10
294.5859711163
 20
70.8969476486
 30
0.0
 11
294.5859711163
 21
67.8969476225
 31
0.0
  0
LINE
  5
19A
330
1F
100
AcDbEntity
  8
0
  6
Continuous
 62
     7
370
    25
100
AcDbLine
 10
294.5859711163
 20
67.8969476225
 30
0.0
 11
296.0859741562
 21
67.8969476225
 31
0.0
  0
LINE
  5
19B
330
1F
100
AcDbEntity
  8
0
  6
Continuous
 62
     7
370
    25
100
AcDbLine
 10
296.0859741562
 20
67.8969476225
 30
0.0
 11
296.0859741562
 21
70.8969476486
 31
0.0
  0
LINE
  5
19C
330
1F
100
AcDbEntity
  8
0
  6
Continuous
 62
     7
370
    25
100
AcDbLine
 10
296.0859741562
 20
70.8969476486
 30
0.0
 11
294.5859711163
 21
70.8969476486
 31
0.0
  0
CIRCLE
  5
19D
330
1F
100
AcDbEntity
  8
0
  6
Continuous
 62
     7
370
    25
100
AcDbCircle
 10
96.7609708302
 20
14.3969476355
 30
0.0
 40
2.000000000000002
  0
CIRCLE
  5
19E
330
1F
100
AcDbEntity
  8
0
  6
Continuous
 62
     7
370
    25
100
AcDbCircle
 10
30.9609708302
 20
14.3969476355
 30
0.0
 40
2.000000000000004
  0
CIRCLE
  5
19F
330
1F
100
AcDbEntity
  8
0
  6
Continuous
 62
     7
370
    25
100
AcDbCircle
 10
30.9609708302
 20
69.3969476355
 30
0.0
 40
2.000000000000014
  0
CIRCLE
  5
1A0
330
1F
100
AcDbEntity
  8
0
  6
Continuous
 62
     7
370
    25
100
AcDbCircle
 10
30.9609708302
 20
124.3969476355
 30
0.0
 40
2.0
  0
CIRCLE
  5
1A1
330
1F
100
AcDbEntity
  8
0
  6
Continuous
 62
     7
370
    25
100
AcDbCircle
 10
96.7609708302
 20
124.3969476355
 30
0.0
 40
2.000000000000014
  0
CIRCLE
  5
1A2
330
1F
100
AcDbEntity
  8
0
  6
Continuous
 62
     7
370
    25
100
AcDbCircle
 10
96.7609708302
 20
69.3969476355
 30
0.0
 40
2.0
  0
LINE
  5
1A3
330
1F
100
AcDbEntity
  8
0
  6
Continuous
 62
     7
370
    25
100
AcDbLine
 10
25.460971474
 20
40.39694847
 30
0.0
 11
25.460971474
 21
43.3969470991
 31
0.0
  0
LINE
  5
1A4
330
1F
100
AcDbEntity
  8
0
  6
Continuous
 62
     7
370
    25
100
AcDbLine
 10
25.460971474
 20
43.3969470991
 30
0.0
 11
23.9609758847
 21
43.3969470991
 31
0.0
  0
LINE
  5
1A5
330
1F
100
AcDbEntity
  8
0
  6
Continuous
 62
     7
370
    25
100
AcDbLine
 10
23.9609758847
 20
43.3969470991
 30
0.0
 11
23.9609758847
 21
40.39694847
 31
0.0
  0
LINE
  5
1A6
330
1F
100
AcDbEntity
  8
0
  6
Continuous
 62
     7
370
    25
100
AcDbLine
 10
23.9609758847
 20
40.39694847
 30
0.0
 11
25.460971474
 21
40.39694847
 31
0.0
  0
LINE
  5
1A7
330
1F
100
AcDbEntity
  8
0
  6
Continuous
 62
     7
370
    25
100
AcDbLine
 10
25.460971474
 20
95.396948172
 30
0.0
 11
25.460971474
 21
98.3969468011
 31
0.0
  0
LINE
  5
1A8
330
1F
100
AcDbEntity
  8
0
  6
Continuous
 62
     7
370
    25
100
AcDbLine
 10
25.460971474
 20
98.3969468011
 30
0.0
 11
23.9609758847
 21
98.3969468011
 31
0.0
  0
LINE
  5
1A9
330
1F
100
AcDbEntity
  8
0
  6
Continuous
 62
     7
370
    25
100
AcDbLine
 10
23.9609758847
 20
98.3969468011
 30
0.0
 11
23.9609758847
 21
95.396948172
 31
0.0
  0
LINE
  5
1AA
330
1F
100
AcDbEntity
  8
0
  6
Continuous
 62
     7
370
    25
100
AcDbLine
 10
23.9609758847
 20
95.396948172
 30
0.0
 11
25.460971474
 21
95.396948172
 31
0.0
  0
LINE
  5
1AB
330
1F
100
AcDbEntity
  8
0
  6
Continuous
 62
     7
370
    25
100
AcDbLine
 10
65.4484759562
 20
24.3969458474
 30
0.0
 11
65.4484759562
 21
44.396947263
 31
0.0
  0
LINE
  5
1AC
330
1F
100
AcDbEntity
  8
0
  6
Continuous
 62
     7
370
    25
100
AcDbLine
 10
65.4484759562
 20
44.396947263
 30
0.0
 11
62.2734706395
 21
44.396947263
 31
0.0
  0
LINE
  5
1AD
330
1F
100
AcDbEntity
  8
0
  6
Continuous
 62
     7
370
    25
100
AcDbLine
 10
62.2734706395
 20
44.396947263
 30
0.0
 11
62.2734706395
 21
24.3969458474
 31
0.0
  0
LINE
  5
1AE
330
1F
100
AcDbEntity
  8
0
  6
Continuous
 62
     7
370
    25
100
AcDbLine
 10
62.2734706395
 20
24.3969458474
 30
0.0
 11
65.4484759562
 21
24.3969458474
 31
0.0
  0
LINE
  5
1AF
330
1F
100
AcDbEntity
  8
0
  6
Continuous
 62
     7
370
    25
100
AcDbLine
 10
65.4484759562
 20
94.396948008
 30
0.0
 11
65.4484759562
 21
114.3969494237
 31
0.0
  0
LINE
  5
1B0
330
1F
100
AcDbEntity
  8
0
  6
Continuous
 62
     7
370
    25
100
AcDbLine
 10
65.4484759562
 20
114.3969494237
 30
0.0
 11
62.2734706395
 21
114.3969494237
 31
0.0
  0
LINE
  5
1B1
330
1F
100
AcDbEntity
  8
0
  6
Continuous
 62
     7
370
    25
100
AcDbLine
 10
62.2734706395
 20
114.3969494237
 30
0.0
 11
62.2734706395
 21
94.396948008
 31
0.0
  0
LINE
  5
1B2
330
1F
100
AcDbEntity
  8
0
  6
Continuous
 62
     7
370
    25
100
AcDbLine
 10
62.2734706395
 20
94.396948008
 30
0.0
 11
65.4484759562
 21
94.396948008
 31
0.0
  0
LINE
  5
1B3
330
1F
100
AcDbEntity
  8
0
  6
Continuous
 62
     7
370
    25
100
AcDbLine
 10
69.9484776252
 20
32.896948172
 30
0.0
 11
69.9484776252
 21
35.8969468011
 31
0.0
  0
LINE
  5
1B4
330
1F
100
AcDbEntity
  8
0
  6
Continuous
 62
     7
370
    25
100
AcDbLine
 10
69.9484776252
 20
35.8969468011
 30
0.0
 11
68.4484671348
 21
35.8969468011
 31
0.0
  0
LINE
  5
1B5
330
1F
100
AcDbEntity
  8
0
  6
Continuous
 62
     7
370
    25
100
AcDbLine
 10
68.4484671348
 20
35.8969468011
 30
0.0
 11
68.4484671348
 21
32.896948172
 31
0.0
  0
LINE
  5
1B6
330
1F
100
AcDbEntity
  8
0
  6
Continuous
 62
     7
370
    25
100
AcDbLine
 10
68.4484671348
 20
32.896948172
 30
0.0
 11
69.9484776252
 21
32.896948172
 31
0.0
  0
LINE
  5
1B7
330
1F
100
AcDbEntity
  8
0
  6
Continuous
 62
     7
370
    25
100
AcDbLine
 10
69.9484776252
 20
102.89694847
 30
0.0
 11
69.9484776252
 21
105.8969470991
 31
0.0
  0
LINE
  5
1B8
330
1F
100
AcDbEntity
  8
0
  6
Continuous
 62
     7
370
    25
100
AcDbLine
 10
69.9484776252
 20
105.8969470991
 30
0.0
 11
68.4484671348
 21
105.8969470991
 31
0.0
  0
LINE
  5
1B9
330
1F
100
AcDbEntity
  8
0
  6
Continuous
 62
     7
370
    25
100
AcDbLine
 10
68.4484671348
 20
105.8969470991
 30
0.0
 11
68.4484671348
 21
102.89694847
 31
0.0
  0
LINE
  5
1BA
330
1F
100
AcDbEntity
  8
0
  6
Continuous
 62
     7
370
    25
100
AcDbLine
 10
68.4484671348
 20
102.89694847
 30
0.0
 11
69.9484776252
 21
102.89694847
 31
0.0
  0
LINE
  5
1BB
330
1F
100
AcDbEntity
  8
0
  6
Continuous
 62
     7
370
    25
100
AcDbLine
 10
59.2734645598
 20
102.89694847
 30
0.0
 11
59.2734645598
 21
105.8969470991
 31
0.0
  0
LINE
  5
1BC
330
1F
100
AcDbEntity
  8
0
  6
Continuous
 62
     7
370
    25
100
AcDbLine
 10
59.2734645598
 20
105.8969470991
 30
0.0
 11
57.7734689706
 21
105.8969470991
 31
0.0
  0
LINE
  5
1BD
330
1F
100
AcDbEntity
  8
0
  6
Continuous
 62
     7
370
    25
100
AcDbLine
 10
57.7734689706
 20
105.8969470991
 30
0.0
 11
57.7734689706
 21
102.89694847
 31
0.0
  0
LINE
  5
1BE
330
1F
100
AcDbEntity
  8
0
  6
Continuous
 62
     7
370
    25
100
AcDbLine
 10
57.7734689706
 20
102.89694847
 30
0.0
 11
59.2734645598
 21
102.89694847
 31
0.0
  0
LINE
  5
1BF
330
1F
100
AcDbEntity
  8
0
  6
Continuous
 62
     7
370
    25
100
AcDbLine
 10
57.7734689706
 20
35.8969468011
 30
0.0
 11
57.7734689706
 21
32.896948172
 31
0.0
  0
LINE
  5
1C0
330
1F
100
AcDbEntity
  8
0
  6
Continuous
 62
     7
370
    25
100
AcDbLine
 10
57.7734689706
 20
32.896948172
 30
0.0
 11
59.2734645598
 21
32.896948172
 31
0.0
  0
LINE
  5
1C1
330
1F
100
AcDbEntity
  8
0
  6
Continuous
 62
     7
370
    25
100
AcDbLine
 10
59.2734645598
 20
32.896948172
 30
0.0
 11
59.2734645598
 21
35.8969468011
 31
0.0
  0
LINE
  5
1C2
330
1F
100
AcDbEntity
  8
0
  6
Continuous
 62
     7
370
    25
100
AcDbLine
 10
59.2734645598
 20
35.8969468011
 30
0.0
 11
57.7734689706
 21
35.8969468011
 31
0.0
  0
LINE
  5
1C3
330
1F
100
AcDbEntity
  8
0
  6
Continuous
 62
     7
370
    25
100
AcDbLine
 10
243.2609702938
 20
48.7844470275
 30
0.0
 11
243.2609702938
 21
50.2844482047
 31
0.0
  0
LINE
  5
1C4
330
1F
100
AcDbEntity
  8
0
  6
Continuous
 62
     7
370
    25
100
AcDbLine
 10
243.2609702938
 20
50.2844482047
 30
0.0
 11
240.2609716647
 21
50.2844482047
 31
0.0
  0
LINE
  5
1C5
330
1F
100
AcDbEntity
  8
0
  6
Continuous
 62
     7
370
    25
100
AcDbLine
 10
240.2609716647
 20
50.2844482047
 30
0.0
 11
240.2609716647
 21
48.7844470275
 31
0.0
  0
LINE
  5
1C6
330
1F
100
AcDbEntity
  8
0
  6
Continuous
 62
     7
370
    25
100
AcDbLine
 10
240.2609716647
 20
48.7844470275
 30
0.0
 11
243.2609702938
 21
48.7844470275
 31
0.0
  0
LINE
  5
1C7
330
1F
100
AcDbEntity
  8
0
  6
Continuous
 62
     7
370
    25
100
AcDbLine
 10
243.2609702938
 20
88.5094470663
 30
0.0
 11
243.2609702938
 21
90.0094482435
 31
0.0
  0
LINE
  5
1C8
330
1F
100
AcDbEntity
  8
0
  6
Continuous
 62
     7
370
    25
100
AcDbLine
 10
243.2609702938
 20
90.0094482435
 30
0.0
 11
240.2609716647
 21
90.0094482435
 31
0.0
  0
LINE
  5
1C9
330
1F
100
AcDbEntity
  8
0
  6
Continuous
 62
     7
370
    25
100
AcDbLine
 10
240.2609716647
 20
90.0094482435
 30
0.0
 11
240.2609716647
 21
88.5094470663
 31
0.0
  0
LINE
  5
1CA
330
1F
100
AcDbEntity
  8
0
  6
Continuous
 62
     7
370
    25
100
AcDbLine
 10
240.2609716647
 20
88.5094470663
 30
0.0
 11
243.2609702938
 21
88.5094470663
 31
0.0
  0
LINE
  5
1CB
330
1F
100
AcDbEntity
  8
0
  6
Continuous
 62
     7
370
    25
100
AcDbLine
 10
153.2609704428
 20
88.5094470663
 30
0.0
 11
153.2609704428
 21
90.0094482435
 31
0.0
  0
LINE
  5
1CC
330
1F
100
AcDbEntity
  8
0
  6
Continuous
 62
     7
370
    25
100
AcDbLine
 10
153.2609704428
 20
90.0094482435
 30
0.0
 11
150.2609718137
 21
90.0094482435
 31
0.0
  0
LINE
  5
1CD
330
1F
100
AcDbEntity
  8
0
  6
Continuous
 62
     7
370
    25
100
AcDbLine
 10
150.2609718137
 20
90.0094482435
 30
0.0
 11
150.2609718137
 21
88.5094470663
 31
0.0
  0
LINE
  5
1CE
330
1F
100
AcDbEntity
  8
0
  6
Continuous
 62
     7
370
    25
100
AcDbLine
 10
150.2609718137
 20
88.5094470663
 30
0.0
 11
153.2609704428
 21
88.5094470663
 31
0.0
  0
LINE
  5
1CF
330
1F
100
AcDbEntity
  8
0
  6
Continuous
 62
     7
370
    25
100
AcDbLine
 10
153.2609704428
 20
48.7844470275
 30
0.0
 11
153.2609704428
 21
50.2844482047
 31
0.0
  0
LINE
  5
1D0
330
1F
100
AcDbEntity
  8
0
  6
Continuous
 62
     7
370
    25
100
AcDbLine
 10
153.2609704428
 20
50.2844482047
 30
0.0
 11
150.2609718137
 21
50.2844482047
 31
0.0
  0
LINE
  5
1D1
330
1F
100
AcDbEntity
  8
0
  6
Continuous
 62
     7
370
    25
100
AcDbLine
 10
150.2609718137
 20
50.2844482047
 30
0.0
 11
150.2609718137
 21
48.7844470275
 31
0.0
  0
LINE
  5
1D2
330
1F
100
AcDbEntity
  8
0
  6
Continuous
 62
     7
370
    25
100
AcDbLine
 10
150.2609718137
 20
48.7844470275
 30
0.0
 11
153.2609704428
 21
48.7844470275
 31
0.0
  0
CIRCLE
  5
1D3
330
1F
100
AcDbEntity
  8
0
  6
Continuous
 62
     7
370
    25
100
AcDbCircle
 10
276.7609708302
 20
69.3969476355
 30
0.0
 40
12.5
  0
LINE
  5
1D4
330
1F
100
AcDbEntity
  8
0
  6
Continuous
 62
     7
370
    25
100
AcDbLine
 10
306.7609723204
 20
70.8969476486
 30
0.0
 11
306.7609723204
 21
93.0094468726
 31
0.0
  0
LINE
  5
1D5
330
1F
100
AcDbEntity
  8
0
  6
Continuous
 62
     7
370
    25
100
AcDbLine
 10
306.7609723204
 20
45.7844483985
 30
0.0
 11
306.7609723204
 21
67.8969476225
 31
0.0
  0
LINE
  5
1D6
330
1F
100
AcDbEntity
  8
0
  6
Continuous
 62
     7
370
    25
100
AcDbLine
 10
20.960969805
 20
134.3969452513
 30
0.0
 11
20.960969805
 21
109.3969467414
 31
0.0
  0
LINE
  5
1D7
330
1F
100
AcDbEntity
  8
0
  6
Continuous
 62
     7
370
    25
100
AcDbLine
 10
20.960969805
 20
84.3969473002
 30
0.0
 11
20.960969805
 21
54.3969479708
 31
0.0
  0
LINE
  5
1D8
330
1F
100
AcDbEntity
  8
0
  6
Continuous
 62
     7
370
    25
100
AcDbLine
 10
254.2609702342
 20
45.7844483985
 30
0.0
 11
306.7609723204
 21
45.7844483985
 31
0.0
  0
LINE
  5
1D9
330
1F
100
AcDbEntity
  8
0
  6
Continuous
 62
     7
370
    25
100
AcDbLine
 10
164.2609703832
 20
45.7844483985
 30
0.0
 11
229.2609717243
 21
45.7844483985
 31
0.0
  0
LINE
  5
1DA
330
1F
100
AcDbEntity
  8
0
  6
Continuous
 62
     7
370
    25
100
AcDbLine
 10
126.7609726184
 20
45.7844483985
 30
0.0
 11
139.260968148
 21
45.7844483985
 31
0.0
  0
LINE
  5
1DB
330
1F
100
AcDbEntity
  8
0
  6
Continuous
 62
     7
370
    25
100
AcDbLine
 10
139.260968148
 20
93.0094468726
 30
0.0
 11
126.7609726184
 21
93.0094468726
 31
0.0
  0
LINE
  5
1DC
330
1F
100
AcDbEntity
  8
0
  6
Continuous
 62
     7
370
    25
100
AcDbLine
 10
229.2609717243
 20
93.0094468726
 30
0.0
 11
164.2609703832
 21
93.0094468726
 31
0.0
  0
LINE
  5
1DD
330
1F
100
AcDbEntity
  8
0
  6
Continuous
 62
     7
370
    25
100
AcDbLine
 10
306.7609723204
 20
93.0094468726
 30
0.0
 11
254.2609702342
 21
93.0094468726
 31
0.0
  0
LINE
  5
1DE
330
1F
100
AcDbEntity
  8
0
  6
Continuous
 62
     7
370
    25
100
AcDbLine
 10
551.8690497819
 20
64.7040715023
 30
0.0
 11
551.8690497819
 21
89.7040718748
 31
0.0
  0
LINE
  5
1DF
330
1F
100
AcDbEntity
  8
0
  6
Continuous
 62
     7
370
    25
100
AcDbLine
 10
551.8690497819
 20
89.7040718748
 30
0.0
 11
548.6940519157
 21
89.7040718748
 31
0.0
  0
LINE
  5
1E0
330
1F
100
AcDbEntity
  8
0
  6
Continuous
 62
     7
370
    25
100
AcDbLine
 10
548.6940519157
 20
89.7040718748
 30
0.0
 11
548.6940519157
 21
64.7040715023
 31
0.0
  0
LINE
  5
1E1
330
1F
100
AcDbEntity
  8
0
  6
Continuous
 62
     7
370
    25
100
AcDbLine
 10
548.6940519157
 20
64.7040715023
 30
0.0
 11
551.8690497819
 21
64.7040715023
 31
0.0
  0
ARC
  5
1E2
330
1F
100
AcDbEntity
  8
0
  6
Continuous
 62
     7
370
    25
100
AcDbCircle
 10
553.8690499607
 20
124.7040716886
 30
0.0
 40
2.500000000000014
100
AcDbArc
 50
0.0
 51
90.0
  0
LINE
  5
1E3
330
1F
100
AcDbEntity
  8
0
  6
Continuous
 62
     7
370
    25
100
AcDbLine
 10
556.3690514508
 20
78.7040717016
 30
0.0
 11
554.869048411
 21
78.7040717016
 31
0.0
  0
LINE
  5
1E4
330
1F
100
AcDbEntity
  8
0
  6
Continuous
 62
     7
370
    25
100
AcDbLine
 10
554.869048411
 20
78.7040717016
 30
0.0
 11
554.869048411
 21
75.7040716755
 31
0.0
  0
LINE
  5
1E5
330
1F
100
AcDbEntity
  8
0
  6
Continuous
 62
     7
370
    25
100
AcDbLine
 10
554.869048411
 20
75.7040716755
 30
0.0
 11
556.3690514508
 21
75.7040716755
 31
0.0
  0
ARC
  5
1E6
330
1F
100
AcDbEntity
  8
0
  6
Continuous
 62
     7
370
    25
100
AcDbCircle
 10
553.8690499607
 20
29.7040716886
 30
0.0
 40
2.499999999999996
100
AcDbArc
 50
270.0
 51
0.0
  0
ARC
  5
1E7
330
1F
100
AcDbEntity
  8
0
  6
Continuous
 62
     7
370
    25
100
AcDbCircle
 10
378.8690499607
 20
29.7040716886
 30
0.0
 40
2.500000000000004
100
AcDbArc
 50
180.0
 51
270.0
  0
LINE
  5
1E8
330
1F
100
AcDbEntity
  8
0
  6
Continuous
 62
     7
370
    25
100
AcDbLine
 10
315.0565550867
 20
37.7040698706
 30
0.0
 11
376.3690517488
 21
37.7040698706
 31
0.0
  0
LINE
  5
1E9
330
1F
100
AcDbEntity
  8
0
  6
Continuous
 62
     7
370
    25
100
AcDbLine
 10
315.0565550867
 20
64.7040715023
 30
0.0
 11
315.0565550867
 21
37.7040698706
 31
0.0
  0
LINE
  5
1EA
330
1F
100
AcDbEntity
  8
0
  6
Continuous
 62
     7
370
    25
100
AcDbLine
 10
311.88154977
 20
64.7040715023
 30
0.0
 11
315.0565550867
 21
64.7040715023
 31
0.0
  0
LINE
  5
1EB
330
1F
100
AcDbEntity
  8
0
  6
Continuous
 62
     7
370
    25
100
AcDbLine
 10
311.88154977
 20
89.7040718748
 30
0.0
 11
311.88154977
 21
64.7040715023
 31
0.0
  0
LINE
  5
1EC
330
1F
100
AcDbEntity
  8
0
  6
Continuous
 62
     7
370
    25
100
AcDbLine
 10
315.0565550867
 20
89.7040718748
 30
0.0
 11
311.88154977
 21
89.7040718748
 31
0.0
  0
LINE
  5
1ED
330
1F
100
AcDbEntity
  8
0
  6
Continuous
 62
     7
370
    25
100
AcDbLine
 10
376.3690517488
 20
116.7040735065
 30
0.0
 11
315.0565550867
 21
116.7040735065
 31
0.0
  0
ARC
  5
1EE
330
1F
100
AcDbEntity
  8
0
  6
Continuous
 62
     7
370
    25
100
AcDbCircle
 10
378.8690499607
 20
124.7040716886
 30
0.0
 40
2.5
100
AcDbArc
 50
90.0
 51
180.0
  0
LINE
  5
1EF
330
1F
100
AcDbEntity
  8
0
  6
Continuous
 62
     7
370
    25
100
AcDbLine
 10
544.1940502468
 20
78.7040717016
 30
0.0
 11
544.1940502468
 21
75.7040716755
 31
0.0
  0
LINE
  5
1F0
330
1F
100
AcDbEntity
  8
0
  6
Continuous
 62
     7
370
    25
100
AcDbLine
 10
544.1940502468
 20
75.7040716755
 30
0.0
 11
545.6940532866
 21
75.7040716755
 31
0.0
  0
LINE
  5
1F1
330
1F
100
AcDbEntity
  8
0
  6
Continuous
 62
     7
370
    25
100
AcDbLine
 10
545.6940532866
 20
75.7040716755
 30
0.0
 11
545.6940532866
 21
78.7040717016
 31
0.0
  0
LINE
  5
1F2
330
1F
100
AcDbEntity
  8
0
  6
Continuous
 62
     7
370
    25
100
AcDbLine
 10
545.6940532866
 20
78.7040717016
 30
0.0
 11
544.1940502468
 21
78.7040717016
 31
0.0
  0
LINE
  5
1F3
330
1F
100
AcDbEntity
  8
0
  6
Continuous
 62
     7
370
    25
100
AcDbLine
 10
503.8690493647
 20
34.5290720045
 30
0.0
 11
503.8690493647
 21
37.7040698706
 31
0.0
  0
LINE
  5
1F4
330
1F
100
AcDbEntity
  8
0
  6
Continuous
 62
     7
370
    25
100
AcDbLine
 10
503.8690493647
 20
37.7040698706
 30
0.0
 11
478.8690508548
 21
37.7040698706
 31
0.0
  0
LINE
  5
1F5
330
1F
100
AcDbEntity
  8
0
  6
Continuous
 62
     7
370
    25
100
AcDbLine
 10
478.8690508548
 20
37.7040698706
 30
0.0
 11
478.8690508548
 21
34.5290720045
 31
0.0
  0
LINE
  5
1F6
330
1F
100
AcDbEntity
  8
0
  6
Continuous
 62
     7
370
    25
100
AcDbLine
 10
478.8690508548
 20
34.5290720045
 30
0.0
 11
503.8690493647
 21
34.5290720045
 31
0.0
  0
LINE
  5
1F7
330
1F
100
AcDbEntity
  8
0
  6
Continuous
 62
     7
370
    25
100
AcDbLine
 10
503.8690493647
 20
116.7040735065
 30
0.0
 11
503.8690493647
 21
119.8790713726
 31
0.0
  0
LINE
  5
1F8
330
1F
100
AcDbEntity
  8
0
  6
Continuous
 62
     7
370
    25
100
AcDbLine
 10
503.8690493647
 20
119.8790713726
 30
0.0
 11
478.8690508548
 21
119.8790713726
 31
0.0
  0
LINE
  5
1F9
330
1F
100
AcDbEntity
  8
0
  6
Continuous
 62
     7
370
    25
100
AcDbLine
 10
478.8690508548
 20
119.8790713726
 30
0.0
 11
478.8690508548
 21
116.7040735065
 31
0.0
  0
LINE
  5
1FA
330
1F
100
AcDbEntity
  8
0
  6
Continuous
 62
     7
370
    25
100
AcDbLine
 10
478.8690508548
 20
116.7040735065
 30
0.0
 11
503.8690493647
 21
116.7040735065
 31
0.0
  0
LINE
  5
1FB
330
1F
100
AcDbEntity
  8
0
  6
Continuous
 62
     7
370
    25
100
AcDbLine
 10
413.8690495137
 20
116.7040735065
 30
0.0
 11
413.8690495137
 21
119.8790713726
 31
0.0
  0
LINE
  5
1FC
330
1F
100
AcDbEntity
  8
0
  6
Continuous
 62
     7
370
    25
100
AcDbLine
 10
413.8690495137
 20
119.8790713726
 30
0.0
 11
388.8690472785
 21
119.8790713726
 31
0.0
  0
LINE
  5
1FD
330
1F
100
AcDbEntity
  8
0
  6
Continuous
 62
     7
370
    25
100
AcDbLine
 10
388.8690472785
 20
119.8790713726
 30
0.0
 11
388.8690472785
 21
116.7040735065
 31
0.0
  0
LINE
  5
1FE
330
1F
100
AcDbEntity
  8
0
  6
Continuous
 62
     7
370
    25
100
AcDbLine
 10
388.8690472785
 20
116.7040735065
 30
0.0
 11
413.8690495137
 21
116.7040735065
 31
0.0
  0
LINE
  5
1FF
330
1F
100
AcDbEntity
  8
0
  6
Continuous
 62
     7
370
    25
100
AcDbLine
 10
388.8690472785
 20
37.7040698706
 30
0.0
 11
388.8690472785
 21
34.5290720045
 31
0.0
  0
LINE
  5
200
330
1F
100
AcDbEntity
  8
0
  6
Continuous
 62
     7
370
    25
100
AcDbLine
 10
388.8690472785
 20
34.5290720045
 30
0.0
 11
413.8690495137
 21
34.5290720045
 31
0.0
  0
LINE
  5
201
330
1F
100
AcDbEntity
  8
0
  6
Continuous
 62
     7
370
    25
100
AcDbLine
 10
413.8690495137
 20
34.5290720045
 30
0.0
 11
413.8690495137
 21
37.7040698706
 31
0.0
  0
LINE
  5
202
330
1F
100
AcDbEntity
  8
0
  6
Continuous
 62
     7
370
    25
100
AcDbLine
 10
413.8690495137
 20
37.7040698706
 30
0.0
 11
388.8690472785
 21
37.7040698706
 31
0.0
  0
LINE
  5
203
330
1F
100
AcDbEntity
  8
0
  6
Continuous
 62
     7
370
    25
100
AcDbLine
 10
492.8690494243
 20
30.0290703355
 30
0.0
 11
492.8690494243
 21
31.5290733754
 31
0.0
  0
LINE
  5
204
330
1F
100
AcDbEntity
  8
0
  6
Continuous
 62
     7
370
    25
100
AcDbLine
 10
492.8690494243
 20
31.5290733754
 30
0.0
 11
489.8690507952
 21
31.5290733754
 31
0.0
  0
LINE
  5
205
330
1F
100
AcDbEntity
  8
0
  6
Continuous
 62
     7
370
    25
100
AcDbLine
 10
489.8690507952
 20
31.5290733754
 30
0.0
 11
489.8690507952
 21
30.0290703355
 31
0.0
  0
LINE
  5
206
330
1F
100
AcDbEntity
  8
0
  6
Continuous
 62
     7
370
    25
100
AcDbLine
 10
489.8690507952
 20
30.0290703355
 30
0.0
 11
492.8690494243
 21
30.0290703355
 31
0.0
  0
LINE
  5
207
330
1F
100
AcDbEntity
  8
0
  6
Continuous
 62
     7
370
    25
100
AcDbLine
 10
492.8690494243
 20
122.8790700017
 30
0.0
 11
492.8690494243
 21
124.3790730416
 31
0.0
  0
LINE
  5
208
330
1F
100
AcDbEntity
  8
0
  6
Continuous
 62
     7
370
    25
100
AcDbLine
 10
492.8690494243
 20
124.3790730416
 30
0.0
 11
489.8690507952
 21
124.3790730416
 31
0.0
  0
LINE
  5
209
330
1F
100
AcDbEntity
  8
0
  6
Continuous
 62
     7
370
    25
100
AcDbLine
 10
489.8690507952
 20
124.3790730416
 30
0.0
 11
489.8690507952
 21
122.8790700017
 31
0.0
  0
LINE
  5
20A
330
1F
100
AcDbEntity
  8
0
  6
Continuous
 62
     7
370
    25
100
AcDbLine
 10
489.8690507952
 20
122.8790700017
 30
0.0
 11
492.8690494243
 21
122.8790700017
 31
0.0
  0
LINE
  5
20B
330
1F
100
AcDbEntity
  8
0
  6
Continuous
 62
     7
370
    25
100
AcDbLine
 10
489.8690507952
 20
113.7040711521
 30
0.0
 11
489.8690507952
 21
112.2040718376
 31
0.0
  0
LINE
  5
20C
330
1F
100
AcDbEntity
  8
0
  6
Continuous
 62
     7
370
    25
100
AcDbLine
 10
489.8690507952
 20
112.2040718376
 30
0.0
 11
492.8690494243
 21
112.2040718376
 31
0.0
  0
LINE
  5
20D
330
1F
100
AcDbEntity
  8
0
  6
Continuous
 62
     7
370
    25
100
AcDbLine
 10
492.8690494243
 20
112.2040718376
 30
0.0
 11
492.8690494243
 21
113.7040711521
 31
0.0
  0
LINE
  5
20E
330
1F
100
AcDbEntity
  8
0
  6
Continuous
 62
     7
370
    25
100
AcDbLine
 10
492.8690494243
 20
113.7040711521
 30
0.0
 11
489.8690507952
 21
113.7040711521
 31
0.0
  0
LINE
  5
20F
330
1F
100
AcDbEntity
  8
0
  6
Continuous
 62
     7
370
    25
100
AcDbLine
 10
402.8690495733
 20
122.8790700017
 30
0.0
 11
402.8690495733
 21
124.3790730416
 31
0.0
  0
LINE
  5
210
330
1F
100
AcDbEntity
  8
0
  6
Continuous
 62
     7
370
    25
100
AcDbLine
 10
402.8690495733
 20
124.3790730416
 30
0.0
 11
399.8690509442
 21
124.3790730416
 31
0.0
  0
LINE
  5
211
330
1F
100
AcDbEntity
  8
0
  6
Continuous
 62
     7
370
    25
100
AcDbLine
 10
399.8690509442
 20
124.3790730416
 30
0.0
 11
399.8690509442
 21
122.8790700017
 31
0.0
  0
LINE
  5
212
330
1F
100
AcDbEntity
  8
0
  6
Continuous
 62
     7
370
    25
100
AcDbLine
 10
399.8690509442
 20
122.8790700017
 30
0.0
 11
402.8690495733
 21
122.8790700017
 31
0.0
  0
LINE
  5
213
330
1F
100
AcDbEntity
  8
0
  6
Continuous
 62
     7
370
    25
100
AcDbLine
 10
399.8690509442
 20
113.7040711521
 30
0.0
 11
399.8690509442
 21
112.2040718376
 31
0.0
  0
LINE
  5
214
330
1F
100
AcDbEntity
  8
0
  6
Continuous
 62
     7
370
    25
100
AcDbLine
 10
399.8690509442
 20
112.2040718376
 30
0.0
 11
402.8690495733
 21
112.2040718376
 31
0.0
  0
LINE
  5
215
330
1F
100
AcDbEntity
  8
0
  6
Continuous
 62
     7
370
    25
100
AcDbLine
 10
402.8690495733
 20
112.2040718376
 30
0.0
 11
402.8690495733
 21
113.7040711521
 31
0.0
  0
LINE
  5
216
330
1F
100
AcDbEntity
  8
0
  6
Continuous
 62
     7
370
    25
100
AcDbLine
 10
402.8690495733
 20
113.7040711521
 30
0.0
 11
399.8690509442
 21
113.7040711521
 31
0.0
  0
LINE
  5
217
330
1F
100
AcDbEntity
  8
0
  6
Continuous
 62
     7
370
    25
100
AcDbLine
 10
402.8690495733
 20
40.704072225
 30
0.0
 11
402.8690495733
 21
42.2040715395
 31
0.0
  0
LINE
  5
218
330
1F
100
AcDbEntity
  8
0
  6
Continuous
 62
     7
370
    25
100
AcDbLine
 10
402.8690495733
 20
42.2040715395
 30
0.0
 11
399.8690509442
 21
42.2040715395
 31
0.0
  0
LINE
  5
219
330
1F
100
AcDbEntity
  8
0
  6
Continuous
 62
     7
370
    25
100
AcDbLine
 10
399.8690509442
 20
42.2040715395
 30
0.0
 11
399.8690509442
 21
40.704072225
 31
0.0
  0
LINE
  5
21A
330
1F
100
AcDbEntity
  8
0
  6
Continuous
 62
     7
370
    25
100
AcDbLine
 10
399.8690509442
 20
40.704072225
 30
0.0
 11
402.8690495733
 21
40.704072225
 31
0.0
  0
LINE
  5
21B
330
1F
100
AcDbEntity
  8
0
  6
Continuous
 62
     7
370
    25
100
AcDbLine
 10
402.8690495733
 20
30.0290703355
 30
0.0
 11
402.8690495733
 21
31.5290733754
 31
0.0
  0
LINE
  5
21C
330
1F
100
AcDbEntity
  8
0
  6
Continuous
 62
     7
370
    25
100
AcDbLine
 10
402.8690495733
 20
31.5290733754
 30
0.0
 11
399.8690509442
 21
31.5290733754
 31
0.0
  0
LINE
  5
21D
330
1F
100
AcDbEntity
  8
0
  6
Continuous
 62
     7
370
    25
100
AcDbLine
 10
399.8690509442
 20
31.5290733754
 30
0.0
 11
399.8690509442
 21
30.0290703355
 31
0.0
  0
LINE
  5
21E
330
1F
100
AcDbEntity
  8
0
  6
Continuous
 62
     7
370
    25
100
AcDbLine
 10
399.8690509442
 20
30.0290703355
 30
0.0
 11
402.8690495733
 21
30.0290703355
 31
0.0
  0
LINE
  5
21F
330
1F
100
AcDbEntity
  8
0
  6
Continuous
 62
     7
370
    25
100
AcDbLine
 10
492.8690494243
 20
40.704072225
 30
0.0
 11
492.8690494243
 21
42.2040715395
 31
0.0
  0
LINE
  5
220
330
1F
100
AcDbEntity
  8
0
  6
Continuous
 62
     7
370
    25
100
AcDbLine
 10
492.8690494243
 20
42.2040715395
 30
0.0
 11
489.8690507952
 21
42.2040715395
 31
0.0
  0
LINE
  5
221
330
1F
100
AcDbEntity
  8
0
  6
Continuous
 62
     7
370
    25
100
AcDbLine
 10
489.8690507952
 20
42.2040715395
 30
0.0
 11
489.8690507952
 21
40.704072225
 31
0.0
  0
LINE
  5
222
330
1F
100
AcDbEntity
  8
0
  6
Continuous
 62
     7
370
    25
100
AcDbLine
 10
489.8690507952
 20
40.704072225
 30
0.0
 11
492.8690494243
 21
40.704072225
 31
0.0
  0
CIRCLE
  5
223
330
1F
100
AcDbEntity
  8
0
  6
Continuous
 62
     7
370
    25
100
AcDbCircle
 10
491.3690499607
 20
77.2040716886
 30
0.0
 40
22.5
  0
CIRCLE
  5
224
330
1F
100
AcDbEntity
  8
0
  6
Continuous
 62
     7
370
    25
100
AcDbCircle
 10
401.3690499607
 20
77.2040716886
 30
0.0
 40
22.5
  0
LINE
  5
225
330
1F
100
AcDbEntity
  8
0
  6
Continuous
 62
     7
370
    25
100
AcDbLine
 10
319.5565567556
 20
75.7040716755
 30
0.0
 11
319.5565567556
 21
78.7040717016
 31
0.0
  0
LINE
  5
226
330
1F
100
AcDbEntity
  8
0
  6
Continuous
 62
     7
370
    25
100
AcDbLine
 10
319.5565567556
 20
78.7040717016
 30
0.0
 11
318.0565462652
 21
78.7040717016
 31
0.0
  0
LINE
  5
227
330
1F
100
AcDbEntity
  8
0
  6
Continuous
 62
     7
370
    25
100
AcDbLine
 10
318.0565462652
 20
78.7040717016
 30
0.0
 11
318.0565462652
 21
75.7040716755
 31
0.0
  0
LINE
  5
228
330
1F
100
AcDbEntity
  8
0
  6
Continuous
 62
     7
370
    25
100
AcDbLine
 10
318.0565462652
 20
75.7040716755
 30
0.0
 11
319.5565567556
 21
75.7040716755
 31
0.0
  0
CIRCLE
  5
229
330
1F
100
AcDbEntity
  8
0
  6
Continuous
 62
     7
370
    25
100
AcDbCircle
 10
340.0565499607
 20
77.2040716886
 30
0.0
 40
15.0
  0
LINE
  5
22A
330
1F
100
AcDbEntity
  8
0
  6
Continuous
 62
     7
370
    25
100
AcDbLine
 10
556.3690514508
 20
78.7040717016
 30
0.0
 11
556.3690514508
 21
124.7040710925
 31
0.0
  0
LINE
  5
22B
330
1F
100
AcDbEntity
  8
0
  6
Continuous
 62
     7
370
    25
100
AcDbLine
 10
378.8690493647
 20
27.2040709435
 30
0.0
 11
553.8690463844
 21
27.2040709435
 31
0.0
  0
LINE
  5
22C
330
1F
100
AcDbEntity
  8
0
  6
Continuous
 62
     7
370
    25
100
AcDbLine
 10
376.3690517488
 20
37.7040698706
 30
0.0
 11
376.3690517488
 21
29.7040722846
 31
0.0
  0
LINE
  5
22D
330
1F
100
AcDbEntity
  8
0
  6
Continuous
 62
     7
370
    25
100
AcDbLine
 10
553.8690463844
 20
127.2040724336
 30
0.0
 11
378.8690493647
 21
127.2040724336
 31
0.0
  0
LINE
  5
22E
330
1F
100
AcDbEntity
  8
0
  6
Continuous
 62
     7
370
    25
100
AcDbLine
 10
556.3690514508
 20
29.7040722846
 30
0.0
 11
556.3690514508
 21
75.7040716755
 31
0.0
  0
LINE
  5
22F
330
1F
100
AcDbEntity
  8
0
  6
Continuous
 62
     7
370
    25
100
AcDbLine
 10
376.3690517488
 20
124.7040710925
 30
0.0
 11
376.3690517488
 21
116.7040735065
 31
0.0
  0
LINE
  5
230
330
1F
100
AcDbEntity
  8
0
  6
Continuous
 62
     7
370
    25
100
AcDbLine
 10
315.0565550867
 20
116.7040735065
 30
0.0
 11
315.0565550867
 21
89.7040718748
 31
0.0
  0
LINE
  5
231
330
1F
100
AcDbEntity
  8
0
  6
Continuous
 62
     7
370
    25
100
AcDbLine
 10
548.9938458657
 20
169.3190778107
 30
0.0
 11
548.9938458657
 21
194.3190781832
 31
0.0
  0
LINE
  5
232
330
1F
100
AcDbEntity
  8
0
  6
Continuous
 62
     7
370
    25
100
AcDbLine
 10
548.9938458657
 20
194.3190781832
 30
0.0
 11
545.8188479995
 21
194.3190781832
 31
0.0
  0
LINE
  5
233
330
1F
100
AcDbEntity
  8
0
  6
Continuous
 62
     7
370
    25
100
AcDbLine
 10
545.8188479995
 20
194.3190781832
 30
0.0
 11
545.8188479995
 21
169.3190778107
 31
0.0
  0
LINE
  5
234
330
1F
100
AcDbEntity
  8
0
  6
Continuous
 62
     7
370
    25
100
AcDbLine
 10
545.8188479995
 20
169.3190778107
 30
0.0
 11
548.9938458657
 21
169.3190778107
 31
0.0
  0
ARC
  5
235
330
1F
100
AcDbEntity
  8
0
  6
Continuous
 62
     7
370
    25
100
AcDbCircle
 10
550.9938460445
 20
229.319077997
 30
0.0
 40
2.5
100
AcDbArc
 50
0.0
 51
90.0
  0
LINE
  5
236
330
1F
100
AcDbEntity
  8
0
  6
Continuous
 62
     7
370
    25
100
AcDbLine
 10
553.4938475346
 20
183.31907801
 30
0.0
 11
551.9938444948
 21
183.31907801
 31
0.0
  0
LINE
  5
237
330
1F
100
AcDbEntity
  8
0
  6
Continuous
 62
     7
370
    25
100
AcDbLine
 10
551.9938444948
 20
183.31907801
 30
0.0
 11
551.9938444948
 21
180.3190779839
 31
0.0
  0
LINE
  5
238
330
1F
100
AcDbEntity
  8
0
  6
Continuous
 62
     7
370
    25
100
AcDbLine
 10
551.9938444948
 20
180.3190779839
 30
0.0
 11
553.4938475346
 21
180.3190779839
 31
0.0
  0
ARC
  5
239
330
1F
100
AcDbEntity
  8
0
  6
Continuous
 62
     7
370
    25
100
AcDbCircle
 10
550.9938460445
 20
134.319077997
 30
0.0
 40
2.5
100
AcDbArc
 50
270.0
 51
0.0
  0
ARC
  5
23A
330
1F
100
AcDbEntity
  8
0
  6
Continuous
 62
     7
370
    25
100
AcDbCircle
 10
375.9938460445
 20
134.319077997
 30
0.0
 40
2.500000000000057
100
AcDbArc
 50
180.0
 51
270.0
  0
LINE
  5
23B
330
1F
100
AcDbEntity
  8
0
  6
Continuous
 62
     7
370
    25
100
AcDbLine
 10
312.1813511705
 20
142.319076179
 30
0.0
 11
373.4938478327
 21
142.319076179
 31
0.0
  0
LINE
  5
23C
330
1F
100
AcDbEntity
  8
0
  6
Continuous
 62
     7
370
    25
100
AcDbLine
 10
312.1813511705
 20
169.3190778107
 30
0.0
 11
312.1813511705
 21
142.319076179
 31
0.0
  0
LINE
  5
23D
330
1F
100
AcDbEntity
  8
0
  6
Continuous
 62
     7
370
    25
100
AcDbLine
 10
309.0063458538
 20
169.3190778107
 30
0.0
 11
312.1813511705
 21
169.3190778107
 31
0.0
  0
LINE
  5
23E
330
1F
100
AcDbEntity
  8
0
  6
Continuous
 62
     7
370
    25
100
AcDbLine
 10
309.0063458538
 20
194.3190781832
 30
0.0
 11
309.0063458538
 21
169.3190778107
 31
0.0
  0
LINE
  5
23F
330
1F
100
AcDbEntity
  8
0
  6
Continuous
 62
     7
370
    25
100
AcDbLine
 10
312.1813511705
 20
194.3190781832
 30
0.0
 11
309.0063458538
 21
194.3190781832
 31
0.0
  0
LINE
  5
240
330
1F
100
AcDbEntity
  8
0
  6
Continuous
 62
     7
370
    25
100
AcDbLine
 10
373.4938478327
 20
221.3190798149
 30
0.0
 11
312.1813511705
 21
221.3190798149
 31
0.0
  0
ARC
  5
241
330
1F
100
AcDbEntity
  8
0
  6
Continuous
 62
     7
370
    25
100
AcDbCircle
 10
375.9938460445
 20
229.319077997
 30
0.0
 40
2.500000000000057
100
AcDbArc
 50
90.0
 51
180.0
  0
LINE
  5
242
330
1F
100
AcDbEntity
  8
0
  6
Continuous
 62
     7
370
    25
100
AcDbLine
 10
541.3188463306
 20
183.31907801
 30
0.0
 11
541.3188463306
 21
180.3190779839
 31
0.0
  0
LINE
  5
243
330
1F
100
AcDbEntity
  8
0
  6
Continuous
 62
     7
370
    25
100
AcDbLine
 10
541.3188463306
 20
180.3190779839
 30
0.0
 11
542.8188493705
 21
180.3190779839
 31
0.0
  0
LINE
  5
244
330
1F
100
AcDbEntity
  8
0
  6
Continuous
 62
     7
370
    25
100
AcDbLine
 10
542.8188493705
 20
180.3190779839
 30
0.0
 11
542.8188493705
 21
183.31907801
 31
0.0
  0
LINE
  5
245
330
1F
100
AcDbEntity
  8
0
  6
Continuous
 62
     7
370
    25
100
AcDbLine
 10
542.8188493705
 20
183.31907801
 30
0.0
 11
541.3188463306
 21
183.31907801
 31
0.0
  0
LINE
  5
246
330
1F
100
AcDbEntity
  8
0
  6
Continuous
 62
     7
370
    25
100
AcDbLine
 10
500.9938454485
 20
139.1440783129
 30
0.0
 11
500.9938454485
 21
142.319076179
 31
0.0
  0
LINE
  5
247
330
1F
100
AcDbEntity
  8
0
  6
Continuous
 62
     7
370
    25
100
AcDbLine
 10
500.9938454485
 20
142.319076179
 30
0.0
 11
475.9938469386
 21
142.319076179
 31
0.0
  0
LINE
  5
248
330
1F
100
AcDbEntity
  8
0
  6
Continuous
 62
     7
370
    25
100
AcDbLine
 10
475.9938469386
 20
142.319076179
 30
0.0
 11
475.9938469386
 21
139.1440783129
 31
0.0
  0
LINE
  5
249
330
1F
100
AcDbEntity
  8
0
  6
Continuous
 62
     7
370
    25
100
AcDbLine
 10
475.9938469386
 20
139.1440783129
 30
0.0
 11
500.9938454485
 21
139.1440783129
 31
0.0
  0
LINE
  5
24A
330
1F
100
AcDbEntity
  8
0
  6
Continuous
 62
     7
370
    25
100
AcDbLine
 10
500.9938454485
 20
221.3190798149
 30
0.0
 11
500.9938454485
 21
224.4940776811
 31
0.0
  0
LINE
  5
24B
330
1F
100
AcDbEntity
  8
0
  6
Continuous
 62
     7
370
    25
100
AcDbLine
 10
500.9938454485
 20
224.4940776811
 30
0.0
 11
475.9938469386
 21
224.4940776811
 31
0.0
  0
LINE
  5
24C
330
1F
100
AcDbEntity
  8
0
  6
Continuous
 62
     7
370
    25
100
AcDbLine
 10
475.9938469386
 20
224.4940776811
 30
0.0
 11
475.9938469386
 21
221.3190798149
 31
0.0
  0
LINE
  5
24D
330
1F
100
AcDbEntity
  8
0
  6
Continuous
 62
     7
370
    25
100
AcDbLine
 10
475.9938469386
 20
221.3190798149
 30
0.0
 11
500.9938454485
 21
221.3190798149
 31
0.0
  0
LINE
  5
24E
330
1F
100
AcDbEntity
  8
0
  6
Continuous
 62
     7
370
    25
100
AcDbLine
 10
410.9938455975
 20
221.3190798149
 30
0.0
 11
410.9938455975
 21
224.4940776811
 31
0.0
  0
LINE
  5
24F
330
1F
100
AcDbEntity
  8
0
  6
Continuous
 62
     7
370
    25
100
AcDbLine
 10
410.9938455975
 20
224.4940776811
 30
0.0
 11
385.9938433623
 21
224.4940776811
 31
0.0
  0
LINE
  5
250
330
1F
100
AcDbEntity
  8
0
  6
Continuous
 62
     7
370
    25
100
AcDbLine
 10
385.9938433623
 20
224.4940776811
 30
0.0
 11
385.9938433623
 21
221.3190798149
 31
0.0
  0
LINE
  5
251
330
1F
100
AcDbEntity
  8
0
  6
Continuous
 62
     7
370
    25
100
AcDbLine
 10
385.9938433623
 20
221.3190798149
 30
0.0
 11
410.9938455975
 21
221.3190798149
 31
0.0
  0
LINE
  5
252
330
1F
100
AcDbEntity
  8
0
  6
Continuous
 62
     7
370
    25
100
AcDbLine
 10
385.9938433623
 20
142.319076179
 30
0.0
 11
385.9938433623
 21
139.1440783129
 31
0.0
  0
LINE
  5
253
330
1F
100
AcDbEntity
  8
0
  6
Continuous
 62
     7
370
    25
100
AcDbLine
 10
385.9938433623
 20
139.1440783129
 30
0.0
 11
410.9938455975
 21
139.1440783129
 31
0.0
  0
LINE
  5
254
330
1F
100
AcDbEntity
  8
0
  6
Continuous
 62
     7
370
    25
100
AcDbLine
 10
410.9938455975
 20
139.1440783129
 30
0.0
 11
410.9938455975
 21
142.319076179
 31
0.0
  0
LINE
  5
255
330
1F
100
AcDbEntity
  8
0
  6
Continuous
 62
     7
370
    25
100
AcDbLine
 10
410.9938455975
 20
142.319076179
 30
0.0
 11
385.9938433623
 21
142.319076179
 31
0.0
  0
LINE
  5
256
330
1F
100
AcDbEntity
  8
0
  6
Continuous
 62
     7
370
    25
100
AcDbLine
 10
489.9938455081
 20
134.6440766439
 30
0.0
 11
489.9938455081
 21
136.1440796838
 31
0.0
  0
LINE
  5
257
330
1F
100
AcDbEntity
  8
0
  6
Continuous
 62
     7
370
    25
100
AcDbLine
 10
489.9938455081
 20
136.1440796838
 30
0.0
 11
486.993846879
 21
136.1440796838
 31
0.0
  0
LINE
  5
258
330
1F
100
AcDbEntity
  8
0
  6
Continuous
 62
     7
370
    25
100
AcDbLine
 10
486.993846879
 20
136.1440796838
 30
0.0
 11
486.993846879
 21
134.6440766439
 31
0.0
  0
LINE
  5
259
330
1F
100
AcDbEntity
  8
0
  6
Continuous
 62
     7
370
    25
100
AcDbLine
 10
486.993846879
 20
134.6440766439
 30
0.0
 11
489.9938455081
 21
134.6440766439
 31
0.0
  0
LINE
  5
25A
330
1F
100
AcDbEntity
  8
0
  6
Continuous
 62
     7
370
    25
100
AcDbLine
 10
489.9938455081
 20
227.4940763102
 30
0.0
 11
489.9938455081
 21
228.99407935
 31
0.0
  0
LINE
  5
25B
330
1F
100
AcDbEntity
  8
0
  6
Continuous
 62
     7
370
    25
100
AcDbLine
 10
489.9938455081
 20
228.99407935
 30
0.0
 11
486.993846879
 21
228.99407935
 31
0.0
  0
LINE
  5
25C
330
1F
100
AcDbEntity
  8
0
  6
Continuous
 62
     7
370
    25
100
AcDbLine
 10
486.993846879
 20
228.99407935
 30
0.0
 11
486.993846879
 21
227.4940763102
 31
0.0
  0
LINE
  5
25D
330
1F
100
AcDbEntity
  8
0
  6
Continuous
 62
     7
370
    25
100
AcDbLine
 10
486.993846879
 20
227.4940763102
 30
0.0
 11
489.9938455081
 21
227.4940763102
 31
0.0
  0
LINE
  5
25E
330
1F
100
AcDbEntity
  8
0
  6
Continuous
 62
     7
370
    25
100
AcDbLine
 10
486.993846879
 20
218.3190774605
 30
0.0
 11
486.993846879
 21
216.819078146
 31
0.0
  0
LINE
  5
25F
330
1F
100
AcDbEntity
  8
0
  6
Continuous
 62
     7
370
    25
100
AcDbLine
 10
486.993846879
 20
216.819078146
 30
0.0
 11
489.9938455081
 21
216.819078146
 31
0.0
  0
LINE
  5
260
330
1F
100
AcDbEntity
  8
0
  6
Continuous
 62
     7
370
    25
100
AcDbLine
 10
489.9938455081
 20
216.819078146
 30
0.0
 11
489.9938455081
 21
218.3190774605
 31
0.0
  0
LINE
  5
261
330
1F
100
AcDbEntity
  8
0
  6
Continuous
 62
     7
370
    25
100
AcDbLine
 10
489.9938455081
 20
218.3190774605
 30
0.0
 11
486.993846879
 21
218.3190774605
 31
0.0
  0
LINE
  5
262
330
1F
100
AcDbEntity
  8
0
  6
Continuous
 62
     7
370
    25
100
AcDbLine
 10
399.9938456571
 20
227.4940763102
 30
0.0
 11
399.9938456571
 21
228.99407935
 31
0.0
  0
LINE
  5
263
330
1F
100
AcDbEntity
  8
0
  6
Continuous
 62
     7
370
    25
100
AcDbLine
 10
399.9938456571
 20
228.99407935
 30
0.0
 11
396.993847028
 21
228.99407935
 31
0.0
  0
LINE
  5
264
330
1F
100
AcDbEntity
  8
0
  6
Continuous
 62
     7
370
    25
100
AcDbLine
 10
396.993847028
 20
228.99407935
 30
0.0
 11
396.993847028
 21
227.4940763102
 31
0.0
  0
LINE
  5
265
330
1F
100
AcDbEntity
  8
0
  6
Continuous
 62
     7
370
    25
100
AcDbLine
 10
396.993847028
 20
227.4940763102
 30
0.0
 11
399.9938456571
 21
227.4940763102
 31
0.0
  0
LINE
  5
266
330
1F
100
AcDbEntity
  8
0
  6
Continuous
 62
     7
370
    25
100
AcDbLine
 10
396.993847028
 20
218.3190774605
 30
0.0
 11
396.993847028
 21
216.819078146
 31
0.0
  0
LINE
  5
267
330
1F
100
AcDbEntity
  8
0
  6
Continuous
 62
     7
370
    25
100
AcDbLine
 10
396.993847028
 20
216.819078146
 30
0.0
 11
399.9938456571
 21
216.819078146
 31
0.0
  0
LINE
  5
268
330
1F
100
AcDbEntity
  8
0
  6
Continuous
 62
     7
370
    25
100
AcDbLine
 10
399.9938456571
 20
216.819078146
 30
0.0
 11
399.9938456571
 21
218.3190774605
 31
0.0
  0
LINE
  5
269
330
1F
100
AcDbEntity
  8
0
  6
Continuous
 62
     7
370
    25
100
AcDbLine
 10
399.9938456571
 20
218.3190774605
 30
0.0
 11
396.993847028
 21
218.3190774605
 31
0.0
  0
LINE
  5
26A
330
1F
100
AcDbEntity
  8
0
  6
Continuous
 62
     7
370
    25
100
AcDbLine
 10
399.9938456571
 20
145.3190785334
 30
0.0
 11
399.9938456571
 21
146.819077848
 31
0.0
  0
LINE
  5
26B
330
1F
100
AcDbEntity
  8
0
  6
Continuous
 62
     7
370
    25
100
AcDbLine
 10
399.9938456571
 20
146.819077848
 30
0.0
 11
396.993847028
 21
146.819077848
 31
0.0
  0
LINE
  5
26C
330
1F
100
AcDbEntity
  8
0
  6
Continuous
 62
     7
370
    25
100
AcDbLine
 10
396.993847028
 20
146.819077848
 30
0.0
 11
396.993847028
 21
145.3190785334
 31
0.0
  0
LINE
  5
26D
330
1F
100
AcDbEntity
  8
0
  6
Continuous
 62
     7
370
    25
100
AcDbLine
 10
396.993847028
 20
145.3190785334
 30
0.0
 11
399.9938456571
 21
145.3190785334
 31
0.0
  0
LINE
  5
26E
330
1F
100
AcDbEntity
  8
0
  6
Continuous
 62
     7
370
    25
100
AcDbLine
 10
399.9938456571
 20
134.6440766439
 30
0.0
 11
399.9938456571
 21
136.1440796838
 31
0.0
  0
LINE
  5
26F
330
1F
100
AcDbEntity
  8
0
  6
Continuous
 62
     7
370
    25
100
AcDbLine
 10
399.9938456571
 20
136.1440796838
 30
0.0
 11
396.993847028
 21
136.1440796838
 31
0.0
  0
LINE
  5
270
330
1F
100
AcDbEntity
  8
0
  6
Continuous
 62
     7
370
    25
100
AcDbLine
 10
396.993847028
 20
136.1440796838
 30
0.0
 11
396.993847028
 21
134.6440766439
 31
0.0
  0
LINE
  5
271
330
1F
100
AcDbEntity
  8
0
  6
Continuous
 62
     7
370
    25
100
AcDbLine
 10
396.993847028
 20
134.6440766439
 30
0.0
 11
399.9938456571
 21
134.6440766439
 31
0.0
  0
LINE
  5
272
330
1F
100
AcDbEntity
  8
0
  6
Continuous
 62
     7
370
    25
100
AcDbLine
 10
489.9938455081
 20
145.3190785334
 30
0.0
 11
489.9938455081
 21
146.819077848
 31
0.0
  0
LINE
  5
273
330
1F
100
AcDbEntity
  8
0
  6
Continuous
 62
     7
370
    25
100
AcDbLine
 10
489.9938455081
 20
146.819077848
 30
0.0
 11
486.993846879
 21
146.819077848
 31
0.0
  0
LINE
  5
274
330
1F
100
AcDbEntity
  8
0
  6
Continuous
 62
     7
370
    25
100
AcDbLine
 10
486.993846879
 20
146.819077848
 30
0.0
 11
486.993846879
 21
145.3190785334
 31
0.0
  0
LINE
  5
275
330
1F
100
AcDbEntity
  8
0
  6
Continuous
 62
     7
370
    25
100
AcDbLine
 10
486.993846879
 20
145.3190785334
 30
0.0
 11
489.9938455081
 21
145.3190785334
 31
0.0
  0
CIRCLE
  5
276
330
1F
100
AcDbEntity
  8
0
  6
Continuous
 62
     7
370
    25
100
AcDbCircle
 10
488.4938460445
 20
181.819077997
 30
0.0
 40
22.5
  0
CIRCLE
  5
277
330
1F
100
AcDbEntity
  8
0
  6
Continuous
 62
     7
370
    25
100
AcDbCircle
 10
398.4938460445
 20
181.819077997
 30
0.0
 40
22.5
  0
LINE
  5
278
330
1F
100
AcDbEntity
  8
0
  6
Continuous
 62
     7
370
    25
100
AcDbLine
 10
316.6813528394
 20
180.3190779839
 30
0.0
 11
316.6813528394
 21
183.31907801
 31
0.0
  0
LINE
  5
279
330
1F
100
AcDbEntity
  8
0
  6
Continuous
 62
     7
370
    25
100
AcDbLine
 10
316.6813528394
 20
183.31907801
 30
0.0
 11
315.181342349
 21
183.31907801
 31
0.0
  0
LINE
  5
27A
330
1F
100
AcDbEntity
  8
0
  6
Continuous
 62
     7
370
    25
100
AcDbLine
 10
315.181342349
 20
183.31907801
 30
0.0
 11
315.181342349
 21
180.3190779839
 31
0.0
  0
LINE
  5
27B
330
1F
100
AcDbEntity
  8
0
  6
Continuous
 62
     7
370
    25
100
AcDbLine
 10
315.181342349
 20
180.3190779839
 30
0.0
 11
316.6813528394
 21
180.3190779839
 31
0.0
  0
CIRCLE
  5
27C
330
1F
100
AcDbEntity
  8
0
  6
Continuous
 62
     7
370
    25
100
AcDbCircle
 10
337.1813460445
 20
181.819077997
 30
0.0
 40
15.0
  0
LINE
  5
27D
330
1F
100
AcDbEntity
  8
0
  6
Continuous
 62
     7
370
    25
100
AcDbLine
 10
553.4938475346
 20
183.31907801
 30
0.0
 11
553.4938475346
 21
229.3190774009
 31
0.0
  0
LINE
  5
27E
330
1F
100
AcDbEntity
  8
0
  6
Continuous
 62
     7
370
    25
100
AcDbLine
 10
375.9938454485
 20
131.8190772519
 30
0.0
 11
550.9938424682
 21
131.8190772519
 31
0.0
  0
LINE
  5
27F
330
1F
100
AcDbEntity
  8
0
  6
Continuous
 62
     7
370
    25
100
AcDbLine
 10
373.4938478327
 20
142.319076179
 30
0.0
 11
373.4938478327
 21
134.319078593
 31
0.0
  0
LINE
  5
280
330
1F
100
AcDbEntity
  8
0
  6
Continuous
 62
     7
370
    25
100
AcDbLine
 10
550.9938424682
 20
231.819078742
 30
0.0
 11
375.9938454485
 21
231.819078742
 31
0.0
  0
LINE
  5
281
330
1F
100
AcDbEntity
  8
0
  6
Continuous
 62
     7
370
    25
100
AcDbLine
 10
553.4938475346
 20
134.319078593
 30
0.0
 11
553.4938475346
 21
180.3190779839
 31
0.0
  0
LINE
  5
282
330
1F
100
AcDbEntity
  8
0
  6
Continuous
 62
     7
370
    25
100
AcDbLine
 10
373.4938478327
 20
229.3190774009
 30
0.0
 11
373.4938478327
 21
221.3190798149
 31
0.0
  0
LINE
  5
283
330
1F
100
AcDbEntity
  8
0
  6
Continuous
 62
     7
370
    25
100
AcDbLine
 10
312.1813511705
 20
221.3190798149
 30
0.0
 11
312.1813511705
 21
194.3190781832
 31
0.0
  0
LINE
  5
284
330
1F
100
AcDbEntity
  8
0
  6
Continuous
 62
     7
370
    25
100
AcDbLine
 10
421.1554121993
 20
291.4716611403
 30
0.0
 11
421.1554121993
 21
288.2966595489
 31
0.0
  0
LINE
  5
285
330
1F
100
AcDbEntity
  8
0
  6
Continuous
 62
     7
370
    25
100
AcDbLine
 10
446.1554125718
 20
291.4716611403
 30
0.0
 11
421.1554121993
 21
291.4716611403
 31
0.0
  0
LINE
  5
286
330
1F
100
AcDbEntity
  8
0
  6
Continuous
 62
     7
370
    25
100
AcDbLine
 10
446.1554125718
 20
288.2966595489
 30
0.0
 11
446.1554125718
 21
291.4716611403
 31
0.0
  0
LINE
  5
287
330
1F
100
AcDbEntity
  8
0
  6
Continuous
 62
     7
370
    25
100
AcDbLine
 10
476.3304120697
 20
274.6841600883
 30
0.0
 11
473.1554142035
 21
274.6841600883
 31
0.0
  0
LINE
  5
288
330
1F
100
AcDbEntity
  8
0
  6
Continuous
 62
     7
370
    25
100
AcDbLine
 10
476.3304120697
 20
254.6841605354
 30
0.0
 11
476.3304120697
 21
274.6841600883
 31
0.0
  0
LINE
  5
289
330
1F
100
AcDbEntity
  8
0
  6
Continuous
 62
     7
370
    25
100
AcDbLine
 10
473.1554142035
 20
254.6841605354
 30
0.0
 11
476.3304120697
 21
254.6841605354
 31
0.0
  0
LINE
  5
28A
330
1F
100
AcDbEntity
  8
0
  6
Continuous
 62
     7
370
    25
100
AcDbLine
 10
446.1554125718
 20
237.8966594833
 30
0.0
 11
446.1554125718
 21
241.0716610748
 31
0.0
  0
LINE
  5
28B
330
1F
100
AcDbEntity
  8
0
  6
Continuous
 62
     7
370
    25
100
AcDbLine
 10
421.1554121993
 20
237.8966594833
 30
0.0
 11
446.1554125718
 21
237.8966594833
 31
0.0
  0
LINE
  5
28C
330
1F
100
AcDbEntity
  8
0
  6
Continuous
 62
     7
370
    25
100
AcDbLine
 10
421.1554121993
 20
241.0716610748
 30
0.0
 11
421.1554121993
 21
237.8966594833
 31
0.0
  0
LINE
  5
28D
330
1F
100
AcDbEntity
  8
0
  6
Continuous
 62
     7
370
    25
100
AcDbLine
 10
390.9804127015
 20
254.6841605354
 30
0.0
 11
394.1554105676
 21
254.6841605354
 31
0.0
  0
LINE
  5
28E
330
1F
100
AcDbEntity
  8
0
  6
Continuous
 62
     7
370
    25
100
AcDbLine
 10
390.9804127015
 20
274.6841600883
 30
0.0
 11
390.9804127015
 21
254.6841605354
 31
0.0
  0
LINE
  5
28F
330
1F
100
AcDbEntity
  8
0
  6
Continuous
 62
     7
370
    25
100
AcDbLine
 10
394.1554105676
 20
274.6841600883
 30
0.0
 11
390.9804127015
 21
274.6841600883
 31
0.0
  0
CIRCLE
  5
290
330
1F
100
AcDbEntity
  8
0
  6
Continuous
 62
     7
370
    25
100
AcDbCircle
 10
433.6554123856
 20
264.6841603118
 30
0.0
 40
5.074999999999989
  0
CIRCLE
  5
291
330
1F
100
AcDbEntity
  8
0
  6
Continuous
 62
     7
370
    25
100
AcDbCircle
 10
427.9985581361
 20
259.0273060624
 30
0.0
 40
1.5
  0
CIRCLE
  5
292
330
1F
100
AcDbEntity
  8
0
  6
Continuous
 62
     7
370
    25
100
AcDbCircle
 10
439.3122666351
 20
259.0273060624
 30
0.0
 40
1.5
  0
CIRCLE
  5
293
330
1F
100
AcDbEntity
  8
0
  6
Continuous
 62
     7
370
    25
100
AcDbCircle
 10
427.9985581361
 20
270.3410145613
 30
0.0
 40
1.5
  0
CIRCLE
  5
294
330
1F
100
AcDbEntity
  8
0
  6
Continuous
 62
     7
370
    25
100
AcDbCircle
 10
439.3122666351
 20
270.3410145613
 30
0.0
 40
1.5
  0
LINE
  5
295
330
1F
100
AcDbEntity
  8
0
  6
Continuous
 62
     7
370
    25
100
AcDbLine
 10
470.1554118491
 20
266.1841603249
 30
0.0
 11
468.6554125346
 21
266.1841603249
 31
0.0
  0
LINE
  5
296
330
1F
100
AcDbEntity
  8
0
  6
Continuous
 62
     7
370
    25
100
AcDbLine
 10
468.6554125346
 20
266.1841603249
 30
0.0
 11
468.6554125346
 21
263.1841602988
 31
0.0
  0
LINE
  5
297
330
1F
100
AcDbEntity
  8
0
  6
Continuous
 62
     7
370
    25
100
AcDbLine
 10
468.6554125346
 20
263.1841602988
 30
0.0
 11
470.1554118491
 21
263.1841602988
 31
0.0
  0
LINE
  5
298
330
1F
100
AcDbEntity
  8
0
  6
Continuous
 62
     7
370
    25
100
AcDbLine
 10
470.1554118491
 20
263.1841602988
 30
0.0
 11
470.1554118491
 21
266.1841603249
 31
0.0
  0
LINE
  5
299
330
1F
100
AcDbEntity
  8
0
  6
Continuous
 62
     7
370
    25
100
AcDbLine
 10
398.6554122366
 20
266.1841603249
 30
0.0
 11
397.155412922
 21
266.1841603249
 31
0.0
  0
LINE
  5
29A
330
1F
100
AcDbEntity
  8
0
  6
Continuous
 62
     7
370
    25
100
AcDbLine
 10
397.155412922
 20
266.1841603249
 30
0.0
 11
397.155412922
 21
263.1841602988
 31
0.0
  0
LINE
  5
29B
330
1F
100
AcDbEntity
  8
0
  6
Continuous
 62
     7
370
    25
100
AcDbLine
 10
397.155412922
 20
263.1841602988
 30
0.0
 11
398.6554122366
 21
263.1841602988
 31
0.0
  0
LINE
  5
29C
330
1F
100
AcDbEntity
  8
0
  6
Continuous
 62
     7
370
    25
100
AcDbLine
 10
398.6554122366
 20
263.1841602988
 30
0.0
 11
398.6554122366
 21
266.1841603249
 31
0.0
  0
LINE
  5
29D
330
1F
100
AcDbEntity
  8
0
  6
Continuous
 62
     7
370
    25
100
AcDbLine
 10
435.1554123986
 20
285.2966609198
 30
0.0
 11
432.1554123725
 21
285.2966609198
 31
0.0
  0
LINE
  5
29E
330
1F
100
AcDbEntity
  8
0
  6
Continuous
 62
     7
370
    25
100
AcDbLine
 10
432.1554123725
 20
285.2966609198
 30
0.0
 11
432.1554123725
 21
283.7966597426
 31
0.0
  0
LINE
  5
29F
330
1F
100
AcDbEntity
  8
0
  6
Continuous
 62
     7
370
    25
100
AcDbLine
 10
432.1554123725
 20
283.7966597426
 30
0.0
 11
435.1554123986
 21
283.7966597426
 31
0.0
  0
LINE
  5
2A0
330
1F
100
AcDbEntity
  8
0
  6
Continuous
 62
     7
370
    25
100
AcDbLine
 10
435.1554123986
 20
283.7966597426
 30
0.0
 11
435.1554123986
 21
285.2966609198
 31
0.0
  0
LINE
  5
2A1
330
1F
100
AcDbEntity
  8
0
  6
Continuous
 62
     7
370
    25
100
AcDbLine
 10
432.1554123725
 20
244.0716597039
 30
0.0
 11
435.1554123986
 21
244.0716597039
 31
0.0
  0
LINE
  5
2A2
330
1F
100
AcDbEntity
  8
0
  6
Continuous
 62
     7
370
    25
100
AcDbLine
 10
435.1554123986
 20
244.0716597039
 30
0.0
 11
435.1554123986
 21
245.5716608811
 31
0.0
  0
LINE
  5
2A3
330
1F
100
AcDbEntity
  8
0
  6
Continuous
 62
     7
370
    25
100
AcDbLine
 10
435.1554123986
 20
245.5716608811
 30
0.0
 11
432.1554123725
 21
245.5716608811
 31
0.0
  0
LINE
  5
2A4
330
1F
100
AcDbEntity
  8
0
  6
Continuous
 62
     7
370
    25
100
AcDbLine
 10
432.1554123725
 20
245.5716608811
 30
0.0
 11
432.1554123725
 21
244.0716597039
 31
0.0
  0
LINE
  5
2A5
330
1F
100
AcDbEntity
  8
0
  6
Continuous
 62
     7
370
    25
100
AcDbLine
 10
424.6398010127
 20
275.8210916791
 30
0.0
 11
423.5791410155
 21
276.8817526075
 31
0.0
  0
LINE
  5
2A6
330
1F
100
AcDbEntity
  8
0
  6
Continuous
 62
     7
370
    25
100
AcDbLine
 10
423.5791410155
 20
276.8817526075
 30
0.0
 11
421.4578200899
 21
274.7604316819
 31
0.0
  0
LINE
  5
2A7
330
1F
100
AcDbEntity
  8
0
  6
Continuous
 62
     7
370
    25
100
AcDbLine
 10
421.4578200899
 20
274.7604316819
 30
0.0
 11
422.5184810183
 21
273.6997716847
 31
0.0
  0
LINE
  5
2A8
330
1F
100
AcDbEntity
  8
0
  6
Continuous
 62
     7
370
    25
100
AcDbLine
 10
422.5184810183
 20
273.6997716847
 30
0.0
 11
424.6398010127
 21
275.8210916791
 31
0.0
  0
LINE
  5
2A9
330
1F
100
AcDbEntity
  8
0
  6
Continuous
 62
     7
370
    25
100
AcDbLine
 10
442.6710237585
 20
253.5472289446
 30
0.0
 11
443.7316837556
 21
252.4865680161
 31
0.0
  0
LINE
  5
2AA
330
1F
100
AcDbEntity
  8
0
  6
Continuous
 62
     7
370
    25
100
AcDbLine
 10
443.7316837556
 20
252.4865680161
 30
0.0
 11
445.8530046813
 21
254.6078889418
 31
0.0
  0
LINE
  5
2AB
330
1F
100
AcDbEntity
  8
0
  6
Continuous
 62
     7
370
    25
100
AcDbLine
 10
445.8530046813
 20
254.6078889418
 30
0.0
 11
444.7923437528
 21
255.668548939
 31
0.0
  0
LINE
  5
2AC
330
1F
100
AcDbEntity
  8
0
  6
Continuous
 62
     7
370
    25
100
AcDbLine
 10
444.7923437528
 20
255.668548939
 30
0.0
 11
442.6710237585
 21
253.5472289446
 31
0.0
  0
LINE
  5
2AD
330
1F
100
AcDbEntity
  8
0
  6
Continuous
 62
     7
370
    25
100
AcDbLine
 10
424.6398010127
 20
253.5472289446
 30
0.0
 11
422.5184810183
 21
255.668548939
 31
0.0
  0
LINE
  5
2AE
330
1F
100
AcDbEntity
  8
0
  6
Continuous
 62
     7
370
    25
100
AcDbLine
 10
422.5184810183
 20
255.668548939
 30
0.0
 11
421.4578200899
 21
254.6078889418
 31
0.0
  0
LINE
  5
2AF
330
1F
100
AcDbEntity
  8
0
  6
Continuous
 62
     7
370
    25
100
AcDbLine
 10
421.4578200899
 20
254.6078889418
 30
0.0
 11
423.5791410155
 21
252.4865680161
 31
0.0
  0
LINE
  5
2B0
330
1F
100
AcDbEntity
  8
0
  6
Continuous
 62
     7
370
    25
100
AcDbLine
 10
423.5791410155
 20
252.4865680161
 30
0.0
 11
424.6398010127
 21
253.5472289446
 31
0.0
  0
LINE
  5
2B1
330
1F
100
AcDbEntity
  8
0
  6
Continuous
 62
     7
370
    25
100
AcDbLine
 10
442.6710237585
 20
275.8210916791
 30
0.0
 11
444.7923437528
 21
273.6997716847
 31
0.0
  0
LINE
  5
2B2
330
1F
100
AcDbEntity
  8
0
  6
Continuous
 62
     7
370
    25
100
AcDbLine
 10
444.7923437528
 20
273.6997716847
 30
0.0
 11
445.8530046813
 21
274.7604316819
 31
0.0
  0
LINE
  5
2B3
330
1F
100
AcDbEntity
  8
0
  6
Continuous
 62
     7
370
    25
100
AcDbLine
 10
445.8530046813
 20
274.7604316819
 30
0.0
 11
443.7316837556
 21
276.8817526075
 31
0.0
  0
LINE
  5
2B4
330
1F
100
AcDbEntity
  8
0
  6
Continuous
 62
     7
370
    25
100
AcDbLine
 10
443.7316837556
 20
276.8817526075
 30
0.0
 11
442.6710237585
 21
275.8210916791
 31
0.0
  0
LINE
  5
2B5
330
1F
100
AcDbEntity
  8
0
  6
Continuous
 62
     7
370
    25
100
AcDbLine
 10
421.1554121993
 20
288.2966595489
 30
0.0
 11
394.1554105676
 21
288.2966595489
 31
0.0
  0
LINE
  5
2B6
330
1F
100
AcDbEntity
  8
0
  6
Continuous
 62
     7
370
    25
100
AcDbLine
 10
473.1554142035
 20
274.6841600883
 30
0.0
 11
473.1554142035
 21
288.2966595489
 31
0.0
  0
LINE
  5
2B7
330
1F
100
AcDbEntity
  8
0
  6
Continuous
 62
     7
370
    25
100
AcDbLine
 10
446.1554125718
 20
241.0716610748
 30
0.0
 11
473.1554142035
 21
241.0716610748
 31
0.0
  0
LINE
  5
2B8
330
1F
100
AcDbEntity
  8
0
  6
Continuous
 62
     7
370
    25
100
AcDbLine
 10
394.1554105676
 20
254.6841605354
 30
0.0
 11
394.1554105676
 21
241.0716610748
 31
0.0
  0
LINE
  5
2B9
330
1F
100
AcDbEntity
  8
0
  6
Continuous
 62
     7
370
    25
100
AcDbLine
 10
473.1554142035
 20
241.0716610748
 30
0.0
 11
473.1554142035
 21
254.6841605354
 31
0.0
  0
LINE
  5
2BA
330
1F
100
AcDbEntity
  8
0
  6
Continuous
 62
     7
370
    25
100
AcDbLine
 10
394.1554105676
 20
288.2966595489
 30
0.0
 11
394.1554105676
 21
274.6841600883
 31
0.0
  0
LINE
  5
2BB
330
1F
100
AcDbEntity
  8
0
  6
Continuous
 62
     7
370
    25
100
AcDbLine
 10
473.1554142035
 20
288.2966595489
 30
0.0
 11
446.1554125718
 21
288.2966595489
 31
0.0
  0
LINE
  5
2BC
330
1F
100
AcDbEntity
  8
0
  6
Continuous
 62
     7
370
    25
100
AcDbLine
 10
394.1554105676
 20
241.0716610748
 30
0.0
 11
421.1554121993
 21
241.0716610748
 31
0.0
  0
ENDSEC
  0
SECTION
  2
OBJECTS
  0
DICTIONARY
  5
C
330
0
100
AcDbDictionary
281
     1
  3
ACAD_GROUP
350
D
  3
ACAD_LAYOUT
350
1A
  3
ACAD_MLINESTYLE
350
17
  3
ACAD_PLOTSETTINGS
350
19
  3
ACAD_PLOTSTYLENAME
350
E
  3
ACAD_SCALELIST
350
47
  0
DICTIONARY
  5
D
102
{ACAD_REACTORS
330
C
102
}
330
C
100
AcDbDictionary
281
     1
  0
DICTIONARY
  5
1A
102
{ACAD_REACTORS
330
C
102
}
330
C
100
AcDbDictionary
281
     1
  3
Layout1
350
1E
  3
Layout2
350
26
  3
Model
350
22
  0
DICTIONARY
  5
17
102
{ACAD_REACTORS
330
C
102
}
330
C
100
AcDbDictionary
281
     1
  3
Standard
350
18
  0
DICTIONARY
  5
19
102
{ACAD_REACTORS
330
C
102
}
330
C
100
AcDbDictionary
281
     1
  0
ACDBDICTIONARYWDFLT
  5
E
102
{ACAD_REACTORS
330
C
102
}
330
C
100
AcDbDictionary
281
     1
  3
Normal
350
F
100
AcDbDictionaryWithDefault
340
F
  0
DICTIONARY
  5
47
102
{ACAD_REACTORS
330
C
102
}
330
C
100
AcDbDictionary
281
     1
  3
A0
350
48
  3
A1
350
49
  3
A2
350
4A
  3
A3
350
4B
  3
A4
350
4C
  3
A5
350
4D
  3
A6
350
4E
  3
A7
350
4F
  3
A8
350
50
  3
A9
350
51
  3
B0
350
52
  3
B1
350
53
  3
B2
350
54
  3
B3
350
55
  3
B4
350
56
  3
B5
350
57
  3
B6
350
58
  3
B7
350
59
  3
B8
350
5A
  3
B9
350
5B
  3
C0
350
5C
  3
C1
350
5D
  3
C2
350
5E
  3
C3
350
5F
  3
C4
350
60
  3
C5
350
61
  3
C6
350
62
  3
C7
350
63
  3
C8
350
64
  3
C9
350
65
  3
D0
350
66
  3
D1
350
67
  3
D2
350
68
  0
LAYOUT
  5
1E
102
{ACAD_REACTORS
330
1A
102
}
330
1A
100
AcDbPlotSettings
  1

  2
none_device
  4

  6

 40
0.0
 41
0.0
 42
0.0
 43
0.0
 44
0.0
 45
0.0
 46
0.0
 47
0.0
 48
0.0
 49
0.0
140
0.0
141
0.0
142
1.0
143
1.0
 70
   688
 72
     1
 73
     0
 74
     5
  7

 75
    16
147
1.0
148
0.0
149
0.0
100
AcDbLayout
  1
Layout1
 70
     1
 71
     1
 10
0.0
 20
0.0
 11
420.0
 21
297.0
 12
0.0
 22
0.0
 32
0.0
 14
1.0000000000E+20
 24
1.0000000000E+20
 34
1.0000000000E+20
 15
-1.0000000000E+20
 25
-1.0000000000E+20
 35
-1.0000000000E+20
146
0.0
 13
0.0
 23
0.0
 33
0.0
 16
1.0
 26
0.0
 36
0.0
 17
0.0
 27
1.0
 37
0.0
 76
     0
330
1B
  0
LAYOUT
  5
26
102
{ACAD_REACTORS
330
1A
102
}
330
1A
100
AcDbPlotSettings
  1

  2
none_device
  4

  6

 40
0.0
 41
0.0
 42
0.0
 43
0.0
 44
0.0
 45
0.0
 46
0.0
 47
0.0
 48
0.0
 49
0.0
140
0.0
141
0.0
142
1.0
143
1.0
 70
   688
 72
     1
 73
     0
 74
     5
  7

 75
    16
147
1.0
148
0.0
149
0.0
100
AcDbLayout
  1
Layout2
 70
     1
 71
     2
 10
0.0
 20
0.0
 11
0.0
 21
0.0
 12
0.0
 22
0.0
 32
0.0
 14
0.0
 24
0.0
 34
0.0
 15
0.0
 25
0.0
 35
0.0
146
0.0
 13
0.0
 23
0.0
 33
0.0
 16
1.0
 26
0.0
 36
0.0
 17
0.0
 27
1.0
 37
0.0
 76
     0
330
23
  0
LAYOUT
  5
22
102
{ACAD_REACTORS
330
1A
102
}
330
1A
100
AcDbPlotSettings
  1

  2
none_device
  4
Letter_(8.50_x_11.00_Inches)
  6

 40
6.35
 41
6.35
 42
6.35000508
 43
6.35000508
 44
215.9
 45
279.4
 46
0.0
 47
0.0
 48
0.0
 49
0.0
140
0.0
141
0.0
142
1.0
143
1.0
 70
  1712
 72
     1
 73
     0
 74
     0
  7

 75
     0
147
1.0
148
0.0
149
0.0
100
AcDbLayout
  1
Model
 70
     1
 71
     0
 10
0.0
 20
0.0
 11
609.6
 21
304.8
 12
0.0
 22
0.0
 32
0.0
 14
0.0
 24
0.0
 34
0.0
 15
609.6
 25
304.8
 35
0.0
146
0.0
 13
0.0
 23
0.0
 33
0.0
 16
1.0
 26
0.0
 36
0.0
 17
0.0
 27
1.0
 37
0.0
 76
     0
330
1F
331
29
  0
MLINESTYLE
  5
18
102
{ACAD_REACTORS
330
17
102
}
330
17
100
AcDbMlineStyle
  2
Standard
 70
     0
  3

 62
   256
 51
90.0
 52
90.0
 71
     2
 49
0.5
 62
   256
  6
BYLAYER
 49
-0.5
 62
   256
  6
BYLAYER
  0
ACDBPLACEHOLDER
  5
F
102
{ACAD_REACTORS
330
E
102
}
330
E
  0
SCALE
  5
48
102
{ACAD_REACTORS
330
47
102
}
330
47
100
AcDbScale
 70
     0
300
1:1
140
1.0
141
1.0
290
     1
  0
SCALE
  5
49
102
{ACAD_REACTORS
330
47
102
}
330
47
100
AcDbScale
 70
     0
300
1:2
140
1.0
141
2.0
290
     0
  0
SCALE
  5
4A
102
{ACAD_REACTORS
330
47
102
}
330
47
100
AcDbScale
 70
     0
300
1:4
140
1.0
141
4.0
290
     0
  0
SCALE
  5
4B
102
{ACAD_REACTORS
330
47
102
}
330
47
100
AcDbScale
 70
     0
300
1:5
140
1.0
141
5.0
290
     0
  0
SCALE
  5
4C
102
{ACAD_REACTORS
330
47
102
}
330
47
100
AcDbScale
 70
     0
300
1:8
140
1.0
141
8.0
290
     0
  0
SCALE
  5
4D
102
{ACAD_REACTORS
330
47
102
}
330
47
100
AcDbScale
 70
     0
300
1:10
140
1.0
141
10.0
290
     0
  0
SCALE
  5
4E
102
{ACAD_REACTORS
330
47
102
}
330
47
100
AcDbScale
 70
     0
300
1:16
140
1.0
141
16.0
290
     0
  0
SCALE
  5
4F
102
{ACAD_REACTORS
330
47
102
}
330
47
100
AcDbScale
 70
     0
300
1:20
140
1.0
141
20.0
290
     0
  0
SCALE
  5
50
102
{ACAD_REACTORS
330
47
102
}
330
47
100
AcDbScale
 70
     0
300
1:30
140
1.0
141
30.0
290
     0
  0
SCALE
  5
51
102
{ACAD_REACTORS
330
47
102
}
330
47
100
AcDbScale
 70
     0
300
1:40
140
1.0
141
40.0
290
     0
  0
SCALE
  5
52
102
{ACAD_REACTORS
330
47
102
}
330
47
100
AcDbScale
 70
     0
300
1:50
140
1.0
141
50.0
290
     0
  0
SCALE
  5
53
102
{ACAD_REACTORS
330
47
102
}
330
47
100
AcDbScale
 70
     0
300
1:100
140
1.0
141
100.0
290
     0
  0
SCALE
  5
54
102
{ACAD_REACTORS
330
47
102
}
330
47
100
AcDbScale
 70
     0
300
2:1
140
2.0
141
1.0
290
     0
  0
SCALE
  5
55
102
{ACAD_REACTORS
330
47
102
}
330
47
100
AcDbScale
 70
     0
300
4:1
140
4.0
141
1.0
290
     0
  0
SCALE
  5
56
102
{ACAD_REACTORS
330
47
102
}
330
47
100
AcDbScale
 70
     0
300
8:1
140
8.0
141
1.0
290
     0
  0
SCALE
  5
57
102
{ACAD_REACTORS
330
47
102
}
330
47
100
AcDbScale
 70
     0
300
10:1
140
10.0
141
1.0
290
     0
  0
SCALE
  5
58
102
{ACAD_REACTORS
330
47
102
}
330
47
100
AcDbScale
 70
     0
300
100:1
140
100.0
141
1.0
290
     0
  0
SCALE
  5
59
102
{ACAD_REACTORS
330
47
102
}
330
47
100
AcDbScale
 70
     0
300
1/128" = 1'-0"
140
0.0078125
141
12.0
290
     0
  0
SCALE
  5
5A
102
{ACAD_REACTORS
330
47
102
}
330
47
100
AcDbScale
 70
     0
300
1/64" = 1'-0"
140
0.015625
141
12.0
290
     0
  0
SCALE
  5
5B
102
{ACAD_REACTORS
330
47
102
}
330
47
100
AcDbScale
 70
     0
300
1/32" = 1'-0"
140
0.03125
141
12.0
290
     0
  0
SCALE
  5
5C
102
{ACAD_REACTORS
330
47
102
}
330
47
100
AcDbScale
 70
     0
300
1/16" = 1'-0"
140
0.0625
141
12.0
290
     0
  0
SCALE
  5
5D
102
{ACAD_REACTORS
330
47
102
}
330
47
100
AcDbScale
 70
     0
300
3/32" = 1'-0"
140
0.09375
141
12.0
290
     0
  0
SCALE
  5
5E
102
{ACAD_REACTORS
330
47
102
}
330
47
100
AcDbScale
 70
     0
300
1/8" = 1'-0"
140
0.125
141
12.0
290
     0
  0
SCALE
  5
5F
102
{ACAD_REACTORS
330
47
102
}
330
47
100
AcDbScale
 70
     0
300
3/16" = 1'-0"
140
0.1875
141
12.0
290
     0
  0
SCALE
  5
60
102
{ACAD_REACTORS
330
47
102
}
330
47
100
AcDbScale
 70
     0
300
1/4" = 1'-0"
140
0.25
141
12.0
290
     0
  0
SCALE
  5
61
102
{ACAD_REACTORS
330
47
102
}
330
47
100
AcDbScale
 70
     0
300
3/8" = 1'-0"
140
0.375
141
12.0
290
     0
  0
SCALE
  5
62
102
{ACAD_REACTORS
330
47
102
}
330
47
100
AcDbScale
 70
     0
300
1/2" = 1'-0"
140
0.5
141
12.0
290
     0
  0
SCALE
  5
63
102
{ACAD_REACTORS
330
47
102
}
330
47
100
AcDbScale
 70
     0
300
3/4" = 1'-0"
140
0.75
141
12.0
290
     0
  0
SCALE
  5
64
102
{ACAD_REACTORS
330
47
102
}
330
47
100
AcDbScale
 70
     0
300
1" = 1'-0"
140
1.0
141
12.0
290
     0
  0
SCALE
  5
65
102
{ACAD_REACTORS
330
47
102
}
330
47
100
AcDbScale
 70
     0
300
1-1/2" = 1'-0"
140
1.5
141
12.0
290
     0
  0
SCALE
  5
66
102
{ACAD_REACTORS
330
47
102
}
330
47
100
AcDbScale
 70
     0
300
3" = 1'-0"
140
3.0
141
12.0
290
     0
  0
SCALE
  5
67
102
{ACAD_REACTORS
330
47
102
}
330
47
100
AcDbScale
 70
     0
300
6" = 1'-0"
140
6.0
141
12.0
290
     0
  0
SCALE
  5
68
102
{ACAD_REACTORS
330
47
102
}
330
47
100
AcDbScale
 70
     0
300
1'-0" = 1'-0"
140
12.0
141
12.0
290
     0
  0
ENDSEC
  0
EOF
