  0
SECTION
  2
HEADER
  9
$ACADVER
  1
AC1015
  9
$ACADMAINTVER
 70
     6
  9
$DWGCODEPAGE
  3
ANSI_1252
  9
$INSBASE
 10
0.0
 20
0.0
 30
0.0
  9
$EXTMIN
 10
0.0
 20
0.0
 30
0.0
  9
$EXTMAX
 10
609.6
 20
304.8
 30
0.0
  9
$LIMMIN
 10
0.0
 20
0.0
  9
$LIMMAX
 10
609.6
 20
304.8
  9
$ORTHOMODE
 70
     0
  9
$REGENMODE
 70
     1
  9
$FILLMODE
 70
     1
  9
$QTEXTMODE
 70
     0
  9
$MIRRTEXT
 70
     1
  9
$LTSCALE
 40
1.0
  9
$ATTMODE
 70
     1
  9
$TEXTSIZE
 40
3.5
  9
$TRACEWID
 40
1.0
  9
$TEXTSTYLE
  7
Standard
  9
$CLAYER
  8
0
  9
$CELTYPE
  6
ByLayer
  9
$CECOLOR
 62
   256
  9
$CELTSCALE
 40
1.0
  9
$DISPSILH
 70
     0
  9
$DIMSCALE
 40
1.0
  9
$DIMASZ
 40
3.302
  9
$DIMEXO
 40
1.0
  9
$DIMDLI
 40
3.75
  9
$DIMRND
 40
0.0
  9
$DIMDLE
 40
0.0
  9
$DIMEXE
 40
1.0
  9
$DIMTP
 40
0.0
  9
$DIMTM
 40
0.0
  9
$DIMTXT
 40
3.5
  9
$DIMCEN
 40
2.5
  9
$DIMTSZ
 40
0.0
  9
$DIMTOL
 70
     0
  9
$DIMLIM
 70
     0
  9
$DIMTIH
 70
     1
  9
$DIMTOH
 70
     1
  9
$DIMSE1
 70
     0
  9
$DIMSE2
 70
     0
  9
$DIMTAD
 70
     1
  9
$DIMZIN
 70
     0
  9
$DIMBLK
  1

  9
$DIMASO
 70
     1
  9
$DIMSHO
 70
     1
  9
$DIMPOST
  1

  9
$DIMAPOST
  1

  9
$DIMALT
 70
     0
  9
$DIMALTD
 70
     3
  9
$DIMALTF
 40
0.0393700787
  9
$DIMLFAC
 40
1.0
  9
$DIMTOFL
 70
     1
  9
$DIMTVP
 40
0.0
  9
$DIMTIX
 70
     0
  9
$DIMSOXD
 70
     0
  9
$DIMSAH
 70
     0
  9
$DIMBLK1
  1

  9
$DIMBLK2
  1

  9
$DIMSTYLE
  2
ISO-25
  9
$DIMCLRD
 70
     0
  9
$DIMCLRE
 70
     0
  9
$DIMCLRT
 70
     0
  9
$DIMTFAC
 40
1.0
  9
$DIMGAP
 40
1.524
  9
$DIMJUST
 70
     0
  9
$DIMSD1
 70
     0
  9
$DIMSD2
 70
     0
  9
$DIMTOLJ
 70
     0
  9
$DIMTZIN
 70
     0
  9
$DIMALTZ
 70
     0
  9
$DIMALTTZ
 70
     0
  9
$DIMUPT
 70
     0
  9
$DIMDEC
 70
     2
  9
$DIMTDEC
 70
     2
  9
$DIMALTU
 70
     2
  9
$DIMALTTD
 70
     3
  9
$DIMTXSTY
  7
Standard
  9
$DIMAUNIT
 70
     0
  9
$DIMADEC
 70
     2
  9
$DIMALTRND
 40
0.0
  9
$DIMAZIN
 70
     0
  9
$DIMDSEP
 70
    44
  9
$DIMATFIT
 70
     3
  9
$DIMFRAC
 70
     0
  9
$DIMLDRBLK
  1

  9
$DIMLUNIT
 70
     2
  9
$DIMLWD
 70
    -2
  9
$DIMLWE
 70
    -2
  9
$DIMTMOVE
 70
     0
  9
$LUNITS
 70
     2
  9
$LUPREC
 70
     2
  9
$SKETCHINC
 40
1.0
  9
$FILLETRAD
 40
10.0
  9
$AUNITS
 70
     0
  9
$AUPREC
 70
     2
  9
$MENU
  1
.
  9
$ELEVATION
 40
0.0
  9
$PELEVATION
 40
0.0
  9
$THICKNESS
 40
0.0
  9
$LIMCHECK
 70
     0
  9
$CHAMFERA
 40
0.0
  9
$CHAMFERB
 40
0.0
  9
$CHAMFERC
 40
0.0
  9
$CHAMFERD
 40
0.0
  9
$SKPOLY
 70
     0
  9
$TDCREATE
 40
2458696.837092026
  9
$TDUCREATE
 40
2458697.045425359
  9
$TDUPDATE
 40
2458696.83709316
  9
$TDUUPDATE
 40
2458697.045426493
  9
$TDINDWG
 40
0.0000000116
  9
$TDUSRTIMER
 40
0.0000000116
  9
$USRTIMER
 70
     1
  9
$ANGBASE
 50
0.0
  9
$ANGDIR
 70
     0
  9
$PDMODE
 70
     0
  9
$PDSIZE
 40
-1.0
  9
$PLINEWID
 40
0.0
  9
$SPLFRAME
 70
     0
  9
$SPLINETYPE
 70
     6
  9
$SPLINESEGS
 70
     8
  9
$HANDSEED
  5
337
  9
$SURFTAB1
 70
     6
  9
$SURFTAB2
 70
     6
  9
$SURFTYPE
 70
     6
  9
$SURFU
 70
     6
  9
$SURFV
 70
     6
  9
$UCSBASE
  2

  9
$UCSNAME
  2

  9
$UCSORG
 10
0.0
 20
0.0
 30
0.0
  9
$UCSXDIR
 10
1.0
 20
0.0
 30
0.0
  9
$UCSYDIR
 10
0.0
 20
1.0
 30
0.0
  9
$UCSORTHOREF
  2

  9
$UCSORTHOVIEW
 70
     0
  9
$UCSORGTOP
 10
0.0
 20
0.0
 30
0.0
  9
$UCSORGBOTTOM
 10
0.0
 20
0.0
 30
0.0
  9
$UCSORGLEFT
 10
0.0
 20
0.0
 30
0.0
  9
$UCSORGRIGHT
 10
0.0
 20
0.0
 30
0.0
  9
$UCSORGFRONT
 10
0.0
 20
0.0
 30
0.0
  9
$UCSORGBACK
 10
0.0
 20
0.0
 30
0.0
  9
$PUCSBASE
  2

  9
$PUCSNAME
  2

  9
$PUCSORG
 10
0.0
 20
0.0
 30
0.0
  9
$PUCSXDIR
 10
1.0
 20
0.0
 30
0.0
  9
$PUCSYDIR
 10
0.0
 20
1.0
 30
0.0
  9
$PUCSORTHOREF
  2

  9
$PUCSORTHOVIEW
 70
     0
  9
$PUCSORGTOP
 10
0.0
 20
0.0
 30
0.0
  9
$PUCSORGBOTTOM
 10
0.0
 20
0.0
 30
0.0
  9
$PUCSORGLEFT
 10
0.0
 20
0.0
 30
0.0
  9
$PUCSORGRIGHT
 10
0.0
 20
0.0
 30
0.0
  9
$PUCSORGFRONT
 10
0.0
 20
0.0
 30
0.0
  9
$PUCSORGBACK
 10
0.0
 20
0.0
 30
0.0
  9
$USERI1
 70
     0
  9
$USERI2
 70
     0
  9
$USERI3
 70
     0
  9
$USERI4
 70
     0
  9
$USERI5
 70
     0
  9
$USERR1
 40
0.0
  9
$USERR2
 40
0.0
  9
$USERR3
 40
0.0
  9
$USERR4
 40
0.0
  9
$USERR5
 40
0.0
  9
$WORLDVIEW
 70
     1
  9
$SHADEDGE
 70
     3
  9
$SHADEDIF
 70
    70
  9
$TILEMODE
 70
     1
  9
$MAXACTVP
 70
    64
  9
$PINSBASE
 10
0.0
 20
0.0
 30
0.0
  9
$PLIMCHECK
 70
     0
  9
$PEXTMIN
 10
1.0000000000E+20
 20
1.0000000000E+20
 30
1.0000000000E+20
  9
$PEXTMAX
 10
-1.0000000000E+20
 20
-1.0000000000E+20
 30
-1.0000000000E+20
  9
$PLIMMIN
 10
0.0
 20
0.0
  9
$PLIMMAX
 10
420.0
 20
297.0
  9
$UNITMODE
 70
     0
  9
$VISRETAIN
 70
     1
  9
$PLINEGEN
 70
     0
  9
$PSLTSCALE
 70
     1
  9
$TREEDEPTH
 70
  3020
  9
$CMLSTYLE
  2
Standard
  9
$CMLJUST
 70
     0
  9
$CMLSCALE
 40
20.0
  9
$PROXYGRAPHICS
 70
     1
  9
$MEASUREMENT
 70
     1
  9
$CELWEIGHT
370
    -1
  9
$ENDCAPS
280
     0
  9
$JOINSTYLE
280
     0
  9
$LWDISPLAY
290
     1
  9
$INSUNITS
 70
     4
  9
$HYPERLINKBASE
  1

  9
$STYLESHEET
  1

  9
$XEDIT
290
     1
  9
$CEPSNTYPE
380
     0
  9
$PSTYLEMODE
290
     1
  9
$FINGERPRINTGUID
  2
{FEB70C94-3BA6-4FBA-B57F-8A6F617513E3}
  9
$VERSIONGUID
  2
{FAEB1C32-E019-11D5-929B-00C0DF256EC4}
  9
$EXTNAMES
290
     1
  9
$PSVPSCALE
 40
0.0
  9
$OLESTARTUP
290
     0
  0
ENDSEC
  0
SECTION
  2
CLASSES
  0
CLASS
  1
ACDBDICTIONARYWDFLT
  2
AcDbDictionaryWithDefault
  3
ObjectDBX Classes
 90
        0
280
     0
281
     0
  0
CLASS
  1
VISUALSTYLE
  2
AcDbVisualStyle
  3
ObjectDBX Classes
 90
     4095
280
     0
281
     0
  0
CLASS
  1
MATERIAL
  2
AcDbMaterial
  3
ObjectDBX Classes
 90
     1153
280
     0
281
     0
  0
CLASS
  1
SCALE
  2
AcDbScale
  3
ObjectDBX Classes
 90
     1153
280
     0
281
     0
  0
CLASS
  1
TABLESTYLE
  2
AcDbTableStyle
  3
ObjectDBX Classes
 90
     4095
280
     0
281
     0
  0
CLASS
  1
MLEADERSTYLE
  2
AcDbMLeaderStyle
  3
ACDB_MLEADERSTYLE_CLASS
 90
     4095
280
     0
281
     0
  0
CLASS
  1
SUN
  2
AcDbSun
  3
SCENEOE
 90
     1153
280
     0
281
     0
  0
CLASS
  1
ACDBPLACEHOLDER
  2
AcDbPlaceHolder
  3
ObjectDBX Classes
 90
        0
280
     0
281
     0
  0
CLASS
  1
LAYOUT
  2
AcDbLayout
  3
ObjectDBX Classes
 90
        0
280
     0
281
     0
  0
ENDSEC
  0
SECTION
  2
TABLES
  0
TABLE
  2
VPORT
  5
8
330
0
100
AcDbSymbolTable
 70
     1
  0
VPORT
  5
29
330
8
100
AcDbSymbolTableRecord
100
AcDbViewportTableRecord
  2
*Active
 70
     0
 10
0.0
 20
0.0
 11
1.0
 21
1.0
 12
304.8
 22
152.4
 13
0.0
 23
0.0
 14
10.0
 24
10.0
 15
10.0
 25
10.0
 16
0.0
 26
0.0
 36
1.0
 17
0.0
 27
0.0
 37
0.0
 40
304.8
 41
2.0
 42
50.0
 43
0.0
 44
0.0
 50
0.0
 51
0.0
 71
     0
 72
  2000
 73
     1
 74
     3
 75
     0
 76
     0
 77
     0
 78
     0
281
     0
 65
     1
110
0.0
120
0.0
130
0.0
111
1.0
121
0.0
131
0.0
112
0.0
122
1.0
132
0.0
 79
     0
146
0.0
  0
ENDTAB
  0
TABLE
  2
LTYPE
  5
5
330
0
100
AcDbSymbolTable
 70
     6
  0
LTYPE
  5
14
330
5
100
AcDbSymbolTableRecord
100
AcDbLinetypeTableRecord
  2
ByBlock
 70
     0
  3

 72
    65
 73
     0
 40
0.0
  0
LTYPE
  5
15
330
5
100
AcDbSymbolTableRecord
100
AcDbLinetypeTableRecord
  2
ByLayer
 70
     0
  3

 72
    65
 73
     0
 40
0.0
  0
LTYPE
  5
16
330
5
100
AcDbSymbolTableRecord
100
AcDbLinetypeTableRecord
  2
Continuous
 70
     0
  3
Solid line
 72
    65
 73
     0
 40
0.0
  0
LTYPE
  5
6E
330
5
100
AcDbSymbolTableRecord
100
AcDbLinetypeTableRecord
  2
HIDDEN
 70
     0
  3
Hidden __ __ __ __ __ __ __ __ __ __ __ __ __ __
 72
    65
 73
     2
 40
1.905
 49
1.27
 74
     0
 49
-0.635
 74
     0
  0
LTYPE
  5
6F
330
5
100
AcDbSymbolTableRecord
100
AcDbLinetypeTableRecord
  2
PHANTOM
 70
     0
  3
Phantom ______  __  __  ______  __  __  ______
 72
    65
 73
     6
 40
12.7
 49
6.35
 74
     0
 49
-1.27
 74
     0
 49
1.27
 74
     0
 49
-1.27
 74
     0
 49
1.27
 74
     0
 49
-1.27
 74
     0
  0
LTYPE
  5
70
330
5
100
AcDbSymbolTableRecord
100
AcDbLinetypeTableRecord
  2
CENTER
 70
     0
  3
Center ____ _ ____ _ ____ _ ____ _ ____ _ ____
 72
    65
 73
     4
 40
10.16
 49
6.35
 74
     0
 49
-1.27
 74
     0
 49
1.27
 74
     0
 49
-1.27
 74
     0
  0
LTYPE
  5
71
330
5
100
AcDbSymbolTableRecord
100
AcDbLinetypeTableRecord
  2
CENTERX2
 70
     0
  3
Center (2x) ________  __  ________  __  _____
 72
    65
 73
     4
 40
20.32
 49
12.7
 74
     0
 49
-2.54
 74
     0
 49
2.54
 74
     0
 49
-2.54
 74
     0
  0
LTYPE
  5
72
330
5
100
AcDbSymbolTableRecord
100
AcDbLinetypeTableRecord
  2
DOT2
 70
     0
  3
Dot (.5x) ........................................
 72
    65
 73
     2
 40
0.635
 49
0.0
 74
     0
 49
-0.635
 74
     0
  0
ENDTAB
  0
TABLE
  2
LAYER
  5
2
330
0
100
AcDbSymbolTable
 70
     1
  0
LAYER
  5
10
330
2
100
AcDbSymbolTableRecord
100
AcDbLayerTableRecord
  2
0
 70
     0
 62
     7
  6
Continuous
370
    -3
390
F
  0
ENDTAB
  0
TABLE
  2
STYLE
  5
3
330
0
100
AcDbSymbolTable
 70
     1
  0
STYLE
  5
11
330
3
100
AcDbSymbolTableRecord
100
AcDbTextStyleTableRecord
  2
Standard
 70
     0
 40
0.0
 41
1.0
 50
0.0
 71
     0
 42
3.5
  3
txt
  4

  0
ENDTAB
  0
TABLE
  2
VIEW
  5
6
330
0
100
AcDbSymbolTable
 70
     0
  0
ENDTAB
  0
TABLE
  2
UCS
  5
7
330
0
100
AcDbSymbolTable
 70
     0
  0
ENDTAB
  0
TABLE
  2
APPID
  5
9
330
0
100
AcDbSymbolTable
 70
     1
  0
APPID
  5
12
330
9
100
AcDbSymbolTableRecord
100
AcDbRegAppTableRecord
  2
ACAD
 70
     0
  0
ENDTAB
  0
TABLE
  2
DIMSTYLE
  5
A
330
0
100
AcDbSymbolTable
 70
     1
100
AcDbDimStyleTable
  0
DIMSTYLE
105
27
330
A
100
AcDbSymbolTableRecord
100
AcDbDimStyleTableRecord
  2
ISO-25
 70
     0
 41
2.5
 42
0.625
 43
3.75
 44
1.25
 73
     0
 74
     0
 77
     1
 78
     8
140
2.5
141
2.5
143
0.0393700787
147
0.625
171
     3
172
     1
178
     0
271
     2
272
     2
274
     3
278
    44
283
     0
284
     8
340
11
  0
ENDTAB
  0
TABLE
  2
BLOCK_RECORD
  5
1
330
0
100
AcDbSymbolTable
 70
     1
  0
BLOCK_RECORD
  5
1F
330
1
100
AcDbSymbolTableRecord
100
AcDbBlockTableRecord
  2
*Model_Space
340
22
  0
BLOCK_RECORD
  5
1B
330
1
100
AcDbSymbolTableRecord
100
AcDbBlockTableRecord
  2
*Paper_Space
340
1E
  0
BLOCK_RECORD
  5
23
330
1
100
AcDbSymbolTableRecord
100
AcDbBlockTableRecord
  2
*Paper_Space0
340
26
  0
ENDTAB
  0
ENDSEC
  0
SECTION
  2
BLOCKS
  0
BLOCK
  5
20
330
1F
100
AcDbEntity
  8
0
100
AcDbBlockBegin
  2
*Model_Space
 70
     0
 10
0.0
 20
0.0
 30
0.0
  3
*Model_Space
  1

  0
ENDBLK
  5
21
330
1F
100
AcDbEntity
  8
0
100
AcDbBlockEnd
  0
BLOCK
  5
1C
330
1B
100
AcDbEntity
 67
     1
  8
0
100
AcDbBlockBegin
  2
*Paper_Space
 70
     0
 10
0.0
 20
0.0
 30
0.0
  3
*Paper_Space
  1

  0
ENDBLK
  5
1D
330
1B
100
AcDbEntity
 67
     1
  8
0
100
AcDbBlockEnd
  0
BLOCK
  5
24
330
23
100
AcDbEntity
  8
0
100
AcDbBlockBegin
  2
*Paper_Space0
 70
     0
 10
0.0
 20
0.0
 30
0.0
  3
*Paper_Space0
  1

  0
ENDBLK
  5
25
330
23
100
AcDbEntity
  8
0
100
AcDbBlockEnd
  0
ENDSEC
  0
SECTION
  2
ENTITIES
  0
LINE
  5
73
330
1F
100
AcDbEntity
  8
0
  6
Continuous
 62
     7
370
    25
100
AcDbLine
 10
604.5686737674
 20
263.0338672323
 30
0.0
 11
601.5686527866
 21
263.0338672323
 31
0.0
  0
LINE
  5
74
330
1F
100
AcDbEntity
  8
0
  6
Continuous
 62
     7
370
    25
100
AcDbLine
 10
604.5686737674
 20
248.0338675676
 30
0.0
 11
604.5686737674
 21
263.0338672323
 31
0.0
  0
LINE
  5
75
330
1F
100
AcDbEntity
  8
0
  6
Continuous
 62
     7
370
    25
100
AcDbLine
 10
601.5686527866
 20
248.0338675676
 30
0.0
 11
604.5686737674
 21
248.0338675676
 31
0.0
  0
LINE
  5
76
330
1F
100
AcDbEntity
  8
0
  6
Continuous
 62
     7
370
    25
100
AcDbLine
 10
581.5686718601
 20
237.5338681748
 30
0.0
 11
581.5686718601
 21
240.5338677352
 31
0.0
  0
LINE
  5
77
330
1F
100
AcDbEntity
  8
0
  6
Continuous
 62
     7
370
    25
100
AcDbLine
 10
561.5686611312
 20
237.5338681748
 30
0.0
 11
581.5686718601
 21
237.5338681748
 31
0.0
  0
LINE
  5
78
330
1F
100
AcDbEntity
  8
0
  6
Continuous
 62
     7
370
    25
100
AcDbLine
 10
561.5686611312
 20
240.5338677352
 30
0.0
 11
561.5686611312
 21
237.5338681748
 31
0.0
  0
LINE
  5
79
330
1F
100
AcDbEntity
  8
0
  6
Continuous
 62
     7
370
    25
100
AcDbLine
 10
314.568661623
 20
237.5338681748
 30
0.0
 11
314.568661623
 21
240.5338677352
 31
0.0
  0
LINE
  5
7A
330
1F
100
AcDbEntity
  8
0
  6
Continuous
 62
     7
370
    25
100
AcDbLine
 10
294.56866207
 20
237.5338681748
 30
0.0
 11
314.568661623
 21
237.5338681748
 31
0.0
  0
LINE
  5
7B
330
1F
100
AcDbEntity
  8
0
  6
Continuous
 62
     7
370
    25
100
AcDbLine
 10
294.56866207
 20
240.5338677352
 30
0.0
 11
294.56866207
 21
237.5338681748
 31
0.0
  0
LINE
  5
7C
330
1F
100
AcDbEntity
  8
0
  6
Continuous
 62
     7
370
    25
100
AcDbLine
 10
47.5686625617
 20
237.5338681748
 30
0.0
 11
47.5686625617
 21
240.5338677352
 31
0.0
  0
LINE
  5
7D
330
1F
100
AcDbEntity
  8
0
  6
Continuous
 62
     7
370
    25
100
AcDbLine
 10
27.5686518329
 20
237.5338681748
 30
0.0
 11
47.5686625617
 21
237.5338681748
 31
0.0
  0
LINE
  5
7E
330
1F
100
AcDbEntity
  8
0
  6
Continuous
 62
     7
370
    25
100
AcDbLine
 10
27.5686518329
 20
240.5338677352
 30
0.0
 11
27.5686518329
 21
237.5338681748
 31
0.0
  0
LINE
  5
7F
330
1F
100
AcDbEntity
  8
0
  6
Continuous
 62
     7
370
    25
100
AcDbLine
 10
4.5686499256
 20
248.0338675676
 30
0.0
 11
7.5686709064
 21
248.0338675676
 31
0.0
  0
LINE
  5
80
330
1F
100
AcDbEntity
  8
0
  6
Continuous
 62
     7
370
    25
100
AcDbLine
 10
4.5686499256
 20
263.0338672323
 30
0.0
 11
4.5686499256
 21
248.0338675676
 31
0.0
  0
LINE
  5
81
330
1F
100
AcDbEntity
  8
0
  6
Continuous
 62
     7
370
    25
100
AcDbLine
 10
7.5686709064
 20
263.0338672323
 30
0.0
 11
4.5686499256
 21
263.0338672323
 31
0.0
  0
ARC
  5
82
330
1F
100
AcDbEntity
  8
0
  6
Continuous
 62
     7
370
    25
100
AcDbCircle
 10
27.5686618465
 20
275.5338673999
 30
0.0
 40
20.00000000000002
100
AcDbArc
 50
90.0
 51
180.0
  0
ARC
  5
83
330
1F
100
AcDbEntity
  8
0
  6
Continuous
 62
     7
370
    25
100
AcDbCircle
 10
581.5686618465
 20
275.5338673999
 30
0.0
 40
20.0
100
AcDbArc
 50
0.0
 51
90.0
  0
LINE
  5
84
330
1F
100
AcDbEntity
  8
0
  6
Continuous
 62
     7
370
    25
100
AcDbLine
 10
10.5686620849
 20
254.0338673869
 30
0.0
 11
12.0686725753
 21
254.0338673869
 31
0.0
  0
LINE
  5
85
330
1F
100
AcDbEntity
  8
0
  6
Continuous
 62
     7
370
    25
100
AcDbLine
 10
12.0686725753
 20
254.0338673869
 30
0.0
 11
12.0686725753
 21
257.033867413
 31
0.0
  0
LINE
  5
86
330
1F
100
AcDbEntity
  8
0
  6
Continuous
 62
     7
370
    25
100
AcDbLine
 10
12.0686725753
 20
257.033867413
 30
0.0
 11
10.5686620849
 21
257.033867413
 31
0.0
  0
LINE
  5
87
330
1F
100
AcDbEntity
  8
0
  6
Continuous
 62
     7
370
    25
100
AcDbLine
 10
10.5686620849
 20
257.033867413
 30
0.0
 11
10.5686620849
 21
254.0338673869
 31
0.0
  0
LINE
  5
88
330
1F
100
AcDbEntity
  8
0
  6
Continuous
 62
     7
370
    25
100
AcDbLine
 10
597.0686511177
 20
254.0338673869
 30
0.0
 11
598.5686616081
 21
254.0338673869
 31
0.0
  0
LINE
  5
89
330
1F
100
AcDbEntity
  8
0
  6
Continuous
 62
     7
370
    25
100
AcDbLine
 10
598.5686616081
 20
254.0338673869
 30
0.0
 11
598.5686616081
 21
257.033867413
 31
0.0
  0
LINE
  5
8A
330
1F
100
AcDbEntity
  8
0
  6
Continuous
 62
     7
370
    25
100
AcDbLine
 10
598.5686616081
 20
257.033867413
 30
0.0
 11
597.0686511177
 21
257.033867413
 31
0.0
  0
LINE
  5
8B
330
1F
100
AcDbEntity
  8
0
  6
Continuous
 62
     7
370
    25
100
AcDbLine
 10
597.0686511177
 20
257.033867413
 30
0.0
 11
597.0686511177
 21
254.0338673869
 31
0.0
  0
LINE
  5
8C
330
1F
100
AcDbEntity
  8
0
  6
Continuous
 62
     7
370
    25
100
AcDbLine
 10
36.0686616081
 20
243.5338672956
 30
0.0
 11
39.0686527866
 21
243.5338672956
 31
0.0
  0
LINE
  5
8D
330
1F
100
AcDbEntity
  8
0
  6
Continuous
 62
     7
370
    25
100
AcDbLine
 10
39.0686527866
 20
243.5338672956
 30
0.0
 11
39.0686527866
 21
245.0338675415
 31
0.0
  0
LINE
  5
8E
330
1F
100
AcDbEntity
  8
0
  6
Continuous
 62
     7
370
    25
100
AcDbLine
 10
39.0686527866
 20
245.0338675415
 30
0.0
 11
36.0686616081
 21
245.0338675415
 31
0.0
  0
LINE
  5
8F
330
1F
100
AcDbEntity
  8
0
  6
Continuous
 62
     7
370
    25
100
AcDbLine
 10
36.0686616081
 20
245.0338675415
 30
0.0
 11
36.0686616081
 21
243.5338672956
 31
0.0
  0
LINE
  5
90
330
1F
100
AcDbEntity
  8
0
  6
Continuous
 62
     7
370
    25
100
AcDbLine
 10
570.0686709064
 20
245.0338675415
 30
0.0
 11
570.0686709064
 21
243.5338672956
 31
0.0
  0
LINE
  5
91
330
1F
100
AcDbEntity
  8
0
  6
Continuous
 62
     7
370
    25
100
AcDbLine
 10
570.0686709064
 20
243.5338672956
 30
0.0
 11
573.0686620849
 21
243.5338672956
 31
0.0
  0
LINE
  5
92
330
1F
100
AcDbEntity
  8
0
  6
Continuous
 62
     7
370
    25
100
AcDbLine
 10
573.0686620849
 20
243.5338672956
 30
0.0
 11
573.0686620849
 21
245.0338675415
 31
0.0
  0
LINE
  5
93
330
1F
100
AcDbEntity
  8
0
  6
Continuous
 62
     7
370
    25
100
AcDbLine
 10
573.0686620849
 20
245.0338675415
 30
0.0
 11
570.0686709064
 21
245.0338675415
 31
0.0
  0
LINE
  5
94
330
1F
100
AcDbEntity
  8
0
  6
Continuous
 62
     7
370
    25
100
AcDbLine
 10
303.0686618335
 20
245.0338675415
 30
0.0
 11
303.0686618335
 21
243.5338672956
 31
0.0
  0
LINE
  5
95
330
1F
100
AcDbEntity
  8
0
  6
Continuous
 62
     7
370
    25
100
AcDbLine
 10
303.0686618335
 20
243.5338672956
 30
0.0
 11
306.0686618595
 21
243.5338672956
 31
0.0
  0
LINE
  5
96
330
1F
100
AcDbEntity
  8
0
  6
Continuous
 62
     7
370
    25
100
AcDbLine
 10
306.0686618595
 20
243.5338672956
 30
0.0
 11
306.0686618595
 21
245.0338675415
 31
0.0
  0
LINE
  5
97
330
1F
100
AcDbEntity
  8
0
  6
Continuous
 62
     7
370
    25
100
AcDbLine
 10
306.0686618595
 20
245.0338675415
 30
0.0
 11
303.0686618335
 21
245.0338675415
 31
0.0
  0
LINE
  5
98
330
1F
100
AcDbEntity
  8
0
  6
Continuous
 62
     7
370
    25
100
AcDbLine
 10
236.2311617511
 20
249.2838673068
 30
0.0
 11
239.4061596173
 21
249.2838673068
 31
0.0
  0
LINE
  5
99
330
1F
100
AcDbEntity
  8
0
  6
Continuous
 62
     7
370
    25
100
AcDbLine
 10
239.4061596173
 20
249.2838673068
 30
0.0
 11
239.4061596173
 21
261.7838674931
 31
0.0
  0
LINE
  5
9A
330
1F
100
AcDbEntity
  8
0
  6
Continuous
 62
     7
370
    25
100
AcDbLine
 10
239.4061596173
 20
261.7838674931
 30
0.0
 11
236.2311617511
 21
261.7838674931
 31
0.0
  0
LINE
  5
9B
330
1F
100
AcDbEntity
  8
0
  6
Continuous
 62
     7
370
    25
100
AcDbLine
 10
236.2311617511
 20
261.7838674931
 30
0.0
 11
236.2311617511
 21
249.2838673068
 31
0.0
  0
LINE
  5
9C
330
1F
100
AcDbEntity
  8
0
  6
Continuous
 62
     7
370
    25
100
AcDbLine
 10
102.7311668771
 20
249.2838673068
 30
0.0
 11
105.9061572927
 21
249.2838673068
 31
0.0
  0
LINE
  5
9D
330
1F
100
AcDbEntity
  8
0
  6
Continuous
 62
     7
370
    25
100
AcDbLine
 10
105.9061572927
 20
249.2838673068
 30
0.0
 11
105.9061572927
 21
261.7838674931
 31
0.0
  0
LINE
  5
9E
330
1F
100
AcDbEntity
  8
0
  6
Continuous
 62
     7
370
    25
100
AcDbLine
 10
105.9061572927
 20
261.7838674931
 30
0.0
 11
102.7311668771
 21
261.7838674931
 31
0.0
  0
LINE
  5
9F
330
1F
100
AcDbEntity
  8
0
  6
Continuous
 62
     7
370
    25
100
AcDbLine
 10
102.7311668771
 20
261.7838674931
 30
0.0
 11
102.7311668771
 21
249.2838673068
 31
0.0
  0
LINE
  5
A0
330
1F
100
AcDbEntity
  8
0
  6
Continuous
 62
     7
370
    25
100
AcDbLine
 10
369.7311640757
 20
249.2838673068
 30
0.0
 11
372.9061619419
 21
249.2838673068
 31
0.0
  0
LINE
  5
A1
330
1F
100
AcDbEntity
  8
0
  6
Continuous
 62
     7
370
    25
100
AcDbLine
 10
372.9061619419
 20
249.2838673068
 30
0.0
 11
372.9061619419
 21
261.7838674931
 31
0.0
  0
LINE
  5
A2
330
1F
100
AcDbEntity
  8
0
  6
Continuous
 62
     7
370
    25
100
AcDbLine
 10
372.9061619419
 20
261.7838674931
 30
0.0
 11
369.7311640757
 21
261.7838674931
 31
0.0
  0
LINE
  5
A3
330
1F
100
AcDbEntity
  8
0
  6
Continuous
 62
     7
370
    25
100
AcDbLine
 10
369.7311640757
 20
261.7838674931
 30
0.0
 11
369.7311640757
 21
249.2838673068
 31
0.0
  0
LINE
  5
A4
330
1F
100
AcDbEntity
  8
0
  6
Continuous
 62
     7
370
    25
100
AcDbLine
 10
503.2311664003
 20
249.2838673068
 30
0.0
 11
506.4061568159
 21
249.2838673068
 31
0.0
  0
LINE
  5
A5
330
1F
100
AcDbEntity
  8
0
  6
Continuous
 62
     7
370
    25
100
AcDbLine
 10
506.4061568159
 20
249.2838673068
 30
0.0
 11
506.4061568159
 21
261.7838674931
 31
0.0
  0
LINE
  5
A6
330
1F
100
AcDbEntity
  8
0
  6
Continuous
 62
     7
370
    25
100
AcDbLine
 10
506.4061568159
 20
261.7838674931
 30
0.0
 11
503.2311664003
 21
261.7838674931
 31
0.0
  0
LINE
  5
A7
330
1F
100
AcDbEntity
  8
0
  6
Continuous
 62
     7
370
    25
100
AcDbLine
 10
503.2311664003
 20
261.7838674931
 30
0.0
 11
503.2311664003
 21
249.2838673068
 31
0.0
  0
LINE
  5
A8
330
1F
100
AcDbEntity
  8
0
  6
Continuous
 62
     7
370
    25
100
AcDbLine
 10
231.7311600822
 20
254.0338673869
 30
0.0
 11
233.231163122
 21
254.0338673869
 31
0.0
  0
LINE
  5
A9
330
1F
100
AcDbEntity
  8
0
  6
Continuous
 62
     7
370
    25
100
AcDbLine
 10
233.231163122
 20
254.0338673869
 30
0.0
 11
233.231163122
 21
257.033867413
 31
0.0
  0
LINE
  5
AA
330
1F
100
AcDbEntity
  8
0
  6
Continuous
 62
     7
370
    25
100
AcDbLine
 10
233.231163122
 20
257.033867413
 30
0.0
 11
231.7311600822
 21
257.033867413
 31
0.0
  0
LINE
  5
AB
330
1F
100
AcDbEntity
  8
0
  6
Continuous
 62
     7
370
    25
100
AcDbLine
 10
231.7311600822
 20
257.033867413
 30
0.0
 11
231.7311600822
 21
254.0338673869
 31
0.0
  0
LINE
  5
AC
330
1F
100
AcDbEntity
  8
0
  6
Continuous
 62
     7
370
    25
100
AcDbLine
 10
242.4061619717
 20
254.0338673869
 30
0.0
 11
243.9061612862
 21
254.0338673869
 31
0.0
  0
LINE
  5
AD
330
1F
100
AcDbEntity
  8
0
  6
Continuous
 62
     7
370
    25
100
AcDbLine
 10
243.9061612862
 20
254.0338673869
 30
0.0
 11
243.9061612862
 21
257.033867413
 31
0.0
  0
LINE
  5
AE
330
1F
100
AcDbEntity
  8
0
  6
Continuous
 62
     7
370
    25
100
AcDbLine
 10
243.9061612862
 20
257.033867413
 30
0.0
 11
242.4061619717
 21
257.033867413
 31
0.0
  0
LINE
  5
AF
330
1F
100
AcDbEntity
  8
0
  6
Continuous
 62
     7
370
    25
100
AcDbLine
 10
242.4061619717
 20
257.033867413
 30
0.0
 11
242.4061619717
 21
254.0338673869
 31
0.0
  0
LINE
  5
B0
330
1F
100
AcDbEntity
  8
0
  6
Continuous
 62
     7
370
    25
100
AcDbLine
 10
366.7311617213
 20
257.033867413
 30
0.0
 11
365.2311624068
 21
257.033867413
 31
0.0
  0
LINE
  5
B1
330
1F
100
AcDbEntity
  8
0
  6
Continuous
 62
     7
370
    25
100
AcDbLine
 10
365.2311624068
 20
257.033867413
 30
0.0
 11
365.2311624068
 21
254.0338673869
 31
0.0
  0
LINE
  5
B2
330
1F
100
AcDbEntity
  8
0
  6
Continuous
 62
     7
370
    25
100
AcDbLine
 10
365.2311624068
 20
254.0338673869
 30
0.0
 11
366.7311617213
 21
254.0338673869
 31
0.0
  0
LINE
  5
B3
330
1F
100
AcDbEntity
  8
0
  6
Continuous
 62
     7
370
    25
100
AcDbLine
 10
366.7311617213
 20
254.0338673869
 30
0.0
 11
366.7311617213
 21
257.033867413
 31
0.0
  0
LINE
  5
B4
330
1F
100
AcDbEntity
  8
0
  6
Continuous
 62
     7
370
    25
100
AcDbLine
 10
375.9061605709
 20
254.0338673869
 30
0.0
 11
377.4061636108
 21
254.0338673869
 31
0.0
  0
LINE
  5
B5
330
1F
100
AcDbEntity
  8
0
  6
Continuous
 62
     7
370
    25
100
AcDbLine
 10
377.4061636108
 20
254.0338673869
 30
0.0
 11
377.4061636108
 21
257.033867413
 31
0.0
  0
LINE
  5
B6
330
1F
100
AcDbEntity
  8
0
  6
Continuous
 62
     7
370
    25
100
AcDbLine
 10
377.4061636108
 20
257.033867413
 30
0.0
 11
375.9061605709
 21
257.033867413
 31
0.0
  0
LINE
  5
B7
330
1F
100
AcDbEntity
  8
0
  6
Continuous
 62
     7
370
    25
100
AcDbLine
 10
375.9061605709
 20
257.033867413
 30
0.0
 11
375.9061605709
 21
254.0338673869
 31
0.0
  0
LINE
  5
B8
330
1F
100
AcDbEntity
  8
0
  6
Continuous
 62
     7
370
    25
100
AcDbLine
 10
509.4061628955
 20
254.0338673869
 30
0.0
 11
510.9061584848
 21
254.0338673869
 31
0.0
  0
LINE
  5
B9
330
1F
100
AcDbEntity
  8
0
  6
Continuous
 62
     7
370
    25
100
AcDbLine
 10
510.9061584848
 20
254.0338673869
 30
0.0
 11
510.9061584848
 21
257.033867413
 31
0.0
  0
LINE
  5
BA
330
1F
100
AcDbEntity
  8
0
  6
Continuous
 62
     7
370
    25
100
AcDbLine
 10
510.9061584848
 20
257.033867413
 30
0.0
 11
509.4061628955
 21
257.033867413
 31
0.0
  0
LINE
  5
BB
330
1F
100
AcDbEntity
  8
0
  6
Continuous
 62
     7
370
    25
100
AcDbLine
 10
509.4061628955
 20
257.033867413
 30
0.0
 11
509.4061628955
 21
254.0338673869
 31
0.0
  0
LINE
  5
BC
330
1F
100
AcDbEntity
  8
0
  6
Continuous
 62
     7
370
    25
100
AcDbLine
 10
108.9061633724
 20
254.0338673869
 30
0.0
 11
110.4061589616
 21
254.0338673869
 31
0.0
  0
LINE
  5
BD
330
1F
100
AcDbEntity
  8
0
  6
Continuous
 62
     7
370
    25
100
AcDbLine
 10
110.4061589616
 20
254.0338673869
 30
0.0
 11
110.4061589616
 21
257.033867413
 31
0.0
  0
LINE
  5
BE
330
1F
100
AcDbEntity
  8
0
  6
Continuous
 62
     7
370
    25
100
AcDbLine
 10
110.4061589616
 20
257.033867413
 30
0.0
 11
108.9061633724
 21
257.033867413
 31
0.0
  0
LINE
  5
BF
330
1F
100
AcDbEntity
  8
0
  6
Continuous
 62
     7
370
    25
100
AcDbLine
 10
108.9061633724
 20
257.033867413
 30
0.0
 11
108.9061633724
 21
254.0338673869
 31
0.0
  0
LINE
  5
C0
330
1F
100
AcDbEntity
  8
0
  6
Continuous
 62
     7
370
    25
100
AcDbLine
 10
98.2311652082
 20
254.0338673869
 30
0.0
 11
99.7311607974
 21
254.0338673869
 31
0.0
  0
LINE
  5
C1
330
1F
100
AcDbEntity
  8
0
  6
Continuous
 62
     7
370
    25
100
AcDbLine
 10
99.7311607974
 20
254.0338673869
 30
0.0
 11
99.7311607974
 21
257.033867413
 31
0.0
  0
LINE
  5
C2
330
1F
100
AcDbEntity
  8
0
  6
Continuous
 62
     7
370
    25
100
AcDbLine
 10
99.7311607974
 20
257.033867413
 30
0.0
 11
98.2311652082
 21
257.033867413
 31
0.0
  0
LINE
  5
C3
330
1F
100
AcDbEntity
  8
0
  6
Continuous
 62
     7
370
    25
100
AcDbLine
 10
98.2311652082
 20
257.033867413
 30
0.0
 11
98.2311652082
 21
254.0338673869
 31
0.0
  0
LINE
  5
C4
330
1F
100
AcDbEntity
  8
0
  6
Continuous
 62
     7
370
    25
100
AcDbLine
 10
500.2311603206
 20
257.033867413
 30
0.0
 11
498.7311647314
 21
257.033867413
 31
0.0
  0
LINE
  5
C5
330
1F
100
AcDbEntity
  8
0
  6
Continuous
 62
     7
370
    25
100
AcDbLine
 10
498.7311647314
 20
257.033867413
 30
0.0
 11
498.7311647314
 21
254.0338673869
 31
0.0
  0
LINE
  5
C6
330
1F
100
AcDbEntity
  8
0
  6
Continuous
 62
     7
370
    25
100
AcDbLine
 10
498.7311647314
 20
254.0338673869
 30
0.0
 11
500.2311603206
 21
254.0338673869
 31
0.0
  0
LINE
  5
C7
330
1F
100
AcDbEntity
  8
0
  6
Continuous
 62
     7
370
    25
100
AcDbLine
 10
500.2311603206
 20
254.0338673869
 30
0.0
 11
500.2311603206
 21
257.033867413
 31
0.0
  0
LINE
  5
C8
330
1F
100
AcDbEntity
  8
0
  6
Continuous
 62
     7
370
    25
100
AcDbLine
 10
236.3186613697
 20
276.5338671168
 30
0.0
 11
239.3186599987
 21
276.5338671168
 31
0.0
  0
LINE
  5
C9
330
1F
100
AcDbEntity
  8
0
  6
Continuous
 62
     7
370
    25
100
AcDbLine
 10
239.3186599987
 20
276.5338671168
 30
0.0
 11
239.3186599987
 21
278.033868294
 31
0.0
  0
LINE
  5
CA
330
1F
100
AcDbEntity
  8
0
  6
Continuous
 62
     7
370
    25
100
AcDbLine
 10
239.3186599987
 20
278.033868294
 30
0.0
 11
236.3186613697
 21
278.033868294
 31
0.0
  0
LINE
  5
CB
330
1F
100
AcDbEntity
  8
0
  6
Continuous
 62
     7
370
    25
100
AcDbLine
 10
236.3186613697
 20
278.033868294
 30
0.0
 11
236.3186613697
 21
276.5338671168
 31
0.0
  0
LINE
  5
CC
330
1F
100
AcDbEntity
  8
0
  6
Continuous
 62
     7
370
    25
100
AcDbLine
 10
503.3186660188
 20
288.0338662079
 30
0.0
 11
506.3186571973
 21
288.0338662079
 31
0.0
  0
LINE
  5
CD
330
1F
100
AcDbEntity
  8
0
  6
Continuous
 62
     7
370
    25
100
AcDbLine
 10
506.3186571973
 20
288.0338662079
 30
0.0
 11
506.3186571973
 21
289.5338692477
 31
0.0
  0
LINE
  5
CE
330
1F
100
AcDbEntity
  8
0
  6
Continuous
 62
     7
370
    25
100
AcDbLine
 10
506.3186571973
 20
289.5338692477
 30
0.0
 11
503.3186660188
 21
289.5338692477
 31
0.0
  0
LINE
  5
CF
330
1F
100
AcDbEntity
  8
0
  6
Continuous
 62
     7
370
    25
100
AcDbLine
 10
503.3186660188
 20
289.5338692477
 30
0.0
 11
503.3186660188
 21
288.0338662079
 31
0.0
  0
LINE
  5
D0
330
1F
100
AcDbEntity
  8
0
  6
Continuous
 62
     7
370
    25
100
AcDbLine
 10
239.3186599987
 20
289.5338692477
 30
0.0
 11
236.3186613697
 21
289.5338692477
 31
0.0
  0
LINE
  5
D1
330
1F
100
AcDbEntity
  8
0
  6
Continuous
 62
     7
370
    25
100
AcDbLine
 10
236.3186613697
 20
289.5338692477
 30
0.0
 11
236.3186613697
 21
288.0338662079
 31
0.0
  0
LINE
  5
D2
330
1F
100
AcDbEntity
  8
0
  6
Continuous
 62
     7
370
    25
100
AcDbLine
 10
236.3186613697
 20
288.0338662079
 30
0.0
 11
239.3186599987
 21
288.0338662079
 31
0.0
  0
LINE
  5
D3
330
1F
100
AcDbEntity
  8
0
  6
Continuous
 62
     7
370
    25
100
AcDbLine
 10
239.3186599987
 20
288.0338662079
 30
0.0
 11
239.3186599987
 21
289.5338692477
 31
0.0
  0
LINE
  5
D4
330
1F
100
AcDbEntity
  8
0
  6
Continuous
 62
     7
370
    25
100
AcDbLine
 10
102.8186664957
 20
276.5338671168
 30
0.0
 11
105.8186576742
 21
276.5338671168
 31
0.0
  0
LINE
  5
D5
330
1F
100
AcDbEntity
  8
0
  6
Continuous
 62
     7
370
    25
100
AcDbLine
 10
105.8186576742
 20
276.5338671168
 30
0.0
 11
105.8186576742
 21
278.033868294
 31
0.0
  0
LINE
  5
D6
330
1F
100
AcDbEntity
  8
0
  6
Continuous
 62
     7
370
    25
100
AcDbLine
 10
105.8186576742
 20
278.033868294
 30
0.0
 11
102.8186664957
 21
278.033868294
 31
0.0
  0
LINE
  5
D7
330
1F
100
AcDbEntity
  8
0
  6
Continuous
 62
     7
370
    25
100
AcDbLine
 10
102.8186664957
 20
278.033868294
 30
0.0
 11
102.8186664957
 21
276.5338671168
 31
0.0
  0
LINE
  5
D8
330
1F
100
AcDbEntity
  8
0
  6
Continuous
 62
     7
370
    25
100
AcDbLine
 10
369.8186636942
 20
276.5338671168
 30
0.0
 11
372.8186623233
 21
276.5338671168
 31
0.0
  0
LINE
  5
D9
330
1F
100
AcDbEntity
  8
0
  6
Continuous
 62
     7
370
    25
100
AcDbLine
 10
372.8186623233
 20
276.5338671168
 30
0.0
 11
372.8186623233
 21
278.033868294
 31
0.0
  0
LINE
  5
DA
330
1F
100
AcDbEntity
  8
0
  6
Continuous
 62
     7
370
    25
100
AcDbLine
 10
372.8186623233
 20
278.033868294
 30
0.0
 11
369.8186636942
 21
278.033868294
 31
0.0
  0
LINE
  5
DB
330
1F
100
AcDbEntity
  8
0
  6
Continuous
 62
     7
370
    25
100
AcDbLine
 10
369.8186636942
 20
278.033868294
 30
0.0
 11
369.8186636942
 21
276.5338671168
 31
0.0
  0
LINE
  5
DC
330
1F
100
AcDbEntity
  8
0
  6
Continuous
 62
     7
370
    25
100
AcDbLine
 10
369.8186636942
 20
288.0338662079
 30
0.0
 11
372.8186623233
 21
288.0338662079
 31
0.0
  0
LINE
  5
DD
330
1F
100
AcDbEntity
  8
0
  6
Continuous
 62
     7
370
    25
100
AcDbLine
 10
372.8186623233
 20
288.0338662079
 30
0.0
 11
372.8186623233
 21
289.5338692477
 31
0.0
  0
LINE
  5
DE
330
1F
100
AcDbEntity
  8
0
  6
Continuous
 62
     7
370
    25
100
AcDbLine
 10
372.8186623233
 20
289.5338692477
 30
0.0
 11
369.8186636942
 21
289.5338692477
 31
0.0
  0
LINE
  5
DF
330
1F
100
AcDbEntity
  8
0
  6
Continuous
 62
     7
370
    25
100
AcDbLine
 10
369.8186636942
 20
289.5338692477
 30
0.0
 11
369.8186636942
 21
288.0338662079
 31
0.0
  0
LINE
  5
E0
330
1F
100
AcDbEntity
  8
0
  6
Continuous
 62
     7
370
    25
100
AcDbLine
 10
503.3186660188
 20
276.5338671168
 30
0.0
 11
506.3186571973
 21
276.5338671168
 31
0.0
  0
LINE
  5
E1
330
1F
100
AcDbEntity
  8
0
  6
Continuous
 62
     7
370
    25
100
AcDbLine
 10
506.3186571973
 20
276.5338671168
 30
0.0
 11
506.3186571973
 21
278.033868294
 31
0.0
  0
LINE
  5
E2
330
1F
100
AcDbEntity
  8
0
  6
Continuous
 62
     7
370
    25
100
AcDbLine
 10
506.3186571973
 20
278.033868294
 30
0.0
 11
503.3186660188
 21
278.033868294
 31
0.0
  0
LINE
  5
E3
330
1F
100
AcDbEntity
  8
0
  6
Continuous
 62
     7
370
    25
100
AcDbLine
 10
503.3186660188
 20
278.033868294
 30
0.0
 11
503.3186660188
 21
276.5338671168
 31
0.0
  0
LINE
  5
E4
330
1F
100
AcDbEntity
  8
0
  6
Continuous
 62
     7
370
    25
100
AcDbLine
 10
105.8186576742
 20
289.5338692477
 30
0.0
 11
102.8186664957
 21
289.5338692477
 31
0.0
  0
LINE
  5
E5
330
1F
100
AcDbEntity
  8
0
  6
Continuous
 62
     7
370
    25
100
AcDbLine
 10
102.8186664957
 20
289.5338692477
 30
0.0
 11
102.8186664957
 21
288.0338662079
 31
0.0
  0
LINE
  5
E6
330
1F
100
AcDbEntity
  8
0
  6
Continuous
 62
     7
370
    25
100
AcDbLine
 10
102.8186664957
 20
288.0338662079
 30
0.0
 11
105.8186576742
 21
288.0338662079
 31
0.0
  0
LINE
  5
E7
330
1F
100
AcDbEntity
  8
0
  6
Continuous
 62
     7
370
    25
100
AcDbLine
 10
105.8186576742
 20
288.0338662079
 30
0.0
 11
105.8186576742
 21
289.5338692477
 31
0.0
  0
LINE
  5
E8
330
1F
100
AcDbEntity
  8
0
  6
Continuous
 62
     7
370
    25
100
AcDbLine
 10
298.5686617943
 20
273.5338666251
 30
0.0
 11
300.0686620402
 21
273.5338666251
 31
0.0
  0
LINE
  5
E9
330
1F
100
AcDbEntity
  8
0
  6
Continuous
 62
     7
370
    25
100
AcDbLine
 10
300.0686620402
 20
273.5338666251
 30
0.0
 11
300.0686620402
 21
276.5338671168
 31
0.0
  0
LINE
  5
EA
330
1F
100
AcDbEntity
  8
0
  6
Continuous
 62
     7
370
    25
100
AcDbLine
 10
300.0686620402
 20
276.5338671168
 30
0.0
 11
298.5686617943
 21
276.5338671168
 31
0.0
  0
LINE
  5
EB
330
1F
100
AcDbEntity
  8
0
  6
Continuous
 62
     7
370
    25
100
AcDbLine
 10
298.5686617943
 20
276.5338671168
 30
0.0
 11
298.5686617943
 21
273.5338666251
 31
0.0
  0
LINE
  5
EC
330
1F
100
AcDbEntity
  8
0
  6
Continuous
 62
     7
370
    25
100
AcDbLine
 10
309.0686616528
 20
273.5338666251
 30
0.0
 11
310.5686618986
 21
273.5338666251
 31
0.0
  0
LINE
  5
ED
330
1F
100
AcDbEntity
  8
0
  6
Continuous
 62
     7
370
    25
100
AcDbLine
 10
310.5686618986
 20
273.5338666251
 30
0.0
 11
310.5686618986
 21
276.5338671168
 31
0.0
  0
LINE
  5
EE
330
1F
100
AcDbEntity
  8
0
  6
Continuous
 62
     7
370
    25
100
AcDbLine
 10
310.5686618986
 20
276.5338671168
 30
0.0
 11
309.0686616528
 21
276.5338671168
 31
0.0
  0
LINE
  5
EF
330
1F
100
AcDbEntity
  8
0
  6
Continuous
 62
     7
370
    25
100
AcDbLine
 10
309.0686616528
 20
276.5338671168
 30
0.0
 11
309.0686616528
 21
273.5338666251
 31
0.0
  0
LINE
  5
F0
330
1F
100
AcDbEntity
  8
0
  6
Continuous
 62
     7
370
    25
100
AcDbLine
 10
309.0686616528
 20
289.5338692477
 30
0.0
 11
310.5686618986
 21
289.5338692477
 31
0.0
  0
LINE
  5
F1
330
1F
100
AcDbEntity
  8
0
  6
Continuous
 62
     7
370
    25
100
AcDbLine
 10
310.5686618986
 20
289.5338692477
 30
0.0
 11
310.5686618986
 21
292.5338678768
 31
0.0
  0
LINE
  5
F2
330
1F
100
AcDbEntity
  8
0
  6
Continuous
 62
     7
370
    25
100
AcDbLine
 10
310.5686618986
 20
292.5338678768
 30
0.0
 11
309.0686616528
 21
292.5338678768
 31
0.0
  0
LINE
  5
F3
330
1F
100
AcDbEntity
  8
0
  6
Continuous
 62
     7
370
    25
100
AcDbLine
 10
309.0686616528
 20
292.5338678768
 30
0.0
 11
309.0686616528
 21
289.5338692477
 31
0.0
  0
LINE
  5
F4
330
1F
100
AcDbEntity
  8
0
  6
Continuous
 62
     7
370
    25
100
AcDbLine
 10
300.0686620402
 20
292.5338678768
 30
0.0
 11
298.5686617943
 21
292.5338678768
 31
0.0
  0
LINE
  5
F5
330
1F
100
AcDbEntity
  8
0
  6
Continuous
 62
     7
370
    25
100
AcDbLine
 10
298.5686617943
 20
292.5338678768
 30
0.0
 11
298.5686617943
 21
289.5338692477
 31
0.0
  0
LINE
  5
F6
330
1F
100
AcDbEntity
  8
0
  6
Continuous
 62
     7
370
    25
100
AcDbLine
 10
298.5686617943
 20
289.5338692477
 30
0.0
 11
300.0686620402
 21
289.5338692477
 31
0.0
  0
LINE
  5
F7
330
1F
100
AcDbEntity
  8
0
  6
Continuous
 62
     7
370
    25
100
AcDbLine
 10
300.0686620402
 20
289.5338692477
 30
0.0
 11
300.0686620402
 21
292.5338678768
 31
0.0
  0
LINE
  5
F8
330
1F
100
AcDbEntity
  8
0
  6
Continuous
 62
     7
370
    25
100
AcDbLine
 10
7.5686709064
 20
248.0338675676
 30
0.0
 11
7.5686709064
 21
240.5338677352
 31
0.0
  0
LINE
  5
F9
330
1F
100
AcDbEntity
  8
0
  6
Continuous
 62
     7
370
    25
100
AcDbLine
 10
581.5686718601
 20
295.5338665059
 30
0.0
 11
27.5686518329
 21
295.5338665059
 31
0.0
  0
LINE
  5
FA
330
1F
100
AcDbEntity
  8
0
  6
Continuous
 62
     7
370
    25
100
AcDbLine
 10
601.5686527866
 20
263.0338672323
 30
0.0
 11
601.5686527866
 21
275.5338669529
 31
0.0
  0
LINE
  5
FB
330
1F
100
AcDbEntity
  8
0
  6
Continuous
 62
     7
370
    25
100
AcDbLine
 10
7.5686709064
 20
240.5338677352
 30
0.0
 11
27.5686518329
 21
240.5338677352
 31
0.0
  0
LINE
  5
FC
330
1F
100
AcDbEntity
  8
0
  6
Continuous
 62
     7
370
    25
100
AcDbLine
 10
47.5686625617
 20
240.5338677352
 30
0.0
 11
294.56866207
 21
240.5338677352
 31
0.0
  0
LINE
  5
FD
330
1F
100
AcDbEntity
  8
0
  6
Continuous
 62
     7
370
    25
100
AcDbLine
 10
581.5686718601
 20
240.5338677352
 30
0.0
 11
601.5686527866
 21
240.5338677352
 31
0.0
  0
LINE
  5
FE
330
1F
100
AcDbEntity
  8
0
  6
Continuous
 62
     7
370
    25
100
AcDbLine
 10
314.568661623
 20
240.5338677352
 30
0.0
 11
561.5686611312
 21
240.5338677352
 31
0.0
  0
LINE
  5
FF
330
1F
100
AcDbEntity
  8
0
  6
Continuous
 62
     7
370
    25
100
AcDbLine
 10
7.5686709064
 20
275.5338669529
 30
0.0
 11
7.5686709064
 21
263.0338672323
 31
0.0
  0
LINE
  5
100
330
1F
100
AcDbEntity
  8
0
  6
Continuous
 62
     7
370
    25
100
AcDbLine
 10
601.5686527866
 20
240.5338677352
 30
0.0
 11
601.5686527866
 21
248.0338675676
 31
0.0
  0
LINE
  5
101
330
1F
100
AcDbEntity
  8
0
  6
Continuous
 62
     7
370
    25
100
AcDbLine
 10
30.2764452224
 20
118.6521935237
 30
0.0
 11
30.2764452224
 21
115.6521948946
 31
0.0
  0
LINE
  5
102
330
1F
100
AcDbEntity
  8
0
  6
Continuous
 62
     7
370
    25
100
AcDbLine
 10
45.2764458184
 20
118.6521935237
 30
0.0
 11
30.2764452224
 21
118.6521935237
 31
0.0
  0
LINE
  5
103
330
1F
100
AcDbEntity
  8
0
  6
Continuous
 62
     7
370
    25
100
AcDbLine
 10
45.2764458184
 20
115.6521948946
 30
0.0
 11
45.2764458184
 21
118.6521935237
 31
0.0
  0
LINE
  5
104
330
1F
100
AcDbEntity
  8
0
  6
Continuous
 62
     7
370
    25
100
AcDbLine
 10
55.2764511828
 20
83.1521960867
 30
0.0
 11
55.2764511828
 21
115.6521948946
 31
0.0
  0
ARC
  5
105
330
1F
100
AcDbEntity
  8
0
  6
Continuous
 62
     7
370
    25
100
AcDbCircle
 10
65.2764445071
 20
83.1521945966
 30
0.0
 40
10.00000000000001
100
AcDbArc
 50
180.0
 51
270.0
  0
ARC
  5
106
330
1F
100
AcDbEntity
  8
0
  6
Continuous
 62
     7
370
    25
100
AcDbCircle
 10
473.6514445071
 20
83.1521945966
 30
0.0
 40
10.0
100
AcDbArc
 50
270.0
 51
0.0
  0
LINE
  5
107
330
1F
100
AcDbEntity
  8
0
  6
Continuous
 62
     7
370
    25
100
AcDbLine
 10
483.6514420037
 20
115.6521948946
 30
0.0
 11
483.6514420037
 21
83.1521960867
 31
0.0
  0
LINE
  5
108
330
1F
100
AcDbEntity
  8
0
  6
Continuous
 62
     7
370
    25
100
AcDbLine
 10
498.6514425998
 20
118.6521935237
 30
0.0
 11
498.6514425998
 21
115.6521948946
 31
0.0
  0
LINE
  5
109
330
1F
100
AcDbEntity
  8
0
  6
Continuous
 62
     7
370
    25
100
AcDbLine
 10
523.6514485602
 20
118.6521935237
 30
0.0
 11
498.6514425998
 21
118.6521935237
 31
0.0
  0
LINE
  5
10A
330
1F
100
AcDbEntity
  8
0
  6
Continuous
 62
     7
370
    25
100
AcDbLine
 10
523.6514485602
 20
115.6521948946
 30
0.0
 11
523.6514485602
 21
118.6521935237
 31
0.0
  0
LINE
  5
10B
330
1F
100
AcDbEntity
  8
0
  6
Continuous
 62
     7
370
    25
100
AcDbLine
 10
541.6514552359
 20
98.1521929574
 30
0.0
 11
538.6514342551
 21
98.1521929574
 31
0.0
  0
LINE
  5
10C
330
1F
100
AcDbEntity
  8
0
  6
Continuous
 62
     7
370
    25
100
AcDbLine
 10
541.6514552359
 20
78.1521934045
 30
0.0
 11
541.6514552359
 21
98.1521929574
 31
0.0
  0
LINE
  5
10D
330
1F
100
AcDbEntity
  8
0
  6
Continuous
 62
     7
370
    25
100
AcDbLine
 10
538.6514342551
 20
78.1521934045
 30
0.0
 11
541.6514552359
 21
78.1521934045
 31
0.0
  0
LINE
  5
10E
330
1F
100
AcDbEntity
  8
0
  6
Continuous
 62
     7
370
    25
100
AcDbLine
 10
541.6514552359
 20
48.1521945407
 30
0.0
 11
538.6514342551
 21
48.1521945407
 31
0.0
  0
LINE
  5
10F
330
1F
100
AcDbEntity
  8
0
  6
Continuous
 62
     7
370
    25
100
AcDbLine
 10
541.6514552359
 20
28.1521945221
 30
0.0
 11
541.6514552359
 21
48.1521945407
 31
0.0
  0
LINE
  5
110
330
1F
100
AcDbEntity
  8
0
  6
Continuous
 62
     7
370
    25
100
AcDbLine
 10
538.6514342551
 20
28.1521945221
 30
0.0
 11
541.6514552359
 21
28.1521945221
 31
0.0
  0
LINE
  5
111
330
1F
100
AcDbEntity
  8
0
  6
Continuous
 62
     7
370
    25
100
AcDbLine
 10
523.6514485602
 20
12.6521947754
 30
0.0
 11
523.6514485602
 21
15.6521952671
 31
0.0
  0
LINE
  5
112
330
1F
100
AcDbEntity
  8
0
  6
Continuous
 62
     7
370
    25
100
AcDbLine
 10
498.6514425998
 20
12.6521947754
 30
0.0
 11
523.6514485602
 21
12.6521947754
 31
0.0
  0
LINE
  5
113
330
1F
100
AcDbEntity
  8
0
  6
Continuous
 62
     7
370
    25
100
AcDbLine
 10
498.6514425998
 20
15.6521952671
 30
0.0
 11
498.6514425998
 21
12.6521947754
 31
0.0
  0
ARC
  5
114
330
1F
100
AcDbEntity
  8
0
  6
Continuous
 62
     7
370
    25
100
AcDbCircle
 10
481.1514445071
 20
15.6521945966
 30
0.0
 40
2.500000000000002
100
AcDbArc
 50
0.0
 51
90.0
  0
ARC
  5
115
330
1F
100
AcDbEntity
  8
0
  6
Continuous
 62
     7
370
    25
100
AcDbCircle
 10
57.7764445071
 20
15.6521945966
 30
0.0
 40
2.500000000000007
100
AcDbArc
 50
90.0
 51
180.0
  0
LINE
  5
116
330
1F
100
AcDbEntity
  8
0
  6
Continuous
 62
     7
370
    25
100
AcDbLine
 10
45.2764458184
 20
12.6521947754
 30
0.0
 11
45.2764458184
 21
15.6521952671
 31
0.0
  0
LINE
  5
117
330
1F
100
AcDbEntity
  8
0
  6
Continuous
 62
     7
370
    25
100
AcDbLine
 10
30.2764452224
 20
12.6521947754
 30
0.0
 11
45.2764458184
 21
12.6521947754
 31
0.0
  0
LINE
  5
118
330
1F
100
AcDbEntity
  8
0
  6
Continuous
 62
     7
370
    25
100
AcDbLine
 10
30.2764452224
 20
15.6521952671
 30
0.0
 11
30.2764452224
 21
12.6521947754
 31
0.0
  0
LINE
  5
119
330
1F
100
AcDbEntity
  8
0
  6
Continuous
 62
     7
370
    25
100
AcDbLine
 10
17.2764337783
 20
28.1521945221
 30
0.0
 11
20.2764547591
 21
28.1521945221
 31
0.0
  0
LINE
  5
11A
330
1F
100
AcDbEntity
  8
0
  6
Continuous
 62
     7
370
    25
100
AcDbLine
 10
17.2764337783
 20
48.1521945407
 30
0.0
 11
17.2764337783
 21
28.1521945221
 31
0.0
  0
LINE
  5
11B
330
1F
100
AcDbEntity
  8
0
  6
Continuous
 62
     7
370
    25
100
AcDbLine
 10
20.2764547591
 20
48.1521945407
 30
0.0
 11
17.2764337783
 21
48.1521945407
 31
0.0
  0
LINE
  5
11C
330
1F
100
AcDbEntity
  8
0
  6
Continuous
 62
     7
370
    25
100
AcDbLine
 10
17.2764337783
 20
78.1521934045
 30
0.0
 11
20.2764547591
 21
78.1521934045
 31
0.0
  0
LINE
  5
11D
330
1F
100
AcDbEntity
  8
0
  6
Continuous
 62
     7
370
    25
100
AcDbLine
 10
17.2764337783
 20
98.1521929574
 30
0.0
 11
17.2764337783
 21
78.1521934045
 31
0.0
  0
LINE
  5
11E
330
1F
100
AcDbEntity
  8
0
  6
Continuous
 62
     7
370
    25
100
AcDbLine
 10
20.2764547591
 20
98.1521929574
 30
0.0
 11
17.2764337783
 21
98.1521929574
 31
0.0
  0
CIRCLE
  5
11F
330
1F
100
AcDbEntity
  8
0
  6
Continuous
 62
     7
370
    25
100
AcDbCircle
 10
511.1514445071
 20
88.1521945966
 30
0.0
 40
11.0
  0
CIRCLE
  5
120
330
1F
100
AcDbEntity
  8
0
  6
Continuous
 62
     7
370
    25
100
AcDbCircle
 10
526.6514445071
 20
72.6521945966
 30
0.0
 40
1.500000000000114
  0
CIRCLE
  5
121
330
1F
100
AcDbEntity
  8
0
  6
Continuous
 62
     7
370
    25
100
AcDbCircle
 10
495.6514445071
 20
72.6521945966
 30
0.0
 40
1.5
  0
CIRCLE
  5
122
330
1F
100
AcDbEntity
  8
0
  6
Continuous
 62
     7
370
    25
100
AcDbCircle
 10
495.6514445071
 20
103.6521945966
 30
0.0
 40
1.5
  0
CIRCLE
  5
123
330
1F
100
AcDbEntity
  8
0
  6
Continuous
 62
     7
370
    25
100
AcDbCircle
 10
526.6514445071
 20
103.6521945966
 30
0.0
 40
1.5
  0
CIRCLE
  5
124
330
1F
100
AcDbEntity
  8
0
  6
Continuous
 62
     7
370
    25
100
AcDbCircle
 10
37.7764445071
 20
88.1521945966
 30
0.0
 40
1.5
  0
LINE
  5
125
330
1F
100
AcDbEntity
  8
0
  6
Continuous
 62
     7
370
    25
100
AcDbLine
 10
512.6514411692
 20
112.6521962655
 30
0.0
 11
509.6514499907
 21
112.6521962655
 31
0.0
  0
LINE
  5
126
330
1F
100
AcDbEntity
  8
0
  6
Continuous
 62
     7
370
    25
100
AcDbLine
 10
509.6514499907
 20
112.6521962655
 30
0.0
 11
509.6514499907
 21
111.1521932257
 31
0.0
  0
LINE
  5
127
330
1F
100
AcDbEntity
  8
0
  6
Continuous
 62
     7
370
    25
100
AcDbLine
 10
509.6514499907
 20
111.1521932257
 30
0.0
 11
512.6514411692
 21
111.1521932257
 31
0.0
  0
LINE
  5
128
330
1F
100
AcDbEntity
  8
0
  6
Continuous
 62
     7
370
    25
100
AcDbLine
 10
512.6514411692
 20
111.1521932257
 30
0.0
 11
512.6514411692
 21
112.6521962655
 31
0.0
  0
LINE
  5
129
330
1F
100
AcDbEntity
  8
0
  6
Continuous
 62
     7
370
    25
100
AcDbLine
 10
535.6514430766
 20
89.6521943581
 30
0.0
 11
534.1514325862
 21
89.6521943581
 31
0.0
  0
LINE
  5
12A
330
1F
100
AcDbEntity
  8
0
  6
Continuous
 62
     7
370
    25
100
AcDbLine
 10
534.1514325862
 20
89.6521943581
 30
0.0
 11
534.1514325862
 21
86.6521957291
 31
0.0
  0
LINE
  5
12B
330
1F
100
AcDbEntity
  8
0
  6
Continuous
 62
     7
370
    25
100
AcDbLine
 10
534.1514325862
 20
86.6521957291
 30
0.0
 11
535.6514430766
 21
86.6521957291
 31
0.0
  0
LINE
  5
12C
330
1F
100
AcDbEntity
  8
0
  6
Continuous
 62
     7
370
    25
100
AcDbLine
 10
535.6514430766
 20
86.6521957291
 30
0.0
 11
535.6514430766
 21
89.6521943581
 31
0.0
  0
LINE
  5
12D
330
1F
100
AcDbEntity
  8
0
  6
Continuous
 62
     7
370
    25
100
AcDbLine
 10
534.1514325862
 20
36.652194984
 30
0.0
 11
535.6514430766
 21
36.652194984
 31
0.0
  0
LINE
  5
12E
330
1F
100
AcDbEntity
  8
0
  6
Continuous
 62
     7
370
    25
100
AcDbLine
 10
535.6514430766
 20
36.652194984
 30
0.0
 11
535.6514430766
 21
39.6521945444
 31
0.0
  0
LINE
  5
12F
330
1F
100
AcDbEntity
  8
0
  6
Continuous
 62
     7
370
    25
100
AcDbLine
 10
535.6514430766
 20
39.6521945444
 30
0.0
 11
534.1514325862
 21
39.6521945444
 31
0.0
  0
LINE
  5
130
330
1F
100
AcDbEntity
  8
0
  6
Continuous
 62
     7
370
    25
100
AcDbLine
 10
534.1514325862
 20
39.6521945444
 30
0.0
 11
534.1514325862
 21
36.652194984
 31
0.0
  0
LINE
  5
131
330
1F
100
AcDbEntity
  8
0
  6
Continuous
 62
     7
370
    25
100
AcDbLine
 10
518.6514384274
 20
53.8271942136
 30
0.0
 11
498.6514425998
 21
53.8271942136
 31
0.0
  0
LINE
  5
132
330
1F
100
AcDbEntity
  8
0
  6
Continuous
 62
     7
370
    25
100
AcDbLine
 10
498.6514425998
 20
53.8271942136
 30
0.0
 11
498.6514425998
 21
50.6521944848
 31
0.0
  0
LINE
  5
133
330
1F
100
AcDbEntity
  8
0
  6
Continuous
 62
     7
370
    25
100
AcDbLine
 10
498.6514425998
 20
50.6521944848
 30
0.0
 11
518.6514384274
 21
50.6521944848
 31
0.0
  0
LINE
  5
134
330
1F
100
AcDbEntity
  8
0
  6
Continuous
 62
     7
370
    25
100
AcDbLine
 10
518.6514384274
 20
50.6521944848
 30
0.0
 11
518.6514384274
 21
53.8271942136
 31
0.0
  0
LINE
  5
135
330
1F
100
AcDbEntity
  8
0
  6
Continuous
 62
     7
370
    25
100
AcDbLine
 10
60.2764464145
 20
53.8271942136
 30
0.0
 11
40.2764505868
 21
53.8271942136
 31
0.0
  0
LINE
  5
136
330
1F
100
AcDbEntity
  8
0
  6
Continuous
 62
     7
370
    25
100
AcDbLine
 10
40.2764505868
 20
53.8271942136
 30
0.0
 11
40.2764505868
 21
50.6521944848
 31
0.0
  0
LINE
  5
137
330
1F
100
AcDbEntity
  8
0
  6
Continuous
 62
     7
370
    25
100
AcDbLine
 10
40.2764505868
 20
50.6521944848
 30
0.0
 11
60.2764464145
 21
50.6521944848
 31
0.0
  0
LINE
  5
138
330
1F
100
AcDbEntity
  8
0
  6
Continuous
 62
     7
370
    25
100
AcDbLine
 10
60.2764464145
 20
50.6521944848
 30
0.0
 11
60.2764464145
 21
53.8271942136
 31
0.0
  0
LINE
  5
139
330
1F
100
AcDbEntity
  8
0
  6
Continuous
 62
     7
370
    25
100
AcDbLine
 10
289.4639442836
 20
53.8271942136
 30
0.0
 11
269.4639447306
 21
53.8271942136
 31
0.0
  0
LINE
  5
13A
330
1F
100
AcDbEntity
  8
0
  6
Continuous
 62
     7
370
    25
100
AcDbLine
 10
269.4639447306
 20
53.8271942136
 30
0.0
 11
269.4639447306
 21
50.6521944848
 31
0.0
  0
LINE
  5
13B
330
1F
100
AcDbEntity
  8
0
  6
Continuous
 62
     7
370
    25
100
AcDbLine
 10
269.4639447306
 20
50.6521944848
 30
0.0
 11
289.4639442836
 21
50.6521944848
 31
0.0
  0
LINE
  5
13C
330
1F
100
AcDbEntity
  8
0
  6
Continuous
 62
     7
370
    25
100
AcDbLine
 10
289.4639442836
 20
50.6521944848
 30
0.0
 11
289.4639442836
 21
53.8271942136
 31
0.0
  0
LINE
  5
13D
330
1F
100
AcDbEntity
  8
0
  6
Continuous
 62
     7
370
    25
100
AcDbLine
 10
510.1514435534
 20
58.3271949512
 30
0.0
 11
507.1514374738
 21
58.3271949512
 31
0.0
  0
LINE
  5
13E
330
1F
100
AcDbEntity
  8
0
  6
Continuous
 62
     7
370
    25
100
AcDbLine
 10
507.1514374738
 20
58.3271949512
 30
0.0
 11
507.1514374738
 21
56.8271947053
 31
0.0
  0
LINE
  5
13F
330
1F
100
AcDbEntity
  8
0
  6
Continuous
 62
     7
370
    25
100
AcDbLine
 10
507.1514374738
 20
56.8271947053
 30
0.0
 11
510.1514435534
 21
56.8271947053
 31
0.0
  0
LINE
  5
140
330
1F
100
AcDbEntity
  8
0
  6
Continuous
 62
     7
370
    25
100
AcDbLine
 10
510.1514435534
 20
56.8271947053
 30
0.0
 11
510.1514435534
 21
58.3271949512
 31
0.0
  0
LINE
  5
141
330
1F
100
AcDbEntity
  8
0
  6
Continuous
 62
     7
370
    25
100
AcDbLine
 10
507.1514374738
 20
46.1521946203
 30
0.0
 11
510.1514435534
 21
46.1521946203
 31
0.0
  0
LINE
  5
142
330
1F
100
AcDbEntity
  8
0
  6
Continuous
 62
     7
370
    25
100
AcDbLine
 10
510.1514435534
 20
46.1521946203
 30
0.0
 11
510.1514435534
 21
47.6521946916
 31
0.0
  0
LINE
  5
143
330
1F
100
AcDbEntity
  8
0
  6
Continuous
 62
     7
370
    25
100
AcDbLine
 10
510.1514435534
 20
47.6521946916
 30
0.0
 11
507.1514374738
 21
47.6521946916
 31
0.0
  0
LINE
  5
144
330
1F
100
AcDbEntity
  8
0
  6
Continuous
 62
     7
370
    25
100
AcDbLine
 10
507.1514374738
 20
47.6521946916
 30
0.0
 11
507.1514374738
 21
46.1521946203
 31
0.0
  0
LINE
  5
145
330
1F
100
AcDbEntity
  8
0
  6
Continuous
 62
     7
370
    25
100
AcDbLine
 10
280.9639445201
 20
56.8271947053
 30
0.0
 11
280.9639445201
 21
58.3271949512
 31
0.0
  0
LINE
  5
146
330
1F
100
AcDbEntity
  8
0
  6
Continuous
 62
     7
370
    25
100
AcDbLine
 10
280.9639445201
 20
58.3271949512
 30
0.0
 11
277.9639444941
 21
58.3271949512
 31
0.0
  0
LINE
  5
147
330
1F
100
AcDbEntity
  8
0
  6
Continuous
 62
     7
370
    25
100
AcDbLine
 10
277.9639444941
 20
58.3271949512
 30
0.0
 11
277.9639444941
 21
56.8271947053
 31
0.0
  0
LINE
  5
148
330
1F
100
AcDbEntity
  8
0
  6
Continuous
 62
     7
370
    25
100
AcDbLine
 10
277.9639444941
 20
56.8271947053
 30
0.0
 11
280.9639445201
 21
56.8271947053
 31
0.0
  0
LINE
  5
149
330
1F
100
AcDbEntity
  8
0
  6
Continuous
 62
     7
370
    25
100
AcDbLine
 10
277.9639444941
 20
46.1521946203
 30
0.0
 11
280.9639445201
 21
46.1521946203
 31
0.0
  0
LINE
  5
14A
330
1F
100
AcDbEntity
  8
0
  6
Continuous
 62
     7
370
    25
100
AcDbLine
 10
280.9639445201
 20
46.1521946203
 30
0.0
 11
280.9639445201
 21
47.6521946916
 31
0.0
  0
LINE
  5
14B
330
1F
100
AcDbEntity
  8
0
  6
Continuous
 62
     7
370
    25
100
AcDbLine
 10
280.9639445201
 20
47.6521946916
 30
0.0
 11
277.9639444941
 21
47.6521946916
 31
0.0
  0
LINE
  5
14C
330
1F
100
AcDbEntity
  8
0
  6
Continuous
 62
     7
370
    25
100
AcDbLine
 10
277.9639444941
 20
47.6521946916
 30
0.0
 11
277.9639444941
 21
46.1521946203
 31
0.0
  0
LINE
  5
14D
330
1F
100
AcDbEntity
  8
0
  6
Continuous
 62
     7
370
    25
100
AcDbLine
 10
51.7764515405
 20
56.8271947053
 30
0.0
 11
51.7764515405
 21
58.3271949512
 31
0.0
  0
LINE
  5
14E
330
1F
100
AcDbEntity
  8
0
  6
Continuous
 62
     7
370
    25
100
AcDbLine
 10
51.7764515405
 20
58.3271949512
 30
0.0
 11
48.7764454608
 21
58.3271949512
 31
0.0
  0
LINE
  5
14F
330
1F
100
AcDbEntity
  8
0
  6
Continuous
 62
     7
370
    25
100
AcDbLine
 10
48.7764454608
 20
58.3271949512
 30
0.0
 11
48.7764454608
 21
56.8271947053
 31
0.0
  0
LINE
  5
150
330
1F
100
AcDbEntity
  8
0
  6
Continuous
 62
     7
370
    25
100
AcDbLine
 10
48.7764454608
 20
56.8271947053
 30
0.0
 11
51.7764515405
 21
56.8271947053
 31
0.0
  0
LINE
  5
151
330
1F
100
AcDbEntity
  8
0
  6
Continuous
 62
     7
370
    25
100
AcDbLine
 10
48.7764454608
 20
46.1521946203
 30
0.0
 11
51.7764515405
 21
46.1521946203
 31
0.0
  0
LINE
  5
152
330
1F
100
AcDbEntity
  8
0
  6
Continuous
 62
     7
370
    25
100
AcDbLine
 10
51.7764515405
 20
46.1521946203
 30
0.0
 11
51.7764515405
 21
47.6521946916
 31
0.0
  0
LINE
  5
153
330
1F
100
AcDbEntity
  8
0
  6
Continuous
 62
     7
370
    25
100
AcDbLine
 10
51.7764515405
 20
47.6521946916
 30
0.0
 11
48.7764454608
 21
47.6521946916
 31
0.0
  0
LINE
  5
154
330
1F
100
AcDbEntity
  8
0
  6
Continuous
 62
     7
370
    25
100
AcDbLine
 10
48.7764454608
 20
47.6521946916
 30
0.0
 11
48.7764454608
 21
46.1521946203
 31
0.0
  0
LINE
  5
155
330
1F
100
AcDbEntity
  8
0
  6
Continuous
 62
     7
370
    25
100
AcDbLine
 10
338.3483193044
 20
41.9021946804
 30
0.0
 11
335.173317713
 21
41.9021946804
 31
0.0
  0
LINE
  5
156
330
1F
100
AcDbEntity
  8
0
  6
Continuous
 62
     7
370
    25
100
AcDbLine
 10
335.173317713
 20
41.9021946804
 30
0.0
 11
335.173317713
 21
29.4021951926
 31
0.0
  0
LINE
  5
157
330
1F
100
AcDbEntity
  8
0
  6
Continuous
 62
     7
370
    25
100
AcDbLine
 10
335.173317713
 20
29.4021951926
 30
0.0
 11
338.3483193044
 21
29.4021951926
 31
0.0
  0
LINE
  5
158
330
1F
100
AcDbEntity
  8
0
  6
Continuous
 62
     7
370
    25
100
AcDbLine
 10
338.3483193044
 20
29.4021951926
 30
0.0
 11
338.3483193044
 21
41.9021946804
 31
0.0
  0
LINE
  5
159
330
1F
100
AcDbEntity
  8
0
  6
Continuous
 62
     7
370
    25
100
AcDbLine
 10
452.9383159404
 20
41.9021946804
 30
0.0
 11
449.7633255248
 21
41.9021946804
 31
0.0
  0
LINE
  5
15A
330
1F
100
AcDbEntity
  8
0
  6
Continuous
 62
     7
370
    25
100
AcDbLine
 10
449.7633255248
 20
41.9021946804
 30
0.0
 11
449.7633255248
 21
29.4021951926
 31
0.0
  0
LINE
  5
15B
330
1F
100
AcDbEntity
  8
0
  6
Continuous
 62
     7
370
    25
100
AcDbLine
 10
449.7633255248
 20
29.4021951926
 30
0.0
 11
452.9383159404
 21
29.4021951926
 31
0.0
  0
LINE
  5
15C
330
1F
100
AcDbEntity
  8
0
  6
Continuous
 62
     7
370
    25
100
AcDbLine
 10
452.9383159404
 20
29.4021951926
 30
0.0
 11
452.9383159404
 21
41.9021946804
 31
0.0
  0
LINE
  5
15D
330
1F
100
AcDbEntity
  8
0
  6
Continuous
 62
     7
370
    25
100
AcDbLine
 10
223.7545713012
 20
41.9021946804
 30
0.0
 11
220.5795697098
 21
41.9021946804
 31
0.0
  0
LINE
  5
15E
330
1F
100
AcDbEntity
  8
0
  6
Continuous
 62
     7
370
    25
100
AcDbLine
 10
220.5795697098
 20
41.9021946804
 30
0.0
 11
220.5795697098
 21
29.4021951926
 31
0.0
  0
LINE
  5
15F
330
1F
100
AcDbEntity
  8
0
  6
Continuous
 62
     7
370
    25
100
AcDbLine
 10
220.5795697098
 20
29.4021951926
 30
0.0
 11
223.7545713012
 21
29.4021951926
 31
0.0
  0
LINE
  5
160
330
1F
100
AcDbEntity
  8
0
  6
Continuous
 62
     7
370
    25
100
AcDbLine
 10
223.7545713012
 20
29.4021951926
 30
0.0
 11
223.7545713012
 21
41.9021946804
 31
0.0
  0
LINE
  5
161
330
1F
100
AcDbEntity
  8
0
  6
Continuous
 62
     7
370
    25
100
AcDbLine
 10
109.1645634894
 20
41.9021946804
 30
0.0
 11
105.9895730738
 21
41.9021946804
 31
0.0
  0
LINE
  5
162
330
1F
100
AcDbEntity
  8
0
  6
Continuous
 62
     7
370
    25
100
AcDbLine
 10
105.9895730738
 20
41.9021946804
 30
0.0
 11
105.9895730738
 21
29.4021951926
 31
0.0
  0
LINE
  5
163
330
1F
100
AcDbEntity
  8
0
  6
Continuous
 62
     7
370
    25
100
AcDbLine
 10
105.9895730738
 20
29.4021951926
 30
0.0
 11
109.1645634894
 21
29.4021951926
 31
0.0
  0
LINE
  5
164
330
1F
100
AcDbEntity
  8
0
  6
Continuous
 62
     7
370
    25
100
AcDbLine
 10
109.1645634894
 20
29.4021951926
 30
0.0
 11
109.1645634894
 21
41.9021946804
 31
0.0
  0
LINE
  5
165
330
1F
100
AcDbEntity
  8
0
  6
Continuous
 62
     7
370
    25
100
AcDbLine
 10
342.8483209734
 20
37.1521941346
 30
0.0
 11
341.3483179335
 21
37.1521941346
 31
0.0
  0
LINE
  5
166
330
1F
100
AcDbEntity
  8
0
  6
Continuous
 62
     7
370
    25
100
AcDbLine
 10
341.3483179335
 20
37.1521941346
 30
0.0
 11
341.3483179335
 21
34.1521945742
 31
0.0
  0
LINE
  5
167
330
1F
100
AcDbEntity
  8
0
  6
Continuous
 62
     7
370
    25
100
AcDbLine
 10
341.3483179335
 20
34.1521945742
 30
0.0
 11
342.8483209734
 21
34.1521945742
 31
0.0
  0
LINE
  5
168
330
1F
100
AcDbEntity
  8
0
  6
Continuous
 62
     7
370
    25
100
AcDbLine
 10
342.8483209734
 20
34.1521945742
 30
0.0
 11
342.8483209734
 21
37.1521941346
 31
0.0
  0
LINE
  5
169
330
1F
100
AcDbEntity
  8
0
  6
Continuous
 62
     7
370
    25
100
AcDbLine
 10
112.1645695691
 20
34.1521945742
 30
0.0
 11
113.6645651584
 21
34.1521945742
 31
0.0
  0
LINE
  5
16A
330
1F
100
AcDbEntity
  8
0
  6
Continuous
 62
     7
370
    25
100
AcDbLine
 10
113.6645651584
 20
34.1521945742
 30
0.0
 11
113.6645651584
 21
37.1521941346
 31
0.0
  0
LINE
  5
16B
330
1F
100
AcDbEntity
  8
0
  6
Continuous
 62
     7
370
    25
100
AcDbLine
 10
113.6645651584
 20
37.1521941346
 30
0.0
 11
112.1645695691
 21
37.1521941346
 31
0.0
  0
LINE
  5
16C
330
1F
100
AcDbEntity
  8
0
  6
Continuous
 62
     7
370
    25
100
AcDbLine
 10
112.1645695691
 20
37.1521941346
 30
0.0
 11
112.1645695691
 21
34.1521945742
 31
0.0
  0
LINE
  5
16D
330
1F
100
AcDbEntity
  8
0
  6
Continuous
 62
     7
370
    25
100
AcDbLine
 10
332.1733190839
 20
37.1521941346
 30
0.0
 11
330.6733197694
 21
37.1521941346
 31
0.0
  0
LINE
  5
16E
330
1F
100
AcDbEntity
  8
0
  6
Continuous
 62
     7
370
    25
100
AcDbLine
 10
330.6733197694
 20
37.1521941346
 30
0.0
 11
330.6733197694
 21
34.1521945742
 31
0.0
  0
LINE
  5
16F
330
1F
100
AcDbEntity
  8
0
  6
Continuous
 62
     7
370
    25
100
AcDbLine
 10
330.6733197694
 20
34.1521945742
 30
0.0
 11
332.1733190839
 21
34.1521945742
 31
0.0
  0
LINE
  5
170
330
1F
100
AcDbEntity
  8
0
  6
Continuous
 62
     7
370
    25
100
AcDbLine
 10
332.1733190839
 20
34.1521945742
 30
0.0
 11
332.1733190839
 21
37.1521941346
 31
0.0
  0
LINE
  5
171
330
1F
100
AcDbEntity
  8
0
  6
Continuous
 62
     7
370
    25
100
AcDbLine
 10
226.7545699303
 20
34.1521945742
 30
0.0
 11
228.2545692448
 21
34.1521945742
 31
0.0
  0
LINE
  5
172
330
1F
100
AcDbEntity
  8
0
  6
Continuous
 62
     7
370
    25
100
AcDbLine
 10
228.2545692448
 20
34.1521945742
 30
0.0
 11
228.2545692448
 21
37.1521941346
 31
0.0
  0
LINE
  5
173
330
1F
100
AcDbEntity
  8
0
  6
Continuous
 62
     7
370
    25
100
AcDbLine
 10
228.2545692448
 20
37.1521941346
 30
0.0
 11
226.7545699303
 21
37.1521941346
 31
0.0
  0
LINE
  5
174
330
1F
100
AcDbEntity
  8
0
  6
Continuous
 62
     7
370
    25
100
AcDbLine
 10
226.7545699303
 20
37.1521941346
 30
0.0
 11
226.7545699303
 21
34.1521945742
 31
0.0
  0
LINE
  5
175
330
1F
100
AcDbEntity
  8
0
  6
Continuous
 62
     7
370
    25
100
AcDbLine
 10
102.9895669942
 20
37.1521941346
 30
0.0
 11
101.4895714049
 21
37.1521941346
 31
0.0
  0
LINE
  5
176
330
1F
100
AcDbEntity
  8
0
  6
Continuous
 62
     7
370
    25
100
AcDbLine
 10
101.4895714049
 20
37.1521941346
 30
0.0
 11
101.4895714049
 21
34.1521945742
 31
0.0
  0
LINE
  5
177
330
1F
100
AcDbEntity
  8
0
  6
Continuous
 62
     7
370
    25
100
AcDbLine
 10
101.4895714049
 20
34.1521945742
 30
0.0
 11
102.9895669942
 21
34.1521945742
 31
0.0
  0
LINE
  5
178
330
1F
100
AcDbEntity
  8
0
  6
Continuous
 62
     7
370
    25
100
AcDbLine
 10
102.9895669942
 20
34.1521945742
 30
0.0
 11
102.9895669942
 21
37.1521941346
 31
0.0
  0
LINE
  5
179
330
1F
100
AcDbEntity
  8
0
  6
Continuous
 62
     7
370
    25
100
AcDbLine
 10
446.7633194451
 20
37.1521941346
 30
0.0
 11
445.2633238559
 21
37.1521941346
 31
0.0
  0
LINE
  5
17A
330
1F
100
AcDbEntity
  8
0
  6
Continuous
 62
     7
370
    25
100
AcDbLine
 10
445.2633238559
 20
37.1521941346
 30
0.0
 11
445.2633238559
 21
34.1521945742
 31
0.0
  0
LINE
  5
17B
330
1F
100
AcDbEntity
  8
0
  6
Continuous
 62
     7
370
    25
100
AcDbLine
 10
445.2633238559
 20
34.1521945742
 30
0.0
 11
446.7633194451
 21
34.1521945742
 31
0.0
  0
LINE
  5
17C
330
1F
100
AcDbEntity
  8
0
  6
Continuous
 62
     7
370
    25
100
AcDbLine
 10
446.7633194451
 20
34.1521945742
 30
0.0
 11
446.7633194451
 21
37.1521941346
 31
0.0
  0
LINE
  5
17D
330
1F
100
AcDbEntity
  8
0
  6
Continuous
 62
     7
370
    25
100
AcDbLine
 10
457.4383176093
 20
37.1521941346
 30
0.0
 11
455.93832202
 21
37.1521941346
 31
0.0
  0
LINE
  5
17E
330
1F
100
AcDbEntity
  8
0
  6
Continuous
 62
     7
370
    25
100
AcDbLine
 10
455.93832202
 20
37.1521941346
 30
0.0
 11
455.93832202
 21
34.1521945742
 31
0.0
  0
LINE
  5
17F
330
1F
100
AcDbEntity
  8
0
  6
Continuous
 62
     7
370
    25
100
AcDbLine
 10
455.93832202
 20
34.1521945742
 30
0.0
 11
457.4383176093
 21
34.1521945742
 31
0.0
  0
LINE
  5
180
330
1F
100
AcDbEntity
  8
0
  6
Continuous
 62
     7
370
    25
100
AcDbLine
 10
457.4383176093
 20
34.1521945742
 30
0.0
 11
457.4383176093
 21
37.1521941346
 31
0.0
  0
LINE
  5
181
330
1F
100
AcDbEntity
  8
0
  6
Continuous
 62
     7
370
    25
100
AcDbLine
 10
217.5795710807
 20
37.1521941346
 30
0.0
 11
216.0795680408
 21
37.1521941346
 31
0.0
  0
LINE
  5
182
330
1F
100
AcDbEntity
  8
0
  6
Continuous
 62
     7
370
    25
100
AcDbLine
 10
216.0795680408
 20
37.1521941346
 30
0.0
 11
216.0795680408
 21
34.1521945742
 31
0.0
  0
LINE
  5
183
330
1F
100
AcDbEntity
  8
0
  6
Continuous
 62
     7
370
    25
100
AcDbLine
 10
216.0795680408
 20
34.1521945742
 30
0.0
 11
217.5795710807
 21
34.1521945742
 31
0.0
  0
LINE
  5
184
330
1F
100
AcDbEntity
  8
0
  6
Continuous
 62
     7
370
    25
100
AcDbLine
 10
217.5795710807
 20
34.1521945742
 30
0.0
 11
217.5795710807
 21
37.1521941346
 31
0.0
  0
CIRCLE
  5
185
330
1F
100
AcDbEntity
  8
0
  6
Continuous
 62
     7
370
    25
100
AcDbCircle
 10
47.7764445071
 20
87.9021945966
 30
0.0
 40
1.24999999999995
  0
CIRCLE
  5
186
330
1F
100
AcDbEntity
  8
0
  6
Continuous
 62
     7
370
    25
100
AcDbCircle
 10
47.7764445071
 20
78.4021945966
 30
0.0
 40
1.249999999999943
  0
CIRCLE
  5
187
330
1F
100
AcDbEntity
  8
0
  6
Continuous
 62
     7
370
    25
100
AcDbCircle
 10
491.1514445071
 20
87.9021945966
 30
0.0
 40
1.25
  0
CIRCLE
  5
188
330
1F
100
AcDbEntity
  8
0
  6
Continuous
 62
     7
370
    25
100
AcDbCircle
 10
491.1514445071
 20
78.4021945966
 30
0.0
 40
1.249999999999943
  0
LINE
  5
189
330
1F
100
AcDbEntity
  8
0
  6
Continuous
 62
     7
370
    25
100
AcDbLine
 10
24.776456428
 20
89.6521943581
 30
0.0
 11
23.2764459376
 21
89.6521943581
 31
0.0
  0
LINE
  5
18A
330
1F
100
AcDbEntity
  8
0
  6
Continuous
 62
     7
370
    25
100
AcDbLine
 10
23.2764459376
 20
89.6521943581
 30
0.0
 11
23.2764459376
 21
86.6521957291
 31
0.0
  0
LINE
  5
18B
330
1F
100
AcDbEntity
  8
0
  6
Continuous
 62
     7
370
    25
100
AcDbLine
 10
23.2764459376
 20
86.6521957291
 30
0.0
 11
24.776456428
 21
86.6521957291
 31
0.0
  0
LINE
  5
18C
330
1F
100
AcDbEntity
  8
0
  6
Continuous
 62
     7
370
    25
100
AcDbLine
 10
24.776456428
 20
86.6521957291
 30
0.0
 11
24.776456428
 21
89.6521943581
 31
0.0
  0
LINE
  5
18D
330
1F
100
AcDbEntity
  8
0
  6
Continuous
 62
     7
370
    25
100
AcDbLine
 10
23.2764459376
 20
36.652194984
 30
0.0
 11
24.776456428
 21
36.652194984
 31
0.0
  0
LINE
  5
18E
330
1F
100
AcDbEntity
  8
0
  6
Continuous
 62
     7
370
    25
100
AcDbLine
 10
24.776456428
 20
36.652194984
 30
0.0
 11
24.776456428
 21
39.6521945444
 31
0.0
  0
LINE
  5
18F
330
1F
100
AcDbEntity
  8
0
  6
Continuous
 62
     7
370
    25
100
AcDbLine
 10
24.776456428
 20
39.6521945444
 30
0.0
 11
23.2764459376
 21
39.6521945444
 31
0.0
  0
LINE
  5
190
330
1F
100
AcDbEntity
  8
0
  6
Continuous
 62
     7
370
    25
100
AcDbLine
 10
23.2764459376
 20
39.6521945444
 30
0.0
 11
23.2764459376
 21
36.652194984
 31
0.0
  0
LINE
  5
191
330
1F
100
AcDbEntity
  8
0
  6
Continuous
 62
     7
370
    25
100
AcDbLine
 10
39.2764485602
 20
112.6521962655
 30
0.0
 11
36.2764424805
 21
112.6521962655
 31
0.0
  0
LINE
  5
192
330
1F
100
AcDbEntity
  8
0
  6
Continuous
 62
     7
370
    25
100
AcDbLine
 10
36.2764424805
 20
112.6521962655
 30
0.0
 11
36.2764424805
 21
111.1521932257
 31
0.0
  0
LINE
  5
193
330
1F
100
AcDbEntity
  8
0
  6
Continuous
 62
     7
370
    25
100
AcDbLine
 10
36.2764424805
 20
111.1521932257
 30
0.0
 11
39.2764485602
 21
111.1521932257
 31
0.0
  0
LINE
  5
194
330
1F
100
AcDbEntity
  8
0
  6
Continuous
 62
     7
370
    25
100
AcDbLine
 10
39.2764485602
 20
111.1521932257
 30
0.0
 11
39.2764485602
 21
112.6521962655
 31
0.0
  0
LINE
  5
195
330
1F
100
AcDbEntity
  8
0
  6
Continuous
 62
     7
370
    25
100
AcDbLine
 10
33.0264396195
 20
57.3271947873
 30
0.0
 11
27.526435924
 21
57.3271947873
 31
0.0
  0
LINE
  5
196
330
1F
100
AcDbEntity
  8
0
  6
Continuous
 62
     7
370
    25
100
AcDbLine
 10
27.526435924
 20
57.3271947873
 30
0.0
 11
27.526435924
 21
53.8271942136
 31
0.0
  0
LINE
  5
197
330
1F
100
AcDbEntity
  8
0
  6
Continuous
 62
     7
370
    25
100
AcDbLine
 10
27.526435924
 20
53.8271942136
 30
0.0
 11
33.0264396195
 21
53.8271942136
 31
0.0
  0
LINE
  5
198
330
1F
100
AcDbEntity
  8
0
  6
Continuous
 62
     7
370
    25
100
AcDbLine
 10
33.0264396195
 20
53.8271942136
 30
0.0
 11
33.0264396195
 21
57.3271947873
 31
0.0
  0
LINE
  5
199
330
1F
100
AcDbEntity
  8
0
  6
Continuous
 62
     7
370
    25
100
AcDbLine
 10
512.6514411692
 20
20.1521950734
 30
0.0
 11
509.6514499907
 21
20.1521950734
 31
0.0
  0
LINE
  5
19A
330
1F
100
AcDbEntity
  8
0
  6
Continuous
 62
     7
370
    25
100
AcDbLine
 10
509.6514499907
 20
20.1521950734
 30
0.0
 11
509.6514499907
 21
18.6521938962
 31
0.0
  0
LINE
  5
19B
330
1F
100
AcDbEntity
  8
0
  6
Continuous
 62
     7
370
    25
100
AcDbLine
 10
509.6514499907
 20
18.6521938962
 30
0.0
 11
512.6514411692
 21
18.6521938962
 31
0.0
  0
LINE
  5
19C
330
1F
100
AcDbEntity
  8
0
  6
Continuous
 62
     7
370
    25
100
AcDbLine
 10
512.6514411692
 20
18.6521938962
 30
0.0
 11
512.6514411692
 21
20.1521950734
 31
0.0
  0
LINE
  5
19D
330
1F
100
AcDbEntity
  8
0
  6
Continuous
 62
     7
370
    25
100
AcDbLine
 10
39.2764485602
 20
20.1521950734
 30
0.0
 11
36.2764424805
 21
20.1521950734
 31
0.0
  0
LINE
  5
19E
330
1F
100
AcDbEntity
  8
0
  6
Continuous
 62
     7
370
    25
100
AcDbLine
 10
36.2764424805
 20
20.1521950734
 30
0.0
 11
36.2764424805
 21
18.6521938962
 31
0.0
  0
LINE
  5
19F
330
1F
100
AcDbEntity
  8
0
  6
Continuous
 62
     7
370
    25
100
AcDbLine
 10
36.2764424805
 20
18.6521938962
 30
0.0
 11
39.2764485602
 21
18.6521938962
 31
0.0
  0
LINE
  5
1A0
330
1F
100
AcDbEntity
  8
0
  6
Continuous
 62
     7
370
    25
100
AcDbLine
 10
39.2764485602
 20
18.6521938962
 30
0.0
 11
39.2764485602
 21
20.1521950734
 31
0.0
  0
LINE
  5
1A1
330
1F
100
AcDbEntity
  8
0
  6
Continuous
 62
     7
370
    25
100
AcDbLine
 10
538.6514342551
 20
98.1521929574
 30
0.0
 11
538.6514342551
 21
115.6521948946
 31
0.0
  0
LINE
  5
1A2
330
1F
100
AcDbEntity
  8
0
  6
Continuous
 62
     7
370
    25
100
AcDbLine
 10
473.6514515405
 20
73.1521944476
 30
0.0
 11
65.2764416461
 21
73.1521944476
 31
0.0
  0
LINE
  5
1A3
330
1F
100
AcDbEntity
  8
0
  6
Continuous
 62
     7
370
    25
100
AcDbLine
 10
498.6514425998
 20
115.6521948946
 30
0.0
 11
483.6514420037
 21
115.6521948946
 31
0.0
  0
LINE
  5
1A4
330
1F
100
AcDbEntity
  8
0
  6
Continuous
 62
     7
370
    25
100
AcDbLine
 10
538.6514342551
 20
115.6521948946
 30
0.0
 11
523.6514485602
 21
115.6521948946
 31
0.0
  0
LINE
  5
1A5
330
1F
100
AcDbEntity
  8
0
  6
Continuous
 62
     7
370
    25
100
AcDbLine
 10
30.2764452224
 20
115.6521948946
 30
0.0
 11
20.2764547591
 21
115.6521948946
 31
0.0
  0
LINE
  5
1A6
330
1F
100
AcDbEntity
  8
0
  6
Continuous
 62
     7
370
    25
100
AcDbLine
 10
55.2764511828
 20
115.6521948946
 30
0.0
 11
45.2764458184
 21
115.6521948946
 31
0.0
  0
LINE
  5
1A7
330
1F
100
AcDbEntity
  8
0
  6
Continuous
 62
     7
370
    25
100
AcDbLine
 10
538.6514342551
 20
48.1521945407
 30
0.0
 11
538.6514342551
 21
78.1521934045
 31
0.0
  0
LINE
  5
1A8
330
1F
100
AcDbEntity
  8
0
  6
Continuous
 62
     7
370
    25
100
AcDbLine
 10
538.6514342551
 20
15.6521952671
 30
0.0
 11
538.6514342551
 21
28.1521945221
 31
0.0
  0
LINE
  5
1A9
330
1F
100
AcDbEntity
  8
0
  6
Continuous
 62
     7
370
    25
100
AcDbLine
 10
20.2764547591
 20
115.6521948946
 30
0.0
 11
20.2764547591
 21
98.1521929574
 31
0.0
  0
LINE
  5
1AA
330
1F
100
AcDbEntity
  8
0
  6
Continuous
 62
     7
370
    25
100
AcDbLine
 10
20.2764547591
 20
78.1521934045
 30
0.0
 11
20.2764547591
 21
48.1521945407
 31
0.0
  0
LINE
  5
1AB
330
1F
100
AcDbEntity
  8
0
  6
Continuous
 62
     7
370
    25
100
AcDbLine
 10
20.2764547591
 20
28.1521945221
 30
0.0
 11
20.2764547591
 21
15.6521952671
 31
0.0
  0
LINE
  5
1AC
330
1F
100
AcDbEntity
  8
0
  6
Continuous
 62
     7
370
    25
100
AcDbLine
 10
57.7764487986
 20
18.1521947456
 30
0.0
 11
481.1514443879
 21
18.1521947456
 31
0.0
  0
LINE
  5
1AD
330
1F
100
AcDbEntity
  8
0
  6
Continuous
 62
     7
370
    25
100
AcDbLine
 10
483.6514420037
 20
15.6521952671
 30
0.0
 11
498.6514425998
 21
15.6521952671
 31
0.0
  0
LINE
  5
1AE
330
1F
100
AcDbEntity
  8
0
  6
Continuous
 62
     7
370
    25
100
AcDbLine
 10
523.6514485602
 20
15.6521952671
 30
0.0
 11
538.6514342551
 21
15.6521952671
 31
0.0
  0
LINE
  5
1AF
330
1F
100
AcDbEntity
  8
0
  6
Continuous
 62
     7
370
    25
100
AcDbLine
 10
20.2764547591
 20
15.6521952671
 30
0.0
 11
30.2764452224
 21
15.6521952671
 31
0.0
  0
LINE
  5
1B0
330
1F
100
AcDbEntity
  8
0
  6
Continuous
 62
     7
370
    25
100
AcDbLine
 10
45.2764458184
 20
15.6521952671
 30
0.0
 11
55.2764511828
 21
15.6521952671
 31
0.0
  0
LINE
  5
1B1
330
1F
100
AcDbEntity
  8
0
  6
Continuous
 62
     7
370
    25
100
AcDbLine
 10
519.0177596252
 20
125.5773961827
 30
0.0
 11
519.0177596252
 21
128.5773948118
 31
0.0
  0
LINE
  5
1B2
330
1F
100
AcDbEntity
  8
0
  6
Continuous
 62
     7
370
    25
100
AcDbLine
 10
504.0177590291
 20
125.5773961827
 30
0.0
 11
519.0177596252
 21
125.5773961827
 31
0.0
  0
LINE
  5
1B3
330
1F
100
AcDbEntity
  8
0
  6
Continuous
 62
     7
370
    25
100
AcDbLine
 10
504.0177590291
 20
128.5773948118
 30
0.0
 11
504.0177590291
 21
125.5773961827
 31
0.0
  0
LINE
  5
1B4
330
1F
100
AcDbEntity
  8
0
  6
Continuous
 62
     7
370
    25
100
AcDbLine
 10
494.0177536647
 20
161.0773936197
 30
0.0
 11
494.0177536647
 21
128.5773948118
 31
0.0
  0
ARC
  5
1B5
330
1F
100
AcDbEntity
  8
0
  6
Continuous
 62
     7
370
    25
100
AcDbCircle
 10
484.0177603404
 20
161.0773951099
 30
0.0
 40
10.0
100
AcDbArc
 50
0.0
 51
90.0
  0
ARC
  5
1B6
330
1F
100
AcDbEntity
  8
0
  6
Continuous
 62
     7
370
    25
100
AcDbCircle
 10
75.6427603404
 20
161.0773951099
 30
0.0
 40
10.0
100
AcDbArc
 50
90.0
 51
180.0
  0
LINE
  5
1B7
330
1F
100
AcDbEntity
  8
0
  6
Continuous
 62
     7
370
    25
100
AcDbLine
 10
65.6427628438
 20
128.5773948118
 30
0.0
 11
65.6427628438
 21
161.0773936197
 31
0.0
  0
LINE
  5
1B8
330
1F
100
AcDbEntity
  8
0
  6
Continuous
 62
     7
370
    25
100
AcDbLine
 10
50.6427622478
 20
125.5773961827
 30
0.0
 11
50.6427622478
 21
128.5773948118
 31
0.0
  0
LINE
  5
1B9
330
1F
100
AcDbEntity
  8
0
  6
Continuous
 62
     7
370
    25
100
AcDbLine
 10
25.6427562873
 20
125.5773961827
 30
0.0
 11
50.6427622478
 21
125.5773961827
 31
0.0
  0
LINE
  5
1BA
330
1F
100
AcDbEntity
  8
0
  6
Continuous
 62
     7
370
    25
100
AcDbLine
 10
25.6427562873
 20
128.5773948118
 30
0.0
 11
25.6427562873
 21
125.5773961827
 31
0.0
  0
LINE
  5
1BB
330
1F
100
AcDbEntity
  8
0
  6
Continuous
 62
     7
370
    25
100
AcDbLine
 10
7.6427496116
 20
146.077396749
 30
0.0
 11
10.6427705924
 21
146.077396749
 31
0.0
  0
LINE
  5
1BC
330
1F
100
AcDbEntity
  8
0
  6
Continuous
 62
     7
370
    25
100
AcDbLine
 10
7.6427496116
 20
166.077396302
 30
0.0
 11
7.6427496116
 21
146.077396749
 31
0.0
  0
LINE
  5
1BD
330
1F
100
AcDbEntity
  8
0
  6
Continuous
 62
     7
370
    25
100
AcDbLine
 10
10.6427705924
 20
166.077396302
 30
0.0
 11
7.6427496116
 21
166.077396302
 31
0.0
  0
LINE
  5
1BE
330
1F
100
AcDbEntity
  8
0
  6
Continuous
 62
     7
370
    25
100
AcDbLine
 10
7.6427496116
 20
196.0773951657
 30
0.0
 11
10.6427705924
 21
196.0773951657
 31
0.0
  0
LINE
  5
1BF
330
1F
100
AcDbEntity
  8
0
  6
Continuous
 62
     7
370
    25
100
AcDbLine
 10
7.6427496116
 20
216.0773951844
 30
0.0
 11
7.6427496116
 21
196.0773951657
 31
0.0
  0
LINE
  5
1C0
330
1F
100
AcDbEntity
  8
0
  6
Continuous
 62
     7
370
    25
100
AcDbLine
 10
10.6427705924
 20
216.0773951844
 30
0.0
 11
7.6427496116
 21
216.0773951844
 31
0.0
  0
LINE
  5
1C1
330
1F
100
AcDbEntity
  8
0
  6
Continuous
 62
     7
370
    25
100
AcDbLine
 10
25.6427562873
 20
231.5773949311
 30
0.0
 11
25.6427562873
 21
228.5773944393
 31
0.0
  0
LINE
  5
1C2
330
1F
100
AcDbEntity
  8
0
  6
Continuous
 62
     7
370
    25
100
AcDbLine
 10
50.6427622478
 20
231.5773949311
 30
0.0
 11
25.6427562873
 21
231.5773949311
 31
0.0
  0
LINE
  5
1C3
330
1F
100
AcDbEntity
  8
0
  6
Continuous
 62
     7
370
    25
100
AcDbLine
 10
50.6427622478
 20
228.5773944393
 30
0.0
 11
50.6427622478
 21
231.5773949311
 31
0.0
  0
ARC
  5
1C4
330
1F
100
AcDbEntity
  8
0
  6
Continuous
 62
     7
370
    25
100
AcDbCircle
 10
68.1427603404
 20
228.5773951099
 30
0.0
 40
2.5
100
AcDbArc
 50
180.0
 51
270.0
  0
ARC
  5
1C5
330
1F
100
AcDbEntity
  8
0
  6
Continuous
 62
     7
370
    25
100
AcDbCircle
 10
491.5177603404
 20
228.5773951099
 30
0.0
 40
2.500000000000057
100
AcDbArc
 50
270.0
 51
0.0
  0
LINE
  5
1C6
330
1F
100
AcDbEntity
  8
0
  6
Continuous
 62
     7
370
    25
100
AcDbLine
 10
504.0177590291
 20
231.5773949311
 30
0.0
 11
504.0177590291
 21
228.5773944393
 31
0.0
  0
LINE
  5
1C7
330
1F
100
AcDbEntity
  8
0
  6
Continuous
 62
     7
370
    25
100
AcDbLine
 10
519.0177596252
 20
231.5773949311
 30
0.0
 11
504.0177590291
 21
231.5773949311
 31
0.0
  0
LINE
  5
1C8
330
1F
100
AcDbEntity
  8
0
  6
Continuous
 62
     7
370
    25
100
AcDbLine
 10
519.0177596252
 20
228.5773944393
 30
0.0
 11
519.0177596252
 21
231.5773949311
 31
0.0
  0
LINE
  5
1C9
330
1F
100
AcDbEntity
  8
0
  6
Continuous
 62
     7
370
    25
100
AcDbLine
 10
532.0177710693
 20
216.0773951844
 30
0.0
 11
529.0177500884
 21
216.0773951844
 31
0.0
  0
LINE
  5
1CA
330
1F
100
AcDbEntity
  8
0
  6
Continuous
 62
     7
370
    25
100
AcDbLine
 10
532.0177710693
 20
196.0773951657
 30
0.0
 11
532.0177710693
 21
216.0773951844
 31
0.0
  0
LINE
  5
1CB
330
1F
100
AcDbEntity
  8
0
  6
Continuous
 62
     7
370
    25
100
AcDbLine
 10
529.0177500884
 20
196.0773951657
 30
0.0
 11
532.0177710693
 21
196.0773951657
 31
0.0
  0
LINE
  5
1CC
330
1F
100
AcDbEntity
  8
0
  6
Continuous
 62
     7
370
    25
100
AcDbLine
 10
532.0177710693
 20
166.077396302
 30
0.0
 11
529.0177500884
 21
166.077396302
 31
0.0
  0
LINE
  5
1CD
330
1F
100
AcDbEntity
  8
0
  6
Continuous
 62
     7
370
    25
100
AcDbLine
 10
532.0177710693
 20
146.077396749
 30
0.0
 11
532.0177710693
 21
166.077396302
 31
0.0
  0
LINE
  5
1CE
330
1F
100
AcDbEntity
  8
0
  6
Continuous
 62
     7
370
    25
100
AcDbLine
 10
529.0177500884
 20
146.077396749
 30
0.0
 11
532.0177710693
 21
146.077396749
 31
0.0
  0
CIRCLE
  5
1CF
330
1F
100
AcDbEntity
  8
0
  6
Continuous
 62
     7
370
    25
100
AcDbCircle
 10
38.1427603404
 20
156.0773951099
 30
0.0
 40
11.00000000000001
  0
CIRCLE
  5
1D0
330
1F
100
AcDbEntity
  8
0
  6
Continuous
 62
     7
370
    25
100
AcDbCircle
 10
22.6427603404
 20
171.5773951099
 30
0.0
 40
1.5
  0
CIRCLE
  5
1D1
330
1F
100
AcDbEntity
  8
0
  6
Continuous
 62
     7
370
    25
100
AcDbCircle
 10
53.6427603404
 20
171.5773951099
 30
0.0
 40
1.500000000000007
  0
CIRCLE
  5
1D2
330
1F
100
AcDbEntity
  8
0
  6
Continuous
 62
     7
370
    25
100
AcDbCircle
 10
53.6427603404
 20
140.5773951099
 30
0.0
 40
1.5
  0
CIRCLE
  5
1D3
330
1F
100
AcDbEntity
  8
0
  6
Continuous
 62
     7
370
    25
100
AcDbCircle
 10
22.6427603404
 20
140.5773951099
 30
0.0
 40
1.5
  0
CIRCLE
  5
1D4
330
1F
100
AcDbEntity
  8
0
  6
Continuous
 62
     7
370
    25
100
AcDbCircle
 10
511.5177603404
 20
156.0773951099
 30
0.0
 40
1.500000000000057
  0
LINE
  5
1D5
330
1F
100
AcDbEntity
  8
0
  6
Continuous
 62
     7
370
    25
100
AcDbLine
 10
36.6427636783
 20
131.5773934409
 30
0.0
 11
39.6427548568
 21
131.5773934409
 31
0.0
  0
LINE
  5
1D6
330
1F
100
AcDbEntity
  8
0
  6
Continuous
 62
     7
370
    25
100
AcDbLine
 10
39.6427548568
 20
131.5773934409
 30
0.0
 11
39.6427548568
 21
133.0773964808
 31
0.0
  0
LINE
  5
1D7
330
1F
100
AcDbEntity
  8
0
  6
Continuous
 62
     7
370
    25
100
AcDbLine
 10
39.6427548568
 20
133.0773964808
 30
0.0
 11
36.6427636783
 21
133.0773964808
 31
0.0
  0
LINE
  5
1D8
330
1F
100
AcDbEntity
  8
0
  6
Continuous
 62
     7
370
    25
100
AcDbLine
 10
36.6427636783
 20
133.0773964808
 30
0.0
 11
36.6427636783
 21
131.5773934409
 31
0.0
  0
LINE
  5
1D9
330
1F
100
AcDbEntity
  8
0
  6
Continuous
 62
     7
370
    25
100
AcDbLine
 10
13.6427617709
 20
154.5773953483
 30
0.0
 11
15.1427722613
 21
154.5773953483
 31
0.0
  0
LINE
  5
1DA
330
1F
100
AcDbEntity
  8
0
  6
Continuous
 62
     7
370
    25
100
AcDbLine
 10
15.1427722613
 20
154.5773953483
 30
0.0
 11
15.1427722613
 21
157.5773939774
 31
0.0
  0
LINE
  5
1DB
330
1F
100
AcDbEntity
  8
0
  6
Continuous
 62
     7
370
    25
100
AcDbLine
 10
15.1427722613
 20
157.5773939774
 30
0.0
 11
13.6427617709
 21
157.5773939774
 31
0.0
  0
LINE
  5
1DC
330
1F
100
AcDbEntity
  8
0
  6
Continuous
 62
     7
370
    25
100
AcDbLine
 10
13.6427617709
 20
157.5773939774
 30
0.0
 11
13.6427617709
 21
154.5773953483
 31
0.0
  0
LINE
  5
1DD
330
1F
100
AcDbEntity
  8
0
  6
Continuous
 62
     7
370
    25
100
AcDbLine
 10
15.1427722613
 20
207.5773947224
 30
0.0
 11
13.6427617709
 21
207.5773947224
 31
0.0
  0
LINE
  5
1DE
330
1F
100
AcDbEntity
  8
0
  6
Continuous
 62
     7
370
    25
100
AcDbLine
 10
13.6427617709
 20
207.5773947224
 30
0.0
 11
13.6427617709
 21
204.577395162
 31
0.0
  0
LINE
  5
1DF
330
1F
100
AcDbEntity
  8
0
  6
Continuous
 62
     7
370
    25
100
AcDbLine
 10
13.6427617709
 20
204.577395162
 30
0.0
 11
15.1427722613
 21
204.577395162
 31
0.0
  0
LINE
  5
1E0
330
1F
100
AcDbEntity
  8
0
  6
Continuous
 62
     7
370
    25
100
AcDbLine
 10
15.1427722613
 20
204.577395162
 30
0.0
 11
15.1427722613
 21
207.5773947224
 31
0.0
  0
LINE
  5
1E1
330
1F
100
AcDbEntity
  8
0
  6
Continuous
 62
     7
370
    25
100
AcDbLine
 10
30.6427664201
 20
190.4023954928
 30
0.0
 11
50.6427622478
 21
190.4023954928
 31
0.0
  0
LINE
  5
1E2
330
1F
100
AcDbEntity
  8
0
  6
Continuous
 62
     7
370
    25
100
AcDbLine
 10
50.6427622478
 20
190.4023954928
 30
0.0
 11
50.6427622478
 21
193.5773952216
 31
0.0
  0
LINE
  5
1E3
330
1F
100
AcDbEntity
  8
0
  6
Continuous
 62
     7
370
    25
100
AcDbLine
 10
50.6427622478
 20
193.5773952216
 30
0.0
 11
30.6427664201
 21
193.5773952216
 31
0.0
  0
LINE
  5
1E4
330
1F
100
AcDbEntity
  8
0
  6
Continuous
 62
     7
370
    25
100
AcDbLine
 10
30.6427664201
 20
193.5773952216
 30
0.0
 11
30.6427664201
 21
190.4023954928
 31
0.0
  0
LINE
  5
1E5
330
1F
100
AcDbEntity
  8
0
  6
Continuous
 62
     7
370
    25
100
AcDbLine
 10
489.0177584331
 20
190.4023954928
 30
0.0
 11
509.0177542607
 21
190.4023954928
 31
0.0
  0
LINE
  5
1E6
330
1F
100
AcDbEntity
  8
0
  6
Continuous
 62
     7
370
    25
100
AcDbLine
 10
509.0177542607
 20
190.4023954928
 30
0.0
 11
509.0177542607
 21
193.5773952216
 31
0.0
  0
LINE
  5
1E7
330
1F
100
AcDbEntity
  8
0
  6
Continuous
 62
     7
370
    25
100
AcDbLine
 10
509.0177542607
 20
193.5773952216
 30
0.0
 11
489.0177584331
 21
193.5773952216
 31
0.0
  0
LINE
  5
1E8
330
1F
100
AcDbEntity
  8
0
  6
Continuous
 62
     7
370
    25
100
AcDbLine
 10
489.0177584331
 20
193.5773952216
 30
0.0
 11
489.0177584331
 21
190.4023954928
 31
0.0
  0
LINE
  5
1E9
330
1F
100
AcDbEntity
  8
0
  6
Continuous
 62
     7
370
    25
100
AcDbLine
 10
259.8302605639
 20
190.4023954928
 30
0.0
 11
279.8302601169
 21
190.4023954928
 31
0.0
  0
LINE
  5
1EA
330
1F
100
AcDbEntity
  8
0
  6
Continuous
 62
     7
370
    25
100
AcDbLine
 10
279.8302601169
 20
190.4023954928
 30
0.0
 11
279.8302601169
 21
193.5773952216
 31
0.0
  0
LINE
  5
1EB
330
1F
100
AcDbEntity
  8
0
  6
Continuous
 62
     7
370
    25
100
AcDbLine
 10
279.8302601169
 20
193.5773952216
 30
0.0
 11
259.8302605639
 21
193.5773952216
 31
0.0
  0
LINE
  5
1EC
330
1F
100
AcDbEntity
  8
0
  6
Continuous
 62
     7
370
    25
100
AcDbLine
 10
259.8302605639
 20
193.5773952216
 30
0.0
 11
259.8302605639
 21
190.4023954928
 31
0.0
  0
LINE
  5
1ED
330
1F
100
AcDbEntity
  8
0
  6
Continuous
 62
     7
370
    25
100
AcDbLine
 10
39.1427612941
 20
185.9023947552
 30
0.0
 11
42.1427673738
 21
185.9023947552
 31
0.0
  0
LINE
  5
1EE
330
1F
100
AcDbEntity
  8
0
  6
Continuous
 62
     7
370
    25
100
AcDbLine
 10
42.1427673738
 20
185.9023947552
 30
0.0
 11
42.1427673738
 21
187.4023950011
 31
0.0
  0
LINE
  5
1EF
330
1F
100
AcDbEntity
  8
0
  6
Continuous
 62
     7
370
    25
100
AcDbLine
 10
42.1427673738
 20
187.4023950011
 30
0.0
 11
39.1427612941
 21
187.4023950011
 31
0.0
  0
LINE
  5
1F0
330
1F
100
AcDbEntity
  8
0
  6
Continuous
 62
     7
370
    25
100
AcDbLine
 10
39.1427612941
 20
187.4023950011
 30
0.0
 11
39.1427612941
 21
185.9023947552
 31
0.0
  0
LINE
  5
1F1
330
1F
100
AcDbEntity
  8
0
  6
Continuous
 62
     7
370
    25
100
AcDbLine
 10
42.1427673738
 20
198.0773950861
 30
0.0
 11
39.1427612941
 21
198.0773950861
 31
0.0
  0
LINE
  5
1F2
330
1F
100
AcDbEntity
  8
0
  6
Continuous
 62
     7
370
    25
100
AcDbLine
 10
39.1427612941
 20
198.0773950861
 30
0.0
 11
39.1427612941
 21
196.5773950149
 31
0.0
  0
LINE
  5
1F3
330
1F
100
AcDbEntity
  8
0
  6
Continuous
 62
     7
370
    25
100
AcDbLine
 10
39.1427612941
 20
196.5773950149
 30
0.0
 11
42.1427673738
 21
196.5773950149
 31
0.0
  0
LINE
  5
1F4
330
1F
100
AcDbEntity
  8
0
  6
Continuous
 62
     7
370
    25
100
AcDbLine
 10
42.1427673738
 20
196.5773950149
 30
0.0
 11
42.1427673738
 21
198.0773950861
 31
0.0
  0
LINE
  5
1F5
330
1F
100
AcDbEntity
  8
0
  6
Continuous
 62
     7
370
    25
100
AcDbLine
 10
268.3302603274
 20
187.4023950011
 30
0.0
 11
268.3302603274
 21
185.9023947552
 31
0.0
  0
LINE
  5
1F6
330
1F
100
AcDbEntity
  8
0
  6
Continuous
 62
     7
370
    25
100
AcDbLine
 10
268.3302603274
 20
185.9023947552
 30
0.0
 11
271.3302603535
 21
185.9023947552
 31
0.0
  0
LINE
  5
1F7
330
1F
100
AcDbEntity
  8
0
  6
Continuous
 62
     7
370
    25
100
AcDbLine
 10
271.3302603535
 20
185.9023947552
 30
0.0
 11
271.3302603535
 21
187.4023950011
 31
0.0
  0
LINE
  5
1F8
330
1F
100
AcDbEntity
  8
0
  6
Continuous
 62
     7
370
    25
100
AcDbLine
 10
271.3302603535
 20
187.4023950011
 30
0.0
 11
268.3302603274
 21
187.4023950011
 31
0.0
  0
LINE
  5
1F9
330
1F
100
AcDbEntity
  8
0
  6
Continuous
 62
     7
370
    25
100
AcDbLine
 10
271.3302603535
 20
198.0773950861
 30
0.0
 11
268.3302603274
 21
198.0773950861
 31
0.0
  0
LINE
  5
1FA
330
1F
100
AcDbEntity
  8
0
  6
Continuous
 62
     7
370
    25
100
AcDbLine
 10
268.3302603274
 20
198.0773950861
 30
0.0
 11
268.3302603274
 21
196.5773950149
 31
0.0
  0
LINE
  5
1FB
330
1F
100
AcDbEntity
  8
0
  6
Continuous
 62
     7
370
    25
100
AcDbLine
 10
268.3302603274
 20
196.5773950149
 30
0.0
 11
271.3302603535
 21
196.5773950149
 31
0.0
  0
LINE
  5
1FC
330
1F
100
AcDbEntity
  8
0
  6
Continuous
 62
     7
370
    25
100
AcDbLine
 10
271.3302603535
 20
196.5773950149
 30
0.0
 11
271.3302603535
 21
198.0773950861
 31
0.0
  0
LINE
  5
1FD
330
1F
100
AcDbEntity
  8
0
  6
Continuous
 62
     7
370
    25
100
AcDbLine
 10
497.5177533071
 20
187.4023950011
 30
0.0
 11
497.5177533071
 21
185.9023947552
 31
0.0
  0
LINE
  5
1FE
330
1F
100
AcDbEntity
  8
0
  6
Continuous
 62
     7
370
    25
100
AcDbLine
 10
497.5177533071
 20
185.9023947552
 30
0.0
 11
500.5177593867
 21
185.9023947552
 31
0.0
  0
LINE
  5
1FF
330
1F
100
AcDbEntity
  8
0
  6
Continuous
 62
     7
370
    25
100
AcDbLine
 10
500.5177593867
 20
185.9023947552
 30
0.0
 11
500.5177593867
 21
187.4023950011
 31
0.0
  0
LINE
  5
200
330
1F
100
AcDbEntity
  8
0
  6
Continuous
 62
     7
370
    25
100
AcDbLine
 10
500.5177593867
 20
187.4023950011
 30
0.0
 11
497.5177533071
 21
187.4023950011
 31
0.0
  0
LINE
  5
201
330
1F
100
AcDbEntity
  8
0
  6
Continuous
 62
     7
370
    25
100
AcDbLine
 10
500.5177593867
 20
198.0773950861
 30
0.0
 11
497.5177533071
 21
198.0773950861
 31
0.0
  0
LINE
  5
202
330
1F
100
AcDbEntity
  8
0
  6
Continuous
 62
     7
370
    25
100
AcDbLine
 10
497.5177533071
 20
198.0773950861
 30
0.0
 11
497.5177533071
 21
196.5773950149
 31
0.0
  0
LINE
  5
203
330
1F
100
AcDbEntity
  8
0
  6
Continuous
 62
     7
370
    25
100
AcDbLine
 10
497.5177533071
 20
196.5773950149
 30
0.0
 11
500.5177593867
 21
196.5773950149
 31
0.0
  0
LINE
  5
204
330
1F
100
AcDbEntity
  8
0
  6
Continuous
 62
     7
370
    25
100
AcDbLine
 10
500.5177593867
 20
196.5773950149
 30
0.0
 11
500.5177593867
 21
198.0773950861
 31
0.0
  0
LINE
  5
205
330
1F
100
AcDbEntity
  8
0
  6
Continuous
 62
     7
370
    25
100
AcDbLine
 10
210.9458855431
 20
202.327395026
 30
0.0
 11
214.1208871345
 21
202.327395026
 31
0.0
  0
LINE
  5
206
330
1F
100
AcDbEntity
  8
0
  6
Continuous
 62
     7
370
    25
100
AcDbLine
 10
214.1208871345
 20
202.327395026
 30
0.0
 11
214.1208871345
 21
214.8273945138
 31
0.0
  0
LINE
  5
207
330
1F
100
AcDbEntity
  8
0
  6
Continuous
 62
     7
370
    25
100
AcDbLine
 10
214.1208871345
 20
214.8273945138
 30
0.0
 11
210.9458855431
 21
214.8273945138
 31
0.0
  0
LINE
  5
208
330
1F
100
AcDbEntity
  8
0
  6
Continuous
 62
     7
370
    25
100
AcDbLine
 10
210.9458855431
 20
214.8273945138
 30
0.0
 11
210.9458855431
 21
202.327395026
 31
0.0
  0
LINE
  5
209
330
1F
100
AcDbEntity
  8
0
  6
Continuous
 62
     7
370
    25
100
AcDbLine
 10
96.3558889072
 20
202.327395026
 30
0.0
 11
99.5308793227
 21
202.327395026
 31
0.0
  0
LINE
  5
20A
330
1F
100
AcDbEntity
  8
0
  6
Continuous
 62
     7
370
    25
100
AcDbLine
 10
99.5308793227
 20
202.327395026
 30
0.0
 11
99.5308793227
 21
214.8273945138
 31
0.0
  0
LINE
  5
20B
330
1F
100
AcDbEntity
  8
0
  6
Continuous
 62
     7
370
    25
100
AcDbLine
 10
99.5308793227
 20
214.8273945138
 30
0.0
 11
96.3558889072
 21
214.8273945138
 31
0.0
  0
LINE
  5
20C
330
1F
100
AcDbEntity
  8
0
  6
Continuous
 62
     7
370
    25
100
AcDbLine
 10
96.3558889072
 20
214.8273945138
 30
0.0
 11
96.3558889072
 21
202.327395026
 31
0.0
  0
LINE
  5
20D
330
1F
100
AcDbEntity
  8
0
  6
Continuous
 62
     7
370
    25
100
AcDbLine
 10
325.5396335463
 20
202.327395026
 30
0.0
 11
328.7146351378
 21
202.327395026
 31
0.0
  0
LINE
  5
20E
330
1F
100
AcDbEntity
  8
0
  6
Continuous
 62
     7
370
    25
100
AcDbLine
 10
328.7146351378
 20
202.327395026
 30
0.0
 11
328.7146351378
 21
214.8273945138
 31
0.0
  0
LINE
  5
20F
330
1F
100
AcDbEntity
  8
0
  6
Continuous
 62
     7
370
    25
100
AcDbLine
 10
328.7146351378
 20
214.8273945138
 30
0.0
 11
325.5396335463
 21
214.8273945138
 31
0.0
  0
LINE
  5
210
330
1F
100
AcDbEntity
  8
0
  6
Continuous
 62
     7
370
    25
100
AcDbLine
 10
325.5396335463
 20
214.8273945138
 30
0.0
 11
325.5396335463
 21
202.327395026
 31
0.0
  0
LINE
  5
211
330
1F
100
AcDbEntity
  8
0
  6
Continuous
 62
     7
370
    25
100
AcDbLine
 10
440.1296413581
 20
202.327395026
 30
0.0
 11
443.3046317737
 21
202.327395026
 31
0.0
  0
LINE
  5
212
330
1F
100
AcDbEntity
  8
0
  6
Continuous
 62
     7
370
    25
100
AcDbLine
 10
443.3046317737
 20
202.327395026
 30
0.0
 11
443.3046317737
 21
214.8273945138
 31
0.0
  0
LINE
  5
213
330
1F
100
AcDbEntity
  8
0
  6
Continuous
 62
     7
370
    25
100
AcDbLine
 10
443.3046317737
 20
214.8273945138
 30
0.0
 11
440.1296413581
 21
214.8273945138
 31
0.0
  0
LINE
  5
214
330
1F
100
AcDbEntity
  8
0
  6
Continuous
 62
     7
370
    25
100
AcDbLine
 10
440.1296413581
 20
214.8273945138
 30
0.0
 11
440.1296413581
 21
202.327395026
 31
0.0
  0
LINE
  5
215
330
1F
100
AcDbEntity
  8
0
  6
Continuous
 62
     7
370
    25
100
AcDbLine
 10
206.4458838741
 20
207.0773955718
 30
0.0
 11
207.945886914
 21
207.0773955718
 31
0.0
  0
LINE
  5
216
330
1F
100
AcDbEntity
  8
0
  6
Continuous
 62
     7
370
    25
100
AcDbLine
 10
207.945886914
 20
207.0773955718
 30
0.0
 11
207.945886914
 21
210.0773951322
 31
0.0
  0
LINE
  5
217
330
1F
100
AcDbEntity
  8
0
  6
Continuous
 62
     7
370
    25
100
AcDbLine
 10
207.945886914
 20
210.0773951322
 30
0.0
 11
206.4458838741
 21
210.0773951322
 31
0.0
  0
LINE
  5
218
330
1F
100
AcDbEntity
  8
0
  6
Continuous
 62
     7
370
    25
100
AcDbLine
 10
206.4458838741
 20
210.0773951322
 30
0.0
 11
206.4458838741
 21
207.0773955718
 31
0.0
  0
LINE
  5
219
330
1F
100
AcDbEntity
  8
0
  6
Continuous
 62
     7
370
    25
100
AcDbLine
 10
437.1296352784
 20
210.0773951322
 30
0.0
 11
435.6296396892
 21
210.0773951322
 31
0.0
  0
LINE
  5
21A
330
1F
100
AcDbEntity
  8
0
  6
Continuous
 62
     7
370
    25
100
AcDbLine
 10
435.6296396892
 20
210.0773951322
 30
0.0
 11
435.6296396892
 21
207.0773955718
 31
0.0
  0
LINE
  5
21B
330
1F
100
AcDbEntity
  8
0
  6
Continuous
 62
     7
370
    25
100
AcDbLine
 10
435.6296396892
 20
207.0773955718
 30
0.0
 11
437.1296352784
 21
207.0773955718
 31
0.0
  0
LINE
  5
21C
330
1F
100
AcDbEntity
  8
0
  6
Continuous
 62
     7
370
    25
100
AcDbLine
 10
437.1296352784
 20
207.0773955718
 30
0.0
 11
437.1296352784
 21
210.0773951322
 31
0.0
  0
LINE
  5
21D
330
1F
100
AcDbEntity
  8
0
  6
Continuous
 62
     7
370
    25
100
AcDbLine
 10
217.1208857636
 20
207.0773955718
 30
0.0
 11
218.6208850782
 21
207.0773955718
 31
0.0
  0
LINE
  5
21E
330
1F
100
AcDbEntity
  8
0
  6
Continuous
 62
     7
370
    25
100
AcDbLine
 10
218.6208850782
 20
207.0773955718
 30
0.0
 11
218.6208850782
 21
210.0773951322
 31
0.0
  0
LINE
  5
21F
330
1F
100
AcDbEntity
  8
0
  6
Continuous
 62
     7
370
    25
100
AcDbLine
 10
218.6208850782
 20
210.0773951322
 30
0.0
 11
217.1208857636
 21
210.0773951322
 31
0.0
  0
LINE
  5
220
330
1F
100
AcDbEntity
  8
0
  6
Continuous
 62
     7
370
    25
100
AcDbLine
 10
217.1208857636
 20
210.0773951322
 30
0.0
 11
217.1208857636
 21
207.0773955718
 31
0.0
  0
LINE
  5
221
330
1F
100
AcDbEntity
  8
0
  6
Continuous
 62
     7
370
    25
100
AcDbLine
 10
322.5396349172
 20
210.0773951322
 30
0.0
 11
321.0396356027
 21
210.0773951322
 31
0.0
  0
LINE
  5
222
330
1F
100
AcDbEntity
  8
0
  6
Continuous
 62
     7
370
    25
100
AcDbLine
 10
321.0396356027
 20
210.0773951322
 30
0.0
 11
321.0396356027
 21
207.0773955718
 31
0.0
  0
LINE
  5
223
330
1F
100
AcDbEntity
  8
0
  6
Continuous
 62
     7
370
    25
100
AcDbLine
 10
321.0396356027
 20
207.0773955718
 30
0.0
 11
322.5396349172
 21
207.0773955718
 31
0.0
  0
LINE
  5
224
330
1F
100
AcDbEntity
  8
0
  6
Continuous
 62
     7
370
    25
100
AcDbLine
 10
322.5396349172
 20
207.0773955718
 30
0.0
 11
322.5396349172
 21
210.0773951322
 31
0.0
  0
LINE
  5
225
330
1F
100
AcDbEntity
  8
0
  6
Continuous
 62
     7
370
    25
100
AcDbLine
 10
446.3046378533
 20
207.0773955718
 30
0.0
 11
447.8046334426
 21
207.0773955718
 31
0.0
  0
LINE
  5
226
330
1F
100
AcDbEntity
  8
0
  6
Continuous
 62
     7
370
    25
100
AcDbLine
 10
447.8046334426
 20
207.0773955718
 30
0.0
 11
447.8046334426
 21
210.0773951322
 31
0.0
  0
LINE
  5
227
330
1F
100
AcDbEntity
  8
0
  6
Continuous
 62
     7
370
    25
100
AcDbLine
 10
447.8046334426
 20
210.0773951322
 30
0.0
 11
446.3046378533
 21
210.0773951322
 31
0.0
  0
LINE
  5
228
330
1F
100
AcDbEntity
  8
0
  6
Continuous
 62
     7
370
    25
100
AcDbLine
 10
446.3046378533
 20
210.0773951322
 30
0.0
 11
446.3046378533
 21
207.0773955718
 31
0.0
  0
LINE
  5
229
330
1F
100
AcDbEntity
  8
0
  6
Continuous
 62
     7
370
    25
100
AcDbLine
 10
102.5308854024
 20
207.0773955718
 30
0.0
 11
104.0308809917
 21
207.0773955718
 31
0.0
  0
LINE
  5
22A
330
1F
100
AcDbEntity
  8
0
  6
Continuous
 62
     7
370
    25
100
AcDbLine
 10
104.0308809917
 20
207.0773955718
 30
0.0
 11
104.0308809917
 21
210.0773951322
 31
0.0
  0
LINE
  5
22B
330
1F
100
AcDbEntity
  8
0
  6
Continuous
 62
     7
370
    25
100
AcDbLine
 10
104.0308809917
 20
210.0773951322
 30
0.0
 11
102.5308854024
 21
210.0773951322
 31
0.0
  0
LINE
  5
22C
330
1F
100
AcDbEntity
  8
0
  6
Continuous
 62
     7
370
    25
100
AcDbLine
 10
102.5308854024
 20
210.0773951322
 30
0.0
 11
102.5308854024
 21
207.0773955718
 31
0.0
  0
LINE
  5
22D
330
1F
100
AcDbEntity
  8
0
  6
Continuous
 62
     7
370
    25
100
AcDbLine
 10
91.8558872382
 20
207.0773955718
 30
0.0
 11
93.3558828275
 21
207.0773955718
 31
0.0
  0
LINE
  5
22E
330
1F
100
AcDbEntity
  8
0
  6
Continuous
 62
     7
370
    25
100
AcDbLine
 10
93.3558828275
 20
207.0773955718
 30
0.0
 11
93.3558828275
 21
210.0773951322
 31
0.0
  0
LINE
  5
22F
330
1F
100
AcDbEntity
  8
0
  6
Continuous
 62
     7
370
    25
100
AcDbLine
 10
93.3558828275
 20
210.0773951322
 30
0.0
 11
91.8558872382
 21
210.0773951322
 31
0.0
  0
LINE
  5
230
330
1F
100
AcDbEntity
  8
0
  6
Continuous
 62
     7
370
    25
100
AcDbLine
 10
91.8558872382
 20
210.0773951322
 30
0.0
 11
91.8558872382
 21
207.0773955718
 31
0.0
  0
LINE
  5
231
330
1F
100
AcDbEntity
  8
0
  6
Continuous
 62
     7
370
    25
100
AcDbLine
 10
331.7146337669
 20
207.0773955718
 30
0.0
 11
333.2146368067
 21
207.0773955718
 31
0.0
  0
LINE
  5
232
330
1F
100
AcDbEntity
  8
0
  6
Continuous
 62
     7
370
    25
100
AcDbLine
 10
333.2146368067
 20
207.0773955718
 30
0.0
 11
333.2146368067
 21
210.0773951322
 31
0.0
  0
LINE
  5
233
330
1F
100
AcDbEntity
  8
0
  6
Continuous
 62
     7
370
    25
100
AcDbLine
 10
333.2146368067
 20
210.0773951322
 30
0.0
 11
331.7146337669
 21
210.0773951322
 31
0.0
  0
LINE
  5
234
330
1F
100
AcDbEntity
  8
0
  6
Continuous
 62
     7
370
    25
100
AcDbLine
 10
331.7146337669
 20
210.0773951322
 30
0.0
 11
331.7146337669
 21
207.0773955718
 31
0.0
  0
CIRCLE
  5
235
330
1F
100
AcDbEntity
  8
0
  6
Continuous
 62
     7
370
    25
100
AcDbCircle
 10
501.5177603404
 20
156.3273951099
 30
0.0
 40
1.25
  0
CIRCLE
  5
236
330
1F
100
AcDbEntity
  8
0
  6
Continuous
 62
     7
370
    25
100
AcDbCircle
 10
501.5177603404
 20
165.8273951099
 30
0.0
 40
1.249999999999943
  0
CIRCLE
  5
237
330
1F
100
AcDbEntity
  8
0
  6
Continuous
 62
     7
370
    25
100
AcDbCircle
 10
58.1427603404
 20
156.3273951099
 30
0.0
 40
1.249999999999943
  0
CIRCLE
  5
238
330
1F
100
AcDbEntity
  8
0
  6
Continuous
 62
     7
370
    25
100
AcDbCircle
 10
58.1427603404
 20
165.8273951099
 30
0.0
 40
1.249999999999943
  0
LINE
  5
239
330
1F
100
AcDbEntity
  8
0
  6
Continuous
 62
     7
370
    25
100
AcDbLine
 10
524.5177484195
 20
154.5773953483
 30
0.0
 11
526.0177589099
 21
154.5773953483
 31
0.0
  0
LINE
  5
23A
330
1F
100
AcDbEntity
  8
0
  6
Continuous
 62
     7
370
    25
100
AcDbLine
 10
526.0177589099
 20
154.5773953483
 30
0.0
 11
526.0177589099
 21
157.5773939774
 31
0.0
  0
LINE
  5
23B
330
1F
100
AcDbEntity
  8
0
  6
Continuous
 62
     7
370
    25
100
AcDbLine
 10
526.0177589099
 20
157.5773939774
 30
0.0
 11
524.5177484195
 21
157.5773939774
 31
0.0
  0
LINE
  5
23C
330
1F
100
AcDbEntity
  8
0
  6
Continuous
 62
     7
370
    25
100
AcDbLine
 10
524.5177484195
 20
157.5773939774
 30
0.0
 11
524.5177484195
 21
154.5773953483
 31
0.0
  0
LINE
  5
23D
330
1F
100
AcDbEntity
  8
0
  6
Continuous
 62
     7
370
    25
100
AcDbLine
 10
526.0177589099
 20
207.5773947224
 30
0.0
 11
524.5177484195
 21
207.5773947224
 31
0.0
  0
LINE
  5
23E
330
1F
100
AcDbEntity
  8
0
  6
Continuous
 62
     7
370
    25
100
AcDbLine
 10
524.5177484195
 20
207.5773947224
 30
0.0
 11
524.5177484195
 21
204.577395162
 31
0.0
  0
LINE
  5
23F
330
1F
100
AcDbEntity
  8
0
  6
Continuous
 62
     7
370
    25
100
AcDbLine
 10
524.5177484195
 20
204.577395162
 30
0.0
 11
526.0177589099
 21
204.577395162
 31
0.0
  0
LINE
  5
240
330
1F
100
AcDbEntity
  8
0
  6
Continuous
 62
     7
370
    25
100
AcDbLine
 10
526.0177589099
 20
204.577395162
 30
0.0
 11
526.0177589099
 21
207.5773947224
 31
0.0
  0
LINE
  5
241
330
1F
100
AcDbEntity
  8
0
  6
Continuous
 62
     7
370
    25
100
AcDbLine
 10
510.0177562873
 20
131.5773934409
 30
0.0
 11
513.017762367
 21
131.5773934409
 31
0.0
  0
LINE
  5
242
330
1F
100
AcDbEntity
  8
0
  6
Continuous
 62
     7
370
    25
100
AcDbLine
 10
513.017762367
 20
131.5773934409
 30
0.0
 11
513.017762367
 21
133.0773964808
 31
0.0
  0
LINE
  5
243
330
1F
100
AcDbEntity
  8
0
  6
Continuous
 62
     7
370
    25
100
AcDbLine
 10
513.017762367
 20
133.0773964808
 30
0.0
 11
510.0177562873
 21
133.0773964808
 31
0.0
  0
LINE
  5
244
330
1F
100
AcDbEntity
  8
0
  6
Continuous
 62
     7
370
    25
100
AcDbLine
 10
510.0177562873
 20
133.0773964808
 30
0.0
 11
510.0177562873
 21
131.5773934409
 31
0.0
  0
LINE
  5
245
330
1F
100
AcDbEntity
  8
0
  6
Continuous
 62
     7
370
    25
100
AcDbLine
 10
516.267765228
 20
186.9023949191
 30
0.0
 11
521.7677689235
 21
186.9023949191
 31
0.0
  0
LINE
  5
246
330
1F
100
AcDbEntity
  8
0
  6
Continuous
 62
     7
370
    25
100
AcDbLine
 10
521.7677689235
 20
186.9023949191
 30
0.0
 11
521.7677689235
 21
190.4023954928
 31
0.0
  0
LINE
  5
247
330
1F
100
AcDbEntity
  8
0
  6
Continuous
 62
     7
370
    25
100
AcDbLine
 10
521.7677689235
 20
190.4023954928
 30
0.0
 11
516.267765228
 21
190.4023954928
 31
0.0
  0
LINE
  5
248
330
1F
100
AcDbEntity
  8
0
  6
Continuous
 62
     7
370
    25
100
AcDbLine
 10
516.267765228
 20
190.4023954928
 30
0.0
 11
516.267765228
 21
186.9023949191
 31
0.0
  0
LINE
  5
249
330
1F
100
AcDbEntity
  8
0
  6
Continuous
 62
     7
370
    25
100
AcDbLine
 10
36.6427636783
 20
224.077394633
 30
0.0
 11
39.6427548568
 21
224.077394633
 31
0.0
  0
LINE
  5
24A
330
1F
100
AcDbEntity
  8
0
  6
Continuous
 62
     7
370
    25
100
AcDbLine
 10
39.6427548568
 20
224.077394633
 30
0.0
 11
39.6427548568
 21
225.5773958102
 31
0.0
  0
LINE
  5
24B
330
1F
100
AcDbEntity
  8
0
  6
Continuous
 62
     7
370
    25
100
AcDbLine
 10
39.6427548568
 20
225.5773958102
 30
0.0
 11
36.6427636783
 21
225.5773958102
 31
0.0
  0
LINE
  5
24C
330
1F
100
AcDbEntity
  8
0
  6
Continuous
 62
     7
370
    25
100
AcDbLine
 10
36.6427636783
 20
225.5773958102
 30
0.0
 11
36.6427636783
 21
224.077394633
 31
0.0
  0
LINE
  5
24D
330
1F
100
AcDbEntity
  8
0
  6
Continuous
 62
     7
370
    25
100
AcDbLine
 10
510.0177562873
 20
224.077394633
 30
0.0
 11
513.017762367
 21
224.077394633
 31
0.0
  0
LINE
  5
24E
330
1F
100
AcDbEntity
  8
0
  6
Continuous
 62
     7
370
    25
100
AcDbLine
 10
513.017762367
 20
224.077394633
 30
0.0
 11
513.017762367
 21
225.5773958102
 31
0.0
  0
LINE
  5
24F
330
1F
100
AcDbEntity
  8
0
  6
Continuous
 62
     7
370
    25
100
AcDbLine
 10
513.017762367
 20
225.5773958102
 30
0.0
 11
510.0177562873
 21
225.5773958102
 31
0.0
  0
LINE
  5
250
330
1F
100
AcDbEntity
  8
0
  6
Continuous
 62
     7
370
    25
100
AcDbLine
 10
510.0177562873
 20
225.5773958102
 30
0.0
 11
510.0177562873
 21
224.077394633
 31
0.0
  0
LINE
  5
251
330
1F
100
AcDbEntity
  8
0
  6
Continuous
 62
     7
370
    25
100
AcDbLine
 10
10.6427705924
 20
146.077396749
 30
0.0
 11
10.6427705924
 21
128.5773948118
 31
0.0
  0
LINE
  5
252
330
1F
100
AcDbEntity
  8
0
  6
Continuous
 62
     7
370
    25
100
AcDbLine
 10
75.6427533071
 20
171.0773952589
 30
0.0
 11
484.0177632014
 21
171.0773952589
 31
0.0
  0
LINE
  5
253
330
1F
100
AcDbEntity
  8
0
  6
Continuous
 62
     7
370
    25
100
AcDbLine
 10
50.6427622478
 20
128.5773948118
 30
0.0
 11
65.6427628438
 21
128.5773948118
 31
0.0
  0
LINE
  5
254
330
1F
100
AcDbEntity
  8
0
  6
Continuous
 62
     7
370
    25
100
AcDbLine
 10
10.6427705924
 20
128.5773948118
 30
0.0
 11
25.6427562873
 21
128.5773948118
 31
0.0
  0
LINE
  5
255
330
1F
100
AcDbEntity
  8
0
  6
Continuous
 62
     7
370
    25
100
AcDbLine
 10
519.0177596252
 20
128.5773948118
 30
0.0
 11
529.0177500884
 21
128.5773948118
 31
0.0
  0
LINE
  5
256
330
1F
100
AcDbEntity
  8
0
  6
Continuous
 62
     7
370
    25
100
AcDbLine
 10
494.0177536647
 20
128.5773948118
 30
0.0
 11
504.0177590291
 21
128.5773948118
 31
0.0
  0
LINE
  5
257
330
1F
100
AcDbEntity
  8
0
  6
Continuous
 62
     7
370
    25
100
AcDbLine
 10
10.6427705924
 20
196.0773951657
 30
0.0
 11
10.6427705924
 21
166.077396302
 31
0.0
  0
LINE
  5
258
330
1F
100
AcDbEntity
  8
0
  6
Continuous
 62
     7
370
    25
100
AcDbLine
 10
10.6427705924
 20
228.5773944393
 30
0.0
 11
10.6427705924
 21
216.0773951844
 31
0.0
  0
LINE
  5
259
330
1F
100
AcDbEntity
  8
0
  6
Continuous
 62
     7
370
    25
100
AcDbLine
 10
529.0177500884
 20
128.5773948118
 30
0.0
 11
529.0177500884
 21
146.077396749
 31
0.0
  0
LINE
  5
25A
330
1F
100
AcDbEntity
  8
0
  6
Continuous
 62
     7
370
    25
100
AcDbLine
 10
529.0177500884
 20
166.077396302
 30
0.0
 11
529.0177500884
 21
196.0773951657
 31
0.0
  0
LINE
  5
25B
330
1F
100
AcDbEntity
  8
0
  6
Continuous
 62
     7
370
    25
100
AcDbLine
 10
529.0177500884
 20
216.0773951844
 30
0.0
 11
529.0177500884
 21
228.5773944393
 31
0.0
  0
LINE
  5
25C
330
1F
100
AcDbEntity
  8
0
  6
Continuous
 62
     7
370
    25
100
AcDbLine
 10
491.5177560489
 20
226.0773949609
 30
0.0
 11
68.1427604596
 21
226.0773949609
 31
0.0
  0
LINE
  5
25D
330
1F
100
AcDbEntity
  8
0
  6
Continuous
 62
     7
370
    25
100
AcDbLine
 10
65.6427628438
 20
228.5773944393
 30
0.0
 11
50.6427622478
 21
228.5773944393
 31
0.0
  0
LINE
  5
25E
330
1F
100
AcDbEntity
  8
0
  6
Continuous
 62
     7
370
    25
100
AcDbLine
 10
25.6427562873
 20
228.5773944393
 30
0.0
 11
10.6427705924
 21
228.5773944393
 31
0.0
  0
LINE
  5
25F
330
1F
100
AcDbEntity
  8
0
  6
Continuous
 62
     7
370
    25
100
AcDbLine
 10
529.0177500884
 20
228.5773944393
 30
0.0
 11
519.0177596252
 21
228.5773944393
 31
0.0
  0
LINE
  5
260
330
1F
100
AcDbEntity
  8
0
  6
Continuous
 62
     7
370
    25
100
AcDbLine
 10
504.0177590291
 20
228.5773944393
 30
0.0
 11
494.0177536647
 21
228.5773944393
 31
0.0
  0
CIRCLE
  5
261
330
1F
100
AcDbEntity
  8
0
  6
Continuous
 62
     7
370
    25
100
AcDbCircle
 10
124.2382675409
 20
136.8137611723
 30
0.0
 40
3.0
  0
CIRCLE
  5
262
330
1F
100
AcDbEntity
  8
0
  6
Continuous
 62
     7
370
    25
100
AcDbCircle
 10
124.2382675409
 20
98.7137611723
 30
0.0
 40
2.999999999999986
  0
CIRCLE
  5
263
330
1F
100
AcDbEntity
  8
0
  6
Continuous
 62
     7
370
    25
100
AcDbCircle
 10
86.1382675409
 20
98.7137611723
 30
0.0
 40
3.0
  0
CIRCLE
  5
264
330
1F
100
AcDbEntity
  8
0
  6
Continuous
 62
     7
370
    25
100
AcDbCircle
 10
86.1382675409
 20
136.8137611723
 30
0.0
 40
3.000000000000028
  0
ARC
  5
265
330
1F
100
AcDbEntity
  8
0
  6
Continuous
 62
     7
370
    25
100
AcDbCircle
 10
105.1882675409
 20
104.8045328804
 30
0.0
 40
12.0
100
AcDbArc
 50
197.7304062608
 51
342.2695937392
  0
ARC
  5
266
330
1F
100
AcDbEntity
  8
0
  6
Continuous
 62
     7
370
    25
100
AcDbCircle
 10
124.2382675409
 20
98.7137611723
 30
0.0
 40
8.0
100
AcDbArc
 50
107.7304062608
 51
162.2695937392
  0
ARC
  5
267
330
1F
100
AcDbEntity
  8
0
  6
Continuous
 62
     7
370
    25
100
AcDbCircle
 10
118.1474958328
 20
117.7637611723
 30
0.0
 40
11.99999999999999
100
AcDbArc
 50
287.7304062608
 51
72.2695937392
  0
ARC
  5
268
330
1F
100
AcDbEntity
  8
0
  6
Continuous
 62
     7
370
    25
100
AcDbCircle
 10
124.2382675409
 20
136.8137611723
 30
0.0
 40
8.0
100
AcDbArc
 50
197.7304062608
 51
252.2695937392
  0
ARC
  5
269
330
1F
100
AcDbEntity
  8
0
  6
Continuous
 62
     7
370
    25
100
AcDbCircle
 10
105.1882675409
 20
130.7229894642
 30
0.0
 40
11.99999999999999
100
AcDbArc
 50
17.7304062608
 51
162.2695937392
  0
ARC
  5
26A
330
1F
100
AcDbEntity
  8
0
  6
Continuous
 62
     7
370
    25
100
AcDbCircle
 10
86.1382675409
 20
136.8137611723
 30
0.0
 40
8.000000000000005
100
AcDbArc
 50
287.7304062608
 51
342.2695937392
  0
ARC
  5
26B
330
1F
100
AcDbEntity
  8
0
  6
Continuous
 62
     7
370
    25
100
AcDbCircle
 10
92.229039249
 20
117.7637611723
 30
0.0
 40
12.0
100
AcDbArc
 50
107.7304062608
 51
252.2695937392
  0
ARC
  5
26C
330
1F
100
AcDbEntity
  8
0
  6
Continuous
 62
     7
370
    25
100
AcDbCircle
 10
86.1382675409
 20
98.7137611723
 30
0.0
 40
7.999999999999988
100
AcDbArc
 50
17.7304062608
 51
72.2695937392
  0
CIRCLE
  5
26D
330
1F
100
AcDbEntity
  8
0
  6
Continuous
 62
     7
370
    25
100
AcDbCircle
 10
105.1882675409
 20
117.7637611723
 30
0.0
 40
37.50000000000001
  0
CIRCLE
  5
26E
330
1F
100
AcDbEntity
  8
0
  6
Continuous
 62
     7
370
    25
100
AcDbCircle
 10
201.6283103754
 20
137.2078795587
 30
0.0
 40
3.000000000000028
  0
CIRCLE
  5
26F
330
1F
100
AcDbEntity
  8
0
  6
Continuous
 62
     7
370
    25
100
AcDbCircle
 10
201.6283103754
 20
99.1078795587
 30
0.0
 40
3.0
  0
CIRCLE
  5
270
330
1F
100
AcDbEntity
  8
0
  6
Continuous
 62
     7
370
    25
100
AcDbCircle
 10
163.5283103754
 20
99.1078795587
 30
0.0
 40
3.0
  0
CIRCLE
  5
271
330
1F
100
AcDbEntity
  8
0
  6
Continuous
 62
     7
370
    25
100
AcDbCircle
 10
163.5283103754
 20
137.2078795587
 30
0.0
 40
3.0
  0
ARC
  5
272
330
1F
100
AcDbEntity
  8
0
  6
Continuous
 62
     7
370
    25
100
AcDbCircle
 10
182.5783103754
 20
105.1986512668
 30
0.0
 40
12.0
100
AcDbArc
 50
197.7304062608
 51
342.2695937392
  0
ARC
  5
273
330
1F
100
AcDbEntity
  8
0
  6
Continuous
 62
     7
370
    25
100
AcDbCircle
 10
201.6283103754
 20
99.1078795587
 30
0.0
 40
8.0
100
AcDbArc
 50
107.7304062608
 51
162.2695937392
  0
ARC
  5
274
330
1F
100
AcDbEntity
  8
0
  6
Continuous
 62
     7
370
    25
100
AcDbCircle
 10
195.5375386673
 20
118.1578795587
 30
0.0
 40
12.00000000000001
100
AcDbArc
 50
287.7304062608
 51
72.2695937392
  0
ARC
  5
275
330
1F
100
AcDbEntity
  8
0
  6
Continuous
 62
     7
370
    25
100
AcDbCircle
 10
201.6283103754
 20
137.2078795587
 30
0.0
 40
8.000000000000009
100
AcDbArc
 50
197.7304062608
 51
252.2695937392
  0
ARC
  5
276
330
1F
100
AcDbEntity
  8
0
  6
Continuous
 62
     7
370
    25
100
AcDbCircle
 10
182.5783103754
 20
131.1171078506
 30
0.0
 40
12.00000000000001
100
AcDbArc
 50
17.7304062608
 51
162.2695937392
  0
ARC
  5
277
330
1F
100
AcDbEntity
  8
0
  6
Continuous
 62
     7
370
    25
100
AcDbCircle
 10
163.5283103754
 20
137.2078795587
 30
0.0
 40
8.000000000000009
100
AcDbArc
 50
287.7304062608
 51
342.2695937392
  0
ARC
  5
278
330
1F
100
AcDbEntity
  8
0
  6
Continuous
 62
     7
370
    25
100
AcDbCircle
 10
169.6190820834
 20
118.1578795587
 30
0.0
 40
12.00000000000002
100
AcDbArc
 50
107.7304062608
 51
252.2695937392
  0
ARC
  5
279
330
1F
100
AcDbEntity
  8
0
  6
Continuous
 62
     7
370
    25
100
AcDbCircle
 10
163.5283103754
 20
99.1078795587
 30
0.0
 40
8.000000000000005
100
AcDbArc
 50
17.7304062608
 51
72.2695937392
  0
CIRCLE
  5
27A
330
1F
100
AcDbEntity
  8
0
  6
Continuous
 62
     7
370
    25
100
AcDbCircle
 10
182.5783103754
 20
118.1578795587
 30
0.0
 40
37.5
  0
CIRCLE
  5
27B
330
1F
100
AcDbEntity
  8
0
  6
Continuous
 62
     7
370
    25
100
AcDbCircle
 10
279.6831452158
 20
137.8866172529
 30
0.0
 40
3.0
  0
CIRCLE
  5
27C
330
1F
100
AcDbEntity
  8
0
  6
Continuous
 62
     7
370
    25
100
AcDbCircle
 10
279.6831452158
 20
99.7866172529
 30
0.0
 40
2.999999999999986
  0
CIRCLE
  5
27D
330
1F
100
AcDbEntity
  8
0
  6
Continuous
 62
     7
370
    25
100
AcDbCircle
 10
241.5831452158
 20
99.7866172529
 30
0.0
 40
3.0
  0
CIRCLE
  5
27E
330
1F
100
AcDbEntity
  8
0
  6
Continuous
 62
     7
370
    25
100
AcDbCircle
 10
241.5831452158
 20
137.8866172529
 30
0.0
 40
3.0
  0
ARC
  5
27F
330
1F
100
AcDbEntity
  8
0
  6
Continuous
 62
     7
370
    25
100
AcDbCircle
 10
260.6331452158
 20
105.877388961
 30
0.0
 40
12.0
100
AcDbArc
 50
197.7304062608
 51
342.2695937392
  0
ARC
  5
280
330
1F
100
AcDbEntity
  8
0
  6
Continuous
 62
     7
370
    25
100
AcDbCircle
 10
279.6831452158
 20
99.7866172529
 30
0.0
 40
8.000000000000055
100
AcDbArc
 50
107.7304062608
 51
162.2695937392
  0
ARC
  5
281
330
1F
100
AcDbEntity
  8
0
  6
Continuous
 62
     7
370
    25
100
AcDbCircle
 10
273.5923735077
 20
118.8366172529
 30
0.0
 40
12.00000000000001
100
AcDbArc
 50
287.7304062608
 51
72.2695937392
  0
ARC
  5
282
330
1F
100
AcDbEntity
  8
0
  6
Continuous
 62
     7
370
    25
100
AcDbCircle
 10
279.6831452158
 20
137.8866172529
 30
0.0
 40
8.000000000000055
100
AcDbArc
 50
197.7304062608
 51
252.2695937392
  0
ARC
  5
283
330
1F
100
AcDbEntity
  8
0
  6
Continuous
 62
     7
370
    25
100
AcDbCircle
 10
260.6331452158
 20
131.7958455449
 30
0.0
 40
12.00000000000001
100
AcDbArc
 50
17.7304062608
 51
162.2695937392
  0
ARC
  5
284
330
1F
100
AcDbEntity
  8
0
  6
Continuous
 62
     7
370
    25
100
AcDbCircle
 10
241.5831452158
 20
137.8866172529
 30
0.0
 40
8.00000000000002
100
AcDbArc
 50
287.7304062608
 51
342.2695937392
  0
ARC
  5
285
330
1F
100
AcDbEntity
  8
0
  6
Continuous
 62
     7
370
    25
100
AcDbCircle
 10
247.6739169239
 20
118.8366172529
 30
0.0
 40
12.0
100
AcDbArc
 50
107.7304062608
 51
252.2695937392
  0
ARC
  5
286
330
1F
100
AcDbEntity
  8
0
  6
Continuous
 62
     7
370
    25
100
AcDbCircle
 10
241.5831452158
 20
99.7866172529
 30
0.0
 40
8.000000000000028
100
AcDbArc
 50
17.7304062608
 51
72.2695937392
  0
CIRCLE
  5
287
330
1F
100
AcDbEntity
  8
0
  6
Continuous
 62
     7
370
    25
100
AcDbCircle
 10
260.6331452158
 20
118.8366172529
 30
0.0
 40
37.5
  0
CIRCLE
  5
288
330
1F
100
AcDbEntity
  8
0
  6
Continuous
 62
     7
370
    25
100
AcDbCircle
 10
357.7131576492
 20
138.3318691804
 30
0.0
 40
3.0
  0
CIRCLE
  5
289
330
1F
100
AcDbEntity
  8
0
  6
Continuous
 62
     7
370
    25
100
AcDbCircle
 10
357.7131576492
 20
100.2318691804
 30
0.0
 40
3.0
  0
CIRCLE
  5
28A
330
1F
100
AcDbEntity
  8
0
  6
Continuous
 62
     7
370
    25
100
AcDbCircle
 10
319.6131576492
 20
100.2318691804
 30
0.0
 40
3.0
  0
CIRCLE
  5
28B
330
1F
100
AcDbEntity
  8
0
  6
Continuous
 62
     7
370
    25
100
AcDbCircle
 10
319.6131576492
 20
138.3318691804
 30
0.0
 40
3.0
  0
ARC
  5
28C
330
1F
100
AcDbEntity
  8
0
  6
Continuous
 62
     7
370
    25
100
AcDbCircle
 10
338.6631576492
 20
106.3226408885
 30
0.0
 40
12.0
100
AcDbArc
 50
197.7304062608
 51
342.2695937392
  0
ARC
  5
28D
330
1F
100
AcDbEntity
  8
0
  6
Continuous
 62
     7
370
    25
100
AcDbCircle
 10
357.7131576492
 20
100.2318691804
 30
0.0
 40
8.0
100
AcDbArc
 50
107.7304062608
 51
162.2695937392
  0
ARC
  5
28E
330
1F
100
AcDbEntity
  8
0
  6
Continuous
 62
     7
370
    25
100
AcDbCircle
 10
351.6223859411
 20
119.2818691804
 30
0.0
 40
12.00000000000003
100
AcDbArc
 50
287.7304062608
 51
72.2695937392
  0
ARC
  5
28F
330
1F
100
AcDbEntity
  8
0
  6
Continuous
 62
     7
370
    25
100
AcDbCircle
 10
357.7131576492
 20
138.3318691804
 30
0.0
 40
8.0
100
AcDbArc
 50
197.7304062608
 51
252.2695937392
  0
ARC
  5
290
330
1F
100
AcDbEntity
  8
0
  6
Continuous
 62
     7
370
    25
100
AcDbCircle
 10
338.6631576492
 20
132.2410974723
 30
0.0
 40
12.00000000000001
100
AcDbArc
 50
17.7304062608
 51
162.2695937392
  0
ARC
  5
291
330
1F
100
AcDbEntity
  8
0
  6
Continuous
 62
     7
370
    25
100
AcDbCircle
 10
319.6131576492
 20
138.3318691804
 30
0.0
 40
8.0
100
AcDbArc
 50
287.7304062608
 51
342.2695937392
  0
ARC
  5
292
330
1F
100
AcDbEntity
  8
0
  6
Continuous
 62
     7
370
    25
100
AcDbCircle
 10
325.7039293572
 20
119.2818691804
 30
0.0
 40
12.00000000000001
100
AcDbArc
 50
107.7304062608
 51
252.2695937392
  0
ARC
  5
293
330
1F
100
AcDbEntity
  8
0
  6
Continuous
 62
     7
370
    25
100
AcDbCircle
 10
319.6131576492
 20
100.2318691804
 30
0.0
 40
8.000000000000005
100
AcDbArc
 50
17.7304062608
 51
72.2695937392
  0
CIRCLE
  5
294
330
1F
100
AcDbEntity
  8
0
  6
Continuous
 62
     7
370
    25
100
AcDbCircle
 10
338.6631576492
 20
119.2818691804
 30
0.0
 40
37.50000000000001
  0
ARC
  5
295
330
1F
100
AcDbEntity
  8
0
  6
Continuous
 62
     7
370
    25
100
AcDbCircle
 10
554.7948313784
 20
92.4029926169
 30
0.0
 40
7.499999999999986
100
AcDbArc
 50
90.0
 51
180.0
  0
ARC
  5
296
330
1F
100
AcDbEntity
  8
0
  6
Continuous
 62
     7
370
    25
100
AcDbCircle
 10
584.7948313784
 20
92.4029926169
 30
0.0
 40
7.5
100
AcDbArc
 50
0.0
 51
90.0
  0
ARC
  5
297
330
1F
100
AcDbEntity
  8
0
  6
Continuous
 62
     7
370
    25
100
AcDbCircle
 10
584.7948313784
 20
62.4029926169
 30
0.0
 40
7.5
100
AcDbArc
 50
270.0
 51
0.0
  0
ARC
  5
298
330
1F
100
AcDbEntity
  8
0
  6
Continuous
 62
     7
370
    25
100
AcDbCircle
 10
554.7948313784
 20
62.4029926169
 30
0.0
 40
7.5
100
AcDbArc
 50
180.0
 51
270.0
  0
CIRCLE
  5
299
330
1F
100
AcDbEntity
  8
0
  6
Continuous
 62
     7
370
    25
100
AcDbCircle
 10
569.7948313784
 20
77.4029926169
 30
0.0
 40
1.5
  0
CIRCLE
  5
29A
330
1F
100
AcDbEntity
  8
0
  6
Continuous
 62
     7
370
    25
100
AcDbCircle
 10
585.2948313784
 20
92.9029926169
 30
0.0
 40
1.5
  0
CIRCLE
  5
29B
330
1F
100
AcDbEntity
  8
0
  6
Continuous
 62
     7
370
    25
100
AcDbCircle
 10
585.2948313784
 20
61.9029926169
 30
0.0
 40
1.5
  0
CIRCLE
  5
29C
330
1F
100
AcDbEntity
  8
0
  6
Continuous
 62
     7
370
    25
100
AcDbCircle
 10
554.2948313784
 20
61.9029926169
 30
0.0
 40
1.499999999999886
  0
CIRCLE
  5
29D
330
1F
100
AcDbEntity
  8
0
  6
Continuous
 62
     7
370
    25
100
AcDbCircle
 10
554.2948313784
 20
92.9029926169
 30
0.0
 40
1.500000000000114
  0
LINE
  5
29E
330
1F
100
AcDbEntity
  8
0
  6
Continuous
 62
     7
370
    25
100
AcDbLine
 10
584.7948310431
 20
99.9029935109
 30
0.0
 11
554.7948317136
 21
99.9029935109
 31
0.0
  0
LINE
  5
29F
330
1F
100
AcDbEntity
  8
0
  6
Continuous
 62
     7
370
    25
100
AcDbLine
 10
592.2948322724
 20
62.4029929521
 30
0.0
 11
592.2948322724
 21
92.4029922816
 31
0.0
  0
LINE
  5
2A0
330
1F
100
AcDbEntity
  8
0
  6
Continuous
 62
     7
370
    25
100
AcDbLine
 10
554.7948317136
 20
54.9029917228
 30
0.0
 11
584.7948310431
 21
54.9029917228
 31
0.0
  0
LINE
  5
2A1
330
1F
100
AcDbEntity
  8
0
  6
Continuous
 62
     7
370
    25
100
AcDbLine
 10
547.2948304843
 20
92.4029922816
 30
0.0
 11
547.2948304843
 21
62.4029929521
 31
0.0
  0
ARC
  5
2A2
330
1F
100
AcDbEntity
  8
0
  6
Continuous
 62
     7
370
    25
100
AcDbCircle
 10
575.1313778568
 20
176.9793270858
 30
0.0
 40
5.0
100
AcDbArc
 50
270.0
 51
0.0
  0
LINE
  5
2A3
330
1F
100
AcDbEntity
  8
0
  6
Continuous
 62
     7
370
    25
100
AcDbLine
 10
538.9938786317
 20
181.9793275329
 30
0.0
 11
541.9938781921
 21
181.9793275329
 31
0.0
  0
LINE
  5
2A4
330
1F
100
AcDbEntity
  8
0
  6
Continuous
 62
     7
370
    25
100
AcDbLine
 10
538.9938786317
 20
194.4793272535
 30
0.0
 11
538.9938786317
 21
181.9793275329
 31
0.0
  0
LINE
  5
2A5
330
1F
100
AcDbEntity
  8
0
  6
Continuous
 62
     7
370
    25
100
AcDbLine
 10
541.9938781921
 20
194.4793272535
 30
0.0
 11
538.9938786317
 21
194.4793272535
 31
0.0
  0
LINE
  5
2A6
330
1F
100
AcDbEntity
  8
0
  6
Continuous
 62
     7
370
    25
100
AcDbLine
 10
538.9938786317
 20
209.4793269182
 30
0.0
 11
541.9938781921
 21
209.4793269182
 31
0.0
  0
LINE
  5
2A7
330
1F
100
AcDbEntity
  8
0
  6
Continuous
 62
     7
370
    25
100
AcDbLine
 10
538.9938786317
 20
221.9793266388
 30
0.0
 11
538.9938786317
 21
209.4793269182
 31
0.0
  0
LINE
  5
2A8
330
1F
100
AcDbEntity
  8
0
  6
Continuous
 62
     7
370
    25
100
AcDbLine
 10
541.9938781921
 20
221.9793266388
 30
0.0
 11
538.9938786317
 21
221.9793266388
 31
0.0
  0
ARC
  5
2A9
330
1F
100
AcDbEntity
  8
0
  6
Continuous
 62
     7
370
    25
100
AcDbCircle
 10
575.1313778568
 20
226.9793270858
 30
0.0
 40
5.0
100
AcDbArc
 50
0.0
 51
90.0
  0
LINE
  5
2AA
330
1F
100
AcDbEntity
  8
0
  6
Continuous
 62
     7
370
    25
100
AcDbLine
 10
550.7438777637
 20
203.5668270666
 30
0.0
 11
550.7438777637
 21
200.391827105
 31
0.0
  0
LINE
  5
2AB
330
1F
100
AcDbEntity
  8
0
  6
Continuous
 62
     7
370
    25
100
AcDbLine
 10
550.7438777637
 20
200.391827105
 30
0.0
 11
563.2438779499
 21
200.391827105
 31
0.0
  0
LINE
  5
2AC
330
1F
100
AcDbEntity
  8
0
  6
Continuous
 62
     7
370
    25
100
AcDbLine
 10
563.2438779499
 20
200.391827105
 30
0.0
 11
563.2438779499
 21
203.5668270666
 31
0.0
  0
LINE
  5
2AD
330
1F
100
AcDbEntity
  8
0
  6
Continuous
 62
     7
370
    25
100
AcDbLine
 10
563.2438779499
 20
203.5668270666
 30
0.0
 11
550.7438777637
 21
203.5668270666
 31
0.0
  0
LINE
  5
2AE
330
1F
100
AcDbEntity
  8
0
  6
Continuous
 62
     7
370
    25
100
AcDbLine
 10
555.4938778438
 20
208.0668272222
 30
0.0
 11
555.4938778438
 21
206.5668269763
 31
0.0
  0
LINE
  5
2AF
330
1F
100
AcDbEntity
  8
0
  6
Continuous
 62
     7
370
    25
100
AcDbLine
 10
555.4938778438
 20
206.5668269763
 30
0.0
 11
558.4938778698
 21
206.5668269763
 31
0.0
  0
LINE
  5
2B0
330
1F
100
AcDbEntity
  8
0
  6
Continuous
 62
     7
370
    25
100
AcDbLine
 10
558.4938778698
 20
206.5668269763
 30
0.0
 11
558.4938778698
 21
208.0668272222
 31
0.0
  0
LINE
  5
2B1
330
1F
100
AcDbEntity
  8
0
  6
Continuous
 62
     7
370
    25
100
AcDbLine
 10
558.4938778698
 20
208.0668272222
 30
0.0
 11
555.4938778438
 21
208.0668272222
 31
0.0
  0
LINE
  5
2B2
330
1F
100
AcDbEntity
  8
0
  6
Continuous
 62
     7
370
    25
100
AcDbLine
 10
555.4938778438
 20
197.3918271954
 30
0.0
 11
555.4938778438
 21
195.8918269495
 31
0.0
  0
LINE
  5
2B3
330
1F
100
AcDbEntity
  8
0
  6
Continuous
 62
     7
370
    25
100
AcDbLine
 10
555.4938778438
 20
195.8918269495
 30
0.0
 11
558.4938778698
 21
195.8918269495
 31
0.0
  0
LINE
  5
2B4
330
1F
100
AcDbEntity
  8
0
  6
Continuous
 62
     7
370
    25
100
AcDbLine
 10
558.4938778698
 20
195.8918269495
 30
0.0
 11
558.4938778698
 21
197.3918271954
 31
0.0
  0
LINE
  5
2B5
330
1F
100
AcDbEntity
  8
0
  6
Continuous
 62
     7
370
    25
100
AcDbLine
 10
558.4938778698
 20
197.3918271954
 30
0.0
 11
555.4938778438
 21
197.3918271954
 31
0.0
  0
LINE
  5
2B6
330
1F
100
AcDbEntity
  8
0
  6
Continuous
 62
     7
370
    25
100
AcDbLine
 10
544.9938777525
 20
217.2293272572
 30
0.0
 11
544.9938777525
 21
214.2293267655
 31
0.0
  0
LINE
  5
2B7
330
1F
100
AcDbEntity
  8
0
  6
Continuous
 62
     7
370
    25
100
AcDbLine
 10
544.9938777525
 20
214.2293267655
 30
0.0
 11
546.4938779984
 21
214.2293267655
 31
0.0
  0
LINE
  5
2B8
330
1F
100
AcDbEntity
  8
0
  6
Continuous
 62
     7
370
    25
100
AcDbLine
 10
546.4938779984
 20
214.2293267655
 30
0.0
 11
546.4938779984
 21
217.2293272572
 31
0.0
  0
LINE
  5
2B9
330
1F
100
AcDbEntity
  8
0
  6
Continuous
 62
     7
370
    25
100
AcDbLine
 10
546.4938779984
 20
217.2293272572
 30
0.0
 11
544.9938777525
 21
217.2293272572
 31
0.0
  0
LINE
  5
2BA
330
1F
100
AcDbEntity
  8
0
  6
Continuous
 62
     7
370
    25
100
AcDbLine
 10
544.9938777525
 20
189.7293274062
 30
0.0
 11
544.9938777525
 21
186.7293269145
 31
0.0
  0
LINE
  5
2BB
330
1F
100
AcDbEntity
  8
0
  6
Continuous
 62
     7
370
    25
100
AcDbLine
 10
544.9938777525
 20
186.7293269145
 30
0.0
 11
546.4938779984
 21
186.7293269145
 31
0.0
  0
LINE
  5
2BC
330
1F
100
AcDbEntity
  8
0
  6
Continuous
 62
     7
370
    25
100
AcDbLine
 10
546.4938779984
 20
186.7293269145
 30
0.0
 11
546.4938779984
 21
189.7293274062
 31
0.0
  0
LINE
  5
2BD
330
1F
100
AcDbEntity
  8
0
  6
Continuous
 62
     7
370
    25
100
AcDbLine
 10
546.4938779984
 20
189.7293274062
 30
0.0
 11
544.9938777525
 21
189.7293274062
 31
0.0
  0
LINE
  5
2BE
330
1F
100
AcDbEntity
  8
0
  6
Continuous
 62
     7
370
    25
100
AcDbLine
 10
557.6313778798
 20
225.9793272944
 30
0.0
 11
557.6313778798
 21
224.4793279799
 31
0.0
  0
LINE
  5
2BF
330
1F
100
AcDbEntity
  8
0
  6
Continuous
 62
     7
370
    25
100
AcDbLine
 10
557.6313778798
 20
224.4793279799
 30
0.0
 11
560.6313779641
 21
224.4793279799
 31
0.0
  0
LINE
  5
2C0
330
1F
100
AcDbEntity
  8
0
  6
Continuous
 62
     7
370
    25
100
AcDbLine
 10
560.6313779641
 20
224.4793279799
 30
0.0
 11
560.6313779641
 21
225.9793272944
 31
0.0
  0
LINE
  5
2C1
330
1F
100
AcDbEntity
  8
0
  6
Continuous
 62
     7
370
    25
100
AcDbLine
 10
560.6313779641
 20
225.9793272944
 30
0.0
 11
557.6313778798
 21
225.9793272944
 31
0.0
  0
LINE
  5
2C2
330
1F
100
AcDbEntity
  8
0
  6
Continuous
 62
     7
370
    25
100
AcDbLine
 10
557.6313778798
 20
179.4793261918
 30
0.0
 11
557.6313778798
 21
177.9793268772
 31
0.0
  0
LINE
  5
2C3
330
1F
100
AcDbEntity
  8
0
  6
Continuous
 62
     7
370
    25
100
AcDbLine
 10
557.6313778798
 20
177.9793268772
 30
0.0
 11
560.6313779641
 21
177.9793268772
 31
0.0
  0
LINE
  5
2C4
330
1F
100
AcDbEntity
  8
0
  6
Continuous
 62
     7
370
    25
100
AcDbLine
 10
560.6313779641
 20
177.9793268772
 30
0.0
 11
560.6313779641
 21
179.4793261918
 31
0.0
  0
LINE
  5
2C5
330
1F
100
AcDbEntity
  8
0
  6
Continuous
 62
     7
370
    25
100
AcDbLine
 10
560.6313779641
 20
179.4793261918
 30
0.0
 11
557.6313778798
 21
179.4793261918
 31
0.0
  0
LINE
  5
2C6
330
1F
100
AcDbEntity
  8
0
  6
Continuous
 62
     7
370
    25
100
AcDbLine
 10
560.6313779641
 20
188.4793267357
 30
0.0
 11
560.6313779641
 21
189.9793269815
 31
0.0
  0
LINE
  5
2C7
330
1F
100
AcDbEntity
  8
0
  6
Continuous
 62
     7
370
    25
100
AcDbLine
 10
560.6313779641
 20
189.9793269815
 30
0.0
 11
557.6313778798
 21
189.9793269815
 31
0.0
  0
LINE
  5
2C8
330
1F
100
AcDbEntity
  8
0
  6
Continuous
 62
     7
370
    25
100
AcDbLine
 10
557.6313778798
 20
189.9793269815
 30
0.0
 11
557.6313778798
 21
188.4793267357
 31
0.0
  0
LINE
  5
2C9
330
1F
100
AcDbEntity
  8
0
  6
Continuous
 62
     7
370
    25
100
AcDbLine
 10
557.6313778798
 20
188.4793267357
 30
0.0
 11
560.6313779641
 21
188.4793267357
 31
0.0
  0
LINE
  5
2CA
330
1F
100
AcDbEntity
  8
0
  6
Continuous
 62
     7
370
    25
100
AcDbLine
 10
573.6313782323
 20
179.4793261918
 30
0.0
 11
573.6313782323
 21
177.9793268772
 31
0.0
  0
LINE
  5
2CB
330
1F
100
AcDbEntity
  8
0
  6
Continuous
 62
     7
370
    25
100
AcDbLine
 10
573.6313782323
 20
177.9793268772
 30
0.0
 11
576.6313787241
 21
177.9793268772
 31
0.0
  0
LINE
  5
2CC
330
1F
100
AcDbEntity
  8
0
  6
Continuous
 62
     7
370
    25
100
AcDbLine
 10
576.6313787241
 20
177.9793268772
 30
0.0
 11
576.6313787241
 21
179.4793261918
 31
0.0
  0
LINE
  5
2CD
330
1F
100
AcDbEntity
  8
0
  6
Continuous
 62
     7
370
    25
100
AcDbLine
 10
576.6313787241
 20
179.4793261918
 30
0.0
 11
573.6313782323
 21
179.4793261918
 31
0.0
  0
LINE
  5
2CE
330
1F
100
AcDbEntity
  8
0
  6
Continuous
 62
     7
370
    25
100
AcDbLine
 10
576.6313787241
 20
188.4793267357
 30
0.0
 11
576.6313787241
 21
189.9793269815
 31
0.0
  0
LINE
  5
2CF
330
1F
100
AcDbEntity
  8
0
  6
Continuous
 62
     7
370
    25
100
AcDbLine
 10
576.6313787241
 20
189.9793269815
 30
0.0
 11
573.6313782323
 21
189.9793269815
 31
0.0
  0
LINE
  5
2D0
330
1F
100
AcDbEntity
  8
0
  6
Continuous
 62
     7
370
    25
100
AcDbLine
 10
573.6313782323
 20
189.9793269815
 30
0.0
 11
573.6313782323
 21
188.4793267357
 31
0.0
  0
LINE
  5
2D1
330
1F
100
AcDbEntity
  8
0
  6
Continuous
 62
     7
370
    25
100
AcDbLine
 10
573.6313782323
 20
188.4793267357
 30
0.0
 11
576.6313787241
 21
188.4793267357
 31
0.0
  0
LINE
  5
2D2
330
1F
100
AcDbEntity
  8
0
  6
Continuous
 62
     7
370
    25
100
AcDbLine
 10
576.6313787241
 20
224.4793279799
 30
0.0
 11
576.6313787241
 21
225.9793272944
 31
0.0
  0
LINE
  5
2D3
330
1F
100
AcDbEntity
  8
0
  6
Continuous
 62
     7
370
    25
100
AcDbLine
 10
576.6313787241
 20
225.9793272944
 30
0.0
 11
573.6313782323
 21
225.9793272944
 31
0.0
  0
LINE
  5
2D4
330
1F
100
AcDbEntity
  8
0
  6
Continuous
 62
     7
370
    25
100
AcDbLine
 10
573.6313782323
 20
225.9793272944
 30
0.0
 11
573.6313782323
 21
224.4793279799
 31
0.0
  0
LINE
  5
2D5
330
1F
100
AcDbEntity
  8
0
  6
Continuous
 62
     7
370
    25
100
AcDbLine
 10
573.6313782323
 20
224.4793279799
 30
0.0
 11
576.6313787241
 21
224.4793279799
 31
0.0
  0
LINE
  5
2D6
330
1F
100
AcDbEntity
  8
0
  6
Continuous
 62
     7
370
    25
100
AcDbLine
 10
573.6313782323
 20
215.479327436
 30
0.0
 11
573.6313782323
 21
213.9793271901
 31
0.0
  0
LINE
  5
2D7
330
1F
100
AcDbEntity
  8
0
  6
Continuous
 62
     7
370
    25
100
AcDbLine
 10
573.6313782323
 20
213.9793271901
 30
0.0
 11
576.6313787241
 21
213.9793271901
 31
0.0
  0
LINE
  5
2D8
330
1F
100
AcDbEntity
  8
0
  6
Continuous
 62
     7
370
    25
100
AcDbLine
 10
576.6313787241
 20
213.9793271901
 30
0.0
 11
576.6313787241
 21
215.479327436
 31
0.0
  0
LINE
  5
2D9
330
1F
100
AcDbEntity
  8
0
  6
Continuous
 62
     7
370
    25
100
AcDbLine
 10
576.6313787241
 20
215.479327436
 30
0.0
 11
573.6313782323
 21
215.479327436
 31
0.0
  0
LINE
  5
2DA
330
1F
100
AcDbEntity
  8
0
  6
Continuous
 62
     7
370
    25
100
AcDbLine
 10
557.6313778798
 20
215.479327436
 30
0.0
 11
557.6313778798
 21
213.9793271901
 31
0.0
  0
LINE
  5
2DB
330
1F
100
AcDbEntity
  8
0
  6
Continuous
 62
     7
370
    25
100
AcDbLine
 10
557.6313778798
 20
213.9793271901
 30
0.0
 11
560.6313779641
 21
213.9793271901
 31
0.0
  0
LINE
  5
2DC
330
1F
100
AcDbEntity
  8
0
  6
Continuous
 62
     7
370
    25
100
AcDbLine
 10
560.6313779641
 20
213.9793271901
 30
0.0
 11
560.6313779641
 21
215.479327436
 31
0.0
  0
LINE
  5
2DD
330
1F
100
AcDbEntity
  8
0
  6
Continuous
 62
     7
370
    25
100
AcDbLine
 10
560.6313779641
 20
215.479327436
 30
0.0
 11
557.6313778798
 21
215.479327436
 31
0.0
  0
LINE
  5
2DE
330
1F
100
AcDbEntity
  8
0
  6
Continuous
 62
     7
370
    25
100
AcDbLine
 10
575.1313775469
 20
231.9793264153
 30
0.0
 11
541.9938781921
 21
231.9793264153
 31
0.0
  0
LINE
  5
2DF
330
1F
100
AcDbEntity
  8
0
  6
Continuous
 62
     7
370
    25
100
AcDbLine
 10
580.1313783664
 20
176.9793267133
 30
0.0
 11
580.1313783664
 21
226.9793274584
 31
0.0
  0
LINE
  5
2E0
330
1F
100
AcDbEntity
  8
0
  6
Continuous
 62
     7
370
    25
100
AcDbLine
 10
541.9938781921
 20
171.9793277564
 30
0.0
 11
575.1313775469
 21
171.9793277564
 31
0.0
  0
LINE
  5
2E1
330
1F
100
AcDbEntity
  8
0
  6
Continuous
 62
     7
370
    25
100
AcDbLine
 10
541.9938781921
 20
231.9793264153
 30
0.0
 11
541.9938781921
 21
221.9793266388
 31
0.0
  0
LINE
  5
2E2
330
1F
100
AcDbEntity
  8
0
  6
Continuous
 62
     7
370
    25
100
AcDbLine
 10
541.9938781921
 20
181.9793275329
 30
0.0
 11
541.9938781921
 21
171.9793277564
 31
0.0
  0
LINE
  5
2E3
330
1F
100
AcDbEntity
  8
0
  6
Continuous
 62
     7
370
    25
100
AcDbLine
 10
541.9938781921
 20
209.4793269182
 30
0.0
 11
541.9938781921
 21
194.4793272535
 31
0.0
  0
ARC
  5
2E4
330
1F
100
AcDbEntity
  8
0
  6
Continuous
 62
     7
370
    25
100
AcDbCircle
 10
572.0274449326
 20
110.8776534297
 30
0.0
 40
5.0
100
AcDbArc
 50
270.0
 51
0.0
  0
LINE
  5
2E5
330
1F
100
AcDbEntity
  8
0
  6
Continuous
 62
     7
370
    25
100
AcDbLine
 10
544.0274457074
 20
115.8776538768
 30
0.0
 11
547.0274452679
 21
115.8776538768
 31
0.0
  0
LINE
  5
2E6
330
1F
100
AcDbEntity
  8
0
  6
Continuous
 62
     7
370
    25
100
AcDbLine
 10
544.0274457074
 20
128.3776535974
 30
0.0
 11
544.0274457074
 21
115.8776538768
 31
0.0
  0
LINE
  5
2E7
330
1F
100
AcDbEntity
  8
0
  6
Continuous
 62
     7
370
    25
100
AcDbLine
 10
547.0274452679
 20
128.3776535974
 30
0.0
 11
544.0274457074
 21
128.3776535974
 31
0.0
  0
LINE
  5
2E8
330
1F
100
AcDbEntity
  8
0
  6
Continuous
 62
     7
370
    25
100
AcDbLine
 10
544.0274457074
 20
143.3776532621
 30
0.0
 11
547.0274452679
 21
143.3776532621
 31
0.0
  0
LINE
  5
2E9
330
1F
100
AcDbEntity
  8
0
  6
Continuous
 62
     7
370
    25
100
AcDbLine
 10
544.0274457074
 20
155.8776529827
 30
0.0
 11
544.0274457074
 21
143.3776532621
 31
0.0
  0
LINE
  5
2EA
330
1F
100
AcDbEntity
  8
0
  6
Continuous
 62
     7
370
    25
100
AcDbLine
 10
547.0274452679
 20
155.8776529827
 30
0.0
 11
544.0274457074
 21
155.8776529827
 31
0.0
  0
ARC
  5
2EB
330
1F
100
AcDbEntity
  8
0
  6
Continuous
 62
     7
370
    25
100
AcDbCircle
 10
572.0274449326
 20
160.8776534297
 30
0.0
 40
5.0
100
AcDbArc
 50
0.0
 51
90.0
  0
LINE
  5
2EC
330
1F
100
AcDbEntity
  8
0
  6
Continuous
 62
     7
370
    25
100
AcDbLine
 10
560.8149448968
 20
158.3776543238
 30
0.0
 11
560.8149448968
 21
155.3776538321
 31
0.0
  0
LINE
  5
2ED
330
1F
100
AcDbEntity
  8
0
  6
Continuous
 62
     7
370
    25
100
AcDbLine
 10
560.8149448968
 20
155.3776538321
 30
0.0
 11
566.814944949
 21
155.3776538321
 31
0.0
  0
LINE
  5
2EE
330
1F
100
AcDbEntity
  8
0
  6
Continuous
 62
     7
370
    25
100
AcDbLine
 10
566.814944949
 20
155.3776538321
 30
0.0
 11
566.814944949
 21
158.3776543238
 31
0.0
  0
LINE
  5
2EF
330
1F
100
AcDbEntity
  8
0
  6
Continuous
 62
     7
370
    25
100
AcDbLine
 10
566.814944949
 20
158.3776543238
 30
0.0
 11
560.8149448968
 21
158.3776543238
 31
0.0
  0
LINE
  5
2F0
330
1F
100
AcDbEntity
  8
0
  6
Continuous
 62
     7
370
    25
100
AcDbLine
 10
560.8149448968
 20
116.3776530274
 30
0.0
 11
560.8149448968
 21
113.3776525357
 31
0.0
  0
LINE
  5
2F1
330
1F
100
AcDbEntity
  8
0
  6
Continuous
 62
     7
370
    25
100
AcDbLine
 10
560.8149448968
 20
113.3776525357
 30
0.0
 11
566.814944949
 21
113.3776525357
 31
0.0
  0
LINE
  5
2F2
330
1F
100
AcDbEntity
  8
0
  6
Continuous
 62
     7
370
    25
100
AcDbLine
 10
566.814944949
 20
113.3776525357
 30
0.0
 11
566.814944949
 21
116.3776530274
 31
0.0
  0
LINE
  5
2F3
330
1F
100
AcDbEntity
  8
0
  6
Continuous
 62
     7
370
    25
100
AcDbLine
 10
566.814944949
 20
116.3776530274
 30
0.0
 11
560.8149448968
 21
116.3776530274
 31
0.0
  0
LINE
  5
2F4
330
1F
100
AcDbEntity
  8
0
  6
Continuous
 62
     7
370
    25
100
AcDbLine
 10
555.7774448394
 20
137.4651534105
 30
0.0
 11
555.7774448394
 21
134.2901534489
 31
0.0
  0
LINE
  5
2F5
330
1F
100
AcDbEntity
  8
0
  6
Continuous
 62
     7
370
    25
100
AcDbLine
 10
555.7774448394
 20
134.2901534489
 30
0.0
 11
568.2774450257
 21
134.2901534489
 31
0.0
  0
LINE
  5
2F6
330
1F
100
AcDbEntity
  8
0
  6
Continuous
 62
     7
370
    25
100
AcDbLine
 10
568.2774450257
 20
134.2901534489
 30
0.0
 11
568.2774450257
 21
137.4651534105
 31
0.0
  0
LINE
  5
2F7
330
1F
100
AcDbEntity
  8
0
  6
Continuous
 62
     7
370
    25
100
AcDbLine
 10
568.2774450257
 20
137.4651534105
 30
0.0
 11
555.7774448394
 21
137.4651534105
 31
0.0
  0
LINE
  5
2F8
330
1F
100
AcDbEntity
  8
0
  6
Continuous
 62
     7
370
    25
100
AcDbLine
 10
560.5274449195
 20
141.9651535661
 30
0.0
 11
560.5274449195
 21
140.4651533202
 31
0.0
  0
LINE
  5
2F9
330
1F
100
AcDbEntity
  8
0
  6
Continuous
 62
     7
370
    25
100
AcDbLine
 10
560.5274449195
 20
140.4651533202
 30
0.0
 11
563.5274449456
 21
140.4651533202
 31
0.0
  0
LINE
  5
2FA
330
1F
100
AcDbEntity
  8
0
  6
Continuous
 62
     7
370
    25
100
AcDbLine
 10
563.5274449456
 20
140.4651533202
 30
0.0
 11
563.5274449456
 21
141.9651535661
 31
0.0
  0
LINE
  5
2FB
330
1F
100
AcDbEntity
  8
0
  6
Continuous
 62
     7
370
    25
100
AcDbLine
 10
563.5274449456
 20
141.9651535661
 30
0.0
 11
560.5274449195
 21
141.9651535661
 31
0.0
  0
LINE
  5
2FC
330
1F
100
AcDbEntity
  8
0
  6
Continuous
 62
     7
370
    25
100
AcDbLine
 10
560.5274449195
 20
131.2901535393
 30
0.0
 11
560.5274449195
 21
129.7901532934
 31
0.0
  0
LINE
  5
2FD
330
1F
100
AcDbEntity
  8
0
  6
Continuous
 62
     7
370
    25
100
AcDbLine
 10
560.5274449195
 20
129.7901532934
 30
0.0
 11
563.5274449456
 21
129.7901532934
 31
0.0
  0
LINE
  5
2FE
330
1F
100
AcDbEntity
  8
0
  6
Continuous
 62
     7
370
    25
100
AcDbLine
 10
563.5274449456
 20
129.7901532934
 30
0.0
 11
563.5274449456
 21
131.2901535393
 31
0.0
  0
LINE
  5
2FF
330
1F
100
AcDbEntity
  8
0
  6
Continuous
 62
     7
370
    25
100
AcDbLine
 10
563.5274449456
 20
131.2901535393
 30
0.0
 11
560.5274449195
 21
131.2901535393
 31
0.0
  0
LINE
  5
300
330
1F
100
AcDbEntity
  8
0
  6
Continuous
 62
     7
370
    25
100
AcDbLine
 10
550.0274448283
 20
151.1276536011
 30
0.0
 11
550.0274448283
 21
148.1276531094
 31
0.0
  0
LINE
  5
301
330
1F
100
AcDbEntity
  8
0
  6
Continuous
 62
     7
370
    25
100
AcDbLine
 10
550.0274448283
 20
148.1276531094
 30
0.0
 11
551.5274450741
 21
148.1276531094
 31
0.0
  0
LINE
  5
302
330
1F
100
AcDbEntity
  8
0
  6
Continuous
 62
     7
370
    25
100
AcDbLine
 10
551.5274450741
 20
148.1276531094
 30
0.0
 11
551.5274450741
 21
151.1276536011
 31
0.0
  0
LINE
  5
303
330
1F
100
AcDbEntity
  8
0
  6
Continuous
 62
     7
370
    25
100
AcDbLine
 10
551.5274450741
 20
151.1276536011
 30
0.0
 11
550.0274448283
 21
151.1276536011
 31
0.0
  0
LINE
  5
304
330
1F
100
AcDbEntity
  8
0
  6
Continuous
 62
     7
370
    25
100
AcDbLine
 10
550.0274448283
 20
123.6276537501
 30
0.0
 11
550.0274448283
 21
120.6276532584
 31
0.0
  0
LINE
  5
305
330
1F
100
AcDbEntity
  8
0
  6
Continuous
 62
     7
370
    25
100
AcDbLine
 10
550.0274448283
 20
120.6276532584
 30
0.0
 11
551.5274450741
 21
120.6276532584
 31
0.0
  0
LINE
  5
306
330
1F
100
AcDbEntity
  8
0
  6
Continuous
 62
     7
370
    25
100
AcDbLine
 10
551.5274450741
 20
120.6276532584
 30
0.0
 11
551.5274450741
 21
123.6276537501
 31
0.0
  0
LINE
  5
307
330
1F
100
AcDbEntity
  8
0
  6
Continuous
 62
     7
370
    25
100
AcDbLine
 10
551.5274450741
 20
123.6276537501
 30
0.0
 11
550.0274448283
 21
123.6276537501
 31
0.0
  0
LINE
  5
308
330
1F
100
AcDbEntity
  8
0
  6
Continuous
 62
     7
370
    25
100
AcDbLine
 10
572.0274447091
 20
165.8776527592
 30
0.0
 11
547.0274452679
 21
165.8776527592
 31
0.0
  0
LINE
  5
309
330
1F
100
AcDbEntity
  8
0
  6
Continuous
 62
     7
370
    25
100
AcDbLine
 10
577.0274445973
 20
110.8776530572
 30
0.0
 11
577.0274445973
 21
160.8776538023
 31
0.0
  0
LINE
  5
30A
330
1F
100
AcDbEntity
  8
0
  6
Continuous
 62
     7
370
    25
100
AcDbLine
 10
547.0274452679
 20
105.8776541003
 30
0.0
 11
572.0274447091
 21
105.8776541003
 31
0.0
  0
LINE
  5
30B
330
1F
100
AcDbEntity
  8
0
  6
Continuous
 62
     7
370
    25
100
AcDbLine
 10
547.0274452679
 20
165.8776527592
 30
0.0
 11
547.0274452679
 21
155.8776529827
 31
0.0
  0
LINE
  5
30C
330
1F
100
AcDbEntity
  8
0
  6
Continuous
 62
     7
370
    25
100
AcDbLine
 10
547.0274452679
 20
115.8776538768
 30
0.0
 11
547.0274452679
 21
105.8776541003
 31
0.0
  0
LINE
  5
30D
330
1F
100
AcDbEntity
  8
0
  6
Continuous
 62
     7
370
    25
100
AcDbLine
 10
547.0274452679
 20
143.3776532621
 30
0.0
 11
547.0274452679
 21
128.3776535974
 31
0.0
  0
LINE
  5
30E
330
1F
100
AcDbEntity
  8
0
  6
Continuous
 62
     7
370
    25
100
AcDbLine
 10
441.9535302023
 20
114.7085526287
 30
0.0
 11
426.9535291405
 21
114.7085526287
 31
0.0
  0
LINE
  5
30F
330
1F
100
AcDbEntity
  8
0
  6
Continuous
 62
     7
370
    25
100
AcDbLine
 10
426.9535291405
 20
114.7085526287
 30
0.0
 11
426.9535291405
 21
111.5335524343
 31
0.0
  0
LINE
  5
310
330
1F
100
AcDbEntity
  8
0
  6
Continuous
 62
     7
370
    25
100
AcDbLine
 10
426.9535291405
 20
111.5335524343
 30
0.0
 11
441.9535302023
 21
111.5335524343
 31
0.0
  0
LINE
  5
311
330
1F
100
AcDbEntity
  8
0
  6
Continuous
 62
     7
370
    25
100
AcDbLine
 10
441.9535302023
 20
111.5335524343
 30
0.0
 11
441.9535302023
 21
114.7085526287
 31
0.0
  0
LINE
  5
312
330
1F
100
AcDbEntity
  8
0
  6
Continuous
 62
     7
370
    25
100
AcDbLine
 10
396.9535284141
 20
111.5335524343
 30
0.0
 11
411.9535294758
 21
111.5335524343
 31
0.0
  0
LINE
  5
313
330
1F
100
AcDbEntity
  8
0
  6
Continuous
 62
     7
370
    25
100
AcDbLine
 10
411.9535294758
 20
111.5335524343
 30
0.0
 11
411.9535294758
 21
114.7085526287
 31
0.0
  0
LINE
  5
314
330
1F
100
AcDbEntity
  8
0
  6
Continuous
 62
     7
370
    25
100
AcDbLine
 10
411.9535294758
 20
114.7085526287
 30
0.0
 11
396.9535284141
 21
114.7085526287
 31
0.0
  0
LINE
  5
315
330
1F
100
AcDbEntity
  8
0
  6
Continuous
 62
     7
370
    25
100
AcDbLine
 10
396.9535284141
 20
114.7085526287
 30
0.0
 11
396.9535284141
 21
111.5335524343
 31
0.0
  0
LINE
  5
316
330
1F
100
AcDbEntity
  8
0
  6
Continuous
 62
     7
370
    25
100
AcDbLine
 10
421.041029289
 20
90.6210528016
 30
0.0
 11
421.041029289
 21
105.6210524663
 31
0.0
  0
LINE
  5
317
330
1F
100
AcDbEntity
  8
0
  6
Continuous
 62
     7
370
    25
100
AcDbLine
 10
421.041029289
 20
105.6210524663
 30
0.0
 11
417.8660293274
 21
105.6210524663
 31
0.0
  0
LINE
  5
318
330
1F
100
AcDbEntity
  8
0
  6
Continuous
 62
     7
370
    25
100
AcDbLine
 10
417.8660293274
 20
105.6210524663
 30
0.0
 11
417.8660293274
 21
90.6210528016
 31
0.0
  0
LINE
  5
319
330
1F
100
AcDbEntity
  8
0
  6
Continuous
 62
     7
370
    25
100
AcDbLine
 10
417.8660293274
 20
90.6210528016
 30
0.0
 11
421.041029289
 21
90.6210528016
 31
0.0
  0
CIRCLE
  5
31A
330
1F
100
AcDbEntity
  8
0
  6
Continuous
 62
     7
370
    25
100
AcDbCircle
 10
438.5035293082
 20
137.1710526526
 30
0.0
 40
3.0
  0
CIRCLE
  5
31B
330
1F
100
AcDbEntity
  8
0
  6
Continuous
 62
     7
370
    25
100
AcDbCircle
 10
438.5035293082
 20
99.0710526526
 30
0.0
 40
3.0
  0
CIRCLE
  5
31C
330
1F
100
AcDbEntity
  8
0
  6
Continuous
 62
     7
370
    25
100
AcDbCircle
 10
400.4035293082
 20
99.0710526526
 30
0.0
 40
3.0
  0
CIRCLE
  5
31D
330
1F
100
AcDbEntity
  8
0
  6
Continuous
 62
     7
370
    25
100
AcDbCircle
 10
400.4035293082
 20
137.1710526526
 30
0.0
 40
3.0
  0
LINE
  5
31E
330
1F
100
AcDbEntity
  8
0
  6
Continuous
 62
     7
370
    25
100
AcDbLine
 10
435.9535292188
 20
119.2085526678
 30
0.0
 11
432.9535296584
 21
119.2085526678
 31
0.0
  0
LINE
  5
31F
330
1F
100
AcDbEntity
  8
0
  6
Continuous
 62
     7
370
    25
100
AcDbLine
 10
432.9535296584
 20
119.2085526678
 30
0.0
 11
432.9535296584
 21
117.7085526548
 31
0.0
  0
LINE
  5
320
330
1F
100
AcDbEntity
  8
0
  6
Continuous
 62
     7
370
    25
100
AcDbLine
 10
432.9535296584
 20
117.7085526548
 30
0.0
 11
435.9535292188
 21
117.7085526548
 31
0.0
  0
LINE
  5
321
330
1F
100
AcDbEntity
  8
0
  6
Continuous
 62
     7
370
    25
100
AcDbLine
 10
435.9535292188
 20
117.7085526548
 30
0.0
 11
435.9535292188
 21
119.2085526678
 31
0.0
  0
LINE
  5
322
330
1F
100
AcDbEntity
  8
0
  6
Continuous
 62
     7
370
    25
100
AcDbLine
 10
432.9535296584
 20
107.0335530936
 30
0.0
 11
435.9535292188
 21
107.0335530936
 31
0.0
  0
LINE
  5
323
330
1F
100
AcDbEntity
  8
0
  6
Continuous
 62
     7
370
    25
100
AcDbLine
 10
435.9535292188
 20
107.0335530936
 30
0.0
 11
435.9535292188
 21
108.5335524082
 31
0.0
  0
LINE
  5
324
330
1F
100
AcDbEntity
  8
0
  6
Continuous
 62
     7
370
    25
100
AcDbLine
 10
435.9535292188
 20
108.5335524082
 30
0.0
 11
432.9535296584
 21
108.5335524082
 31
0.0
  0
LINE
  5
325
330
1F
100
AcDbEntity
  8
0
  6
Continuous
 62
     7
370
    25
100
AcDbLine
 10
432.9535296584
 20
108.5335524082
 30
0.0
 11
432.9535296584
 21
107.0335530936
 31
0.0
  0
LINE
  5
326
330
1F
100
AcDbEntity
  8
0
  6
Continuous
 62
     7
370
    25
100
AcDbLine
 10
405.953528958
 20
108.5335524082
 30
0.0
 11
402.9535293976
 21
108.5335524082
 31
0.0
  0
LINE
  5
327
330
1F
100
AcDbEntity
  8
0
  6
Continuous
 62
     7
370
    25
100
AcDbLine
 10
402.9535293976
 20
108.5335524082
 30
0.0
 11
402.9535293976
 21
107.0335530936
 31
0.0
  0
LINE
  5
328
330
1F
100
AcDbEntity
  8
0
  6
Continuous
 62
     7
370
    25
100
AcDbLine
 10
402.9535293976
 20
107.0335530936
 30
0.0
 11
405.953528958
 21
107.0335530936
 31
0.0
  0
LINE
  5
329
330
1F
100
AcDbEntity
  8
0
  6
Continuous
 62
     7
370
    25
100
AcDbLine
 10
405.953528958
 20
107.0335530936
 30
0.0
 11
405.953528958
 21
108.5335524082
 31
0.0
  0
LINE
  5
32A
330
1F
100
AcDbEntity
  8
0
  6
Continuous
 62
     7
370
    25
100
AcDbLine
 10
405.953528958
 20
119.2085526678
 30
0.0
 11
402.9535293976
 21
119.2085526678
 31
0.0
  0
LINE
  5
32B
330
1F
100
AcDbEntity
  8
0
  6
Continuous
 62
     7
370
    25
100
AcDbLine
 10
402.9535293976
 20
119.2085526678
 30
0.0
 11
402.9535293976
 21
117.7085526548
 31
0.0
  0
LINE
  5
32C
330
1F
100
AcDbEntity
  8
0
  6
Continuous
 62
     7
370
    25
100
AcDbLine
 10
402.9535293976
 20
117.7085526548
 30
0.0
 11
405.953528958
 21
117.7085526548
 31
0.0
  0
LINE
  5
32D
330
1F
100
AcDbEntity
  8
0
  6
Continuous
 62
     7
370
    25
100
AcDbLine
 10
405.953528958
 20
117.7085526548
 30
0.0
 11
405.953528958
 21
119.2085526678
 31
0.0
  0
LINE
  5
32E
330
1F
100
AcDbEntity
  8
0
  6
Continuous
 62
     7
370
    25
100
AcDbLine
 10
424.0410291987
 20
99.6210524142
 30
0.0
 11
424.0410291987
 21
96.6210519224
 31
0.0
  0
LINE
  5
32F
330
1F
100
AcDbEntity
  8
0
  6
Continuous
 62
     7
370
    25
100
AcDbLine
 10
424.0410291987
 20
96.6210519224
 30
0.0
 11
425.5410294445
 21
96.6210519224
 31
0.0
  0
LINE
  5
330
330
1F
100
AcDbEntity
  8
0
  6
Continuous
 62
     7
370
    25
100
AcDbLine
 10
425.5410294445
 20
96.6210519224
 30
0.0
 11
425.5410294445
 21
99.6210524142
 31
0.0
  0
LINE
  5
331
330
1F
100
AcDbEntity
  8
0
  6
Continuous
 62
     7
370
    25
100
AcDbLine
 10
425.5410294445
 20
99.6210524142
 30
0.0
 11
424.0410291987
 21
99.6210524142
 31
0.0
  0
LINE
  5
332
330
1F
100
AcDbEntity
  8
0
  6
Continuous
 62
     7
370
    25
100
AcDbLine
 10
413.3660291718
 20
99.6210524142
 30
0.0
 11
413.3660291718
 21
96.6210519224
 31
0.0
  0
LINE
  5
333
330
1F
100
AcDbEntity
  8
0
  6
Continuous
 62
     7
370
    25
100
AcDbLine
 10
413.3660291718
 20
96.6210519224
 30
0.0
 11
414.8660294177
 21
96.6210519224
 31
0.0
  0
LINE
  5
334
330
1F
100
AcDbEntity
  8
0
  6
Continuous
 62
     7
370
    25
100
AcDbLine
 10
414.8660294177
 20
96.6210519224
 30
0.0
 11
414.8660294177
 21
99.6210524142
 31
0.0
  0
LINE
  5
335
330
1F
100
AcDbEntity
  8
0
  6
Continuous
 62
     7
370
    25
100
AcDbLine
 10
414.8660294177
 20
99.6210524142
 30
0.0
 11
413.3660291718
 21
99.6210524142
 31
0.0
  0
CIRCLE
  5
336
330
1F
100
AcDbEntity
  8
0
  6
Continuous
 62
     7
370
    25
100
AcDbCircle
 10
419.4535293082
 20
118.1210526526
 30
0.0
 40
37.50000000000001
  0
ENDSEC
  0
SECTION
  2
OBJECTS
  0
DICTIONARY
  5
C
330
0
100
AcDbDictionary
281
     1
  3
ACAD_GROUP
350
D
  3
ACAD_LAYOUT
350
1A
  3
ACAD_MLINESTYLE
350
17
  3
ACAD_PLOTSETTINGS
350
19
  3
ACAD_PLOTSTYLENAME
350
E
  3
ACAD_SCALELIST
350
47
  0
DICTIONARY
  5
D
102
{ACAD_REACTORS
330
C
102
}
330
C
100
AcDbDictionary
281
     1
  0
DICTIONARY
  5
1A
102
{ACAD_REACTORS
330
C
102
}
330
C
100
AcDbDictionary
281
     1
  3
Layout1
350
1E
  3
Layout2
350
26
  3
Model
350
22
  0
DICTIONARY
  5
17
102
{ACAD_REACTORS
330
C
102
}
330
C
100
AcDbDictionary
281
     1
  3
Standard
350
18
  0
DICTIONARY
  5
19
102
{ACAD_REACTORS
330
C
102
}
330
C
100
AcDbDictionary
281
     1
  0
ACDBDICTIONARYWDFLT
  5
E
102
{ACAD_REACTORS
330
C
102
}
330
C
100
AcDbDictionary
281
     1
  3
Normal
350
F
100
AcDbDictionaryWithDefault
340
F
  0
DICTIONARY
  5
47
102
{ACAD_REACTORS
330
C
102
}
330
C
100
AcDbDictionary
281
     1
  3
A0
350
48
  3
A1
350
49
  3
A2
350
4A
  3
A3
350
4B
  3
A4
350
4C
  3
A5
350
4D
  3
A6
350
4E
  3
A7
350
4F
  3
A8
350
50
  3
A9
350
51
  3
B0
350
52
  3
B1
350
53
  3
B2
350
54
  3
B3
350
55
  3
B4
350
56
  3
B5
350
57
  3
B6
350
58
  3
B7
350
59
  3
B8
350
5A
  3
B9
350
5B
  3
C0
350
5C
  3
C1
350
5D
  3
C2
350
5E
  3
C3
350
5F
  3
C4
350
60
  3
C5
350
61
  3
C6
350
62
  3
C7
350
63
  3
C8
350
64
  3
C9
350
65
  3
D0
350
66
  3
D1
350
67
  3
D2
350
68
  0
LAYOUT
  5
1E
102
{ACAD_REACTORS
330
1A
102
}
330
1A
100
AcDbPlotSettings
  1

  2
none_device
  4

  6

 40
0.0
 41
0.0
 42
0.0
 43
0.0
 44
0.0
 45
0.0
 46
0.0
 47
0.0
 48
0.0
 49
0.0
140
0.0
141
0.0
142
1.0
143
1.0
 70
   688
 72
     1
 73
     0
 74
     5
  7

 75
    16
147
1.0
148
0.0
149
0.0
100
AcDbLayout
  1
Layout1
 70
     1
 71
     1
 10
0.0
 20
0.0
 11
420.0
 21
297.0
 12
0.0
 22
0.0
 32
0.0
 14
1.0000000000E+20
 24
1.0000000000E+20
 34
1.0000000000E+20
 15
-1.0000000000E+20
 25
-1.0000000000E+20
 35
-1.0000000000E+20
146
0.0
 13
0.0
 23
0.0
 33
0.0
 16
1.0
 26
0.0
 36
0.0
 17
0.0
 27
1.0
 37
0.0
 76
     0
330
1B
  0
LAYOUT
  5
26
102
{ACAD_REACTORS
330
1A
102
}
330
1A
100
AcDbPlotSettings
  1

  2
none_device
  4

  6

 40
0.0
 41
0.0
 42
0.0
 43
0.0
 44
0.0
 45
0.0
 46
0.0
 47
0.0
 48
0.0
 49
0.0
140
0.0
141
0.0
142
1.0
143
1.0
 70
   688
 72
     1
 73
     0
 74
     5
  7

 75
    16
147
1.0
148
0.0
149
0.0
100
AcDbLayout
  1
Layout2
 70
     1
 71
     2
 10
0.0
 20
0.0
 11
0.0
 21
0.0
 12
0.0
 22
0.0
 32
0.0
 14
0.0
 24
0.0
 34
0.0
 15
0.0
 25
0.0
 35
0.0
146
0.0
 13
0.0
 23
0.0
 33
0.0
 16
1.0
 26
0.0
 36
0.0
 17
0.0
 27
1.0
 37
0.0
 76
     0
330
23
  0
LAYOUT
  5
22
102
{ACAD_REACTORS
330
1A
102
}
330
1A
100
AcDbPlotSettings
  1

  2
none_device
  4
Letter_(8.50_x_11.00_Inches)
  6

 40
6.35
 41
6.35
 42
6.35000508
 43
6.35000508
 44
215.9
 45
279.4
 46
0.0
 47
0.0
 48
0.0
 49
0.0
140
0.0
141
0.0
142
1.0
143
1.0
 70
  1712
 72
     1
 73
     0
 74
     0
  7

 75
     0
147
1.0
148
0.0
149
0.0
100
AcDbLayout
  1
Model
 70
     1
 71
     0
 10
0.0
 20
0.0
 11
609.6
 21
304.8
 12
0.0
 22
0.0
 32
0.0
 14
0.0
 24
0.0
 34
0.0
 15
609.6
 25
304.8
 35
0.0
146
0.0
 13
0.0
 23
0.0
 33
0.0
 16
1.0
 26
0.0
 36
0.0
 17
0.0
 27
1.0
 37
0.0
 76
     0
330
1F
331
29
  0
MLINESTYLE
  5
18
102
{ACAD_REACTORS
330
17
102
}
330
17
100
AcDbMlineStyle
  2
Standard
 70
     0
  3

 62
   256
 51
90.0
 52
90.0
 71
     2
 49
0.5
 62
   256
  6
BYLAYER
 49
-0.5
 62
   256
  6
BYLAYER
  0
ACDBPLACEHOLDER
  5
F
102
{ACAD_REACTORS
330
E
102
}
330
E
  0
SCALE
  5
48
102
{ACAD_REACTORS
330
47
102
}
330
47
100
AcDbScale
 70
     0
300
1:1
140
1.0
141
1.0
290
     1
  0
SCALE
  5
49
102
{ACAD_REACTORS
330
47
102
}
330
47
100
AcDbScale
 70
     0
300
1:2
140
1.0
141
2.0
290
     0
  0
SCALE
  5
4A
102
{ACAD_REACTORS
330
47
102
}
330
47
100
AcDbScale
 70
     0
300
1:4
140
1.0
141
4.0
290
     0
  0
SCALE
  5
4B
102
{ACAD_REACTORS
330
47
102
}
330
47
100
AcDbScale
 70
     0
300
1:5
140
1.0
141
5.0
290
     0
  0
SCALE
  5
4C
102
{ACAD_REACTORS
330
47
102
}
330
47
100
AcDbScale
 70
     0
300
1:8
140
1.0
141
8.0
290
     0
  0
SCALE
  5
4D
102
{ACAD_REACTORS
330
47
102
}
330
47
100
AcDbScale
 70
     0
300
1:10
140
1.0
141
10.0
290
     0
  0
SCALE
  5
4E
102
{ACAD_REACTORS
330
47
102
}
330
47
100
AcDbScale
 70
     0
300
1:16
140
1.0
141
16.0
290
     0
  0
SCALE
  5
4F
102
{ACAD_REACTORS
330
47
102
}
330
47
100
AcDbScale
 70
     0
300
1:20
140
1.0
141
20.0
290
     0
  0
SCALE
  5
50
102
{ACAD_REACTORS
330
47
102
}
330
47
100
AcDbScale
 70
     0
300
1:30
140
1.0
141
30.0
290
     0
  0
SCALE
  5
51
102
{ACAD_REACTORS
330
47
102
}
330
47
100
AcDbScale
 70
     0
300
1:40
140
1.0
141
40.0
290
     0
  0
SCALE
  5
52
102
{ACAD_REACTORS
330
47
102
}
330
47
100
AcDbScale
 70
     0
300
1:50
140
1.0
141
50.0
290
     0
  0
SCALE
  5
53
102
{ACAD_REACTORS
330
47
102
}
330
47
100
AcDbScale
 70
     0
300
1:100
140
1.0
141
100.0
290
     0
  0
SCALE
  5
54
102
{ACAD_REACTORS
330
47
102
}
330
47
100
AcDbScale
 70
     0
300
2:1
140
2.0
141
1.0
290
     0
  0
SCALE
  5
55
102
{ACAD_REACTORS
330
47
102
}
330
47
100
AcDbScale
 70
     0
300
4:1
140
4.0
141
1.0
290
     0
  0
SCALE
  5
56
102
{ACAD_REACTORS
330
47
102
}
330
47
100
AcDbScale
 70
     0
300
8:1
140
8.0
141
1.0
290
     0
  0
SCALE
  5
57
102
{ACAD_REACTORS
330
47
102
}
330
47
100
AcDbScale
 70
     0
300
10:1
140
10.0
141
1.0
290
     0
  0
SCALE
  5
58
102
{ACAD_REACTORS
330
47
102
}
330
47
100
AcDbScale
 70
     0
300
100:1
140
100.0
141
1.0
290
     0
  0
SCALE
  5
59
102
{ACAD_REACTORS
330
47
102
}
330
47
100
AcDbScale
 70
     0
300
1/128" = 1'-0"
140
0.0078125
141
12.0
290
     0
  0
SCALE
  5
5A
102
{ACAD_REACTORS
330
47
102
}
330
47
100
AcDbScale
 70
     0
300
1/64" = 1'-0"
140
0.015625
141
12.0
290
     0
  0
SCALE
  5
5B
102
{ACAD_REACTORS
330
47
102
}
330
47
100
AcDbScale
 70
     0
300
1/32" = 1'-0"
140
0.03125
141
12.0
290
     0
  0
SCALE
  5
5C
102
{ACAD_REACTORS
330
47
102
}
330
47
100
AcDbScale
 70
     0
300
1/16" = 1'-0"
140
0.0625
141
12.0
290
     0
  0
SCALE
  5
5D
102
{ACAD_REACTORS
330
47
102
}
330
47
100
AcDbScale
 70
     0
300
3/32" = 1'-0"
140
0.09375
141
12.0
290
     0
  0
SCALE
  5
5E
102
{ACAD_REACTORS
330
47
102
}
330
47
100
AcDbScale
 70
     0
300
1/8" = 1'-0"
140
0.125
141
12.0
290
     0
  0
SCALE
  5
5F
102
{ACAD_REACTORS
330
47
102
}
330
47
100
AcDbScale
 70
     0
300
3/16" = 1'-0"
140
0.1875
141
12.0
290
     0
  0
SCALE
  5
60
102
{ACAD_REACTORS
330
47
102
}
330
47
100
AcDbScale
 70
     0
300
1/4" = 1'-0"
140
0.25
141
12.0
290
     0
  0
SCALE
  5
61
102
{ACAD_REACTORS
330
47
102
}
330
47
100
AcDbScale
 70
     0
300
3/8" = 1'-0"
140
0.375
141
12.0
290
     0
  0
SCALE
  5
62
102
{ACAD_REACTORS
330
47
102
}
330
47
100
AcDbScale
 70
     0
300
1/2" = 1'-0"
140
0.5
141
12.0
290
     0
  0
SCALE
  5
63
102
{ACAD_REACTORS
330
47
102
}
330
47
100
AcDbScale
 70
     0
300
3/4" = 1'-0"
140
0.75
141
12.0
290
     0
  0
SCALE
  5
64
102
{ACAD_REACTORS
330
47
102
}
330
47
100
AcDbScale
 70
     0
300
1" = 1'-0"
140
1.0
141
12.0
290
     0
  0
SCALE
  5
65
102
{ACAD_REACTORS
330
47
102
}
330
47
100
AcDbScale
 70
     0
300
1-1/2" = 1'-0"
140
1.5
141
12.0
290
     0
  0
SCALE
  5
66
102
{ACAD_REACTORS
330
47
102
}
330
47
100
AcDbScale
 70
     0
300
3" = 1'-0"
140
3.0
141
12.0
290
     0
  0
SCALE
  5
67
102
{ACAD_REACTORS
330
47
102
}
330
47
100
AcDbScale
 70
     0
300
6" = 1'-0"
140
6.0
141
12.0
290
     0
  0
SCALE
  5
68
102
{ACAD_REACTORS
330
47
102
}
330
47
100
AcDbScale
 70
     0
300
1'-0" = 1'-0"
140
12.0
141
12.0
290
     0
  0
ENDSEC
  0
EOF
